<svg width="54" height="80" viewBox="0 0 54 80" fill="none" xmlns="http://www.w3.org/2000/svg">
<path d="M4.39534 79.6611L2.0978 78.3241C1.19062 77.7964 0.630424 76.6788 0.627384 75.0869L0.5 32.6842L11.7119 33.3789L6.67218 76.8577C6.67522 78.4497 3.4912 79.1334 4.39534 79.6611Z" fill="#546577"/>
<path d="M2.81641 41.5724L53.2419 12.4602L53.3479 47.3116C53.357 50.513 51.1063 54.4112 48.3201 56.0198L7.98127 79.3086C5.19704 80.9161 2.93154 79.6251 2.92246 76.4237L2.81641 41.5724Z" fill="#202931"/>
<path d="M51.7515 1.67588C51.9272 4.24743 51.7668 10.8291 48.9915 7.73624L11.7861 27.8699C9.00248 29.4767 8.44199 31.1931 8.45097 34.3918L2.81829 41.5717L0.520746 40.2377L0.500047 32.6842C0.488177 29.4856 2.74128 25.5873 5.52491 23.9805L45.8639 0.691676C47.2661 -0.117618 48.5349 -0.19173 49.454 0.338903L51.7515 1.67588Z" fill="#35414D"/>
<path d="M48.1578 2.02742C50.944 0.418871 53.2094 1.70985 53.2185 4.90909L53.2399 12.4602L2.8144 41.5724L2.793 34.0213C2.78393 30.822 5.03472 26.9237 7.81894 25.3163L48.1578 2.02742Z" fill="#181E25"/>
<path d="M8.29499 30.7238C9.21789 30.191 9.97414 30.6071 9.97715 31.6675C9.98015 32.7278 9.22878 34.0293 8.30588 34.5621C7.3895 35.0912 6.63973 34.6564 6.63673 33.596C6.63372 32.5356 7.37862 31.2529 8.29499 30.7238Z" fill="#7289A0"/>
<path d="M13.6583 27.6204C14.5812 27.0876 15.3374 27.5037 15.3404 28.5641C15.3434 29.6245 14.5921 30.9259 13.6692 31.4587C12.7528 31.9878 12.003 31.553 12 30.4926C11.997 29.4322 12.7419 28.1495 13.6583 27.6204Z" fill="#7289A0"/>
<path d="M19.0216 24.5172C19.9445 23.9843 20.7007 24.4004 20.7037 25.4608C20.7067 26.5212 19.9553 27.8226 19.0324 28.3554C18.1161 28.8845 17.3663 28.4497 17.3633 27.3893C17.3603 26.3289 18.1052 25.0462 19.0216 24.5172Z" fill="#7289A0"/>
<path d="M32.4907 37.2371C32.4049 37.2371 32.3175 37.2151 32.2377 37.1689C31.9958 37.0293 31.9122 36.7192 32.0524 36.4767L35.3599 30.7457C35.4995 30.5043 35.8096 30.4196 36.0521 30.5604C36.2941 30.7 36.3777 31.0101 36.2374 31.2526L32.93 36.9836C32.8365 37.1459 32.6661 37.2371 32.4907 37.2371Z" fill="#162830"/>
<path d="M22.4827 42.1444C22.3975 42.1444 22.3111 42.123 22.232 42.0773L18.9157 40.1848C18.6727 40.0462 18.588 39.7366 18.7271 39.4936C18.8651 39.2506 19.1747 39.1642 19.4183 39.305L22.7345 41.1976C22.9776 41.3361 23.0622 41.6457 22.9231 41.8887C22.8297 42.0526 22.6586 42.1444 22.4827 42.1444Z" fill="#162830"/>
<path d="M27.6501 39.5987C27.3708 39.5987 27.1442 39.3727 27.1431 39.0934L27.125 32.6547C27.1245 32.3749 27.3504 32.1472 27.6303 32.1461H27.632C27.9113 32.1461 28.1378 32.3721 28.1389 32.6514L28.1571 39.0901C28.1576 39.37 27.9317 39.5976 27.6518 39.5987C27.6512 39.5987 27.6507 39.5987 27.6501 39.5987Z" fill="#162830"/>
<path d="M41.0383 35.685C44.1688 33.8776 46.7192 35.3255 46.7294 38.9225C46.7345 40.721 46.1024 42.7196 45.0752 44.4931C44.0529 46.2637 42.6404 47.8121 41.0752 48.7157L34.3234 52.6138C31.6836 54.1378 29.4561 53.3391 28.8167 50.8977L32.3383 48.8646C32.7827 49.3126 33.5038 49.3554 34.3128 48.8883L41.0646 44.9903C42.4063 44.2157 43.4916 42.3359 43.4872 40.7944C43.4828 39.2528 42.3905 38.6302 41.0488 39.4048L34.297 43.3029C33.488 43.7699 32.7694 44.6438 32.329 45.6027L28.8086 47.6352C29.0641 46.3437 29.5844 45.0216 30.2864 43.8057C31.3087 42.035 32.7212 40.4867 34.2864 39.583L41.0383 35.685Z" fill="#162830"/>
<path d="M20.6522 47.4548C23.2926 45.9304 25.5204 46.7216 26.1593 49.165L22.6387 51.1976C22.1952 50.749 21.4748 50.7059 20.6628 51.1747L13.9109 55.0727C12.5742 55.8444 11.484 57.727 11.4883 59.2686C11.4927 60.8102 12.5901 61.4298 13.9267 60.6581L20.6786 56.7601C21.4906 56.2913 22.2085 55.4178 22.648 54.4594L26.1683 52.4271C25.914 53.72 25.3948 55.0446 24.6892 56.2629C23.6669 58.0336 22.2545 59.5818 20.6892 60.4856L13.9373 64.3836C10.8069 66.1909 8.25631 64.7319 8.24612 61.1405C8.24102 59.3419 8.87806 57.3462 9.90034 55.5755C10.9227 53.8048 12.3352 52.2565 13.9004 51.3529L20.6522 47.4548Z" fill="#162830"/>
<path d="M33.4232 44.8374C34.2736 44.3464 34.9636 44.7396 34.9664 45.7108C34.9691 46.6881 34.2836 47.8693 33.4331 48.3603L32.7216 48.7711L28.9182 50.967L26.0569 52.6188L22.2549 54.8139L21.542 55.2255C20.6915 55.7165 20.0067 55.3264 20.0039 54.3491C20.0012 53.3779 20.6815 52.1936 21.532 51.7026L22.2449 51.291L26.0472 49.0958L28.9095 47.4433L32.7116 45.2482L33.4232 44.8374Z" fill="#162830"/>
<path d="M33.6821 37.2634C33.5963 37.2634 33.5089 37.2414 33.4291 37.1952C33.1872 37.0555 33.1036 36.7454 33.2438 36.5029L36.5513 30.7719C36.6909 30.5305 37.001 30.4458 37.2435 30.5866C37.4855 30.7263 37.5691 31.0364 37.4288 31.2789L34.1214 37.0099C34.0279 37.1721 33.8575 37.2634 33.6821 37.2634Z" fill="#546577"/>
<path d="M23.6819 42.1706C23.5967 42.1706 23.5104 42.1492 23.4312 42.1036L20.1149 40.211C19.8719 40.0724 19.7872 39.7629 19.9263 39.5198C20.0644 39.2768 20.3739 39.1905 20.6175 39.3312L23.9337 41.2238C24.1768 41.3624 24.2615 41.6719 24.1224 41.915C24.0289 42.0788 23.8579 42.1706 23.6819 42.1706Z" fill="#546577"/>
<path d="M28.8415 39.6248C28.5622 39.6248 28.3357 39.3988 28.3346 39.1195L28.3164 32.6808C28.3159 32.401 28.5419 32.1733 28.8217 32.1722H28.8234C29.1027 32.1722 29.3293 32.3982 29.3304 32.6775L29.3485 39.1162C29.3491 39.3961 29.1231 39.6237 28.8432 39.6248C28.8426 39.6248 28.8421 39.6248 28.8415 39.6248Z" fill="#546577"/>
<path d="M42.2297 35.7111C45.3602 33.9037 47.9106 35.3517 47.9208 38.9486C47.9259 40.7472 47.2938 42.7457 46.2666 44.5192C45.2444 46.2898 43.8318 47.8382 42.2666 48.7418L35.5148 52.6399C32.875 54.1639 30.6475 53.3652 30.0081 50.9238L33.5297 48.8907C33.9741 49.3388 34.6952 49.3815 35.5042 48.9144L42.256 45.0164C43.5977 44.2418 44.683 42.3621 44.6786 40.8205C44.6742 39.2789 43.5819 38.6564 42.2402 39.431L35.4884 43.329C34.6794 43.7961 33.9608 44.6699 33.5204 45.6288L30 47.6613C30.2555 46.3698 30.7758 45.0477 31.4778 43.8318C32.5001 42.0611 33.9126 40.5128 35.4778 39.6091L42.2297 35.7111Z" fill="#FF492C"/>
<path d="M21.8436 47.481C24.484 45.9567 26.7118 46.7478 27.3507 49.1913L23.8301 51.2238C23.3866 50.7752 22.6662 50.7321 21.8542 51.2009L15.1023 55.099C13.7656 55.8707 12.6754 57.7533 12.6797 59.2949C12.6841 60.8364 13.7815 61.4561 15.1181 60.6844L21.87 56.7863C22.682 56.3175 23.3999 55.444 23.8394 54.4857L27.3597 52.4533C27.1054 53.7463 26.5863 55.0708 25.8806 56.2892C24.8583 58.0598 23.4459 59.6081 21.8806 60.5118L15.1287 64.4099C11.9983 66.2171 9.44771 64.7582 9.43753 61.1667C9.43243 59.3682 10.0695 57.3724 11.0917 55.6018C12.1142 53.831 13.5266 52.2827 15.0918 51.3791L21.8436 47.481Z" fill="#FF492C"/>
<path d="M34.6224 44.8637C35.4729 44.3727 36.1628 44.7659 36.1656 45.7371C36.1684 46.7143 35.4829 47.8956 34.6324 48.3866L33.9209 48.7973L30.1174 50.9932L27.2562 52.6451L23.4541 54.8401L22.7412 55.2517C21.8907 55.7427 21.2059 55.3526 21.2031 54.3753C21.2004 53.4042 21.8807 52.2198 22.7312 51.7288L23.4441 51.3172L27.2465 49.122L30.1087 47.4696L33.9109 45.2744L34.6224 44.8637Z" fill="#CC3722"/>
</svg>
