<svg width="50" height="50" viewBox="0 0 50 50" fill="none" xmlns="http://www.w3.org/2000/svg">
<g clip-path="url(#clip0_2319_8195)">
<path d="M10.8851 49.7628L9.51836 48.9679C8.88824 48.6028 8.49729 47.8225 8.49413 46.7143L8.44238 28.3568L9.80913 29.1517L14.1436 43.6609C14.1468 44.7675 10.2551 49.3961 10.8851 49.7628Z" fill="#546577"/>
<path d="M9.80874 29.1514L8.44238 28.3573L40.1405 10.0565L41.5068 10.8505L9.80874 29.1514Z" fill="#26404F"/>
<path d="M41.5066 10.8505C39.0481 23.9837 35.2563 35.8709 25.6837 35.0312C17.1318 38.6313 11.5456 36.2475 9.80859 29.1514C14.0218 25.0064 28.8002 17.6096 41.5066 10.8505Z" fill="#080B0F"/>
<path d="M41.5068 10.8503L28.2797 9.64014C27.6383 9.42528 30.0751 10.4046 29.3029 10.8505C28.5306 11.2964 27.8677 12.8066 27.2296 13.7598L9.80815 29.1511L8.44141 28.3579L22.0718 8.0085C22.7099 7.05696 23.4805 6.31865 24.2528 5.87276C25.025 5.42687 25.7988 5.27339 26.4402 5.48664L40.14 10.057L41.5068 10.8503Z" fill="#35414D"/>
<path d="M25.6198 6.66703C26.3921 6.22113 27.1653 6.0668 27.8064 6.28071L41.5067 10.8505L9.80859 29.1514L23.4382 8.80272C24.0761 7.85036 24.8475 7.11292 25.6198 6.66703Z" fill="#080B0F"/>
<path d="M36.3989 0.777421C35.8979 0.485546 35.4599 7.61552 34.6934 8.05804L19.8044 13.9979C18.2811 14.8773 17.0495 17.0089 17.0552 18.7602L18.342 42.5027C20.7581 43.3078 16.0954 47.318 14.5683 47.6605L13.5499 47.0692C13.0547 46.781 12.7478 46.169 12.744 45.3009L12.6612 15.5351C12.6555 13.7857 13.887 11.6541 15.4085 10.7747L33.4164 0.378188C34.1847 -0.0643313 34.8776 -0.105765 35.3805 0.18611L36.3989 0.777421Z" fill="#0D1116"/>
<path d="M34.436 0.969794C35.9594 0.0902964 37.1981 0.796254 37.203 2.54663L37.2874 32.3114C37.2924 34.0604 36.0617 36.192 34.5384 37.0715L16.5306 47.4683C15.0073 48.3478 13.7686 47.6418 13.7636 45.8928L13.6792 16.1281C13.6743 14.3777 14.9049 12.2461 16.4283 11.3666L34.436 0.969794Z" fill="#35414D"/>
<path d="M41.5067 10.8505L41.5587 29.2074C41.565 31.4381 39.9972 34.1537 38.056 35.2745L13.3863 49.5175C11.445 50.6383 9.86696 49.7389 9.86064 47.5083L9.80859 29.1514L25.6959 33.6824L41.5067 10.8505Z" fill="#202931"/>
<path d="M31.4389 11.4847C32.0364 12.1833 32.3362 13.1972 32.3399 14.5232C32.3423 15.3595 32.2323 16.2143 32.0099 17.0856C31.7858 17.9598 31.435 18.7739 30.9576 19.528C30.4801 20.282 29.8722 20.8712 29.1322 21.2985C28.5552 21.6316 28.104 21.7468 27.7805 21.6409C27.457 21.535 27.2596 21.3038 27.1883 20.9473C26.832 21.6576 26.4051 22.2795 25.9095 22.8119C25.4139 23.3444 24.8898 23.768 24.3357 24.088C23.4114 24.6216 22.6879 24.7144 22.167 24.3631C21.646 24.0139 21.3841 23.3214 21.3811 22.2856C21.3783 21.29 21.5688 20.3161 21.9525 19.3638C22.338 18.4105 22.8451 17.5607 23.4736 16.8123C24.1003 16.0649 24.768 15.4856 25.4713 15.0796C26.3376 14.5793 27.0769 14.4916 27.6909 14.8154L27.7426 14.4464C27.7649 14.262 27.8363 14.0734 27.9588 13.8836C28.0795 13.6928 28.2196 13.5533 28.3809 13.4602C28.5546 13.3599 28.7021 13.3434 28.8235 13.4146C28.9449 13.4838 29.0068 13.6237 29.0074 13.8353L28.9904 14.0651L28.4294 18.1758C28.3502 18.7141 28.3111 19.1686 28.3121 19.5395C28.3132 19.9123 28.3859 20.1791 28.5322 20.3409C28.6767 20.5037 28.8927 20.5001 29.1821 20.333C29.8977 19.9199 30.4473 19.2453 30.8329 18.3041C31.2184 17.3629 31.4086 16.2842 31.4051 15.0629C31.4017 13.8417 31.1269 12.9487 30.5824 12.3789C30.0363 11.81 29.3276 11.5511 28.4547 11.6029C27.5818 11.6547 26.6709 11.9545 25.7239 12.5013C24.5822 13.1605 23.5169 14.1147 22.5314 15.3619C21.546 16.6091 20.7611 17.9726 20.1751 19.4535C19.589 20.9343 19.2978 22.3317 19.3016 23.6457C19.3044 24.6271 19.5122 25.4478 19.9252 26.1076C20.3381 26.7654 20.9347 27.1497 21.7149 27.2563C22.4969 27.364 23.4237 27.1074 24.497 26.4877C25.202 26.0807 25.8139 25.6507 26.3326 25.1979C26.853 24.746 27.4469 24.173 28.116 23.4819C28.1843 23.4142 28.2474 23.3656 28.3053 23.3322C28.4333 23.2583 28.5369 23.2449 28.6178 23.291C28.6988 23.3372 28.7395 23.4267 28.7398 23.5597C28.7401 23.6524 28.7175 23.7543 28.6722 23.8673C28.6251 23.9812 28.5674 24.0771 28.4991 24.1569C27.2769 25.567 25.9433 26.6882 24.5 27.5216C23.3004 28.2142 22.2367 28.5134 21.3107 28.4162C20.3846 28.3211 19.6702 27.8878 19.1639 27.1244C18.6593 26.36 18.4053 25.3723 18.4019 24.1651C18.3976 22.6658 18.7286 21.0738 19.3949 19.3851C20.0612 17.6985 20.9544 16.1432 22.0799 14.7163C23.2018 13.2893 24.4161 12.2007 25.7209 11.4473C26.91 10.7608 28.0122 10.4192 29.0241 10.4264C30.0359 10.4336 30.8397 10.7871 31.4389 11.4847ZM27.2334 18.2487L27.5052 16.2387C26.9949 15.9217 26.3416 15.992 25.5454 16.4518C25.0491 16.7383 24.5847 17.1336 24.1522 17.6356C23.7198 18.1376 23.3718 18.7079 23.1066 19.3455C22.8431 19.9841 22.7115 20.6414 22.7134 21.3165C22.7156 22.0863 22.9014 22.5604 23.2726 22.7397C23.6437 22.9171 24.1231 22.8361 24.7123 22.4959C26.1206 21.6828 26.9616 20.2667 27.2334 18.2487Z" fill="#992618"/>
<path d="M32.0639 11.832C32.6614 12.5307 32.9612 13.5445 32.9649 14.8706C32.9673 15.7069 32.8573 16.5617 32.6349 17.4329C32.4108 18.3071 32.06 19.1213 31.5826 19.8753C31.1051 20.6294 30.4972 21.2186 29.7572 21.6458C29.1802 21.979 28.729 22.0941 28.4055 21.9882C28.082 21.8823 27.8846 21.6511 27.8133 21.2946C27.457 22.005 27.0301 22.6269 26.5345 23.1593C26.0389 23.6917 25.5148 24.1154 24.9607 24.4354C24.0364 24.969 23.3129 25.0617 22.792 24.7105C22.271 24.3613 22.0091 23.6688 22.0061 22.6329C22.0033 21.6374 22.1938 20.6635 22.5775 19.7112C22.963 18.7579 23.4701 17.908 24.0986 17.1596C24.7253 16.4122 25.393 15.833 26.0963 15.4269C26.9626 14.9267 27.7019 14.839 28.3159 15.1627L28.3676 14.7938C28.3899 14.6093 28.4613 14.4207 28.5838 14.2309C28.7045 14.0401 28.8446 13.9007 29.0059 13.8075C29.1796 13.7073 29.3271 13.6908 29.4485 13.762C29.5699 13.8312 29.6318 13.971 29.6324 14.1826L29.6154 14.4124L29.0544 18.5232C28.9752 19.0614 28.9361 19.516 28.9371 19.8868C28.9382 20.2596 29.0109 20.5265 29.1572 20.6883C29.3017 20.8511 29.5177 20.8475 29.8071 20.6804C30.5227 20.2673 31.0723 19.5926 31.4579 18.6514C31.8434 17.7102 32.0336 16.6315 32.0301 15.4103C32.0267 14.189 31.7519 13.296 31.2074 12.7262C30.6613 12.1574 29.9526 11.8984 29.0797 11.9502C28.2068 12.0021 27.2959 12.3019 26.3489 12.8487C25.2072 13.5078 24.1419 14.462 23.1564 15.7093C22.171 16.9564 21.3861 18.32 20.8001 19.8008C20.214 21.2817 19.9228 22.6791 19.9266 23.993C19.9294 24.9745 20.1372 25.7951 20.5502 26.455C20.9631 27.1128 21.5597 27.497 22.3399 27.6037C23.1219 27.7113 24.0487 27.4548 25.122 26.8351C25.827 26.4281 26.4389 25.9981 26.9576 25.5452C27.478 25.0933 28.0719 24.5203 28.741 23.8292C28.8093 23.7615 28.8724 23.713 28.9303 23.6796C29.0583 23.6057 29.1619 23.5923 29.2428 23.6384C29.3238 23.6845 29.3645 23.7741 29.3648 23.9071C29.3651 23.9998 29.3425 24.1016 29.2972 24.2146C29.2501 24.3286 29.1924 24.4245 29.1241 24.5043C27.9019 25.9144 26.5683 27.0356 25.125 27.8689C23.9254 28.5615 22.8617 28.8608 21.9357 28.7636C21.0096 28.6685 20.2952 28.2352 19.7889 27.4718C19.2843 26.7074 19.0303 25.7196 19.0269 24.5125C19.0226 23.0131 19.3537 21.4211 20.0199 19.7325C20.6862 18.0458 21.5794 16.4906 22.7049 15.0636C23.8268 13.6367 25.0411 12.548 26.3459 11.7947C27.535 11.1082 28.6372 10.7665 29.6491 10.7737C30.6609 10.781 31.4647 11.1344 32.0639 11.832ZM27.8584 18.596L28.1302 16.586C27.6199 16.269 26.9666 16.3394 26.1704 16.7991C25.6741 17.0857 25.2097 17.481 24.7772 17.983C24.3448 18.485 23.9968 19.0553 23.7316 19.6928C23.4681 20.3314 23.3365 20.9888 23.3384 21.6639C23.3406 22.4337 23.5264 22.9078 23.8976 23.0871C24.2687 23.2644 24.7481 23.1835 25.3373 22.8433C26.7456 22.0302 27.5866 20.6141 27.8584 18.596Z" fill="#FF492C"/>
</g>
<defs>
<clipPath id="clip0_2319_8195">
<rect width="50" height="50" fill="white"/>
</clipPath>
</defs>
</svg>
