<svg width="50" height="50" viewBox="0 0 50 50" fill="none" xmlns="http://www.w3.org/2000/svg">
<g clip-path="url(#clip0_3089_3590)">
<path d="M10.9198 49.788L9.48393 48.9524C8.91697 48.6226 8.56686 47.9241 8.56496 46.9291L8.48535 20.4276L15.4925 20.8618L12.3428 48.0359C12.3447 49.0308 10.3548 49.4582 10.9198 49.788Z" fill="#546577"/>
<path d="M9.93408 25.9827L41.4487 7.78772L41.515 29.5697C41.5207 31.5705 40.114 34.0069 38.3728 35.0123L13.162 49.5677C11.4219 50.5723 10.006 49.7655 10.0004 47.7647L9.93408 25.9827Z" fill="#202931"/>
<path d="M40.5162 1.04754C40.6261 2.65475 40.5258 6.76825 38.7913 4.83524L15.5389 17.4187C13.7992 18.4229 13.4489 19.4957 13.4545 21.4948L9.93422 25.9823L8.49832 25.1485L8.48538 20.4276C8.47796 18.4285 9.88609 15.9921 11.6258 14.9879L36.8366 0.432417C37.713 -0.073389 38.5059 -0.119708 39.0803 0.211935L40.5162 1.04754Z" fill="#35414D"/>
<path d="M38.2728 1.26727C40.0141 0.261936 41.4299 1.06879 41.4355 3.0683L41.4489 7.78774L9.9343 25.9827L9.92092 21.2633C9.91525 19.2638 11.3219 16.8273 13.062 15.8227L38.2728 1.26727Z" fill="#181E25"/>
<path d="M13.3572 19.2024C13.934 18.8694 14.4066 19.1294 14.4085 19.7922C14.4104 20.4549 13.9408 21.2683 13.364 21.6013C12.7913 21.932 12.3227 21.6602 12.3208 20.9975C12.3189 20.3347 12.7845 19.533 13.3572 19.2024Z" fill="#7289A0"/>
<path d="M16.7092 17.2628C17.286 16.9298 17.7587 17.1899 17.7605 17.8526C17.7624 18.5153 17.2928 19.3287 16.716 19.6617C16.1433 19.9924 15.6747 19.7206 15.6729 19.0579C15.671 18.3952 16.1365 17.5935 16.7092 17.2628Z" fill="#7289A0"/>
<path d="M20.0618 15.3232C20.6386 14.9902 21.1112 15.2503 21.1131 15.913C21.115 16.5757 20.6454 17.3891 20.0686 17.7222C19.4959 18.0528 19.0273 17.7811 19.0254 17.1183C19.0235 16.4556 19.4891 15.6539 20.0618 15.3232Z" fill="#7289A0"/>
<path d="M25.1981 21.6025C26.0905 21.0873 26.8164 21.501 26.8194 22.5263L26.8545 34.9361C26.8574 35.9614 26.1362 37.2107 25.2438 37.7259L14.3625 44.0083C13.4701 44.5235 12.7442 44.1098 12.7412 43.0844L12.7061 30.6746C12.7032 29.6493 13.4244 28.4 14.3168 27.8848L25.1981 21.6025Z" fill="#FF492C"/>
<path d="M37.9021 12.3904C38.6451 11.9615 39.2495 12.306 39.252 13.1596L39.2813 18.7471C39.2837 19.6008 38.6831 20.641 37.9402 21.07L30.3796 25.435C29.6367 25.864 29.0322 25.5195 29.0298 24.6658L29.0005 19.0783C28.9981 18.2246 29.5986 17.1845 30.3416 16.7555L37.9021 12.3904Z" fill="#546577"/>
<path d="M34.1324 18.6371C35.3109 17.9567 36.2701 18.5003 36.2739 19.8545L36.2743 19.9854C36.2747 20.1223 36.1797 20.2869 36.0605 20.3557L32.2229 22.5713C32.1037 22.6401 32.0081 22.5856 32.0077 22.4487L32.0073 22.3178C32.0035 20.9636 32.9565 19.316 34.1324 18.6371Z" fill="white"/>
<path d="M34.1252 15.895C34.6099 15.6152 35.0057 15.8439 35.0073 16.3978C35.0089 16.9547 34.6156 17.6359 34.131 17.9157C33.6462 18.1956 33.253 17.9684 33.2515 17.4115C33.2499 16.8576 33.6405 16.1749 34.1252 15.895Z" fill="white"/>
<path d="M37.9021 22.7059C38.6451 22.2769 39.2495 22.6214 39.252 23.475L39.2813 29.0626C39.2837 29.9163 38.6831 30.9564 37.9402 31.3854L30.3796 35.7505C29.6367 36.1794 29.0322 35.835 29.0298 34.9812L29.0005 29.3937C28.9981 28.5401 29.5986 27.4999 30.3416 27.071L37.9021 22.7059Z" fill="#546577"/>
<path d="M34.1324 28.9524C35.3109 28.272 36.2701 28.8156 36.2739 30.1698L36.2743 30.3007C36.2747 30.4376 36.1797 30.6022 36.0605 30.671L32.2229 32.8866C32.1037 32.9554 32.0081 32.9009 32.0077 32.764L32.0073 32.6331C32.0035 31.2789 32.9565 29.6313 34.1324 28.9524Z" fill="white"/>
<path d="M34.1252 26.2103C34.6099 25.9305 35.0057 26.1592 35.0073 26.7131C35.0089 27.27 34.6156 27.9512 34.131 28.231C33.6462 28.5109 33.253 28.2837 33.2515 27.7268C33.2499 27.1729 33.6405 26.4902 34.1252 26.2103Z" fill="white"/>
<path d="M19.7635 32.3016C22.0965 30.9546 23.9954 32.0307 24.003 34.7116L24.0037 34.9706C24.0045 35.2417 23.8164 35.5676 23.5804 35.7038L15.9835 40.0899C15.7475 40.2261 15.5582 40.1182 15.5574 39.8471L15.5567 39.5881C15.5491 36.9072 17.4356 33.6456 19.7635 32.3016Z" fill="white"/>
<path d="M19.7498 27.3614C20.7092 26.8075 21.4928 27.2602 21.4959 28.3567C21.4991 29.4592 20.7205 30.8078 19.7611 31.3617C18.8015 31.9157 18.0232 31.466 18.02 30.3635C18.0169 29.267 18.7902 27.9154 19.7498 27.3614Z" fill="white"/>
<path d="M15.4155 37.1942C15.3181 37.1376 15.1838 37.1452 15.0337 37.2319L8.14166 41.2111C7.83828 41.3862 7.59132 41.814 7.59229 42.1626L7.60312 45.98C7.6036 46.1532 7.66518 46.2753 7.76423 46.3328L8.56215 46.8047C8.46311 46.7471 8.40147 46.625 8.40099 46.4518L8.39016 42.6344C8.3892 42.2858 8.63616 41.858 8.93958 41.6828L15.8316 37.7037C15.9818 37.617 16.1159 37.6094 16.2134 37.666L15.4155 37.1942Z" fill="#181E25"/>
<path d="M15.8316 37.7037C16.1349 37.5286 16.3734 37.6761 16.3744 38.0247L16.3852 41.8421C16.3862 42.1907 16.1494 42.6126 15.846 42.7878L13.7222 44.0139L12.3971 46.4435L11.0726 45.5437L8.95393 46.7669C8.65053 46.9421 8.40195 46.8004 8.40096 46.4518L8.39014 42.6344C8.38915 42.2858 8.63612 41.858 8.93952 41.6828L15.8316 37.7037Z" fill="#2C3640"/>
<path d="M15.895 38.4503L8.87988 42.5005L8.88152 43.0838L15.895 39.0346V38.4503Z" fill="#7289A0"/>
<path d="M15.895 39.8044L8.87988 43.8546L8.88152 44.4379L15.895 40.3887V39.8044Z" fill="#7289A0"/>
<path d="M11.7336 43.5612L8.87988 45.2088L8.88152 45.792L11.7336 44.1454V43.5612Z" fill="#7289A0"/>
<path d="M12.4695 43.1358C12.5333 43.0989 12.5972 43.0901 12.6462 43.1177C12.676 43.1347 12.6963 43.1627 12.708 43.1986C12.7201 43.155 12.7386 43.1108 12.764 43.0674C12.813 42.9829 12.8769 42.9179 12.9409 42.8809C13.0047 42.8441 13.0684 42.8352 13.1173 42.8628C13.2158 42.9189 13.2163 43.1006 13.1185 43.2694L12.7155 43.9686L12.294 43.7283C12.1961 43.6725 12.1956 43.4909 12.2929 43.3223C12.3418 43.2376 12.4056 43.1727 12.4695 43.1358Z" fill="#FF492C"/>
<path d="M13.8215 42.3554C13.8854 42.3185 13.9493 42.3097 13.9982 42.3373C14.028 42.3543 14.0483 42.3823 14.0601 42.4182C14.0722 42.3746 14.0907 42.3304 14.1161 42.287C14.165 42.2025 14.229 42.1375 14.2929 42.1006C14.3567 42.0637 14.4205 42.0548 14.4694 42.0824C14.5678 42.1385 14.5684 42.3202 14.4705 42.489L14.0676 43.1882L13.6461 42.9479C13.5481 42.8921 13.5476 42.7105 13.6449 42.5419C13.6938 42.4572 13.7577 42.3923 13.8215 42.3554Z" fill="#FF492C"/>
<path d="M40.9939 15.9739L40.4834 15.6782C40.4485 15.6588 40.431 15.6084 40.4504 15.5347L40.9255 13.5511L41.436 13.8468L40.9609 15.8323C40.9435 15.906 40.9609 15.9545 40.9939 15.9739Z" fill="#CC3722"/>
<path d="M44.7981 6.64148C44.6565 6.56005 44.4607 6.57168 44.2454 6.69578L38.7387 9.8738C38.3102 10.122 37.9651 10.7211 37.967 11.2117L37.9767 14.952C37.9786 15.1963 38.064 15.3689 38.2036 15.4503L37.6931 15.1528C37.5535 15.0713 37.4662 14.8988 37.4662 14.6544L37.4546 10.9161C37.4546 10.4236 37.7997 9.82441 38.2282 9.57815L43.735 6.39821C43.9502 6.27411 44.1441 6.26248 44.2857 6.34391L44.7981 6.64148Z" fill="#181E25"/>
<path d="M44.2458 6.69557C44.6741 6.44827 45.0219 6.64644 45.0233 7.13864L45.0339 10.8771C45.0353 11.3693 44.6898 11.9691 44.2614 12.2164L43.0148 12.9362L41.1867 15.871C41.1587 15.9164 41.1266 15.9477 41.0953 15.9658C41.0091 16.0155 40.9294 15.965 40.9609 15.8318L41.4364 13.8475L38.7549 15.3956C38.3265 15.6429 37.9788 15.4433 37.9774 14.9511L37.9668 11.2127C37.9654 10.7205 38.3109 10.1221 38.7392 9.87477L44.2458 6.69557Z" fill="#FF492C"/>
<path d="M41.4968 9.15631C42.3763 8.64853 43.0916 9.05615 43.0944 10.0668C43.0973 11.0817 42.3867 12.3126 41.5072 12.8203C40.6239 13.3303 39.9086 12.9227 39.9058 11.9077C39.9029 10.8971 40.6135 9.66626 41.4968 9.15631Z" fill="white"/>
<path d="M41.153 10.1963C41.1859 10.1773 41.2196 10.1687 41.2504 10.175L42.2598 10.3879C42.3611 10.4078 42.3616 10.5786 42.2607 10.7175L41.2559 12.091C41.2252 12.1327 41.1915 12.163 41.1586 12.182C41.068 12.2344 40.9833 12.2006 40.983 12.0823L40.9785 10.4983C40.9782 10.38 41.0624 10.2487 41.153 10.1963Z" fill="#FF492C"/>
<path d="M20.9663 36.1465C20.9373 36.1633 20.9083 36.1772 20.8794 36.1873C20.8299 36.2031 20.7804 36.2117 20.742 36.2026C20.6974 36.197 20.659 36.1751 20.6205 36.1532C20.5932 36.1306 20.5647 36.1157 20.5374 36.0931C20.5101 36.0648 20.4766 36.04 20.4493 36.0117C20.4158 35.9798 20.3835 35.9486 20.3499 35.9111L20.3276 35.8913C20.3114 35.8636 20.2891 35.8438 20.2667 35.8126C20.3823 35.5438 20.4967 35.2758 20.6384 35.0233C20.6938 34.9287 20.7543 34.8482 20.8259 34.7827C20.874 34.7371 20.9259 34.6976 20.9776 34.6678C21.0373 34.6333 21.0967 34.6117 21.1497 34.6085C21.2215 34.6041 21.2823 34.6202 21.3368 34.6584C21.4473 34.7398 21.5022 34.9044 21.5027 35.099C21.5097 35.3866 21.3942 35.6994 21.2253 35.9179C21.1537 36.0033 21.0821 36.0631 21.0277 36.1073C21.0072 36.1215 20.9868 36.1347 20.9663 36.1465ZM19.1445 37.1911C19.1002 37.2167 19.0567 37.2362 19.0166 37.2499L18.9944 37.2557L18.9721 37.2629L18.9448 37.2587L18.9176 37.2559L18.8904 37.2531L18.8619 37.244L18.8346 37.2341L18.8135 37.2207L18.7911 37.2023L18.7688 37.1839L18.7465 37.1655L18.7303 37.1435L18.7129 37.1152L18.6967 37.0861L18.6806 37.0585L18.6693 37.0265C18.6644 37.0166 18.6643 37.0038 18.6581 36.9889L18.6468 36.9513L18.6418 36.9101L18.6354 36.8682L18.6304 36.8271L18.6303 36.783L18.6302 36.7646C18.6292 36.4013 18.8524 35.8936 19.1485 35.7226C19.2287 35.6763 19.3142 35.6547 19.4021 35.6674C19.469 35.6729 19.5235 35.7054 19.5732 35.7521C19.6725 35.847 19.778 35.944 19.8662 36.051C19.822 36.159 19.7728 36.2685 19.7235 36.3738C19.6854 36.4584 19.6423 36.553 19.598 36.6426C19.5598 36.7144 19.5155 36.7969 19.4662 36.8766L19.4391 36.9164L19.4169 36.9491C19.3515 37.0367 19.275 37.1065 19.1922 37.1614C19.1762 37.1721 19.1603 37.182 19.1445 37.1911ZM21.0495 34.1728L21.0383 34.1792L21.0272 34.1857L20.9889 34.2078L20.9778 34.2142C20.9234 34.2456 20.6923 34.3847 20.5222 34.6607C20.5061 34.6828 20.4951 34.7077 20.4791 34.7354C20.4298 34.8151 20.3744 34.9225 20.3251 35.0206C20.1835 35.3044 20.0741 35.5639 20.0741 35.5639C19.9636 35.4385 19.8257 35.2962 19.6595 35.1958C19.6434 35.1866 19.6211 35.181 19.605 35.1704C19.5715 35.1584 19.5393 35.1514 19.5009 35.155L19.4836 35.1594C19.4453 35.1616 19.4118 35.1624 19.3735 35.1717C19.3413 35.1775 19.3079 35.1911 19.2745 35.2033C19.2473 35.2133 19.2251 35.2261 19.1979 35.2418C19.1818 35.2511 19.1707 35.2575 19.1534 35.2675L19.1435 35.2732C19.115 35.2896 19.0879 35.3053 19.0607 35.3267C19.0335 35.3495 19.0051 35.3716 18.9841 35.3908C18.9569 35.4122 18.9347 35.4378 18.9063 35.46C18.8791 35.4884 18.8569 35.5141 18.836 35.539C18.8137 35.5646 18.7866 35.5988 18.7644 35.6244C18.7422 35.6571 18.72 35.6884 18.699 35.719C18.6768 35.7518 18.6546 35.7831 18.6386 35.8179L18.6103 35.8656C18.6004 35.8841 18.5832 35.9125 18.5721 35.9374L18.5561 35.9666L18.5512 35.9822L18.5451 35.9915L18.5401 36.0014L18.518 36.0512C18.502 36.086 18.4909 36.118 18.4799 36.15C18.4627 36.1912 18.4528 36.2225 18.4356 36.2637C18.4307 36.2794 18.4197 36.3043 18.4135 36.3263L18.4135 36.3334L18.3976 36.3867L18.3976 36.3924L18.3817 36.4457L18.3817 36.4528C18.3756 36.4748 18.3707 36.4976 18.3646 36.5253L18.3548 36.575L18.3438 36.6269L18.3438 36.6325C18.2781 37.0375 18.2969 37.5317 18.6985 37.7238C18.7146 37.7273 18.7258 37.7393 18.7432 37.7421C18.7593 37.7456 18.7754 37.7491 18.7927 37.7519C18.8088 37.7554 18.8249 37.7518 18.8422 37.7546C18.8583 37.7524 18.8744 37.7545 18.8917 37.7516C18.9078 37.748 18.919 37.7487 18.9351 37.7451C18.9524 37.7422 18.9635 37.7415 18.9796 37.7322C19.0179 37.7229 19.0624 37.7029 19.1057 37.6779C19.1502 37.6522 19.1885 37.6301 19.2318 37.5994C19.2651 37.5745 19.3034 37.5453 19.3368 37.5203C19.3529 37.504 19.364 37.4975 19.3751 37.4854C19.3911 37.4691 19.4022 37.457 19.4183 37.4477C19.4356 37.4306 19.4467 37.4185 19.4628 37.4035C19.4788 37.3871 19.4899 37.375 19.5072 37.3523C19.5232 37.3359 19.5343 37.3167 19.5504 37.3017C19.5664 37.2797 19.5775 37.2675 19.5948 37.2448C19.6108 37.2227 19.6219 37.2035 19.633 37.1843L19.649 37.1566L19.665 37.1274C19.7636 36.9695 19.9494 36.572 20.0762 36.284L20.1196 36.3343C20.137 36.3499 20.1532 36.3718 20.1693 36.3881C20.1979 36.4157 20.2252 36.4441 20.2574 36.4696C20.3183 36.5297 20.3791 36.5828 20.4461 36.6267C20.4944 36.6557 20.544 36.6768 20.5998 36.6831C20.7162 36.7021 20.8527 36.6653 20.9904 36.5859C21.0547 36.5487 21.1193 36.5023 21.1822 36.4478C21.2205 36.4129 21.2588 36.378 21.297 36.3317C21.4241 36.1943 21.5276 36.0207 21.6101 35.8408C21.7958 35.4234 21.8664 34.9915 21.7986 34.6565C21.7823 34.572 21.7598 34.4954 21.7324 34.4301C21.7049 34.3634 21.6713 34.3074 21.6266 34.2564C21.5944 34.2182 21.5608 34.1934 21.5174 34.1686C21.4889 34.1524 21.4567 34.1397 21.4233 34.1334C21.3898 34.1285 21.3576 34.1215 21.3241 34.1152C21.2907 34.116 21.2523 34.1183 21.214 34.1219C21.1979 34.1255 21.1806 34.1284 21.1645 34.132C21.1484 34.1342 21.1323 34.1435 21.1101 34.1506C21.0878 34.1564 21.0717 34.1656 21.0495 34.1728Z" fill="#FF492C"/>
</g>
<defs>
<clipPath id="clip0_3089_3590">
<rect width="50" height="50" fill="white"/>
</clipPath>
</defs>
</svg>
