<svg width="50" height="50" viewBox="0 0 50 50" fill="none" xmlns="http://www.w3.org/2000/svg">
<g clip-path="url(#clip0_3078_3114)">
<path d="M10.9198 49.788L9.48393 48.9524C8.91697 48.6226 8.56686 47.9241 8.56496 46.9291L8.48535 20.4276L15.4925 20.8618L12.3428 48.0359C12.3447 49.0308 10.3548 49.4582 10.9198 49.788Z" fill="#546577"/>
<path d="M9.93408 25.9827L41.4487 7.78772L41.515 29.5697C41.5207 31.5705 40.114 34.0069 38.3728 35.0123L13.162 49.5677C11.4219 50.5723 10.006 49.7655 10.0004 47.7647L9.93408 25.9827Z" fill="#202931"/>
<path d="M40.5162 1.04754C40.6261 2.65475 40.5258 6.76825 38.7913 4.83524L15.5389 17.4187C13.7992 18.4229 13.4489 19.4957 13.4545 21.4948L9.93422 25.9823L8.49832 25.1485L8.48538 20.4276C8.47796 18.4285 9.88609 15.9921 11.6258 14.9879L36.8366 0.432417C37.713 -0.073389 38.5059 -0.119708 39.0803 0.211935L40.5162 1.04754Z" fill="#35414D"/>
<path d="M38.2728 1.26727C40.0141 0.261936 41.4299 1.06879 41.4355 3.0683L41.4489 7.78774L9.9343 25.9827L9.92092 21.2633C9.91525 19.2638 11.3219 16.8273 13.062 15.8227L38.2728 1.26727Z" fill="#181E25"/>
<path d="M13.3572 19.2024C13.934 18.8694 14.4066 19.1294 14.4085 19.7922C14.4104 20.4549 13.9408 21.2683 13.364 21.6013C12.7913 21.932 12.3227 21.6602 12.3208 20.9975C12.3189 20.3347 12.7845 19.533 13.3572 19.2024Z" fill="#7289A0"/>
<path d="M16.7092 17.2628C17.286 16.9298 17.7587 17.1899 17.7605 17.8526C17.7624 18.5153 17.2928 19.3287 16.716 19.6617C16.1433 19.9924 15.6747 19.7206 15.6729 19.0579C15.671 18.3952 16.1365 17.5935 16.7092 17.2628Z" fill="#7289A0"/>
<path d="M20.0618 15.3232C20.6386 14.9902 21.1112 15.2503 21.1131 15.913C21.115 16.5757 20.6454 17.3891 20.0686 17.7222C19.4959 18.0528 19.0273 17.7811 19.0254 17.1183C19.0235 16.4556 19.4891 15.6539 20.0618 15.3232Z" fill="#7289A0"/>
<path d="M16.6096 25.4955C16.4359 25.3958 16.481 27.6554 16.2173 27.8081L15.8689 28.0627C15.343 28.3666 14.9695 27.9296 14.9712 28.5325L13.705 31.0037C13.7066 31.3044 12.7346 31.7966 12.9051 31.8963L12.5621 31.6965C12.3917 31.5968 12.2855 31.3861 12.284 31.0855L12.2759 28.3714C12.2743 27.7669 12.7004 27.0305 13.2261 26.7266L15.5897 25.3632C15.8533 25.2104 16.0929 25.1959 16.2666 25.2972L16.6096 25.4955Z" fill="#181E25"/>
<path d="M15.9318 25.5626C16.4574 25.2591 16.8848 25.5027 16.8865 26.1066L16.8942 28.822C16.8959 29.426 16.4713 30.1627 15.9458 30.4661L13.5826 31.8305C13.057 32.1339 12.6286 31.8898 12.6268 31.2858L12.6191 28.5704C12.6174 27.9665 13.0431 27.2304 13.5687 26.9269L15.9318 25.5626Z" fill="#FF492C"/>
<path d="M14.3122 30.1413C14.2816 30.1413 14.2508 30.1336 14.2223 30.1174L13.5976 29.7622C13.5101 29.7124 13.4794 29.6011 13.5293 29.5136C13.5789 29.4258 13.6902 29.3955 13.7778 29.4453L14.2451 29.711L15.6682 27.245C15.7186 27.1578 15.8302 27.1279 15.9173 27.1782C16.0045 27.2286 16.0344 27.3401 15.9841 27.4273L14.4703 30.0501C14.4365 30.1086 14.3752 30.1413 14.3122 30.1413Z" fill="#E6ECF2"/>
<path d="M22.1794 22.2799C22.0057 22.1802 22.0508 24.4398 21.7871 24.5925L21.4387 24.8471C20.9129 25.151 20.5394 24.714 20.541 25.3169L19.2748 27.7881C19.2765 28.0888 18.3045 28.5811 18.4749 28.6807L18.1319 28.4809C17.9615 28.3812 17.8554 28.1706 17.8538 27.8699L17.8457 25.1559C17.8441 24.5513 18.2702 23.8149 18.796 23.511L21.1595 22.1476C21.4232 21.9948 21.6628 21.9804 21.8364 22.0817L22.1794 22.2799Z" fill="#181E25"/>
<path d="M21.5017 22.3469C22.0273 22.0434 22.4547 22.287 22.4564 22.8909L22.4641 25.6063C22.4658 26.2103 22.0412 26.947 21.5156 27.2504L19.1524 28.6148C18.6268 28.9182 18.1984 28.6741 18.1967 28.0701L18.189 25.3547C18.1873 24.7508 18.6129 24.0147 19.1385 23.7112L21.5017 22.3469Z" fill="#2C3640"/>
<path d="M27.7487 19.0643C27.5751 18.9647 27.6201 21.2242 27.3564 21.377L27.0081 21.6315C26.4822 21.9354 26.1087 21.4984 26.1103 22.1014L24.8442 24.5725C24.8458 24.8732 23.8738 25.3655 24.0442 25.4652L23.7013 25.2653C23.5308 25.1656 23.4247 24.955 23.4231 24.6543L23.415 21.9403C23.4135 21.3357 23.8395 20.5993 24.3653 20.2955L26.7289 18.932C26.9925 18.7793 27.2321 18.7648 27.4058 18.8661L27.7487 19.0643Z" fill="#181E25"/>
<path d="M27.071 19.1315C27.5966 18.8281 28.024 19.0716 28.0257 19.6756L28.0334 22.391C28.0351 22.995 27.6105 23.7316 27.0849 24.0351L24.7218 25.3994C24.1962 25.7029 23.7677 25.4587 23.766 24.8548L23.7583 22.1394C23.7566 21.5354 24.1823 20.7993 24.7079 20.4959L27.071 19.1315Z" fill="#2C3640"/>
<path d="M33.3185 15.8486C33.1449 15.749 33.19 18.0085 32.9262 18.1613L32.5779 18.4158C32.052 18.7197 31.6785 18.2827 31.6802 18.8857L30.414 21.3568C30.4156 21.6575 29.4436 22.1498 29.6141 22.2495L29.2711 22.0496C29.1007 21.9499 28.9945 21.7393 28.993 21.4386L28.9849 18.7246C28.9833 18.12 29.4094 17.3836 29.9351 17.0798L32.2987 15.7163C32.5623 15.5636 32.8019 15.5491 32.9756 15.6504L33.3185 15.8486Z" fill="#181E25"/>
<path d="M32.6408 15.9157C33.1664 15.6123 33.5938 15.8558 33.5955 16.4598L33.6032 19.1752C33.6049 19.7791 33.1803 20.5158 32.6547 20.8193L30.2916 22.1836C29.766 22.4871 29.3375 22.2429 29.3358 21.639L29.3281 18.9236C29.3264 18.3196 29.7521 17.5835 30.2777 17.2801L32.6408 15.9157Z" fill="#2C3640"/>
<path d="M38.8879 12.6331C38.7142 12.5334 38.7593 14.7929 38.4956 14.9457L38.1472 15.2003C37.6214 15.5041 37.2478 15.0671 37.2495 15.6701L35.9833 18.1413C35.985 18.4419 35.013 18.9342 35.1834 19.0339L34.8404 18.834C34.67 18.7344 34.5639 18.5237 34.5623 18.2231L34.5542 15.509C34.5526 14.9045 34.9787 14.1681 35.5045 13.8642L37.868 12.5007C38.1317 12.348 38.3713 12.3335 38.5449 12.4348L38.8879 12.6331Z" fill="#181E25"/>
<path d="M38.2107 12.7C38.7362 12.3966 39.1636 12.6401 39.1653 13.2441L39.173 15.9595C39.1748 16.5634 38.7501 17.3001 38.2246 17.6036L35.8614 18.9679C35.3358 19.2714 34.9074 19.0272 34.9057 18.4233L34.898 15.7079C34.8962 15.1039 35.3219 14.3678 35.8475 14.0644L38.2107 12.7Z" fill="#2C3640"/>
<path d="M16.6096 32.2239C16.4359 32.1242 16.481 34.3838 16.2173 34.5365L15.8689 34.7911C15.343 35.095 14.9695 34.658 14.9712 35.2609L13.705 37.7321C13.7066 38.0328 12.7346 38.525 12.9051 38.6247L12.5621 38.4249C12.3917 38.3252 12.2855 38.1145 12.284 37.8139L12.2759 35.0998C12.2743 34.4953 12.7004 33.7589 13.2261 33.455L15.5897 32.0916C15.8533 31.9388 16.0929 31.9243 16.2666 32.0256L16.6096 32.2239Z" fill="#181E25"/>
<path d="M15.9323 32.2908C16.4579 31.9874 16.8853 32.2309 16.887 32.8349L16.8947 35.5503C16.8964 36.1543 16.4718 36.8909 15.9462 37.1944L13.5831 38.5587C13.0575 38.8622 12.629 38.618 12.6273 38.0141L12.6196 35.2987C12.6179 34.6947 13.0436 33.9586 13.5692 33.6552L15.9323 32.2908Z" fill="#2C3640"/>
<path d="M22.1794 29.0082C22.0057 28.9085 22.0508 31.1681 21.7871 31.3208L21.4387 31.5754C20.9129 31.8793 20.5394 31.4423 20.541 32.0452L19.2748 34.5164C19.2765 34.8171 18.3045 35.3093 18.4749 35.409L18.1319 35.2092C17.9615 35.1095 17.8554 34.8988 17.8538 34.5982L17.8457 31.8841C17.8441 31.2796 18.2702 30.5432 18.796 30.2393L21.1595 28.8759C21.4232 28.7231 21.6628 28.7086 21.8364 28.8099L22.1794 29.0082Z" fill="#181E25"/>
<path d="M21.5017 29.0754C22.0273 28.7719 22.4547 29.0155 22.4564 29.6194L22.4641 32.3349C22.4658 32.9388 22.0412 33.6755 21.5156 33.9789L19.1524 35.3433C18.6268 35.6467 18.1984 35.4026 18.1967 34.7986L18.189 32.0832C18.1873 31.4793 18.6129 30.7432 19.1385 30.4397L21.5017 29.0754Z" fill="#2C3640"/>
<path d="M33.3185 22.5768C33.1449 22.4771 33.19 24.7367 32.9262 24.8894L32.5779 25.144C32.052 25.4479 31.6785 25.0109 31.6802 25.6138L30.414 28.085C30.4156 28.3857 29.4436 28.8779 29.6141 28.9776L29.2711 28.7778C29.1007 28.6781 28.9945 28.4674 28.993 28.1668L28.9849 25.4527C28.9833 24.8482 29.4094 24.1118 29.9351 23.8079L32.2987 22.4445C32.5623 22.2917 32.8019 22.2772 32.9756 22.3785L33.3185 22.5768Z" fill="#181E25"/>
<path d="M32.6408 22.644C33.1664 22.3405 33.5938 22.5841 33.5955 23.188L33.6032 25.9035C33.6049 26.5074 33.1803 27.2441 32.6547 27.5475L30.2916 28.9119C29.766 29.2153 29.3375 28.9712 29.3358 28.3672L29.3281 25.6518C29.3264 25.0479 29.7521 24.3118 30.2777 24.0083L32.6408 22.644Z" fill="#2C3640"/>
<path d="M38.8879 19.3612C38.7142 19.2615 38.7593 21.5211 38.4956 21.6738L38.1472 21.9284C37.6214 22.2323 37.2478 21.7953 37.2495 22.3982L35.9833 24.8694C35.985 25.1701 35.013 25.6624 35.1834 25.762L34.8404 25.5622C34.67 25.4625 34.5639 25.2519 34.5623 24.9512L34.5542 22.2372C34.5526 21.6326 34.9787 20.8962 35.5045 20.5923L37.868 19.2289C38.1317 19.0761 38.3713 19.0617 38.5449 19.163L38.8879 19.3612Z" fill="#181E25"/>
<path d="M38.2102 19.4283C38.7358 19.1248 39.1631 19.3684 39.1649 19.9724L39.1726 22.6878C39.1743 23.2917 38.7497 24.0284 38.2241 24.3318L35.8609 25.6962C35.3353 25.9996 34.9069 25.7555 34.9052 25.1515L34.8975 22.4361C34.8958 21.8322 35.3214 21.0961 35.847 20.7926L38.2102 19.4283Z" fill="#2C3640"/>
<path d="M16.6096 38.9518C16.4359 38.8521 16.481 41.1117 16.2173 41.2644L15.8689 41.519C15.343 41.8229 14.9695 41.3859 14.9712 41.9888L13.705 44.46C13.7066 44.7607 12.7346 45.2529 12.9051 45.3526L12.5621 45.1528C12.3917 45.0531 12.2855 44.8424 12.284 44.5418L12.2759 41.8277C12.2743 41.2232 12.7004 40.4868 13.2261 40.1829L15.5897 38.8195C15.8533 38.6667 16.0929 38.6522 16.2666 38.7535L16.6096 38.9518Z" fill="#181E25"/>
<path d="M15.9318 39.0188C16.4574 38.7154 16.8848 38.959 16.8865 39.5629L16.8942 42.2783C16.8959 42.8823 16.4713 43.619 15.9458 43.9224L13.5826 45.2868C13.057 45.5902 12.6286 45.3461 12.6268 44.7421L12.6191 42.0267C12.6174 41.4228 13.0431 40.6867 13.5687 40.3832L15.9318 39.0188Z" fill="#FF492C"/>
<path d="M14.3122 43.5976C14.2816 43.5976 14.2508 43.5899 14.2223 43.5737L13.5976 43.2185C13.5101 43.1687 13.4794 43.0574 13.5293 42.9699C13.5789 42.8821 13.6902 42.8518 13.7778 42.9016L14.2451 43.1673L15.6682 40.7013C15.7186 40.6141 15.8302 40.5842 15.9173 40.6345C16.0045 40.6849 16.0344 40.7964 15.9841 40.8836L14.4703 43.5064C14.4365 43.5649 14.3752 43.5976 14.3122 43.5976Z" fill="#E6ECF2"/>
<path d="M22.1794 35.7363C22.0057 35.6367 22.0508 37.8962 21.7871 38.049L21.4387 38.3035C20.9129 38.6074 20.5394 38.1704 20.541 38.7734L19.2748 41.2445C19.2765 41.5452 18.3045 42.0375 18.4749 42.1372L18.1319 41.9373C17.9615 41.8376 17.8554 41.627 17.8538 41.3263L17.8457 38.6123C17.8441 38.0077 18.2702 37.2713 18.796 36.9675L21.1595 35.604C21.4232 35.4513 21.6628 35.4368 21.8364 35.5381L22.1794 35.7363Z" fill="#181E25"/>
<path d="M21.5017 35.8034C22.0273 35.4999 22.4547 35.7435 22.4564 36.3475L22.4641 39.0629C22.4658 39.6668 22.0412 40.4035 21.5156 40.7069L19.1524 42.0713C18.6268 42.3748 18.1984 42.1306 18.1967 41.5267L18.189 38.8113C18.1873 38.2073 18.6129 37.4712 19.1385 37.1678L21.5017 35.8034Z" fill="#FF492C"/>
<path d="M19.8821 40.3821C19.8514 40.3821 19.8206 40.3745 19.7922 40.3583L19.1675 40.003C19.0799 39.9533 19.0493 39.842 19.0991 39.7545C19.1488 39.6666 19.26 39.6364 19.3476 39.6861L19.8149 39.9518L21.2381 37.4858C21.2884 37.3986 21.4001 37.3688 21.4871 37.4191C21.5743 37.4695 21.6043 37.5809 21.5539 37.6681L20.0401 40.291C20.0063 40.3494 19.9451 40.3821 19.8821 40.3821Z" fill="#E6ECF2"/>
<path d="M27.7487 32.5208C27.5751 32.4211 27.6201 34.6806 27.3564 34.8334L27.0081 35.0879C26.4822 35.3918 26.1087 34.9548 26.1103 35.5578L24.8442 38.029C24.8458 38.3296 23.8738 38.8219 24.0442 38.9216L23.7013 38.7217C23.5308 38.622 23.4247 38.4114 23.4231 38.1108L23.415 35.3967C23.4135 34.7922 23.8395 34.0558 24.3653 33.7519L26.7289 32.3884C26.9925 32.2357 27.2321 32.2212 27.4058 32.3225L27.7487 32.5208Z" fill="#181E25"/>
<path d="M27.071 32.5877C27.5966 32.2842 28.024 32.5278 28.0257 33.1318L28.0334 35.8472C28.0351 36.4511 27.6105 37.1878 27.0849 37.4912L24.7218 38.8556C24.1962 39.1591 23.7677 38.9149 23.766 38.311L23.7583 35.5956C23.7566 34.9916 24.1823 34.2555 24.7079 33.9521L27.071 32.5877Z" fill="#2C3640"/>
<path d="M33.3185 29.3051C33.1449 29.2054 33.19 31.4649 32.9262 31.6177L32.5779 31.8723C32.052 32.1761 31.6785 31.7391 31.6802 32.3421L30.414 34.8133C30.4156 35.1139 29.4436 35.6062 29.6141 35.7059L29.2711 35.506C29.1007 35.4064 28.9945 35.1957 28.993 34.8951L28.9849 32.181C28.9833 31.5765 29.4094 30.8401 29.9351 30.5362L32.2987 29.1727C32.5623 29.02 32.8019 29.0055 32.9756 29.1068L33.3185 29.3051Z" fill="#181E25"/>
<path d="M32.6408 29.3721C33.1664 29.0687 33.5938 29.3122 33.5955 29.9162L33.6032 32.6316C33.6049 33.2356 33.1803 33.9722 32.6547 34.2757L30.2916 35.64C29.766 35.9435 29.3375 35.6993 29.3358 35.0954L29.3281 32.38C29.3264 31.776 29.7521 31.0399 30.2777 30.7365L32.6408 29.3721Z" fill="#FF492C"/>
<path d="M31.0212 33.9508C30.9906 33.9508 30.9598 33.9432 30.9313 33.927L30.3066 33.5717C30.219 33.522 30.1884 33.4107 30.2383 33.3232C30.2879 33.2354 30.3992 33.2051 30.4868 33.2549L30.9541 33.5206L32.3772 31.0546C32.4276 30.9673 32.5392 30.9375 32.6263 30.9878C32.7135 31.0382 32.7434 31.1496 32.693 31.2369L31.1793 33.8597C31.1455 33.9182 31.0842 33.9508 31.0212 33.9508Z" fill="#E6ECF2"/>
<path d="M27.7487 25.7925C27.5751 25.6928 27.6201 27.9524 27.3564 28.1051L27.0081 28.3597C26.4822 28.6636 26.1087 28.2266 26.1103 28.8295L24.8442 31.3007C24.8458 31.6014 23.8738 32.0936 24.0442 32.1933L23.7013 31.9935C23.5308 31.8938 23.4247 31.6831 23.4231 31.3825L23.415 28.6684C23.4135 28.0639 23.8395 27.3275 24.3653 27.0236L26.7289 25.6602C26.9925 25.5074 27.2321 25.4929 27.4058 25.5942L27.7487 25.7925Z" fill="#181E25"/>
<path d="M27.071 25.8595C27.5966 25.5561 28.024 25.7997 28.0257 26.4036L28.0334 29.119C28.0351 29.723 27.6105 30.4597 27.0849 30.7631L24.7218 32.1275C24.1962 32.4309 23.7677 32.1868 23.766 31.5828L23.7583 28.8674C23.7566 28.2635 24.1823 27.5274 24.7079 27.2239L27.071 25.8595Z" fill="#FF492C"/>
<path d="M25.4514 30.4383C25.4208 30.4383 25.39 30.4306 25.3615 30.4144L24.7368 30.0592C24.6492 30.0094 24.6186 29.8981 24.6684 29.8106C24.7181 29.7228 24.8294 29.6925 24.917 29.7423L25.3843 30.008L26.8074 27.542C26.8578 27.4548 26.9694 27.4249 27.0565 27.4752C27.1437 27.5256 27.1736 27.6371 27.1232 27.7243L25.6095 30.3471C25.5756 30.4056 25.5144 30.4383 25.4514 30.4383Z" fill="#E6ECF2"/>
<path d="M40.969 15.9739L40.4585 15.6782C40.4236 15.6588 40.4061 15.6084 40.4255 15.5347L40.9006 13.5511L41.4111 13.8468L40.936 15.8323C40.9186 15.906 40.936 15.9545 40.969 15.9739Z" fill="#CC3722"/>
<path d="M44.7732 6.64148C44.6316 6.56005 44.4358 6.57168 44.2205 6.69578L38.7138 9.8738C38.2853 10.122 37.9402 10.7211 37.9421 11.2117L37.9518 14.952C37.9537 15.1963 38.0391 15.3689 38.1787 15.4503L37.6682 15.1528C37.5286 15.0713 37.4413 14.8988 37.4413 14.6544L37.4297 10.9161C37.4297 10.4236 37.7748 9.82441 38.2033 9.57815L43.7101 6.39821C43.9253 6.27411 44.1192 6.26248 44.2608 6.34391L44.7732 6.64148Z" fill="#181E25"/>
<path d="M44.2209 6.69557C44.6492 6.44827 44.997 6.64644 44.9984 7.13864L45.009 10.8771C45.0104 11.3693 44.6649 11.9691 44.2365 12.2164L42.9899 12.9362L41.1618 15.871C41.1338 15.9164 41.1017 15.9477 41.0704 15.9658C40.9842 16.0155 40.9045 15.965 40.936 15.8318L41.4115 13.8475L38.73 15.3956C38.3016 15.6429 37.9539 15.4433 37.9525 14.9511L37.9419 11.2127C37.9405 10.7205 38.286 10.1221 38.7143 9.87477L44.2209 6.69557Z" fill="#FF492C"/>
<path d="M41.4719 9.15631C42.3514 8.64853 43.0667 9.05615 43.0695 10.0668C43.0724 11.0817 42.3618 12.3126 41.4823 12.8203C40.599 13.3303 39.8837 12.9227 39.8809 11.9077C39.878 10.8971 40.5886 9.66626 41.4719 9.15631Z" fill="white"/>
<path d="M41.1281 10.1963C41.161 10.1773 41.1947 10.1687 41.2255 10.175L42.2349 10.3879C42.3362 10.4078 42.3367 10.5786 42.2358 10.7175L41.231 12.091C41.2003 12.1327 41.1666 12.163 41.1337 12.182C41.0431 12.2344 40.9584 12.2006 40.9581 12.0823L40.9536 10.4983C40.9533 10.38 41.0375 10.2487 41.1281 10.1963Z" fill="#FF492C"/>
</g>
<defs>
<clipPath id="clip0_3078_3114">
<rect width="50" height="50" fill="white"/>
</clipPath>
</defs>
</svg>
