<?xml version="1.0" encoding="UTF-8"?><svg id="Layer_2" xmlns="http://www.w3.org/2000/svg" viewBox="0 0 1818 662"><defs><style>.cls-1{fill:#5f95ce;}.cls-1,.cls-2,.cls-3,.cls-4,.cls-5,.cls-6,.cls-7,.cls-8{stroke-width:0px;}.cls-2{fill:#f25022;}.cls-3{fill:#ffb900;}.cls-4{fill:#7fba00;}.cls-5{fill:#00a4ef;}.cls-6{fill:#000;}.cls-7{fill:#fff;}.cls-8{fill:#737373;}</style></defs><g id="Layer_1-2"><rect class="cls-7" width="1818" height="662"/><rect class="cls-1" width="316" height="662"/><path class="cls-7" d="M125.3,466.25c-4.15,0-7.76.66-10.84,1.98-3.08,1.26-5.62,3.02-7.63,5.28-2.07,2.2-3.61,4.81-4.62,7.82-1.01,3.02-1.51,6.28-1.51,9.8,0,3.02.41,5.97,1.23,8.86.82,2.89,1.95,5.72,3.39,8.48,1.44,2.7,3.17,5.34,5.18,7.92,2.01,2.51,4.24,4.87,6.69,7.07h-16.59c-4.21-4.33-7.41-9.17-9.61-14.51-2.26-5.4-3.39-11.97-3.39-19.7,0-5.53.82-10.65,2.45-15.36,1.57-4.71,3.9-8.8,6.97-12.25,3.08-3.46,6.88-6.16,11.4-8.1,4.52-2.01,9.71-3.02,15.55-3.02,5.34,0,10.18.63,14.51,1.88,4.34,1.19,8.42,3.05,12.25,5.56,3.83,2.45,7.51,5.56,11.03,9.33,3.52,3.77,7.1,8.2,10.74,13.29,4.52,6.35,8.39,11.59,11.59,15.74,3.2,4.08,6.22,7.35,9.05,9.8,2.76,2.39,5.56,4.08,8.39,5.09,2.76.94,5.97,1.41,9.61,1.41v-67.29h13.85v83.4h-6.69c-5.78,0-10.87-.63-15.27-1.89-4.4-1.26-8.58-3.33-12.53-6.22-3.96-2.89-7.92-6.66-11.87-11.31-3.96-4.71-8.42-10.46-13.38-17.25-3.52-4.9-6.88-8.98-10.08-12.25-3.2-3.33-6.41-6-9.61-8.01-3.2-2.01-6.44-3.42-9.71-4.24-3.33-.88-6.85-1.32-10.56-1.32ZM156.87,338.84c11.31,0,21.33,1.04,30.06,3.11,8.73,2.01,16.11,4.96,22.15,8.86,5.97,3.83,10.52,8.58,13.66,14.23,3.08,5.59,4.62,11.97,4.62,19.13,0,6.79-1.48,12.85-4.43,18.19-3.02,5.28-7.38,9.74-13.1,13.38-5.72,3.64-12.72,6.41-21.02,8.29-8.35,1.89-17.9,2.83-28.65,2.83-11.81,0-22.24-.97-31.29-2.92-9.05-2.01-16.62-4.93-22.71-8.76-6.16-3.83-10.78-8.58-13.85-14.23-3.14-5.72-4.71-12.25-4.71-19.6,0-28.33,23.09-42.5,69.27-42.5ZM158.37,354.67c-38.45,0-57.67,9.14-57.67,27.42,0,19.29,19.57,28.93,58.71,28.93,36.5,0,54.75-9.45,54.75-28.36s-18.6-27.99-55.79-27.99ZM125.3,258.17c-4.15,0-7.76.66-10.84,1.98-3.08,1.26-5.62,3.02-7.63,5.28-2.07,2.2-3.61,4.81-4.62,7.82-1.01,3.02-1.51,6.28-1.51,9.8,0,3.01.41,5.97,1.23,8.86.82,2.89,1.95,5.72,3.39,8.48,1.44,2.7,3.17,5.34,5.18,7.92,2.01,2.51,4.24,4.87,6.69,7.07h-16.59c-4.21-4.33-7.41-9.17-9.61-14.51-2.26-5.4-3.39-11.97-3.39-19.7,0-5.53.82-10.65,2.45-15.36,1.57-4.71,3.9-8.8,6.97-12.25,3.08-3.46,6.88-6.16,11.4-8.1,4.52-2.01,9.71-3.02,15.55-3.02,5.34,0,10.18.63,14.51,1.88,4.34,1.19,8.42,3.05,12.25,5.56,3.83,2.45,7.51,5.56,11.03,9.33,3.52,3.77,7.1,8.2,10.74,13.29,4.52,6.35,8.39,11.59,11.59,15.74,3.2,4.08,6.22,7.35,9.05,9.8,2.76,2.39,5.56,4.08,8.39,5.09,2.76.94,5.97,1.41,9.61,1.41v-67.29h13.85v83.4h-6.69c-5.78,0-10.87-.63-15.27-1.88-4.4-1.26-8.58-3.33-12.53-6.22-3.96-2.89-7.92-6.66-11.87-11.31-3.96-4.71-8.42-10.46-13.38-17.25-3.52-4.9-6.88-8.98-10.08-12.25-3.2-3.33-6.41-6-9.61-8.01-3.2-2.01-6.44-3.42-9.71-4.24-3.33-.88-6.85-1.32-10.56-1.32ZM89.86,146.78h89.24v-17.34h14.14v17.34h31.76v15.27h-31.76v63.52h-13.38c-6.66-5.9-13.76-11.87-21.3-17.9-7.6-6.03-15.3-11.78-23.09-17.25-7.79-5.53-15.55-10.62-23.28-15.27-7.79-4.71-15.24-8.67-22.33-11.87v-16.49ZM179.11,208.13v-46.08h-66.16c8.23,4.71,15.58,9.17,22.05,13.38,6.47,4.21,12.35,8.23,17.62,12.06,5.28,3.77,10.05,7.38,14.32,10.84,4.27,3.46,8.32,6.72,12.16,9.8Z"/><path class="cls-6" d="M512.05,526h-85.3v-151.94h81.9v21.4h-56.69v43.02h52.24v21.3h-52.24v44.93h60.08v21.3ZM561,526h-24.69v-160.63h24.69v160.63ZM605.5,394.72c-4.03,0-7.49-1.31-10.38-3.92-2.83-2.61-4.24-5.93-4.24-9.96s1.41-7.38,4.24-10.07c2.9-2.68,6.36-4.03,10.38-4.03s7.7,1.34,10.6,4.03c2.9,2.68,4.34,6.04,4.34,10.07,0,3.81-1.45,7.1-4.34,9.85-2.9,2.68-6.43,4.03-10.6,4.03ZM617.69,526h-24.58v-108.5h24.58v108.5ZM707.12,524.83c-4.8,2.4-11.13,3.6-18.97,3.6-21.05,0-31.58-10.1-31.58-30.3v-61.35h-18.12v-19.28h18.12v-25.11l24.58-6.99v32.11h25.96v19.28h-25.96v54.25c0,6.43,1.17,11.02,3.5,13.77,2.33,2.75,6.22,4.13,11.66,4.13,4.17,0,7.77-1.2,10.81-3.6v19.5ZM818.9,478.42h-73.96c.28,10.03,3.36,17.77,9.22,23.21,5.93,5.44,14.06,8.16,24.37,8.16,11.58,0,22.22-3.46,31.89-10.38v19.81c-9.89,6.22-22.96,9.32-39.2,9.32s-28.5-4.91-37.61-14.73c-9.04-9.89-13.56-23.77-13.56-41.64,0-16.88,4.98-30.62,14.94-41.22,10.03-10.67,22.46-16,37.3-16s26.31,4.77,34.44,14.3c8.12,9.54,12.18,22.78,12.18,39.73v9.43ZM795.17,461.05c-.07-8.83-2.15-15.68-6.25-20.55-4.1-4.95-9.75-7.42-16.95-7.42s-13.07,2.58-18.01,7.74c-4.87,5.16-7.88,11.9-9.01,20.24h50.22ZM929.94,470.9v55.1h-25.11v-151.94h46.09c17.45,0,30.97,4.06,40.58,12.18,9.6,8.12,14.41,19.57,14.41,34.33s-5.02,26.84-15.05,36.24c-10.03,9.39-23.59,14.09-40.69,14.09h-20.24ZM929.94,394.83v55.52h16.32c10.81,0,19.04-2.51,24.69-7.52,5.65-5.02,8.48-12.08,8.48-21.19,0-17.87-10.38-26.81-31.15-26.81h-18.33ZM1105.94,526h-23.84v-16.95h-.43c-7.48,13-18.47,19.5-32.95,19.5-10.66,0-19.03-2.9-25.11-8.69-6-5.79-9.01-13.46-9.01-22.99,0-20.48,11.8-32.42,35.39-35.81l32.21-4.56c0-15.47-7.34-23.2-22.03-23.2-12.93,0-24.59,4.45-34.97,13.35v-21.51c11.44-6.78,24.65-10.17,39.63-10.17,27.41,0,41.11,13.49,41.11,40.48v70.57ZM1082.2,472.7l-22.78,3.18c-7.06.92-12.39,2.65-16,5.19-3.53,2.47-5.29,6.85-5.29,13.14,0,4.59,1.62,8.37,4.87,11.34,3.32,2.9,7.74,4.35,13.25,4.35,7.48,0,13.66-2.61,18.54-7.84,4.94-5.3,7.41-11.94,7.41-19.92v-9.43ZM1198.97,440.92c-2.97-2.33-7.24-3.5-12.82-3.5-7.28,0-13.35,3.28-18.23,9.85-4.87,6.57-7.31,15.51-7.31,26.81v51.92h-24.58v-108.5h24.58v22.36h.43c2.4-7.63,6.07-13.56,11.02-17.8,5.01-4.31,10.59-6.46,16.74-6.46,4.45,0,7.84.67,10.17,2.01v23.31ZM1279.92,524.83c-4.8,2.4-11.13,3.6-18.97,3.6-21.05,0-31.57-10.1-31.57-30.3v-61.35h-18.12v-19.28h18.12v-25.11l24.58-6.99v32.11h25.96v19.28h-25.96v54.25c0,6.43,1.17,11.02,3.5,13.77,2.33,2.75,6.21,4.13,11.65,4.13,4.17,0,7.77-1.2,10.81-3.6v19.5ZM1397.74,526h-24.58v-61.14c0-20.27-7.17-30.41-21.51-30.41-7.48,0-13.67,2.83-18.54,8.48-4.87,5.58-7.31,12.64-7.31,21.19v61.88h-24.69v-108.5h24.69v18.01h.42c8.13-13.7,19.85-20.56,35.18-20.56,11.8,0,20.8,3.85,27.02,11.55,6.22,7.63,9.32,18.68,9.32,33.16v66.33ZM1519.7,478.42h-73.96c.29,10.03,3.36,17.77,9.22,23.21,5.94,5.44,14.06,8.16,24.37,8.16,11.59,0,22.22-3.46,31.89-10.38v19.81c-9.88,6.22-22.95,9.32-39.2,9.32s-28.5-4.91-37.61-14.73c-9.05-9.89-13.57-23.77-13.57-41.64,0-16.88,4.98-30.62,14.94-41.22,10.03-10.67,22.47-16,37.3-16s26.31,4.77,34.44,14.3c8.12,9.54,12.18,22.78,12.18,39.73v9.43ZM1495.97,461.05c-.07-8.83-2.16-15.68-6.25-20.55-4.1-4.95-9.75-7.42-16.96-7.42s-13.07,2.58-18.01,7.74c-4.87,5.16-7.88,11.9-9.01,20.24h50.23ZM1606.06,440.92c-2.97-2.33-7.24-3.5-12.82-3.5-7.28,0-13.36,3.28-18.23,9.85s-7.31,15.51-7.31,26.81v51.92h-24.58v-108.5h24.58v22.36h.42c2.41-7.63,6.08-13.56,11.02-17.8,5.02-4.31,10.6-6.46,16.74-6.46,4.45,0,7.85.67,10.18,2.01v23.31Z"/><path class="cls-8" d="M664.18,159.36v73.09h-12.67v-57.29h-.2l-22.66,57.29h-8.4l-23.22-57.29h-.15v57.29h-11.71v-73.09h18.17l20.97,54.17h.3l22.16-54.17h17.42ZM674.78,164.91c0-2.05.74-3.74,2.21-5.13,1.47-1.37,3.23-2.06,5.27-2.06,2.18,0,3.97.71,5.39,2.12,1.42,1.4,2.13,3.1,2.13,5.08s-.73,3.69-2.18,5.04c-1.45,1.35-3.24,2.05-5.34,2.05s-3.87-.69-5.32-2.06c-1.44-1.37-2.16-3.04-2.16-5.02ZM688.36,232.45h-12.32v-52.4h12.32v52.4ZM725.73,223.48c1.83,0,3.85-.42,6.07-1.27,2.21-.85,4.24-1.96,6.1-3.37v11.47c-1.96,1.12-4.19,1.96-6.69,2.55-2.5.58-5.24.86-8.23.86-7.71,0-13.96-2.44-18.79-7.31-4.82-4.87-7.23-11.1-7.23-18.68,0-8.43,2.47-15.36,7.38-20.83,4.92-5.45,11.9-8.19,20.92-8.19,2.32,0,4.65.3,7,.9,2.37.59,4.24,1.29,5.63,2.06v11.83c-1.89-1.39-3.84-2.47-5.83-3.23-1.99-.76-4.02-1.15-6.08-1.15-4.85,0-8.77,1.59-11.76,4.74-2.99,3.16-4.48,7.43-4.48,12.79s1.44,9.42,4.31,12.38c2.87,2.96,6.76,4.43,11.68,4.43M772.96,179.19c.98,0,1.88.07,2.65.2.78.14,1.45.3,1.99.51v12.49c-.64-.47-1.59-.93-2.82-1.35-1.23-.42-2.74-.64-4.51-.64-3.03,0-5.58,1.27-7.66,3.82-2.1,2.55-3.13,6.48-3.13,11.77v26.46h-12.32v-52.4h12.32v8.26h.2c1.12-2.86,2.82-5.09,5.09-6.7,2.28-1.61,5-2.42,8.2-2.42M778.28,207.02c0-8.66,2.43-15.53,7.33-20.59,4.88-5.06,11.68-7.6,20.36-7.6,8.18,0,14.57,2.44,19.16,7.31,4.6,4.87,6.9,11.45,6.9,19.76s-2.45,15.26-7.33,20.28c-4.88,5.03-11.54,7.55-19.96,7.55s-14.55-2.39-19.32-7.16c-4.77-4.77-7.15-11.28-7.15-19.54M791.11,206.63c0,5.48,1.23,9.66,3.72,12.54,2.47,2.89,6.02,4.33,10.65,4.33s7.89-1.44,10.22-4.33c2.35-2.89,3.52-7.17,3.52-12.84s-1.22-9.9-3.63-12.77c-2.42-2.88-5.83-4.31-10.21-4.31s-8.01,1.51-10.51,4.52c-2.5,3.01-3.74,7.29-3.74,12.88M850.38,193.84c0,1.78.56,3.15,1.67,4.16,1.12,1,3.6,2.27,7.43,3.79,4.92,1.98,8.38,4.2,10.36,6.65,1.99,2.47,2.97,5.45,2.97,8.95,0,4.92-1.89,8.88-5.68,11.88-3.79,2.99-8.91,4.48-15.34,4.48-2.18,0-4.58-.25-7.2-.8-2.64-.52-4.87-1.2-6.69-2.01v-12.13c2.23,1.56,4.65,2.81,7.23,3.72,2.59.91,4.92,1.37,7.03,1.37,2.79,0,4.83-.39,6.15-1.17,1.32-.78,1.98-2.1,1.98-3.93,0-1.69-.69-3.13-2.06-4.31-1.37-1.17-3.97-2.52-7.81-4.06-4.54-1.91-7.77-4.04-9.67-6.43-1.89-2.39-2.86-5.4-2.86-9.07,0-4.72,1.88-8.61,5.63-11.64,3.75-3.05,8.62-4.57,14.58-4.57,1.83,0,3.89.2,6.17.61,2.26.41,4.17.93,5.7,1.59v11.72c-1.62-1.08-3.53-2.03-5.7-2.81-2.18-.78-4.33-1.17-6.47-1.17-2.35,0-4.16.46-5.47,1.37-1.3.91-1.96,2.18-1.96,3.77M878.12,207.02c0-8.66,2.45-15.53,7.33-20.59,4.88-5.06,11.68-7.6,20.36-7.6,8.18,0,14.57,2.44,19.16,7.31,4.6,4.87,6.89,11.45,6.89,19.76s-2.45,15.26-7.33,20.28c-4.88,5.03-11.54,7.55-19.96,7.55s-14.55-2.39-19.32-7.16c-4.77-4.77-7.15-11.28-7.15-19.54M890.95,206.63c0,5.48,1.23,9.66,3.72,12.54,2.48,2.89,6.02,4.33,10.65,4.33s7.89-1.44,10.24-4.33,3.52-7.17,3.52-12.84-1.22-9.9-3.63-12.77c-2.43-2.88-5.83-4.31-10.21-4.31s-8.01,1.51-10.51,4.52c-2.5,3.01-3.74,7.29-3.74,12.88M972.79,190.17h-18.35v42.31h-12.47v-42.31h-8.75v-10.08h8.75v-7.29c0-5.5,1.79-10.01,5.37-13.53,3.58-3.52,8.16-5.28,13.77-5.28,1.49,0,2.82.09,3.97.24,1.15.15,2.18.39,3.06.69v10.66c-.41-.24-1.11-.52-2.15-.86-1.01-.34-2.18-.51-3.52-.51-2.59,0-4.56.81-5.95,2.42-1.38,1.61-2.08,4.01-2.08,7.16v6.33h18.35v-11.78l12.37-3.77v15.55h12.47v10.08h-12.47v24.51c0,3.23.59,5.5,1.76,6.84,1.17,1.32,3.01,2,5.53,2,.71,0,1.57-.17,2.57-.51,1-.34,1.88-.74,2.62-1.22v10.2c-.78.44-2.08.85-3.9,1.22-1.81.37-3.6.56-5.37.56-5.19,0-9.09-1.39-11.68-4.15-2.6-2.77-3.89-6.94-3.89-12.52v-26.92l-.02-.03Z"/><path class="cls-2" d="M484.83,135h-57.83v57.89h57.83v-57.89Z"/><path class="cls-4" d="M548.67,135h-57.83v57.89h57.83v-57.89Z"/><path class="cls-5" d="M484.83,198.92h-57.83v57.89h57.83v-57.89Z"/><path class="cls-3" d="M548.67,198.92h-57.83v57.89h57.83v-57.89Z"/></g></svg>