<svg width="30" height="27" viewBox="0 0 30 27" fill="none" xmlns="http://www.w3.org/2000/svg">
<path d="M26.9181 8.69858H19.0472L20.77 4.39237C21.0163 3.77886 21.0771 3.10653 20.9447 2.4588C20.8124 1.81107 20.4928 1.21646 20.0255 0.748769C19.7627 0.486231 19.4459 0.284041 19.0971 0.156243C18.7483 0.0284437 18.3758 -0.0219021 18.0056 0.00870099C17.6354 0.0393041 17.2763 0.150123 16.9532 0.333462C16.6301 0.516801 16.3508 0.768266 16.1347 1.07039L11.5322 7.51035C10.8453 8.46971 10.0814 9.37155 9.24806 10.2069L7.77394 11.6811C7.70682 11.7481 7.65359 11.8277 7.61731 11.9153C7.58102 12.003 7.5624 12.0969 7.5625 12.1918V23.2715C7.56239 23.4635 7.63843 23.6477 7.77394 23.7837L9.42525 25.4425C9.8459 25.8653 10.3462 26.2005 10.8973 26.4288C11.4483 26.657 12.0391 26.7737 12.6355 26.7721H21.6083C22.3167 26.7716 23.0099 26.5658 23.6039 26.1798C24.1979 25.7937 24.6674 25.2439 24.9556 24.5967L29.3571 14.6933C29.6387 14.0617 29.7833 13.3777 29.7815 12.6861V11.5634C29.7807 10.8041 29.4788 10.0761 28.942 9.53907C28.4053 9.00202 27.6774 8.69976 26.9181 8.69858Z" fill="#E64027"/>
<path d="M2.60129 10.7118C1.91139 10.7118 1.24974 10.9859 0.761902 11.4737C0.274064 11.9615 0 12.6232 0 13.3131V23.0944C0 23.7843 0.274064 24.4459 0.761902 24.9338C1.24974 25.4216 1.91139 25.6957 2.60129 25.6957C3.2912 25.6957 3.95285 25.4216 4.44069 24.9338C4.92853 24.4459 5.20259 23.7843 5.20259 23.0944V13.3131C5.20259 12.6232 4.92853 11.9615 4.44069 11.4737C3.95285 10.9859 3.2912 10.7118 2.60129 10.7118Z" fill="#E64027"/>
</svg>
