<svg width="25" height="25" viewBox="0 0 25 25" fill="none" xmlns="http://www.w3.org/2000/svg">
<circle cx="12.5" cy="12.5" r="12.5" fill="#E64027"/>
<circle cx="12.5" cy="12.5" r="12.5" fill="#E64027"/>
<path d="M14.0273 6.62183C14.1314 6.61325 14.236 6.62696 14.334 6.66284C14.4075 6.68978 14.4763 6.72834 14.5371 6.7771L14.5957 6.82983C14.7489 6.98341 14.854 7.17882 14.8975 7.39136C14.9408 7.60398 14.9206 7.82472 14.8398 8.02612V8.0271L14.0186 10.0798L13.7441 10.7654H18.2334C18.4629 10.7657 18.6834 10.857 18.8457 11.0193C18.9876 11.1613 19.0748 11.3477 19.0947 11.5457L19.0996 11.6316V12.1677C19.1001 12.3621 19.0695 12.5549 19.0098 12.739L18.9404 12.9197L16.8418 17.6404C16.7437 17.8606 16.584 18.0481 16.3818 18.1794C16.1798 18.3107 15.9441 18.3804 15.7031 18.3806H11.4248C11.2067 18.3812 10.9906 18.339 10.7891 18.2556C10.5875 18.1721 10.4039 18.049 10.25 17.8943L9.50781 17.1482V11.9949L10.165 11.3376C10.4773 11.0246 10.7704 10.693 11.042 10.3445L11.3066 9.98999L13.501 6.91968C13.5617 6.83483 13.6407 6.76416 13.7314 6.71265C13.8223 6.66117 13.9233 6.63043 14.0273 6.62183Z" stroke="white"/>
<path d="M6.63867 11.7252C6.83486 11.7253 7.02338 11.8033 7.16211 11.942C7.30075 12.0808 7.37891 12.2693 7.37891 12.4655V17.1276C7.37891 17.3237 7.30072 17.5122 7.16211 17.651C7.02338 17.7897 6.83486 17.8677 6.63867 17.8678C6.44241 17.8678 6.25401 17.7898 6.11523 17.651C5.97649 17.5122 5.89844 17.3238 5.89844 17.1276V12.4655L5.91309 12.3199C5.94156 12.1778 6.01122 12.046 6.11523 11.942C6.25401 11.8032 6.44241 11.7252 6.63867 11.7252Z" stroke="white"/>
</svg>
