<svg width="22" height="22" viewBox="0 0 22 22" fill="none" xmlns="http://www.w3.org/2000/svg">
<g clip-path="url(#clip0_2745_154)">
<path d="M5.04165 0H16.9583C19.7428 0 22 2.25723 22 5.04165V16.9583C22 19.7428 19.7428 22 16.9583 22H5.04165C2.25723 22 0 19.7428 0 16.9583V5.04165C0 2.25723 2.25723 0 5.04165 0Z" fill="white"/>
<path d="M15.3734 10.614L8.95675 6.48899C8.74401 6.35179 8.46038 6.41302 8.32318 6.62576C8.27527 6.70001 8.24987 6.78655 8.25 6.87493V15.1249C8.24957 15.3781 8.45445 15.5836 8.70757 15.584C8.79596 15.5841 8.88246 15.5587 8.95675 15.5108L15.3734 11.3858C15.5865 11.2493 15.6486 10.9658 15.5121 10.7526C15.4764 10.697 15.4291 10.6497 15.3734 10.614Z" fill="#992618"/>
</g>
<defs>
<clipPath id="clip0_2745_154">
<rect width="22" height="22" fill="white"/>
</clipPath>
</defs>
</svg>
