<svg width="28" height="27" viewBox="0 0 28 27" fill="none" xmlns="http://www.w3.org/2000/svg">
<path d="M24.3183 8.51935H16.5761L18.2773 4.2605C18.5162 3.66522 18.575 3.01276 18.4464 2.38427C18.3178 1.75579 18.0075 1.17902 17.554 0.725704C17.3002 0.471279 16.9941 0.275302 16.6569 0.151427C16.3198 0.0275523 15.9597 -0.0212415 15.6017 0.00844542C15.2438 0.0381324 14.8966 0.145586 14.5844 0.32332C14.2722 0.501054 14.0025 0.744794 13.794 1.03756L9.29306 7.34379C8.62253 8.28514 7.875 9.16906 7.05817 9.98642L6.48794 10.5572C6.17613 9.84456 5.6289 9.26095 4.93811 8.90436C4.24731 8.54778 3.455 8.43994 2.69418 8.59894C1.93335 8.75794 1.25033 9.17411 0.75975 9.77758C0.269174 10.3811 0.000914553 11.1351 0 11.9131V22.7602C0.000914553 23.5383 0.269174 24.2923 0.75975 24.8958C1.25033 25.4993 1.93335 25.9154 2.69418 26.0744C3.455 26.2334 4.24731 26.1256 4.93811 25.769C5.6289 25.4124 6.17613 24.8288 6.48794 24.1161L7.23154 24.8619C7.63992 25.2724 8.12545 25.598 8.66013 25.8197C9.19482 26.0415 9.76807 26.1551 10.3468 26.154H19.1252C19.813 26.1541 20.4862 25.9546 21.0631 25.5797C21.64 25.2048 22.096 24.6705 22.3759 24.0416L26.6832 14.3375C26.9527 13.7258 27.0911 13.0644 27.0895 12.3958V11.2962C27.0891 10.5603 26.7971 9.85463 26.2776 9.33403C25.758 8.81342 25.0534 8.52042 24.3183 8.51935ZM3.38619 24.79C2.84734 24.79 2.33057 24.5757 1.94955 24.1943C1.56853 23.8129 1.35448 23.2956 1.35448 22.7562V11.9091C1.35448 11.3697 1.56853 10.8523 1.94955 10.4709C2.33057 10.0895 2.84734 9.87524 3.38619 9.87524C3.92503 9.87524 4.44181 10.0895 4.82283 10.4709C5.20385 10.8523 5.4179 11.3697 5.4179 11.9091V22.7562C5.4179 23.2956 5.20385 23.8129 4.82283 24.1943C4.44181 24.5757 3.92503 24.79 3.38619 24.79ZM25.735 12.3958C25.7358 12.8761 25.6352 13.3511 25.4398 13.7897L21.1298 23.4829C20.9569 23.872 20.675 24.2026 20.3183 24.4346C19.9615 24.6666 19.5452 24.79 19.1198 24.79H10.3509C9.94839 24.7916 9.54957 24.7132 9.17755 24.5594C8.80554 24.4056 8.46774 24.1793 8.18374 23.8938L6.77238 22.4755V12.1897L8.01579 10.945C8.88565 10.0745 9.68209 9.13351 10.397 8.13156L14.8992 1.82669C14.9927 1.69462 15.1139 1.58458 15.2542 1.50426C15.3946 1.42393 15.5508 1.37525 15.7119 1.36162C15.8738 1.34868 16.0365 1.37094 16.1889 1.42688C16.3413 1.48281 16.4799 1.5711 16.595 1.68567C16.8607 1.95143 17.0425 2.28948 17.1179 2.65782C17.1933 3.02615 17.1589 3.40854 17.019 3.75747L14.9466 8.94645C14.9057 9.04924 14.8906 9.16049 14.9025 9.27049C14.9145 9.38049 14.9531 9.48589 15.0151 9.5775C15.0771 9.6691 15.1605 9.74413 15.2581 9.79603C15.3558 9.84793 15.4646 9.87512 15.5751 9.87524H24.3169C24.6928 9.87523 25.0533 10.0246 25.3192 10.2906C25.5851 10.5565 25.7347 10.9172 25.735 11.2935V12.3958Z" fill="#CCCCCE"/>
</svg>
