<svg width="293" height="77" viewBox="0 0 293 77" fill="none" xmlns="http://www.w3.org/2000/svg">
<g clip-path="url(#clip0_319_1496)">
<path d="M32.5861 76.5596L32.5859 0.55957L18.3701 0.559594L18.3703 76.5596L32.5861 76.5596Z" fill="#FF492C"/>
<path d="M14.8576 76.5381L14.8574 0.538086L0.641633 0.53811L0.641764 76.5381L14.8576 76.5381Z" fill="white"/>
<path d="M46.1794 40.0127L55.17 66.5367L64.0836 40.0127H73.5352V76.5687H66.3121V66.5367L67.0036 49.2847L57.6289 76.5687H52.711L43.2594 49.3607L43.951 66.6127V76.5687H36.8047L36.8047 40.0127H46.1794Z" fill="white"/>
<path d="M100.43 69.0447H87.828L85.4459 76.5687H77.7617L90.748 40.0127H97.4333L110.496 76.5687H102.812L100.43 69.0447ZM89.8259 62.9647H98.5859L94.2059 49.2847L89.8259 62.9647Z" fill="white"/>
<path d="M127.248 63.1927H121.485V76.5687H114.262V40.0127H127.248C131.398 40.0127 134.548 41.0007 136.776 42.9007C139.005 44.8007 140.158 47.5367 140.158 51.0327C140.158 53.5407 139.62 55.5927 138.621 57.2647C137.622 58.9367 136.008 60.2287 133.933 61.2167L141.464 76.1887V76.5687H133.703L127.248 63.1927ZM121.485 57.0367H127.325C129.169 57.0367 130.552 56.5807 131.551 55.5927C132.55 54.6047 133.011 53.3127 133.011 51.6407C133.011 49.8927 132.55 48.5247 131.628 47.5367C130.706 46.5487 129.246 46.0927 127.325 46.0927H121.562V57.0367H121.485Z" fill="white"/>
<path d="M157.062 61.9007L153.296 66.1567V76.5687H146.073V40.0127H153.296V56.5807L156.447 52.0207L165.361 40.0127L174.197 40.0127L161.826 56.2767L174.582 76.5687H166.052L157.062 61.9007Z" fill="white"/>
<path d="M198.864 60.6847H185.033V70.4887H201.246V76.5687H177.81V40.0127L201.17 40.0127V46.0927H185.033V54.8327H198.864V60.6847Z" fill="white"/>
<path d="M232.753 46.0927L221.995 46.0927V76.5687H214.772V46.0927H204.244V40.0127L232.676 40.0127V46.0927H232.753Z" fill="white"/>
<path d="M258.34 60.6847H244.508V70.4887H260.722V76.5687H237.285V40.0127L260.645 40.0127V46.0927H244.508V54.8327H258.34V60.6847Z" fill="white"/>
<path d="M278.396 63.1927H272.633V76.5687H265.41V40.0127H278.396C282.546 40.0127 285.696 41.0007 287.925 42.9007C290.153 44.8007 291.306 47.5367 291.306 51.0327C291.306 53.5407 290.768 55.5927 289.769 57.2647C288.77 58.9367 287.156 60.2287 285.082 61.2167L292.612 76.1887V76.5687H284.851L278.396 63.1927ZM272.633 57.0367H278.473C280.318 57.0367 281.701 56.5807 282.7 55.5927C283.699 54.6047 284.16 53.3127 284.16 51.6407C284.16 49.8927 283.699 48.5247 282.776 47.5367C281.854 46.5487 280.394 46.0927 278.473 46.0927H272.71V57.0367H272.633Z" fill="white"/>
<path d="M52.711 16.7562H41.4921V25.5722L54.5552 25.5722V29.5242L36.8047 29.5242L36.8047 0.948242L54.4784 0.948242V4.97624L41.4921 4.97624V12.8802L52.711 12.8802V16.7562Z" fill="white"/>
<path d="M72.6901 22.1524C72.6901 20.8604 72.3059 19.9484 71.4606 19.2644C70.6153 18.5804 69.0785 17.8964 66.9269 17.2124C64.6985 16.5284 63.008 15.7684 61.7017 14.9324C59.2427 13.3364 58.0132 11.1324 58.0132 8.54836C58.0132 6.26836 58.9353 4.36836 60.7027 2.84836C62.3932 1.32836 64.6985 0.568359 67.5417 0.568359C69.4627 0.568359 71.1532 0.948359 72.6132 1.63236C74.0732 2.39236 75.3027 3.38036 76.148 4.74836C76.9932 6.11636 77.4543 7.63636 77.4543 9.23236L72.7669 9.23236C72.7669 7.71236 72.3059 6.57236 71.4606 5.73636C70.5385 4.90036 69.309 4.44436 67.6185 4.44436C66.0817 4.44436 64.8522 4.82436 64.0069 5.50836C63.1617 6.19236 62.7006 7.18036 62.7006 8.39636C62.7006 9.46036 63.1617 10.2964 64.0838 10.9804C65.0059 11.6644 66.5427 12.3484 68.6174 13.0324C70.769 13.7164 72.4595 14.4764 73.7659 15.3124C75.0722 16.1484 75.9943 17.1364 76.609 18.2004C77.2238 19.2644 77.5311 20.5564 77.5311 22.0004C77.5311 24.3564 76.6859 26.2564 74.9185 27.7004C73.1511 29.0684 70.8459 29.8284 67.849 29.8284C65.8511 29.8284 64.0838 29.4484 62.3932 28.6884C60.7027 27.9284 59.4732 26.8644 58.5511 25.4964C57.629 24.1284 57.168 22.6084 57.168 20.7844H61.9322C61.9322 22.3804 62.4701 23.6724 63.469 24.5844C64.468 25.4964 65.928 25.9524 67.849 25.9524C69.4627 25.9524 70.769 25.5724 71.5374 24.8884C72.3059 24.2044 72.6901 23.2924 72.6901 22.1524Z" fill="white"/>
<path d="M102.428 20.1765C102.121 23.2165 101.045 25.5725 99.2009 27.3205C97.3567 28.9925 94.8209 29.9045 91.7472 29.9045C89.5956 29.9045 87.6746 29.3725 85.9841 28.3085C84.2935 27.2445 83.0641 25.7245 82.1419 23.7485C81.2198 21.7725 80.7588 19.4925 80.7588 16.8325V14.1725C80.7588 11.5125 81.2198 9.08053 82.1419 7.02853C83.0641 4.97653 84.3704 3.38053 86.0609 2.31653C87.7514 1.25253 89.7493 0.644531 91.9777 0.644531C94.9746 0.644531 97.4335 1.48053 99.2777 3.22853C101.122 4.90053 102.198 7.33253 102.505 10.4485H97.8177C97.5872 8.39653 97.0493 6.95253 96.1272 6.04053C95.2051 5.12853 93.8988 4.67253 92.1314 4.67253C90.0567 4.67253 88.5198 5.43253 87.3672 7.02853C86.2914 8.62453 85.6767 10.9045 85.6767 13.9445V16.4525C85.6767 19.5685 86.2146 21.9245 87.2904 23.5205C88.3662 25.1165 89.903 25.9525 91.9009 25.9525C93.7451 25.9525 95.1283 25.4965 96.1272 24.6605C97.0493 23.7485 97.6641 22.3045 97.8946 20.2525H102.428V20.1765Z" fill="white"/>
<path d="M121.869 22.8361L111.342 22.8361L109.113 29.4481H104.195L114.492 0.87207L118.718 0.87207L129.015 29.5241H124.097L121.869 22.8361ZM112.648 18.8841L120.563 18.8841L116.644 7.02807L112.648 18.8841Z" fill="white"/>
<path d="M136.852 18.8842V29.4482H132.088V0.948242L142.538 0.948242C145.612 0.948242 147.994 1.78424 149.762 3.45624C151.529 5.12824 152.451 7.33224 152.451 10.0682C152.451 12.8802 151.606 15.0842 149.838 16.6042C148.071 18.1242 145.612 18.9602 142.462 18.9602H136.852V18.8842ZM136.852 14.9322L142.538 14.9322C144.229 14.9322 145.535 14.5522 146.381 13.7162C147.303 12.8802 147.687 11.6642 147.687 10.1442C147.687 8.62424 147.226 7.40824 146.304 6.42024C145.382 5.43224 144.152 5.05224 142.615 4.97624L136.775 4.97624V14.9322H136.852Z" fill="white"/>
<path d="M172.585 16.7562H161.366V25.5722L174.429 25.5722V29.5242L156.679 29.5242V0.948242L174.352 0.948242V4.97624L161.366 4.97624V12.8802L172.585 12.8802V16.7562Z" fill="white"/>
<path d="M197.866 18.5042H192.564V29.4482H187.8V0.948242L197.405 0.948242C200.556 0.948242 203.015 1.70824 204.705 3.15224C206.396 4.59624 207.241 6.80024 207.241 9.53624C207.241 11.4362 206.78 13.0322 205.935 14.3242C205.089 15.6162 203.86 16.6042 202.246 17.2882L208.393 29.1442V29.3722H203.322L197.866 18.5042ZM192.564 14.5522L197.405 14.5522C199.019 14.5522 200.248 14.0962 201.17 13.2602C202.092 12.4242 202.553 11.2842 202.553 9.76424C202.553 8.24424 202.169 7.02824 201.324 6.19224C200.479 5.35624 199.249 4.90024 197.636 4.90024L192.641 4.90024V14.5522H192.564Z" fill="white"/>
<path d="M270.866 0.948242L278.704 22.8362L286.542 0.948242L292.689 0.948242V29.5242H288.002V20.1002L288.463 7.48424L280.395 29.5242H277.013L268.945 7.56024L269.406 20.1002V29.5242H264.719V0.948242L270.866 0.948242Z" fill="white"/>
<path d="M258.802 8.77624C258.418 7.78824 257.956 6.87624 257.342 5.96424C256.881 5.28024 256.42 4.74824 255.805 4.14024C255.421 3.76024 254.96 3.38024 254.499 3.07624C254.038 2.77224 253.576 2.46824 253.115 2.16424C252.654 1.93624 252.116 1.70824 251.579 1.48024C251.348 1.40424 251.118 1.32824 250.887 1.25224C250.656 1.17624 250.426 1.17624 250.119 1.10024C249.811 1.02424 249.581 1.02424 249.273 0.948242C249.196 0.948242 249.12 0.948242 249.12 0.948242C249.043 0.948242 249.043 0.948242 248.966 0.948242C248.812 0.948242 248.582 0.948242 248.428 0.948242C248.428 0.948242 248.351 0.948242 248.274 0.948242C247.506 0.948242 244.279 1.02424 241.896 3.15224C241.666 3.30424 241.512 3.53224 241.282 3.76024C240.59 4.36824 239.822 5.28024 239.13 6.11624C237.132 8.54824 235.595 10.9042 235.595 10.9042C234.059 8.62424 232.138 5.96424 229.832 3.60824C229.602 3.38024 229.294 3.15224 229.064 2.92424C228.603 2.54424 228.142 2.24024 227.604 2.01224C227.527 2.01224 227.45 1.93624 227.373 1.93624C226.835 1.70824 226.374 1.48024 225.836 1.32824C225.375 1.17624 224.914 1.10024 224.453 1.02424C224.069 0.948242 223.762 0.948242 223.378 0.948242C223.147 0.948242 222.993 0.948242 222.763 0.948242C222.686 0.948242 222.609 0.948242 222.609 0.948242C222.225 0.948242 221.841 0.948242 221.456 1.02424C221.072 1.10024 220.688 1.17624 220.381 1.25224C219.996 1.32824 219.689 1.48024 219.305 1.55624C218.921 1.70824 218.613 1.86024 218.306 2.01224C217.999 2.16424 217.614 2.39224 217.307 2.54424C217 2.77224 216.692 3.00024 216.385 3.22824C216.078 3.45624 215.77 3.68424 215.54 3.98824C215.386 4.14024 215.309 4.21624 215.155 4.36824C215.002 4.52024 214.771 4.74824 214.618 4.97624C214.541 5.05224 214.464 5.12824 214.387 5.20424C214.387 5.28024 214.31 5.28024 214.31 5.35624C214.31 5.35624 214.31 5.43224 214.233 5.43224L214.156 5.50824C214.08 5.66024 213.926 5.81224 213.849 5.96424C213.619 6.26824 213.465 6.57224 213.311 6.87624C213.081 7.25624 212.927 7.56024 212.696 7.94024C212.62 8.09224 212.466 8.32024 212.389 8.54824C212.389 8.54824 212.389 8.54824 212.389 8.62424C212.312 8.77624 212.235 9.00424 212.159 9.15624V9.23224C212.082 9.38424 212.005 9.61224 211.928 9.76424V9.84024C211.851 10.0682 211.774 10.2962 211.698 10.6002C211.621 10.7522 211.621 10.9802 211.544 11.1322C211.467 11.2842 211.467 11.5122 211.39 11.6642V11.7402C210.468 16.1482 210.699 22.2282 216.308 27.3202C216.539 27.4722 216.692 27.7002 216.923 27.8522C217.153 28.0042 217.384 28.1562 217.614 28.3082C217.845 28.4602 218.075 28.5362 218.306 28.6882C218.536 28.7642 218.767 28.9162 218.998 28.9922C219.228 29.0682 219.382 29.1442 219.612 29.2202C219.843 29.2962 219.996 29.3722 220.227 29.3722C220.765 29.5242 221.38 29.6002 221.994 29.6002C222.609 29.6002 223.147 29.6002 223.762 29.5242C224.223 29.4482 224.761 29.3722 225.222 29.2962C225.452 29.2202 225.606 29.2202 225.76 29.1442C225.99 29.0682 226.144 28.9922 226.374 28.9922C226.605 28.9162 226.759 28.8402 226.989 28.7642C227.22 28.6882 227.373 28.6122 227.604 28.4602C227.834 28.3842 227.988 28.2322 228.219 28.1562C228.449 28.0042 228.603 27.9282 228.833 27.7762C229.064 27.6242 229.218 27.4722 229.371 27.3202C229.448 27.2442 229.525 27.1682 229.602 27.0922C229.679 27.0162 229.755 26.9402 229.832 26.8642C231.215 25.6482 233.828 22.1522 235.595 19.5682C235.595 19.6442 236.133 20.4042 236.21 20.4802C236.441 20.7842 236.671 21.1642 236.902 21.4682C237.286 22.0002 237.67 22.5322 238.131 23.0642C238.976 24.2042 239.822 25.2682 240.744 26.2562C241.435 26.9402 242.127 27.5482 242.895 28.0042C245.278 29.5242 248.274 29.9042 251.041 29.2202C251.579 29.0682 252.116 28.9162 252.654 28.6122C254.422 27.8522 255.882 26.4842 257.034 24.8882C259.647 21.1642 260.646 16.4522 259.724 11.9682C259.493 10.8282 259.186 9.76424 258.802 8.77624ZM227.066 22.4562C226.912 22.5322 226.835 22.6842 226.682 22.7602C226.605 22.8362 226.451 22.9122 226.374 22.9882C225.452 23.5962 224.376 23.9002 223.224 23.9762C222.379 24.0522 221.533 23.9762 220.765 23.8242C220.688 23.8242 220.534 23.7482 220.458 23.7482C220.381 23.7482 220.304 23.6722 220.15 23.6722C219.996 23.5962 219.843 23.5202 219.766 23.4442C219.612 23.3682 219.535 23.2922 219.382 23.2162C219.228 23.1402 219.151 23.0642 218.998 22.9882C218.844 22.9122 218.767 22.8362 218.613 22.6842C218.46 22.6082 218.383 22.4562 218.229 22.3802C218.075 22.3042 217.999 22.1522 217.922 22.0762C217.845 21.9242 217.691 21.8482 217.614 21.6962C217.538 21.5442 217.384 21.4682 217.307 21.3162C217.23 21.1642 217.076 21.0882 217 20.9362C216.923 20.7842 216.846 20.6322 216.769 20.5562C216.692 20.4042 216.615 20.2522 216.539 20.1002C216.462 19.9482 216.385 19.7962 216.308 19.6442C216.231 19.4922 216.154 19.3402 216.078 19.1882C216.001 19.0362 215.924 18.8842 215.924 18.7322C215.847 18.5802 215.847 18.4282 215.77 18.2002C215.693 18.0482 215.693 17.8202 215.616 17.6682C215.54 17.5162 215.54 17.2882 215.54 17.1362C215.54 16.9842 215.463 16.7562 215.463 16.6042C215.463 16.4522 215.386 16.2242 215.386 16.0722C215.386 15.9202 215.386 15.6922 215.386 15.5402C215.386 15.4642 215.386 15.3882 215.386 15.3122C215.386 9.76424 220.458 3.91224 226.221 7.48424C227.143 8.01624 227.911 8.77624 228.603 9.68824C229.986 11.5122 231.446 13.4122 232.675 15.3122C232.061 16.3002 231.369 17.2882 230.678 18.2002C230.14 18.9602 229.525 19.7962 228.91 20.5562C228.372 21.1642 227.758 21.8482 227.066 22.4562ZM251.655 23.1402C250.656 23.6722 249.658 23.9002 248.889 24.0522C248.198 24.1282 247.506 24.1282 246.814 23.9762C246.123 23.8242 245.431 23.5962 244.893 23.2162C244.279 22.8362 243.741 22.3042 243.203 21.7722C242.819 21.3162 242.434 20.9362 242.05 20.4802C241.666 19.9482 241.205 19.4162 240.821 18.8842C240.36 18.2762 239.899 17.6682 239.438 16.9842C239.361 16.8322 239.284 16.7562 239.13 16.6042C238.9 16.1482 238.592 15.7682 238.285 15.2362C239.899 12.8042 241.512 10.3722 243.51 8.32024C244.279 7.56024 245.124 7.02824 246.123 6.72424C247.583 6.26824 249.273 6.26824 250.656 6.87624C251.655 7.33224 252.501 7.94024 253.269 8.77624C254.806 10.5242 255.574 12.8802 255.574 15.2362C255.651 18.7322 254.038 21.6962 251.655 23.1402Z" fill="#FF492C"/>
</g>
<defs>
<clipPath id="clip0_319_1496">
<rect width="292" height="76" fill="white" transform="translate(0.689453 0.568359)"/>
</clipPath>
</defs>
</svg>
