<svg width="51" height="51" viewBox="0 0 51 51" fill="none" xmlns="http://www.w3.org/2000/svg">
<g clip-path="url(#clip0_1327_4785)">
<path d="M11.3642 50.3235L9.92827 49.4879C9.36131 49.1581 9.0112 48.4596 9.0093 47.4647L8.92969 20.9631L15.9369 21.3973L12.7871 48.5714C12.789 49.5664 10.7991 49.9937 11.3642 50.3235Z" fill="#546577"/>
<path d="M10.3784 26.5182L41.893 8.32324L41.9593 30.1052C41.965 32.1061 40.5584 34.5425 38.8171 35.5478L13.6063 50.1032C11.8663 51.1079 10.4504 50.301 10.4447 48.3002L10.3784 26.5182Z" fill="#202931"/>
<path d="M40.9606 1.58306C41.0704 3.19027 40.9702 7.30377 39.2356 5.37076L15.9832 17.9542C14.2435 18.9584 13.8932 20.0312 13.8988 22.0303L10.3786 26.5178L8.94265 25.684L8.92972 20.9631C8.9223 18.964 10.3304 16.5276 12.0701 15.5234L37.281 0.967939C38.1573 0.462133 38.9503 0.415814 39.5247 0.747458L40.9606 1.58306Z" fill="#35414D"/>
<path d="M38.7171 1.80267C40.4584 0.797336 41.8742 1.6042 41.8799 3.6037L41.8933 8.32314L10.3786 26.5181L10.3653 21.7987C10.3596 19.7992 11.7663 17.3627 13.5063 16.3581L38.7171 1.80267Z" fill="#181E25"/>
<path d="M13.8015 19.738C14.3783 19.405 14.8509 19.6651 14.8528 20.3278C14.8547 20.9905 14.3851 21.8039 13.8083 22.1369C13.2356 22.4676 12.767 22.1959 12.7651 21.5331C12.7633 20.8704 13.2288 20.0687 13.8015 19.738Z" fill="#7289A0"/>
<path d="M17.1536 17.7983C17.7304 17.4653 18.203 17.7254 18.2049 18.3881C18.2067 19.0508 17.7372 19.8642 17.1604 20.1972C16.5877 20.5279 16.1191 20.2562 16.1172 19.5934C16.1153 18.9307 16.5809 18.129 17.1536 17.7983Z" fill="#7289A0"/>
<path d="M20.5061 15.8589C21.0829 15.5259 21.5555 15.7859 21.5574 16.4486C21.5593 17.1114 21.0897 17.9248 20.5129 18.2578C19.9402 18.5885 19.4716 18.3167 19.4697 17.654C19.4679 16.9912 19.9334 16.1895 20.5061 15.8589Z" fill="#7289A0"/>
<path d="M30.8017 30.5223C30.6521 30.6087 30.5024 30.6808 30.3527 30.7328C30.0971 30.8142 29.8414 30.859 29.6431 30.8118C29.4128 30.7831 29.2142 30.6699 29.0157 30.5568C28.8747 30.4398 28.7274 30.3632 28.5863 30.2462C28.4452 30.0999 28.2722 29.972 28.1311 29.8256C27.958 29.661 27.7912 29.5001 27.618 29.3061L27.5026 29.2037C27.4191 29.0609 27.3037 28.9585 27.1881 28.7974C27.7853 27.4091 28.3761 26.0245 29.1079 24.7202C29.3943 24.2315 29.7065 23.8161 30.0764 23.4776C30.325 23.242 30.5931 23.0379 30.86 22.8838C31.1683 22.7058 31.4752 22.5944 31.7493 22.5779C32.1202 22.5548 32.4338 22.6383 32.7157 22.8356C33.2861 23.2558 33.5698 24.1061 33.5727 25.1112C33.6089 26.5967 33.0123 28.2124 32.1394 29.3411C31.7697 29.7823 31.3997 30.0915 31.119 30.3197C31.0132 30.393 30.9075 30.4612 30.8017 30.5223ZM21.3915 35.9179C21.1625 36.0501 20.9381 36.1509 20.7309 36.2218L20.6159 36.2515L20.5009 36.2885L20.3601 36.2669L20.2194 36.2526L20.0787 36.2383L19.9315 36.191L19.7907 36.14L19.6816 36.0707L19.5662 35.9757L19.4508 35.8807L19.3355 35.7856L19.252 35.6721L19.1621 35.5256L19.0785 35.3755L18.995 35.2327L18.937 35.0678C18.9113 35.0165 18.9111 34.9505 18.8789 34.8735L18.8208 34.6792L18.7946 34.4665L18.762 34.2502L18.7358 34.0375L18.7352 33.8101L18.7349 33.7147C18.7296 31.8384 19.8826 29.216 21.4123 28.3327C21.8265 28.0935 22.2682 27.9819 22.7221 28.0471C23.0675 28.0755 23.3494 28.2434 23.6059 28.4848C24.1189 28.9749 24.6639 29.4759 25.1195 30.0286C24.8909 30.5868 24.6367 31.1524 24.3824 31.6961C24.1854 32.1332 23.963 32.6217 23.734 33.0845C23.5368 33.4555 23.3078 33.8817 23.0532 34.2933L22.9131 34.4991L22.7985 34.668C22.4608 35.1201 22.0654 35.4807 21.6377 35.7644C21.5554 35.8197 21.4732 35.8708 21.3915 35.9179ZM31.2313 20.3272L31.1738 20.3604L31.1163 20.3936L30.9185 20.5078L30.861 20.541C30.5801 20.7032 29.3862 21.4219 28.5077 22.8476C28.4249 22.9615 28.3677 23.0901 28.285 23.2334C28.0304 23.645 27.7442 24.1997 27.4898 24.7066C26.7585 26.1722 26.1932 27.5127 26.1932 27.5127C25.6222 26.865 24.9103 26.1297 24.0518 25.6112C23.9685 25.5638 23.8534 25.5348 23.7701 25.48C23.5972 25.4181 23.4308 25.3819 23.2326 25.4008L23.1432 25.4231C22.945 25.4347 22.7723 25.4388 22.5742 25.4871C22.408 25.5169 22.2355 25.5871 22.0631 25.6499C21.9225 25.7016 21.8076 25.768 21.6671 25.8491C21.5841 25.897 21.5266 25.9302 21.4373 25.9818L21.3862 26.0112C21.2393 26.096 21.0989 26.1771 20.9585 26.2876C20.8181 26.4053 20.6714 26.5195 20.5629 26.6188C20.4226 26.7293 20.3078 26.8616 20.1611 26.9758C20.0208 27.1229 19.9061 27.2553 19.7977 27.384C19.683 27.5163 19.5428 27.6928 19.428 27.8252C19.3134 27.9943 19.1987 28.156 19.0904 28.314C18.9758 28.4831 18.8611 28.6448 18.7785 28.8248L18.6321 29.071C18.5812 29.1665 18.4921 29.3135 18.4349 29.442L18.3523 29.5927L18.3269 29.6735L18.2951 29.7213L18.2697 29.7727L18.1553 30.0297C18.0727 30.2097 18.0156 30.3749 17.9585 30.5401C17.8695 30.7532 17.8188 30.9147 17.7299 31.1277C17.7046 31.2085 17.6474 31.337 17.6157 31.4508L17.6158 31.4875L17.5335 31.7629L17.5336 31.7922L17.4512 32.0675L17.4513 32.1042C17.4196 32.218 17.3944 32.3355 17.3628 32.4786L17.3124 32.7355L17.2556 33.0034L17.2557 33.0327C16.9163 35.1246 17.0131 37.6774 19.0879 38.6693C19.1711 38.6874 19.2288 38.7496 19.3184 38.764C19.4016 38.7821 19.4848 38.8002 19.5743 38.8146C19.6575 38.8327 19.7406 38.8141 19.8301 38.8286C19.9132 38.8174 19.9964 38.8281 20.0859 38.8132C20.169 38.7946 20.2265 38.7981 20.3096 38.7796C20.3991 38.7647 20.4566 38.7608 20.5396 38.7129C20.7377 38.6647 20.9676 38.5613 21.1911 38.4323C21.4209 38.2996 21.6189 38.1853 21.8423 38.027C22.0146 37.8981 22.2124 37.7472 22.3847 37.6183C22.4677 37.5339 22.5251 37.5007 22.5825 37.4382C22.6654 37.3536 22.7228 37.2911 22.8058 37.2432C22.8951 37.1549 22.9525 37.0924 23.0354 37.0151C23.1183 36.9305 23.1757 36.868 23.2649 36.7503C23.3478 36.6657 23.4051 36.5665 23.488 36.4892C23.5708 36.3753 23.6282 36.3127 23.7174 36.1951C23.8002 36.0812 23.8575 35.9819 23.9148 35.8827L23.9975 35.7394L24.0802 35.5888C24.5895 34.773 25.5493 32.7198 26.2038 31.2323L26.4284 31.4921C26.5182 31.5726 26.6016 31.686 26.685 31.7702C26.8325 31.9128 26.9736 32.0592 27.1402 32.1908C27.4544 32.5017 27.7686 32.776 28.1146 33.0024C28.3644 33.1521 28.6205 33.2614 28.9084 33.2936C29.5101 33.3919 30.2151 33.2019 30.926 32.7915C31.2583 32.5996 31.5919 32.3597 31.917 32.0783C32.1147 31.898 32.3125 31.7177 32.51 31.4787C33.1667 30.7689 33.7013 29.8723 34.1272 28.9431C35.0867 26.7871 35.4513 24.5558 35.1011 22.8254C35.0167 22.3891 34.9005 21.9933 34.7588 21.6562C34.6171 21.3118 34.4436 21.0225 34.2127 20.759C34.0459 20.5614 33.8728 20.4335 33.6486 20.3057C33.5013 20.2217 33.3348 20.1562 33.1621 20.1237C32.9894 20.0985 32.823 20.0623 32.6502 20.0298C32.4775 20.034 32.2793 20.0455 32.0811 20.0644C31.998 20.083 31.9085 20.0979 31.8254 20.1165C31.7423 20.1277 31.6593 20.1757 31.5443 20.2127C31.4293 20.2422 31.3463 20.2901 31.2313 20.3272Z" fill="#FF492C"/>
</g>
<defs>
<clipPath id="clip0_1327_4785">
<rect width="50" height="50" fill="white" transform="translate(0.444336 0.535645)"/>
</clipPath>
</defs>
</svg>
