<svg width="51" height="51" viewBox="0 0 51 51" fill="none" xmlns="http://www.w3.org/2000/svg">
<g clip-path="url(#clip0_1327_4559)">
<path d="M41.2241 27.3753C41.2301 29.5459 39.7021 32.1933 37.8098 33.2831L26.8855 39.5906C26.7433 39.6735 26.6071 39.8186 26.5094 39.9934L21.0903 49.5791C20.9807 49.7716 20.8475 49.9078 20.7171 49.9818C20.572 50.0677 20.4299 50.0766 20.3293 50.0144C20.3233 50.0114 20.3174 50.0085 20.3085 50.0025L18.8723 49.1704C18.7597 49.1053 18.6946 48.9513 18.7331 48.7114L19.4793 43.8697L14.6257 46.6711C13.6545 47.2308 12.778 47.2722 12.1561 46.8873L10.7288 46.0611C10.1157 45.7027 9.73671 44.9446 9.73367 43.8667L9.66557 19.818C9.65674 17.6474 11.1818 15.0059 13.0741 13.9132L36.261 0.525171C37.2116 -0.0226619 38.0733 -0.0759631 38.6951 0.285307L40.1581 1.1352C40.7741 1.49056 41.1531 2.25161 41.1561 3.32953L41.2241 27.3753Z" fill="#324566"/>
<path d="M20.9586 43.1926L19.4976 42.3435C19.6155 42.412 19.6764 42.5764 19.6412 42.8042L18.732 48.7107C18.6956 48.9506 18.7588 49.104 18.8714 49.1695L20.3324 50.0186C20.2197 49.9531 20.1566 49.7996 20.193 49.5597L21.1022 43.6532C21.1373 43.4254 21.0765 43.2611 20.9586 43.1926Z" fill="#546577"/>
<path d="M38.6962 0.28677C38.0742 -0.0746621 37.213 -0.0237649 36.2624 0.525008L13.0732 13.9133C11.1825 15.0049 9.65786 17.6478 9.66408 19.8182L9.73219 43.8661C9.73537 44.9445 10.1158 45.7036 10.7297 46.0604L12.1907 46.9094C11.5768 46.5526 11.1964 45.7936 11.1932 44.7151L11.1251 20.6672C11.1188 18.4968 12.6435 15.8539 14.5342 14.7624L37.7234 1.37403C38.674 0.825277 39.5352 0.774361 40.1572 1.13579L38.6962 0.28677Z" fill="#546577"/>
<path d="M37.7234 1.37413C39.6123 0.283607 41.1487 1.15918 41.1549 3.32955L41.223 27.3753C41.2292 29.5456 39.7008 32.1929 37.8101 33.2845L26.8857 39.5917C26.7439 39.6735 26.608 39.8195 26.5081 39.9946L21.0907 49.5789C20.981 49.7728 20.8474 49.9071 20.7169 49.9824C20.4123 50.1583 20.124 50.0139 20.1929 49.5597L21.1022 43.6532C21.1655 43.2424 20.9168 43.0378 20.584 43.23L14.6246 46.6706C12.734 47.7622 11.1993 46.8856 11.1932 44.7152L11.125 20.6673C11.1189 18.4969 12.6435 15.854 14.5342 14.7624L37.7234 1.37413Z" fill="#202931"/>
<path d="M15.1676 19.7257C15.0312 19.7257 14.8985 19.6549 14.8254 19.528C14.7164 19.339 14.781 19.0972 14.9698 18.9879L27.8504 11.5366C28.0391 11.4271 28.2808 11.4921 28.3897 11.6813C28.4987 11.8704 28.4341 12.1122 28.2454 12.2215L15.3648 19.6727C15.3026 19.7087 15.2345 19.7257 15.1676 19.7257Z" fill="#546577"/>
<path d="M30.4464 10.8871C30.31 10.8871 30.1773 10.8163 30.1042 10.6894C29.9952 10.5004 30.0598 10.2586 30.2486 10.1493L37.2729 6.08583C37.4617 5.97665 37.7028 6.04109 37.8123 6.23055C37.9213 6.41962 37.8567 6.66141 37.6679 6.77072L30.6436 10.8341C30.5814 10.8701 30.5134 10.8871 30.4464 10.8871Z" fill="#546577"/>
<path d="M15.168 24.2742C15.0317 24.2742 14.899 24.2034 14.8259 24.0765C14.7169 23.8874 14.7815 23.6457 14.9703 23.5363L19.4176 20.9636C19.6058 20.8542 19.8477 20.919 19.957 21.1083C20.066 21.2974 20.0014 21.5392 19.8127 21.6485L15.3653 24.2212C15.3031 24.2572 15.235 24.2742 15.168 24.2742Z" fill="#546577"/>
<path d="M31.6016 15.0734C31.4653 15.0734 31.3326 15.0025 31.2595 14.8757C31.1505 14.6866 31.2151 14.4448 31.4039 14.3355L37.2732 10.9403C37.4619 10.8311 37.703 10.8956 37.8125 11.085C37.9215 11.2741 37.8569 11.5159 37.6682 11.6252L31.7989 15.0204C31.7367 15.0563 31.6686 15.0734 31.6016 15.0734Z" fill="#546577"/>
<path d="M15.168 33.3706C15.0317 33.3706 14.899 33.2998 14.8259 33.1729C14.7169 32.9838 14.7815 32.7421 14.9703 32.6327L22.7423 28.1367C22.9305 28.0273 23.1724 28.0921 23.2817 28.2814C23.3907 28.4705 23.3261 28.7123 23.1373 28.8216L15.3653 33.3176C15.3031 33.3536 15.235 33.3706 15.168 33.3706Z" fill="#546577"/>
<path d="M29.0443 25.3344C28.9168 25.3344 28.7927 25.2636 28.7243 25.1367C28.6224 24.9476 28.6828 24.7058 28.8593 24.5965L37.3113 19.3685C37.4878 19.2594 37.7133 19.3238 37.8158 19.5133C37.9177 19.7023 37.8573 19.9441 37.6808 20.0534L29.2288 25.2814C29.1706 25.3174 29.107 25.3344 29.0443 25.3344Z" fill="#546577"/>
<path d="M15.168 37.9192C15.0317 37.9192 14.899 37.8484 14.8259 37.7215C14.7169 37.5325 14.7815 37.2907 14.9703 37.1814L19.4176 34.6086C19.6058 34.4992 19.8477 34.564 19.957 34.7533C20.066 34.9424 20.0014 35.1842 19.8127 35.2935L15.3653 37.8663C15.3031 37.9022 15.235 37.9192 15.168 37.9192Z" fill="#546577"/>
<path d="M28.4337 30.1215C28.2973 30.1215 28.1646 30.0507 28.0915 29.9238C27.9826 29.7347 28.0471 29.4929 28.2359 29.3836L37.2732 24.1556C37.462 24.0465 37.7031 24.1109 37.8126 24.3004C37.9216 24.4894 37.857 24.7312 37.6682 24.8405L28.6309 30.0685C28.5687 30.1045 28.5007 30.1215 28.4337 30.1215Z" fill="#546577"/>
<path d="M15.1676 42.4673C15.0312 42.4673 14.8985 42.3964 14.8254 42.2695C14.7164 42.0805 14.781 41.8387 14.9698 41.7294L26.0665 35.31C26.2547 35.2006 26.4966 35.2654 26.6059 35.4548C26.7149 35.6438 26.6503 35.8856 26.4616 35.9949L15.3648 42.4143C15.3026 42.4502 15.2345 42.4673 15.1676 42.4673Z" fill="#546577"/>
<path d="M28.4337 34.7934C28.2973 34.7934 28.1646 34.7226 28.0915 34.5957C27.9826 34.4066 28.0471 34.1648 28.2359 34.0555L37.2732 28.8275C37.462 28.7183 37.7031 28.7828 37.8126 28.9723C37.9216 29.1613 37.857 29.4031 37.6682 29.5124L28.6309 34.7404C28.5687 34.7763 28.5007 34.7934 28.4337 34.7934Z" fill="#546577"/>
<path d="M14.836 28.7744C14.6996 28.7744 14.567 28.7036 14.4939 28.5767C14.3849 28.3876 14.4495 28.1459 14.6382 28.0365L22.4103 23.5405C22.5985 23.4311 22.8404 23.4959 22.9497 23.6852C23.0587 23.8743 22.9941 24.1161 22.8053 24.2254L15.0333 28.7214C14.9711 28.7574 14.903 28.7744 14.836 28.7744Z" fill="#546577"/>
<path d="M31.6016 19.3156C31.4653 19.3156 31.3326 19.2447 31.2595 19.1178C31.1505 18.9288 31.2151 18.687 31.4039 18.5777L37.2732 15.1825C37.4619 15.0733 37.703 15.1378 37.8125 15.3272C37.9215 15.5163 37.8569 15.7581 37.6682 15.8674L31.7989 19.2626C31.7367 19.2985 31.6686 19.3156 31.6016 19.3156Z" fill="#546577"/>
<path d="M25.7772 31.747C26.1348 31.5405 26.44 31.5083 26.691 31.6513C26.9419 31.7944 27.068 32.0643 27.0691 32.459C27.0703 32.87 26.9462 33.2924 26.6969 33.7243C26.4475 34.1562 26.1431 34.4759 25.7855 34.6824C25.442 34.8807 25.1438 34.9089 24.8929 34.7658C24.6418 34.6228 24.5158 34.3448 24.5147 33.9339C24.5135 33.5391 24.6376 33.1248 24.887 32.6929C25.1363 32.261 25.4336 31.9454 25.7772 31.747Z" fill="#FF492C"/>
<path d="M29.4229 16.2432C30.3043 16.5737 30.748 17.4551 30.752 18.8864C30.7539 19.5281 30.655 20.1509 30.4574 20.7496C30.2579 21.3514 30.016 21.9027 29.7297 22.4066C29.4453 22.9095 29.0658 23.5117 28.5949 24.2115C27.9817 25.1252 27.5198 25.8988 27.2145 26.5292C26.9075 27.1587 26.7558 27.8038 26.7577 28.4617C26.7584 28.7249 26.6657 29.0035 26.4795 29.3016C26.2932 29.5977 26.0733 29.82 25.8144 29.9695C25.543 30.1262 25.3173 30.1612 25.137 30.0767C24.9585 29.9892 24.868 29.8163 24.8673 29.5532C24.8652 28.8122 24.9779 28.0963 25.2053 27.4033C25.4327 26.7124 25.6992 26.0942 26.0065 25.5457C26.3137 24.9973 26.723 24.3372 27.2379 23.5614C27.7808 22.7532 28.1795 22.0951 28.4375 21.5832C28.6937 21.0724 28.8211 20.5872 28.8198 20.1256C28.8147 18.3341 27.7886 18.0262 25.7414 19.2081C25.2394 19.498 24.7498 19.8516 24.2711 20.2679C23.7905 20.6853 23.3664 21.1329 22.9937 21.6117C22.8232 21.8419 22.6437 22.0105 22.4587 22.1172C22.2296 22.2495 22.0285 22.2683 21.8554 22.1696C21.6839 22.0719 21.5969 21.8909 21.5962 21.6278C21.5951 21.2492 21.7739 20.8317 22.1309 20.3782C22.7163 19.6124 23.3091 18.966 23.9112 18.4359C24.5114 17.9089 25.177 17.4333 25.9064 17.0122C27.3669 16.169 28.5397 15.9137 29.4229 16.2432Z" fill="#FF492C"/>
</g>
<defs>
<clipPath id="clip0_1327_4559">
<rect width="50" height="50" fill="white" transform="translate(0.444336 0.0551758)"/>
</clipPath>
</defs>
</svg>
