<svg width="50" height="50" viewBox="0 0 50 50" fill="none" xmlns="http://www.w3.org/2000/svg">
<g clip-path="url(#clip0_3066_2907)">
<path d="M10.9198 49.788L9.48393 48.9524C8.91697 48.6226 8.56686 47.9241 8.56496 46.9291L8.48535 20.4276L15.4925 20.8618L12.3428 48.0359C12.3447 49.0308 10.3548 49.4582 10.9198 49.788Z" fill="#546577"/>
<path d="M9.93408 25.9827L41.4487 7.78772L41.515 29.5697C41.5207 31.5705 40.114 34.0069 38.3728 35.0123L13.162 49.5677C11.4219 50.5723 10.006 49.7655 10.0004 47.7647L9.93408 25.9827Z" fill="#202931"/>
<path d="M40.5162 1.04754C40.6261 2.65475 40.5258 6.76825 38.7913 4.83524L15.5389 17.4187C13.7992 18.4229 13.4489 19.4957 13.4545 21.4948L9.93422 25.9823L8.49832 25.1485L8.48538 20.4276C8.47796 18.4285 9.88609 15.9921 11.6258 14.9879L36.8366 0.432417C37.713 -0.073389 38.5059 -0.119708 39.0803 0.211935L40.5162 1.04754Z" fill="#35414D"/>
<path d="M38.2728 1.26727C40.0141 0.261936 41.4299 1.06879 41.4355 3.0683L41.4489 7.78774L9.9343 25.9827L9.92092 21.2633C9.91525 19.2638 11.3219 16.8273 13.062 15.8227L38.2728 1.26727Z" fill="#181E25"/>
<path d="M13.3572 19.2024C13.934 18.8694 14.4066 19.1294 14.4085 19.7922C14.4104 20.4549 13.9408 21.2683 13.364 21.6013C12.7913 21.932 12.3227 21.6602 12.3208 20.9975C12.3189 20.3347 12.7845 19.533 13.3572 19.2024Z" fill="#7289A0"/>
<path d="M16.7092 17.2628C17.286 16.9298 17.7587 17.1899 17.7605 17.8526C17.7624 18.5153 17.2928 19.3287 16.716 19.6617C16.1433 19.9924 15.6747 19.7206 15.6729 19.0579C15.671 18.3952 16.1365 17.5935 16.7092 17.2628Z" fill="#7289A0"/>
<path d="M20.0618 15.3232C20.6386 14.9902 21.1112 15.2503 21.1131 15.913C21.115 16.5757 20.6454 17.3891 20.0686 17.7222C19.4959 18.0528 19.0273 17.7811 19.0254 17.1183C19.0235 16.4556 19.4891 15.6539 20.0618 15.3232Z" fill="#7289A0"/>
<path d="M29.4463 27.8971C29.3261 27.9665 29.2059 28.0244 29.0856 28.0662C28.8803 28.1316 28.6749 28.1676 28.5156 28.1297C28.3306 28.1066 28.171 28.0157 28.0115 27.9248C27.8983 27.8308 27.7799 27.7693 27.6666 27.6753C27.5532 27.5578 27.4143 27.455 27.3009 27.3374C27.1618 27.2052 27.0279 27.0759 26.8887 26.9201L26.796 26.8378C26.7289 26.7231 26.6362 26.6408 26.5434 26.5114C27.0231 25.3961 27.4977 24.2838 28.0856 23.236C28.3157 22.8434 28.5665 22.5097 28.8637 22.2378C29.0634 22.0485 29.2787 21.8846 29.4932 21.7608C29.7408 21.6178 29.9874 21.5283 30.2076 21.515C30.5055 21.4965 30.7575 21.5635 30.9839 21.722C31.4421 22.0596 31.6701 22.7427 31.6724 23.5501C31.7015 24.7435 31.2222 26.0415 30.521 26.9482C30.224 27.3026 29.9267 27.551 29.7012 27.7343C29.6162 27.7932 29.5313 27.848 29.4463 27.8971ZM21.8867 32.2316C21.7027 32.3378 21.5225 32.4188 21.356 32.4758L21.2636 32.4996L21.1712 32.5293L21.0581 32.512L20.9451 32.5005L20.8321 32.489L20.7138 32.451L20.6007 32.41L20.5131 32.3544L20.4203 32.2781L20.3276 32.2017L20.235 32.1253L20.1679 32.0342L20.0957 31.9165L20.0286 31.7959L19.9615 31.6812L19.9149 31.5487C19.8942 31.5075 19.8941 31.4545 19.8682 31.3926L19.8215 31.2365L19.8005 31.0657L19.7743 30.8919L19.7533 30.721L19.7528 30.5383L19.7525 30.4617C19.7483 28.9544 20.6745 26.8477 21.9034 26.1381C22.2361 25.9459 22.591 25.8563 22.9556 25.9087C23.2331 25.9315 23.4596 26.0664 23.6656 26.2603C24.0777 26.654 24.5156 27.0565 24.8816 27.5005C24.6979 27.9489 24.4937 28.4033 24.2894 28.8401C24.1312 29.1912 23.9525 29.5836 23.7685 29.9554C23.6101 30.2535 23.4261 30.5959 23.2216 30.9265L23.1091 31.0918L23.017 31.2275C22.7457 31.5907 22.4281 31.8804 22.0845 32.1083C22.0184 32.1527 21.9523 32.1938 21.8867 32.2316ZM29.7914 19.7069L29.7452 19.7336L29.699 19.7603L29.5401 19.852L29.494 19.8787C29.2683 20.009 28.3092 20.5864 27.6034 21.7317C27.5369 21.8232 27.491 21.9265 27.4245 22.0416C27.22 22.3723 26.9901 22.8179 26.7857 23.2251C26.1982 24.4025 25.7441 25.4794 25.7441 25.4794C25.2854 24.959 24.7135 24.3683 24.0238 23.9518C23.9569 23.9137 23.8644 23.8904 23.7975 23.8464C23.6586 23.7967 23.525 23.7676 23.3657 23.7828L23.2939 23.8007C23.1347 23.81 22.9959 23.8133 22.8368 23.8521C22.7033 23.876 22.5647 23.9324 22.4262 23.9829C22.3133 24.0244 22.221 24.0778 22.1081 24.1429C22.0414 24.1814 21.9952 24.2081 21.9235 24.2495L21.8824 24.2731C21.7644 24.3413 21.6516 24.4064 21.5388 24.4952C21.4261 24.5897 21.3082 24.6815 21.221 24.7613C21.1083 24.85 21.0161 24.9563 20.8983 25.048C20.7855 25.1662 20.6934 25.2726 20.6063 25.376C20.5142 25.4823 20.4016 25.624 20.3093 25.7304C20.2173 25.8662 20.1251 25.9962 20.0381 26.1231C19.9461 26.2589 19.8539 26.3888 19.7876 26.5334L19.6699 26.7312C19.6291 26.8079 19.5575 26.926 19.5115 27.0293L19.4452 27.1503L19.4248 27.2152L19.3992 27.2536L19.3788 27.2949L19.2869 27.5014C19.2206 27.646 19.1747 27.7787 19.1288 27.9114C19.0573 28.0826 19.0166 28.2123 18.9452 28.3834C18.9248 28.4484 18.8789 28.5516 18.8534 28.643L18.8535 28.6725L18.7874 28.8937L18.7875 28.9173L18.7213 29.1384L18.7214 29.1679C18.6959 29.2593 18.6756 29.3537 18.6503 29.4687L18.6098 29.6751L18.5641 29.8903L18.5642 29.9138C18.2916 31.5943 18.3693 33.6451 20.0361 34.4419C20.1029 34.4565 20.1493 34.5065 20.2213 34.518C20.2881 34.5326 20.355 34.5471 20.4269 34.5587C20.4937 34.5732 20.5605 34.5583 20.6324 34.5699C20.6991 34.5609 20.7659 34.5695 20.8378 34.5575C20.9046 34.5426 20.9508 34.5454 21.0176 34.5306C21.0895 34.5186 21.1356 34.5155 21.2023 34.477C21.3615 34.4382 21.5462 34.3552 21.7257 34.2516C21.9103 34.1449 22.0694 34.0531 22.2488 33.926C22.3873 33.8224 22.5462 33.7012 22.6846 33.5976C22.7513 33.5298 22.7974 33.5032 22.8435 33.4529C22.9101 33.385 22.9562 33.3348 23.0229 33.2963C23.0946 33.2254 23.1407 33.1752 23.2073 33.1131C23.2739 33.0451 23.32 32.9949 23.3917 32.9003C23.4583 32.8324 23.5043 32.7527 23.5709 32.6906C23.6374 32.5991 23.6835 32.5488 23.7552 32.4543C23.8217 32.3628 23.8677 32.283 23.9138 32.2033L23.9802 32.0882L24.0466 31.9672C24.4558 31.3119 25.2268 29.6625 25.7526 28.4675L25.9331 28.6762C26.0052 28.7409 26.0722 28.832 26.1392 28.8996C26.2577 29.0142 26.371 29.1318 26.5049 29.2375C26.7573 29.4872 27.0097 29.7076 27.2877 29.8895C27.4883 30.0097 27.6941 30.0975 27.9253 30.1234C28.4087 30.2024 28.9751 30.0497 29.5462 29.72C29.8131 29.5659 30.0811 29.3732 30.3423 29.1471C30.5011 29.0023 30.66 28.8574 30.8187 28.6654C31.3462 28.0952 31.7757 27.3749 32.1178 26.6285C32.8886 24.8965 33.1815 23.104 32.9002 21.7138C32.8324 21.3633 32.7391 21.0454 32.6252 20.7746C32.5114 20.4979 32.372 20.2655 32.1865 20.0538C32.0525 19.8951 31.9135 19.7923 31.7334 19.6897C31.615 19.6222 31.4813 19.5696 31.3425 19.5435C31.2038 19.5232 31.0701 19.4941 30.9313 19.468C30.7926 19.4714 30.6333 19.4806 30.4741 19.4958C30.4074 19.5108 30.3355 19.5227 30.2687 19.5377C30.2019 19.5467 30.1353 19.5852 30.0429 19.6149C29.9505 19.6386 29.8838 19.6771 29.7914 19.7069Z" fill="#FF492C"/>
<g filter="url(#filter0_d_3066_2907)">
<path d="M36.328 30.6954L34.8205 31.571C35.1807 31.362 35.2722 30.9808 35.2967 30.368C35.298 30.3339 35.3505 30.2678 35.3512 30.2331C35.3538 29.0601 34.3948 27.3906 33.243 26.7256C32.6547 26.3858 32.2067 26.1884 31.8213 26.4124L33.33 25.5362C33.7141 25.3122 34.2472 25.3435 34.8362 25.684C36.0466 26.3828 36.8898 27.9998 36.9419 29.2435C36.9688 29.8872 36.7838 30.4309 36.328 30.6954Z" fill="#546577"/>
<path d="M33.3282 26.5597C32.1588 25.8846 31.2084 26.4262 31.2046 27.769C31.2008 29.1128 32.145 30.749 33.3144 31.4242C34.4838 32.0993 35.4342 31.5569 35.438 30.2132C35.4418 28.8703 34.4976 27.2349 33.3282 26.5597Z" fill="#2C3640"/>
<path d="M30.6357 27.5177C31.814 26.8321 33.8263 28.9696 33.8215 30.8662C33.8195 31.4541 33.6123 31.8676 33.2772 32.0619L34.6048 31.2905C34.94 31.0962 35.1472 30.6827 35.1492 30.0938C35.154 28.201 33.1385 26.0612 31.9644 26.7463L30.6357 27.5177Z" fill="#DEDFFB"/>
<path d="M35.1494 30.0935C35.1474 30.6825 34.9397 31.0965 34.6047 31.2906L33.277 32.062C33.6126 31.8673 33.6529 31.4895 33.6549 30.9019C33.6549 30.122 33.3841 29.6489 32.9488 28.9919C32.6302 28.5119 32.3804 28.0057 31.9385 27.7504C31.9215 27.7401 31.8127 27.7542 31.795 27.7446C31.2973 27.4729 30.9633 27.3271 30.6357 27.5177L31.9642 26.7462C33.1683 26.0453 35.1494 28.2311 35.1494 30.0935Z" fill="#97B1CB"/>
<path d="M31.9632 27.6478C30.9332 27.0531 30.0961 27.5301 30.0928 28.7129C30.0894 29.8965 30.9211 31.3377 31.9511 31.9323C32.9811 32.527 33.8181 32.0492 33.8215 30.8657C33.8249 29.6829 32.9932 28.2424 31.9632 27.6478Z" fill="#CAD6E3"/>
<path d="M23.8984 32.8903C24.4187 33.3488 25.3162 34.3782 25.3595 36.0485C25.3667 36.3678 25.7406 36.5085 26.053 36.4648C26.3343 36.4251 26.4011 36.7108 27.0133 36.5647C27.0896 36.5462 27.1689 36.5513 27.2421 36.5781C27.2431 36.5792 27.2431 36.5792 27.2442 36.5792C27.3956 36.6317 27.68 36.6997 27.9902 36.6029C28.0644 36.5792 28.1417 36.5761 28.2158 36.5967C28.6157 36.7089 29.087 36.3636 29.3596 36.0506C31.6673 33.1812 31.5602 33.3342 31.5987 33.2571C31.7038 33.05 32.2396 32.0093 32.5168 31.8846C32.7306 31.7848 32.9605 31.7515 33.0635 31.6637C33.2754 31.483 33.4021 31.1717 33.403 30.7521C33.407 29.4674 32.2262 27.8835 31.1762 27.8783C30.8053 27.8783 30.7292 28.0405 30.4962 28.2503C30.2592 28.4656 29.9037 28.7274 29.4967 28.8407C28.7548 29.0478 27.373 29.2889 27.0669 29.5301C25.7643 30.5564 25.9442 30.19 24.631 31.7012C24.5996 31.7398 24.6218 31.7142 23.9108 32.3009C23.7263 32.4523 23.7191 32.7326 23.8984 32.8903Z" fill="#EBBDBA"/>
<path d="M31.5142 33.3766C31.5146 33.3767 32.354 33.9 32.661 33.357C32.8816 32.9677 32.5405 32.5043 32.187 32.239C32.186 32.239 32.186 32.239 32.186 32.239C31.9356 32.5997 31.6698 33.118 31.5987 33.2571C31.5686 33.3171 31.5353 33.3488 31.5142 33.3766Z" fill="#D4A7A4"/>
<path d="M30.6128 34.0937C30.662 34.3159 31.0059 34.5286 31.2383 34.5574C31.4753 34.5852 31.8195 34.3152 31.87 33.9896C31.9222 33.666 31.4686 33.4347 31.4681 33.4342C30.8272 33.1849 30.5654 33.8763 30.6128 34.0937Z" fill="#E8BBBA"/>
<path d="M30.1549 35.3426C30.1735 35.356 30.192 35.3684 30.2106 35.3797C30.2116 35.3797 30.2116 35.3807 30.2116 35.3807C30.7433 35.7074 31.0061 35.1891 31.0061 35.1891C31.0061 35.1891 31.2461 34.8233 30.9988 34.5667C30.9988 34.5647 30.9978 34.5647 30.9968 34.5647C30.767 34.3349 30.3598 34.1851 30.1209 34.4214C30.1209 34.4214 29.5841 34.9418 30.1549 35.3426Z" fill="#E8BBBA"/>
<path d="M29.5647 36.1278C30.2292 36.3508 30.5836 35.3022 29.6657 35.1613C29.4308 35.1252 29.2288 35.4158 29.1721 35.6528C29.1194 35.8672 29.3719 36.0617 29.5647 36.1278Z" fill="#E8BBBA"/>
<path d="M30.7786 34.2215C30.7951 34.2957 30.8435 34.3688 30.9115 34.4337C31.0187 34.4997 31.1382 34.545 31.2381 34.5574C31.4751 34.5852 31.8193 34.3152 31.8698 33.9896C31.8955 33.8299 31.7987 33.6929 31.6936 33.596C31.6575 33.5733 31.6338 33.561 31.6338 33.561C30.9929 33.3126 30.7301 34.003 30.7786 34.2215Z" fill="#D4A7A4"/>
<path d="M30.2109 35.3796C30.2119 35.3796 30.2119 35.3807 30.2119 35.3807C30.7436 35.7073 31.0064 35.189 31.0064 35.189C31.0064 35.189 31.2465 34.8232 30.9992 34.5666C30.9992 34.5646 30.9981 34.5646 30.9971 34.5646C30.7271 34.3935 30.4561 34.3801 30.2861 34.5481C30.2861 34.5481 29.8266 34.9943 30.2109 35.3796Z" fill="#D4A7A4"/>
<path d="M29.4379 36.068C30 36.3927 30.435 35.7606 30.1067 35.3776C30.0438 35.3446 29.9501 35.3065 29.8305 35.2879C29.5956 35.2529 29.3947 35.5435 29.337 35.7805C29.3112 35.8897 29.3607 35.9886 29.4379 36.068Z" fill="#D4A7A4"/>
<path d="M23.5347 32.61L23.5604 33.5971L25.3297 35.9537L25.3492 36.0536C26.6383 35.3014 27.1113 33.6352 27.1113 33.6352C27.1113 33.6352 27.1628 33.1355 27.5245 32.5275C27.8861 31.9206 28.964 31.8598 28.964 31.8598C29.3988 32.2607 30.4807 32.5409 30.8208 32.0237C31.1491 31.5257 30.6738 31.2938 30.2128 31.0108C29.7996 30.7573 29.6121 30.4822 29.6121 30.4822C29.168 30.0411 28.7661 30.1401 28.5858 30.1493C28.4055 30.1596 28.1406 30.3729 27.5698 30.1854C27 29.9989 26.8042 30.1565 26.3549 30.4193C25.9057 30.681 24.73 31.5888 24.73 31.5888L23.5347 32.61Z" fill="#D4A7A4"/>
<path d="M25.4194 36.2349C25.4194 36.2349 25.675 36.5894 26.1861 36.4348C26.1861 36.4348 27.1124 35.594 27.5916 34.3462C27.5576 34.4132 26.3293 36.7728 25.4194 36.2349Z" fill="#E0B4B1"/>
<path d="M26.186 36.4348C26.186 36.4348 26.4879 36.7367 27.132 36.5317C27.132 36.5317 28.1418 36.0402 28.5745 34.5594C28.5745 34.5594 27.3741 37.1128 26.186 36.4348Z" fill="#E0B4B1"/>
<path d="M27.2441 36.5791C27.4152 36.6388 27.7583 36.7182 28.1148 36.5543C28.1148 36.5543 29.1669 35.6836 29.4441 34.9355C29.4101 34.9891 28.2436 36.814 27.2441 36.5791Z" fill="#E0B4B1"/>
<path d="M25.3945 35.8568V36.0266C26.6836 35.2744 27.1112 33.6353 27.1112 33.6353C27.1112 33.6353 27.1627 33.1355 27.5244 32.5276C27.8861 31.9206 28.9639 31.8598 28.9639 31.8598C29.3987 32.2607 30.4807 32.5409 30.8207 32.0237C30.8825 31.9299 30.9155 31.8454 30.9258 31.7681H30.9248C30.9248 31.7681 29.9283 32.7676 28.9041 31.4095C28.9041 31.4095 28.4992 32.1618 27.4038 31.8537C27.4038 31.8537 27.5398 32.1319 27.2853 32.5306C27.0308 32.9284 26.9133 33.3457 26.7454 33.8949C26.5774 34.4441 26.2518 35.3128 25.7696 35.6157L25.3945 35.8568Z" fill="#CEA3A0"/>
<path d="M31.5142 33.3766C31.5142 33.3766 31.6244 33.4456 31.78 33.5075C32.2325 33.1809 31.7686 32.6596 32.3117 32.3451C32.2458 32.2833 32.1953 32.2452 32.187 32.239C32.186 32.239 32.186 32.239 32.186 32.239C31.9356 32.5997 31.6698 33.118 31.5987 33.2571C31.5686 33.3171 31.5353 33.3488 31.5142 33.3766Z" fill="#CEA3A0"/>
<path d="M20.8628 33.1982C21.2051 32.999 21.6795 33.027 22.203 33.3293C23.8466 34.2793 24.7157 37.0972 23.5292 37.7853L24.8694 37.0066C26.0646 36.3135 25.1887 33.5009 23.5432 32.5506C23.0197 32.2483 22.5453 32.2203 22.204 32.4195L20.8628 33.1982Z" fill="#DEDFFB"/>
<path d="M24.8692 37.0067L23.5292 37.7856C24.7857 37.0535 23.7314 34.123 22.1511 33.3012C21.6479 33.0261 21.1937 33.0057 20.8628 33.1984L22.2035 32.4194C22.5337 32.2268 22.9886 32.2479 23.4918 32.5223C25.2124 33.4859 26.0512 36.3217 24.8692 37.0067Z" fill="#97B1CB"/>
<path d="M22.2021 33.3295C21.1624 32.7292 20.3174 33.2107 20.314 34.4047C20.3106 35.5994 21.1501 37.0543 22.1898 37.6545C23.2295 38.2548 24.0745 37.7725 24.0779 36.5778C24.0813 35.3839 23.2418 33.9298 22.2021 33.3295Z" fill="#F3F1FC"/>
<path d="M19.0605 33.926C19.4455 33.702 19.9791 33.7334 20.5678 34.0734C22.4164 35.1419 23.394 38.3113 22.0594 39.0851L23.5668 38.2093C24.9111 37.4298 23.926 34.2664 22.0752 33.1976C21.4864 32.8576 20.9528 32.8261 20.569 33.0501L19.0605 33.926Z" fill="#F45170"/>
<path d="M23.5672 38.2399L22.0597 39.1155C22.4199 38.9065 22.4054 38.6186 22.43 38.0058C22.4313 37.9717 22.4185 37.8468 22.4192 37.812C22.4206 37.1904 21.5732 36.7783 21.2409 36.1553C20.925 35.5636 21.2353 35.1427 20.7437 34.7682C20.6341 34.6852 20.4287 34.4707 20.3143 34.4047C19.726 34.0649 19.4457 33.7325 19.061 33.9566L20.5692 33.0807C21.1455 32.7445 21.8679 33.0436 22.4111 33.4552C24.0733 34.7214 24.7989 37.5251 23.5672 38.2399Z" fill="#FF492C"/>
<path d="M20.5679 34.0734C19.3985 33.3982 18.4482 33.9398 18.4443 35.2827C18.4405 36.6264 19.3848 38.2627 20.5541 38.9379C21.7235 39.613 22.6739 39.0706 22.6777 37.7269C22.6815 36.384 21.7373 34.7485 20.5679 34.0734Z" fill="#CC3722"/>
</g>
</g>
<defs>
<filter id="filter0_d_3066_2907" x="15.4443" y="22.3931" width="22.5" height="17.8351" filterUnits="userSpaceOnUse" color-interpolation-filters="sRGB">
<feFlood flood-opacity="0" result="BackgroundImageFix"/>
<feColorMatrix in="SourceAlpha" type="matrix" values="0 0 0 0 0 0 0 0 0 0 0 0 0 0 0 0 0 0 127 0" result="hardAlpha"/>
<feOffset dx="-1" dy="-1"/>
<feGaussianBlur stdDeviation="1"/>
<feComposite in2="hardAlpha" operator="out"/>
<feColorMatrix type="matrix" values="0 0 0 0 0 0 0 0 0 0 0 0 0 0 0 0 0 0 0.29 0"/>
<feBlend mode="normal" in2="BackgroundImageFix" result="effect1_dropShadow_3066_2907"/>
<feBlend mode="normal" in="SourceGraphic" in2="effect1_dropShadow_3066_2907" result="shape"/>
</filter>
<clipPath id="clip0_3066_2907">
<rect width="50" height="50" fill="white"/>
</clipPath>
</defs>
</svg>
