<svg width="50" height="50" viewBox="0 0 50 50" fill="none" xmlns="http://www.w3.org/2000/svg">
<g clip-path="url(#clip0_2319_7768)">
<path d="M10.9198 49.788L9.48393 48.9524C8.91697 48.6226 8.56686 47.9241 8.56496 46.9291L8.48535 20.4276L15.4925 20.8618L12.3428 48.0359C12.3447 49.0308 10.3548 49.4582 10.9198 49.788Z" fill="#546577"/>
<path d="M9.93408 25.9827L41.4487 7.78772L41.515 29.5697C41.5207 31.5705 40.114 34.0069 38.3728 35.0123L13.162 49.5677C11.4219 50.5723 10.006 49.7655 10.0004 47.7647L9.93408 25.9827Z" fill="#202931"/>
<path d="M40.5162 1.04754C40.6261 2.65475 40.5258 6.76825 38.7913 4.83524L15.5389 17.4187C13.7992 18.4229 13.4489 19.4957 13.4545 21.4948L9.93422 25.9823L8.49832 25.1485L8.48538 20.4276C8.47796 18.4285 9.88609 15.9921 11.6258 14.9879L36.8366 0.432417C37.713 -0.073389 38.5059 -0.119708 39.0803 0.211935L40.5162 1.04754Z" fill="#35414D"/>
<path d="M38.2728 1.26727C40.0141 0.261936 41.4299 1.06879 41.4355 3.0683L41.4489 7.78774L9.9343 25.9827L9.92092 21.2633C9.91525 19.2638 11.3219 16.8273 13.062 15.8227L38.2728 1.26727Z" fill="#181E25"/>
<path d="M13.3572 19.2024C13.934 18.8694 14.4066 19.1294 14.4085 19.7922C14.4104 20.4549 13.9408 21.2683 13.364 21.6013C12.7913 21.932 12.3227 21.6602 12.3208 20.9975C12.3189 20.3347 12.7845 19.533 13.3572 19.2024Z" fill="#7289A0"/>
<path d="M16.7092 17.2628C17.286 16.9298 17.7587 17.1899 17.7605 17.8526C17.7624 18.5153 17.2928 19.3287 16.716 19.6617C16.1433 19.9924 15.6747 19.7206 15.6729 19.0579C15.671 18.3952 16.1365 17.5935 16.7092 17.2628Z" fill="#7289A0"/>
<path d="M20.0618 15.3232C20.6386 14.9902 21.1112 15.2503 21.1131 15.913C21.115 16.5757 20.6454 17.3891 20.0686 17.7222C19.4959 18.0528 19.0273 17.7811 19.0254 17.1183C19.0235 16.4556 19.4891 15.6539 20.0618 15.3232Z" fill="#7289A0"/>
<path d="M31.874 35.1777L39.2627 30.9117V16.3558L31.874 20.6217V35.1777Z" fill="#35414D"/>
<path d="M32.4636 20.98V28.1508L38.6738 24.5654V17.3945L32.4636 20.98Z" fill="#202931"/>
<path d="M34.2631 22.7315C34.2631 23.5637 34.8473 24.5736 35.5681 24.1575C36.2888 23.7414 36.873 22.0568 36.873 21.2246C36.873 20.3924 36.2888 20.0551 35.5681 20.4712C34.8473 20.8874 34.2631 21.8993 34.2631 22.7315Z" fill="#FF492C"/>
<path d="M32.9953 26.7653V27.8438L38.1421 24.8724V23.7939C38.1421 23.3231 37.8115 23.1323 37.4036 23.3676L33.7337 25.4865C33.3259 25.7218 32.9953 26.2945 32.9953 26.7653Z" fill="#FF492C"/>
<path d="M35.5282 28.0747L38.6738 26.2585V25.6112L35.5282 27.4274V28.0747Z" fill="#546577"/>
<path d="M33.1083 29.4718L35.0493 28.3511V27.7039L33.1083 28.8244V29.4718Z" fill="#546577"/>
<path d="M32.4636 31.1082L38.6738 27.5228V27.2515L32.4636 30.8369V31.1082Z" fill="#546577"/>
<path d="M32.4636 31.8995L38.6738 28.314V28.0427L32.4636 31.6282V31.8995Z" fill="#546577"/>
<path d="M32.4636 32.6908L38.6738 29.1053V28.834L32.4636 32.4195V32.6908Z" fill="#546577"/>
<path d="M34.5638 32.2696L38.6738 29.8967V29.6254L34.5638 31.9983V32.2696Z" fill="#546577"/>
<path d="M22.9429 35.4386L30.3315 31.1728V16.6168L22.9429 20.8827V35.4386Z" fill="#35414D"/>
<path d="M23.5324 21.2411V28.4119L29.7427 24.8264V17.6556L23.5324 21.2411Z" fill="#202931"/>
<path d="M25.3324 22.9925C25.3324 23.8248 25.9167 24.8347 26.6374 24.4186C27.3581 24.0025 27.9424 22.3179 27.9424 21.4857C27.9424 20.6535 27.3581 20.3162 26.6374 20.7323C25.9167 21.1484 25.3324 22.1604 25.3324 22.9925Z" fill="#FF492C"/>
<path d="M24.0642 27.0263V28.1048L29.2109 25.1334V24.0549C29.2109 23.5841 28.8803 23.3933 28.4726 23.6286L24.8026 25.7475C24.3948 25.9829 24.0642 26.5555 24.0642 27.0263Z" fill="#FF492C"/>
<path d="M26.597 28.3356L29.7427 26.5195V25.8722L26.597 27.6883V28.3356Z" fill="#546577"/>
<path d="M24.1767 29.7328L26.1177 28.6122V27.9648L24.1767 29.0855V29.7328Z" fill="#546577"/>
<path d="M23.5324 31.3692L29.7427 27.7837V27.5125L23.5324 31.0979V31.3692Z" fill="#546577"/>
<path d="M23.5324 32.1605L29.7427 28.575V28.3037L23.5324 31.8891V32.1605Z" fill="#546577"/>
<path d="M23.5324 32.9519L29.7427 29.3664V29.0951L23.5324 32.6805V32.9519Z" fill="#546577"/>
<path d="M25.6327 32.5306L29.7427 30.1576V29.8864L25.6327 32.2593V32.5306Z" fill="#546577"/>
<path d="M14.0117 45.5462L21.4004 41.2803V26.7244L14.0117 30.9902V45.5462Z" fill="#35414D"/>
<path d="M14.6013 31.3487V38.5194L20.8115 34.9339V27.7632L14.6013 31.3487Z" fill="#202931"/>
<path d="M16.4013 33.1001C16.4013 33.9323 16.9855 34.9422 17.7062 34.5261C18.427 34.11 19.0112 32.4254 19.0112 31.5932C19.0112 30.761 18.427 30.4238 17.7062 30.8399C16.9855 31.256 16.4013 32.2679 16.4013 33.1001Z" fill="#FF492C"/>
<path d="M15.133 37.1339V38.2123L20.2798 35.2409V34.1625C20.2798 33.6916 19.9492 33.5008 19.5414 33.7362L15.8715 35.8551C15.4637 36.0904 15.133 36.663 15.133 37.1339Z" fill="#FF492C"/>
<path d="M17.6657 38.4432L20.8115 36.6271V35.9797L17.6657 37.7959V38.4432Z" fill="#546577"/>
<path d="M15.2461 39.8404L17.187 38.7197V38.0724L15.2461 39.193V39.8404Z" fill="#546577"/>
<path d="M14.6013 41.4769L20.8115 37.8914V37.6201L14.6013 41.2055V41.4769Z" fill="#546577"/>
<path d="M14.6013 42.2681L20.8115 38.6827V38.4114L14.6013 41.9968V42.2681Z" fill="#546577"/>
<path d="M14.6013 43.0595L20.8115 39.474V39.2026L14.6013 42.7881V43.0595Z" fill="#546577"/>
<path d="M16.7014 42.6384L20.8115 40.2654V39.994L16.7014 42.367V42.6384Z" fill="#546577"/>
</g>
<defs>
<clipPath id="clip0_2319_7768">
<rect width="50" height="50" fill="white"/>
</clipPath>
</defs>
</svg>
