<svg width="33" height="35" viewBox="0 0 33 35" fill="none" xmlns="http://www.w3.org/2000/svg">
<path d="M32.8132 11.3477C32.8132 10.7809 32.3545 10.3223 31.7877 10.3223H30.7623L29.7423 9.29688L28.7115 10.3223H27.6861C27.1193 10.3223 26.6607 10.7809 26.6607 11.3477V18.5254H24.6099V1.02539C24.6099 0.458623 24.1512 0 23.5844 0H11.2795C10.7127 0 10.2541 0.458623 10.2541 1.02539V18.5254H2.05078V32.9492L3.07619 35H11.2795L13.3303 32.9492L14.3557 35H20.5082L24.6099 32.9492H30.7623L32.8132 30.8301V28.7793L30.7623 27.7539L32.8132 26.7285V24.6777L30.7623 23.6523L32.8132 22.627V20.5762L30.7623 18.5254L32.8132 16.4746V11.3477Z" fill="url(#paint0_linear_610_3252)"/>
<path d="M30.7624 5.19531C30.7624 4.62854 30.3037 4.16992 29.737 4.16992C29.1702 4.16992 28.7116 4.62854 28.7116 5.19531V10.3223H30.7624V5.19531ZM15.3812 10.3223H19.4828C20.0496 10.3223 20.5083 9.86364 20.5083 9.29688C20.5083 8.73011 20.0496 8.27148 19.4828 8.27148H15.3812C14.8144 8.27148 14.3558 8.73011 14.3558 9.29688C14.3558 9.86364 14.8144 10.3223 15.3812 10.3223ZM15.3812 6.2207H19.4828C20.0496 6.2207 20.5083 5.76208 20.5083 5.19531C20.5083 4.62854 20.0496 4.16992 19.4828 4.16992H15.3812C14.8144 4.16992 14.3558 4.62854 14.3558 5.19531C14.3558 5.76208 14.8144 6.2207 15.3812 6.2207ZM19.4828 12.373H15.3812C14.8144 12.373 14.3558 12.8317 14.3558 13.3984C14.3558 13.9652 14.8144 14.4238 15.3812 14.4238H19.4828C20.0496 14.4238 20.5083 13.9652 20.5083 13.3984C20.5083 12.8317 20.0496 12.373 19.4828 12.373ZM25.6353 20.5762H32.8132V16.4746H21.5337C20.9674 16.4746 20.5083 16.9336 20.5083 17.5V35H31.7878C32.3541 35 32.8132 34.5409 32.8132 33.9746V30.8301H25.6353C25.0685 30.8301 24.6099 30.3715 24.6099 29.8047C24.6099 29.2379 25.0685 28.7793 25.6353 28.7793H32.8132V26.7285H25.6353C25.0685 26.7285 24.6099 26.2699 24.6099 25.7031C24.6099 25.1364 25.0685 24.6777 25.6353 24.6777H32.8132V22.627H25.6353C25.0685 22.627 24.6099 22.1683 24.6099 21.6016C24.6099 21.0348 25.0685 20.5762 25.6353 20.5762ZM13.3304 16.4746H1.02541C0.459111 16.4746 0 16.9336 0 17.5V33.9746C0 34.5409 0.459111 35 1.02541 35H3.07624V29.8047C3.07624 29.2379 3.53487 28.7793 4.10165 28.7793H10.2541C10.8209 28.7793 11.2795 29.2379 11.2795 29.8047V35H14.3558V17.5C14.3558 16.9336 13.8967 16.4746 13.3304 16.4746ZM10.2541 26.7285H4.10165C3.53487 26.7285 3.07624 26.2699 3.07624 25.7031C3.07624 25.1364 3.53487 24.6777 4.10165 24.6777H10.2541C10.8209 24.6777 11.2795 25.1364 11.2795 25.7031C11.2795 26.2699 10.8209 26.7285 10.2541 26.7285ZM10.2541 22.627H4.10165C3.53487 22.627 3.07624 22.1683 3.07624 21.6016C3.07624 21.0348 3.53487 20.5762 4.10165 20.5762H10.2541C10.8209 20.5762 11.2795 21.0348 11.2795 21.6016C11.2795 22.1683 10.8209 22.627 10.2541 22.627Z" fill="url(#paint1_linear_610_3252)"/>
<defs>
<linearGradient id="paint0_linear_610_3252" x1="17.432" y1="35" x2="17.432" y2="0" gradientUnits="userSpaceOnUse">
<stop stop-color="#FF492C"/>
<stop offset="1" stop-color="#FFA38C"/>
</linearGradient>
<linearGradient id="paint1_linear_610_3252" x1="16.4066" y1="35" x2="16.4066" y2="4.16992" gradientUnits="userSpaceOnUse">
<stop stop-color="#FFA38C"/>
<stop offset="0.9973" stop-color="#FFE0D9"/>
</linearGradient>
</defs>
</svg>
