<svg width="39" height="35" viewBox="0 0 39 35" fill="none" xmlns="http://www.w3.org/2000/svg">
<path d="M35.9896 19.6875V6.85417C35.9896 6.25012 35.4999 5.76042 34.8958 5.76042H33.8021V1.09375C33.8021 0.489708 33.3124 0 32.7083 0H6.3125C5.70846 0 5.21875 0.489708 5.21875 1.09375V5.76042H4.125C3.52096 5.76042 3.03125 6.25012 3.03125 6.85417V33.9062C3.03125 34.5103 3.52096 35 4.125 35H7.40625L10.0312 33.1042H15.2812L18.4167 35H34.8958C35.4999 35 35.9896 34.5103 35.9896 33.9062V28.4375L34.3125 25.8854V21.9479L35.9896 19.6875Z" fill="url(#paint0_linear_610_3264)"/>
<path d="M20.6029 20.7812V27.3438C20.6029 27.9478 21.0926 28.4375 21.6967 28.4375H35.9883V19.6875H21.6967C21.0926 19.6875 20.6029 20.1771 20.6029 20.7812ZM17.3217 19.6875H8.49877C7.89473 19.6875 7.40502 20.1772 7.40502 20.7812V35H18.4154V28.4375H15.1342C14.5301 28.4375 14.0404 27.9478 14.0404 27.3438C14.0404 26.7397 14.5301 26.25 15.1342 26.25H18.4154V20.7812C18.4154 20.1771 17.9257 19.6875 17.3217 19.6875ZM31.6915 4.375H7.28726C3.25803 4.375 0.887508 6.71774 0.829029 9.31292C0.782581 11.3736 2.53324 13.094 4.61442 13.094C6.64661 13.094 8.29263 11.4621 8.3269 9.43782H8.33944C8.37379 11.4621 10.0196 13.094 12.0518 13.094C14.0841 13.094 15.73 11.4621 15.7643 9.43782H15.7768C15.8111 11.4621 17.4569 13.094 19.4893 13.094C21.5216 13.094 23.1675 11.4621 23.2018 9.43782H23.2143C23.2486 11.4621 24.8944 13.094 26.9268 13.094C28.959 13.094 30.6048 11.4621 30.6391 9.43782H30.6517C30.686 11.4621 32.3319 13.094 34.3641 13.094C36.4183 13.094 38.1536 11.4284 38.1756 9.43294C38.2044 6.83346 35.8024 4.375 31.6915 4.375Z" fill="url(#paint1_linear_610_3264)"/>
<defs>
<linearGradient id="paint0_linear_610_3264" x1="19.5104" y1="35" x2="19.5104" y2="0" gradientUnits="userSpaceOnUse">
<stop stop-color="#FF492C"/>
<stop offset="1" stop-color="#FFA38C"/>
</linearGradient>
<linearGradient id="paint1_linear_610_3264" x1="19.5021" y1="35" x2="19.5021" y2="4.375" gradientUnits="userSpaceOnUse">
<stop stop-color="#FFA38C"/>
<stop offset="1" stop-color="#FFE0D9"/>
</linearGradient>
</defs>
</svg>
