<svg width="35" height="35" viewBox="0 0 35 35" fill="none" xmlns="http://www.w3.org/2000/svg">
<path d="M7.17773 18.5938H3.07617C2.5094 18.5938 2.05078 18.1351 2.05078 17.5684V9.22852C2.05078 4.11913 6.20088 0 11.2793 0C16.3682 0 20.5078 4.13964 20.5078 9.22852V13.4668C20.5078 14.0336 20.0492 14.4922 19.4824 14.4922H15.3809C14.8141 14.4922 14.3555 14.0336 14.3555 13.4668V9.22852C14.3555 7.51714 12.9458 6.15234 11.2793 6.15234C9.58303 6.15234 8.20312 7.53225 8.20312 9.22852V17.5684C8.20312 18.1351 7.7445 18.5938 7.17773 18.5938ZM9.52492 31.7336L11.2793 30.8123L13.0317 31.7336C13.7074 32.0876 14.5399 32.0504 15.1926 31.5783C15.8294 31.1147 16.1419 30.3466 16.0097 29.5726L15.6732 27.619L17.0911 26.2361C17.6539 25.6884 17.8542 24.8833 17.6118 24.1333C17.3735 23.3972 16.7246 22.8495 15.9576 22.7384L13.9949 22.453L13.1197 20.6775C12.3973 19.2132 10.1596 19.2129 9.44077 20.6765L8.56358 22.4529L6.60092 22.7383C5.83386 22.8495 5.18499 23.3972 4.94669 24.1342C4.70436 24.8832 4.90465 25.6883 5.4654 26.235L6.88529 27.6189L6.54883 29.5725C6.41662 30.3466 6.72909 31.1147 7.36791 31.5792C8.02218 32.0532 8.86314 32.085 9.52492 31.7336ZM3.07617 18.5938L0 20.6445V22.6953L3.07617 24.7461L6.15234 21.6699L3.07617 18.5938ZM3.07617 26.7969L0 28.8477V30.8984L3.07617 32.9492L6.15234 29.873L3.07617 26.7969ZM19.4824 18.5938L16.4062 21.6699L19.4824 24.7461L22.5586 22.6953V20.6445L19.4824 18.5938ZM19.4824 26.7969L16.4062 29.873L19.4824 32.9492L22.5586 30.8984V28.8477L19.4824 26.7969ZM33.9746 16.543H30.8984V14.4922H33.9746C34.5414 14.4922 35 14.0336 35 13.4668C35 12.9 34.5414 12.4414 33.9746 12.4414H30.8984V11.416C30.8984 10.8492 30.4398 10.3906 29.873 10.3906C29.3063 10.3906 28.8477 10.8492 28.8477 11.416V25.7715C28.8477 26.3383 29.3063 26.7969 29.873 26.7969C30.4398 26.7969 30.8984 26.3383 30.8984 25.7715V18.5938H33.9746C34.5414 18.5938 35 18.1351 35 17.5684C35 17.0016 34.5414 16.543 33.9746 16.543Z" fill="url(#paint0_linear_610_3260)"/>
<path d="M19.4824 20.6445H22.5586V17.5684C22.5586 16.9941 22.1075 16.543 21.5332 16.543H1.02539C0.451104 16.543 0 16.9941 0 17.5684V20.6445H3.07617C3.65046 20.6445 4.10156 21.0956 4.10156 21.6699C4.10156 22.2441 3.65046 22.6953 3.07617 22.6953H0V28.8477H3.07617C3.65046 28.8477 4.10156 29.2988 4.10156 29.873C4.10156 30.4472 3.65046 30.8984 3.07617 30.8984H0V33.9746C0 34.5488 0.451104 35 1.02539 35H21.5332C22.1075 35 22.5586 34.5488 22.5586 33.9746V30.8984H19.4824C18.9081 30.8984 18.457 30.4472 18.457 29.873C18.457 29.2988 18.9081 28.8477 19.4824 28.8477H22.5586V22.6953H19.4824C18.9081 22.6953 18.457 22.2441 18.457 21.6699C18.457 21.0956 18.9081 20.6445 19.4824 20.6445ZM16.3857 25.5049L14.5811 27.2686L14.9912 29.7501C15.0732 30.1397 14.9092 30.5089 14.5811 30.755C14.2735 30.9805 13.8633 31.001 13.5147 30.8164L11.2793 29.6475L9.04388 30.8163C8.69531 31.0009 8.28509 30.9804 7.97754 30.7548C7.64935 30.5087 7.48535 30.1396 7.56738 29.7499L7.97754 27.2684L6.17285 25.5047C5.90625 25.2381 5.80371 24.8279 5.92676 24.4588C6.0498 24.0692 6.35735 23.8026 6.747 23.7615L9.24902 23.3924L10.3564 21.1367C10.705 20.4394 11.8536 20.4394 12.2022 21.1367L13.3096 23.3925L15.8116 23.7617C16.2012 23.8027 16.5088 24.0693 16.6318 24.459C16.7548 24.8281 16.6523 25.2383 16.3857 25.5049ZM29.873 35C27.0452 35 24.7461 32.6999 24.7461 29.873C24.7461 27.0462 27.0452 24.7461 29.873 24.7461C32.7009 24.7461 35 27.0462 35 29.873C35 32.6999 32.7009 35 29.873 35ZM29.873 26.7969C28.1768 26.7969 26.7969 28.1768 26.7969 29.873C26.7969 31.5693 28.1768 32.9492 29.873 32.9492C31.5693 32.9492 32.9492 31.5693 32.9492 29.873C32.9492 28.1768 31.5693 26.7969 29.873 26.7969Z" fill="url(#paint1_linear_610_3260)"/>
<defs>
<linearGradient id="paint0_linear_610_3260" x1="17.5" y1="32.9492" x2="17.5" y2="0" gradientUnits="userSpaceOnUse">
<stop stop-color="#FFA38C"/>
<stop offset="0.9973" stop-color="#FFE0D9"/>
</linearGradient>
<linearGradient id="paint1_linear_610_3260" x1="17.5" y1="35" x2="17.5" y2="16.543" gradientUnits="userSpaceOnUse">
<stop stop-color="#FF492C"/>
<stop offset="1" stop-color="#FFA38C"/>
</linearGradient>
</defs>
</svg>
