<svg width="50" height="50" viewBox="0 0 50 50" fill="none" xmlns="http://www.w3.org/2000/svg">
<g clip-path="url(#clip0_2333_7216)">
<path d="M10.9198 49.7878L9.48394 48.9523C8.91697 48.6225 8.56686 47.924 8.56496 46.929L8.48535 20.4275L15.4925 20.8617L12.3428 48.0358C12.3447 49.0307 10.3548 49.4581 10.9198 49.7878Z" fill="#546577"/>
<path d="M9.93446 25.9826L8.49805 25.1479L40.0127 6.95288L41.4491 7.78763L9.93446 25.9826Z" fill="#FBD46C"/>
<path d="M9.93408 25.9826L41.4487 7.7876L41.515 29.5696C41.5207 31.5704 40.114 34.0068 38.3728 35.0121L13.162 49.5676C11.4219 50.5722 10.006 49.7654 10.0004 47.7645L9.93408 25.9826Z" fill="#202931"/>
<path d="M40.5162 1.04742C40.6261 2.65462 40.5258 6.76813 38.7913 4.83512L15.5389 17.4186C13.7992 18.4228 13.4489 19.4956 13.4545 21.4947L9.93422 25.9821L8.49832 25.1484L8.48538 20.4275C8.47796 18.4284 9.88609 15.9919 11.6258 14.9877L36.8366 0.432295C37.713 -0.0735111 38.5059 -0.119831 39.0803 0.211813L40.5162 1.04742Z" fill="#35414D"/>
<path d="M38.2728 1.26703C40.0141 0.261692 41.4299 1.06855 41.4355 3.06806L41.4489 7.7875L9.9343 25.9825L9.92092 21.263C9.91525 19.2635 11.3219 16.8271 13.062 15.8225L38.2728 1.26703Z" fill="#181E25"/>
<path d="M13.3577 19.2024C13.9345 18.8694 14.4071 19.1294 14.409 19.7922C14.4109 20.4549 13.9413 21.2683 13.3645 21.6013C12.7918 21.932 12.3232 21.6602 12.3213 20.9975C12.3194 20.3347 12.785 19.533 13.3577 19.2024Z" fill="#7289A0"/>
<path d="M16.7097 17.2627C17.2865 16.9297 17.7591 17.1897 17.761 17.8525C17.7629 18.5152 17.2933 19.3286 16.7165 19.6616C16.1438 19.9923 15.6752 19.7205 15.6733 19.0578C15.6715 18.395 16.137 17.5933 16.7097 17.2627Z" fill="#7289A0"/>
<path d="M20.0623 15.3232C20.639 14.9902 21.1117 15.2503 21.1136 15.913C21.1154 16.5757 20.6459 17.3891 20.0691 17.7222C19.4963 18.0528 19.0278 17.7811 19.0259 17.1183C19.024 16.4556 19.4895 15.6539 20.0623 15.3232Z" fill="#7289A0"/>
<path d="M36.7736 13.4731C37.0345 13.3225 37.2477 13.444 37.2486 13.7444L37.2697 22.2712C37.2706 22.5716 37.0588 22.9385 36.7979 23.0891L13.9917 36.2563C13.7309 36.4069 13.5176 36.2853 13.5168 35.985L13.4956 27.4581C13.4948 27.1578 13.7066 26.7908 13.9674 26.6403L36.7736 13.4731Z" fill="#162830"/>
<path d="M37.4553 13.6479C37.7161 13.4973 37.9293 13.6188 37.9302 13.9192L37.9514 22.446C37.9522 22.7464 37.7404 23.1133 37.4796 23.2639L14.6733 36.4311C14.4125 36.5817 14.1993 36.4601 14.1984 36.1598L14.1772 27.6329C14.1764 27.3326 14.3882 26.9656 14.6491 26.8151L37.4553 13.6479Z" fill="#FF492C"/>
<path d="M20.2587 28.5577C20.4392 28.6821 20.5308 28.9156 20.5317 29.2625C20.5331 29.7587 20.3888 30.2328 20.0986 30.6812C19.8068 31.1306 19.3488 31.5373 18.723 31.8986L17.0162 32.884C16.9254 32.9364 16.8502 32.9438 16.789 32.9089C16.7278 32.874 16.6978 32.8049 16.6976 32.7024L16.6836 27.7803C16.6833 27.6778 16.7128 27.5726 16.7736 27.4637C16.8344 27.3547 16.9094 27.2754 17.0001 27.223L18.6647 26.262C19.1685 25.9711 19.5584 25.8792 19.8345 25.9845C20.1106 26.0916 20.2493 26.3681 20.2506 26.8175C20.2515 27.1303 20.1865 27.4289 20.0572 27.7124C19.9295 27.995 19.7642 28.2453 19.561 28.4653C19.8445 28.4042 20.0765 28.4359 20.2587 28.5577ZM19.6278 30.4417C19.8182 30.1697 19.9114 29.8854 19.9105 29.587C19.9088 28.9721 19.4918 28.9032 18.6595 29.3837L17.3328 30.1497L17.3381 32.0067L18.6585 31.2444C19.1138 30.9815 19.4373 30.7137 19.6278 30.4417ZM17.3259 27.7264L17.3309 29.4845L18.5027 28.808C18.9204 28.5668 19.2143 28.3161 19.3844 28.0559C19.5529 27.7965 19.6367 27.5212 19.6359 27.2282C19.6352 26.9747 19.5439 26.824 19.362 26.7777C19.1816 26.7306 18.9326 26.7987 18.6182 26.9803L17.3259 27.7264Z" fill="#FFC2B3"/>
<path d="M21.8888 24.3609C21.978 24.3094 22.0547 24.3011 22.1191 24.3377C22.1834 24.3726 22.215 24.4426 22.2153 24.5451L22.2283 29.1347L24.5359 27.8023C24.625 27.7509 24.7018 27.7426 24.7646 27.7801C24.8289 27.8168 24.8605 27.8868 24.8608 27.9893C24.8611 28.0918 24.83 28.1962 24.7661 28.3033C24.7037 28.4095 24.6271 28.4897 24.538 28.5412L22.0332 29.9873C21.9097 30.0587 21.8047 30.0689 21.7183 30.0179C21.6305 29.9696 21.5863 29.8744 21.5859 29.7324L21.5723 24.9163C21.572 24.8139 21.603 24.7077 21.6638 24.6006C21.7246 24.4917 21.7996 24.4123 21.8888 24.3609Z" fill="#FFC2B3"/>
<path d="M29.9768 21.06C30.1829 21.3821 30.2908 21.8222 30.3017 22.3777C30.294 22.9458 30.189 23.5088 29.9853 24.0675C29.7816 24.6263 29.4963 25.1368 29.1278 25.598C28.7592 26.0611 28.3278 26.4344 27.8334 26.7199C27.3391 27.0053 26.9069 27.1305 26.5339 27.0956C26.1623 27.0616 25.8735 26.8844 25.6704 26.5623C25.4674 26.242 25.3596 25.8001 25.3486 25.2374C25.3564 24.6657 25.4614 24.1009 25.6619 23.5458C25.8625 22.9924 26.1493 22.4829 26.5195 22.0207C26.8911 21.5558 27.3226 21.1825 27.8169 20.8971C28.3113 20.6116 28.7434 20.4864 29.1134 20.5231C29.4833 20.558 29.7706 20.7379 29.9768 21.06ZM29.4445 24.0106C29.5891 23.5905 29.6615 23.1705 29.6603 22.748C29.6591 22.3274 29.5845 21.9905 29.4381 21.7401C29.2917 21.4879 29.0797 21.3457 28.8006 21.3123C28.5232 21.278 28.196 21.3679 27.8188 21.5856C27.4387 21.8051 27.1105 22.0936 26.8357 22.4467C26.5609 22.7999 26.3504 23.1861 26.2058 23.6063C26.0613 24.0246 25.9904 24.4455 25.9916 24.8662C25.9928 25.2886 26.0658 25.6246 26.2123 25.8768C26.3587 26.1272 26.5707 26.2712 26.8466 26.3064C27.1225 26.3416 27.4513 26.249 27.8314 26.0295C28.2086 25.8118 28.5352 25.526 28.8116 25.172C29.0895 24.817 29.3 24.429 29.4445 24.0106Z" fill="#FFC2B3"/>
<path d="M33.5255 17.6011C33.8931 17.3888 34.214 17.2558 34.4897 17.1993C34.7653 17.1428 35.0301 17.134 35.2841 17.171C35.3217 17.1709 35.3562 17.1888 35.3846 17.2264C35.4128 17.2641 35.4271 17.3153 35.4273 17.38C35.4275 17.4717 35.3996 17.5671 35.3466 17.6625C35.2921 17.7588 35.2202 17.8327 35.131 17.8842C35.0794 17.914 35.0309 17.9294 34.9822 17.9305C34.7612 17.905 34.5403 17.9192 34.3179 17.9719C34.0971 18.0238 33.8576 18.1242 33.5979 18.2741C33.2413 18.4801 32.9192 18.7524 32.6318 19.0912C32.346 19.4309 32.1214 19.8126 31.9612 20.2383C31.7995 20.6647 31.7192 21.1072 31.7205 21.5675C31.7217 21.9881 31.7995 22.3214 31.9538 22.5654C32.1065 22.8104 32.3294 22.9446 32.6193 22.9698C32.9093 22.9933 33.2506 22.8935 33.6464 22.665C34.0891 22.4093 34.5003 22.0531 34.8798 21.5945L34.8756 20.1276L33.7117 20.7996C33.6319 20.8457 33.563 20.8531 33.5064 20.8209C33.4499 20.7887 33.4216 20.7258 33.4213 20.6341C33.4211 20.5424 33.4489 20.4471 33.5051 20.3499C33.5613 20.2526 33.63 20.1805 33.7098 20.1345L35.1006 19.3315C35.1945 19.2773 35.2744 19.2689 35.3403 19.3065C35.4062 19.3441 35.4393 19.4168 35.4396 19.5265L35.4449 21.3655C35.4452 21.4806 35.4204 21.5957 35.3722 21.7136C35.3224 21.8306 35.2584 21.9342 35.1787 22.0234C34.6524 22.6315 34.1146 23.0933 33.5639 23.4112C33.0789 23.6912 32.6483 23.8156 32.2706 23.787C31.8944 23.7593 31.601 23.5848 31.3932 23.2636C31.1853 22.9424 31.0807 22.5005 31.0791 21.9378C31.0775 21.3643 31.184 20.795 31.3986 20.2264C31.6133 19.6577 31.908 19.1436 32.2812 18.685C32.6544 18.2265 33.0702 17.8639 33.5255 17.6011Z" fill="#FFC2B3"/>
<path d="M14.7434 39.728C14.6645 39.728 14.5879 39.6867 14.5455 39.6134C14.4822 39.504 14.5194 39.3645 14.6288 39.3012L32.209 29.1511C32.3191 29.0867 32.4583 29.1254 32.5215 29.2348C32.5848 29.3442 32.5476 29.4837 32.4382 29.547L14.858 39.6971C14.8216 39.718 14.7821 39.728 14.7434 39.728Z" fill="#546577"/>
<path d="M14.7429 42.5149C14.664 42.5149 14.5874 42.4736 14.545 42.4003C14.4817 42.2909 14.5189 42.1513 14.6283 42.0881L32.2085 31.938C32.3186 31.8736 32.4578 31.9123 32.521 32.0217C32.5843 32.1311 32.5471 32.2706 32.4377 32.3339L14.8575 42.484C14.8211 42.5048 14.7816 42.5149 14.7429 42.5149Z" fill="#546577"/>
<path d="M14.7429 45.3015C14.664 45.3015 14.5874 45.2602 14.545 45.1869C14.4817 45.0775 14.5189 44.938 14.6283 44.8747L32.2085 34.7246C32.3186 34.6602 32.4578 34.6989 32.521 34.8083C32.5843 34.9177 32.5471 35.0572 32.4377 35.1205L14.8575 45.2706C14.8211 45.2915 14.7816 45.3015 14.7429 45.3015Z" fill="#546577"/>
</g>
<defs>
<clipPath id="clip0_2333_7216">
<rect width="50" height="50" fill="white"/>
</clipPath>
</defs>
</svg>
