<svg width="50" height="50" viewBox="0 0 50 50" fill="none" xmlns="http://www.w3.org/2000/svg">
<g clip-path="url(#clip0_2333_6220)">
<path d="M10.9198 49.7881L9.48393 48.9525C8.91697 48.6227 8.56686 47.9242 8.56496 46.9293L8.48535 20.4277L15.4925 20.8619L12.3428 48.036C12.3447 49.031 10.3548 49.4583 10.9198 49.7881Z" fill="#546577"/>
<path d="M9.93408 25.9828L41.4487 7.78784L41.515 29.5698C41.5207 31.5707 40.114 34.0071 38.3728 35.0124L13.162 49.5678C11.4219 50.5725 10.006 49.7656 10.0004 47.7648L9.93408 25.9828Z" fill="#202931"/>
<path d="M40.5162 1.04766C40.6261 2.65487 40.5258 6.76837 38.7913 4.83536L15.5389 17.4188C13.7992 18.423 13.4489 19.4958 13.4545 21.4949L9.93422 25.9824L8.49832 25.1486L8.48538 20.4277C8.47796 18.4286 9.88609 15.9922 11.6258 14.988L36.8366 0.432539C37.713 -0.0732669 38.5059 -0.119586 39.0803 0.212057L40.5162 1.04766Z" fill="#35414D"/>
<path d="M38.2728 1.26727C40.0141 0.261936 41.4299 1.06879 41.4355 3.0683L41.4489 7.78774L9.9343 25.9827L9.92092 21.2633C9.91525 19.2638 11.3219 16.8273 13.062 15.8227L38.2728 1.26727Z" fill="#181E25"/>
<path d="M13.3577 19.2026C13.9345 18.8696 14.4071 19.1297 14.409 19.7924C14.4109 20.4551 13.9413 21.2685 13.3645 21.6015C12.7918 21.9322 12.3232 21.6605 12.3213 20.9977C12.3194 20.335 12.785 19.5333 13.3577 19.2026Z" fill="#7289A0"/>
<path d="M16.7097 17.2629C17.2865 16.9299 17.7591 17.19 17.761 17.8527C17.7629 18.5154 17.2933 19.3288 16.7165 19.6618C16.1438 19.9925 15.6752 19.7208 15.6733 19.058C15.6715 18.3953 16.137 17.5936 16.7097 17.2629Z" fill="#7289A0"/>
<path d="M20.0623 15.3235C20.639 14.9905 21.1117 15.2505 21.1136 15.9132C21.1154 16.576 20.6458 17.3894 20.0691 17.7224C19.4963 18.0531 19.0278 17.7813 19.0259 17.1186C19.024 16.4558 19.4895 15.6541 20.0623 15.3235Z" fill="#7289A0"/>
<path d="M18.8897 24.1164C19.0414 24.0288 19.164 24.0986 19.1645 24.273L19.1829 30.7722C19.1834 30.9443 19.0616 31.1576 18.9099 31.2452L17.7156 31.9347C17.5658 32.0212 17.4413 31.9502 17.4408 31.7781L17.4224 25.2788C17.4219 25.1045 17.5456 24.8924 17.6954 24.8059L18.8897 24.1164Z" fill="#2C3640"/>
<path d="M21.8702 24.7741C22.0219 24.6865 22.1445 24.7564 22.145 24.9307L22.1567 29.0612C22.1572 29.2333 22.0354 29.4466 21.8837 29.5342L20.6894 30.2237C20.5376 30.3113 20.415 30.2392 20.4145 30.0671L20.4028 25.9366C20.4023 25.7622 20.5242 25.5512 20.6759 25.4636L21.8702 24.7741Z" fill="#FF492C"/>
<path d="M15.9693 28.1691C16.121 28.0815 16.2436 28.1514 16.2441 28.3257L16.2558 32.4563C16.2563 32.6284 16.1345 32.8416 15.9828 32.9292L14.7885 33.6187C14.6368 33.7063 14.5142 33.6342 14.5137 33.4621L14.502 29.3316C14.5015 29.1572 14.6233 28.9462 14.775 28.8587L15.9693 28.1691Z" fill="#FF492C"/>
<path d="M25.023 29.5501C24.9755 29.5501 24.9289 29.5254 24.9033 29.4812C24.8652 29.4151 24.8878 29.3306 24.9539 29.2925L26.5317 28.3815C26.5978 28.3432 26.6821 28.3656 26.7205 28.4319C26.7587 28.498 26.7361 28.5825 26.67 28.6206L25.0922 29.5316C25.0702 29.5442 25.0466 29.5501 25.023 29.5501Z" fill="#1C323D"/>
<path d="M14.1104 35.9769C14.0629 35.9769 14.0163 35.9521 13.9907 35.9079C13.9526 35.8418 13.9752 35.7573 14.0413 35.7192L16.749 34.1559C16.8154 34.118 16.8994 34.1403 16.9378 34.2064C16.976 34.2725 16.9534 34.357 16.8872 34.3951L14.1796 35.9584C14.1576 35.971 14.134 35.9769 14.1104 35.9769Z" fill="#7289A0"/>
<path d="M17.8668 33.8081C17.8192 33.8081 17.7727 33.7833 17.747 33.7391C17.7089 33.673 17.7315 33.5885 17.7976 33.5504L24.1297 29.8943C24.1958 29.8562 24.2805 29.8786 24.3186 29.9447C24.3567 30.0108 24.3341 30.0953 24.268 30.1334L17.9359 33.7895C17.914 33.8022 17.8904 33.8081 17.8668 33.8081Z" fill="#7289A0"/>
<path d="M25.1597 29.597C25.1122 29.597 25.0656 29.5722 25.04 29.528C25.0019 29.4619 25.0245 29.3774 25.0906 29.3393L26.6684 28.4283C26.7345 28.3901 26.8188 28.4125 26.8573 28.4788C26.8954 28.5449 26.8728 28.6294 26.8067 28.6675L25.2289 29.5785C25.207 29.5911 25.1833 29.597 25.1597 29.597Z" fill="#7289A0"/>
<path d="M14.1104 38.652C14.0629 38.652 14.0163 38.6273 13.9907 38.5831C13.9526 38.517 13.9752 38.4325 14.0413 38.3944L21.3818 34.1559C21.4476 34.118 21.5323 34.1403 21.5707 34.2064C21.6088 34.2725 21.5862 34.357 21.5201 34.3951L14.1796 38.6335C14.1576 38.6461 14.134 38.652 14.1104 38.652Z" fill="#7289A0"/>
<path d="M22.6822 33.7028C22.6346 33.7028 22.5881 33.678 22.5625 33.6338C22.5243 33.5677 22.5469 33.4832 22.6131 33.4451L26.6685 31.1035C26.7346 31.0654 26.8189 31.0878 26.8574 31.1539C26.8955 31.22 26.8729 31.3045 26.8068 31.3427L22.7513 33.6842C22.7294 33.6969 22.7058 33.7028 22.6822 33.7028Z" fill="#7289A0"/>
<path d="M14.1104 41.3272C14.0629 41.3272 14.0163 41.3024 13.9907 41.2582C13.9526 41.1921 13.9752 41.1076 14.0413 41.0695L16.749 39.506C16.8154 39.4681 16.8994 39.4903 16.9378 39.5565C16.976 39.6226 16.9534 39.7071 16.8872 39.7452L14.1796 41.3086C14.1576 41.3213 14.134 41.3272 14.1104 41.3272Z" fill="#7289A0"/>
<path d="M17.8668 39.1585C17.8192 39.1585 17.7727 39.1337 17.747 39.0895C17.7089 39.0234 17.7315 38.9389 17.7976 38.9008L26.6684 33.7787C26.7345 33.7404 26.8189 33.7628 26.8573 33.8291C26.8954 33.8952 26.8728 33.9797 26.8067 34.0178L17.9359 39.1399C17.914 39.1526 17.8904 39.1585 17.8668 39.1585Z" fill="#7289A0"/>
<path d="M14.1104 44.0023C14.0629 44.0023 14.0163 43.9775 13.9907 43.9333C13.9526 43.8672 13.9752 43.7827 14.0413 43.7446L23.3074 38.3945C23.3731 38.3565 23.4578 38.3788 23.4963 38.4449C23.5344 38.511 23.5118 38.5955 23.4457 38.6336L14.1796 43.9837C14.1576 43.9963 14.134 44.0023 14.1104 44.0023Z" fill="#7289A0"/>
<path d="M24.3707 38.0781C24.3231 38.0781 24.2766 38.0533 24.2509 38.0092C24.2128 37.943 24.2354 37.8586 24.3015 37.8204L26.6686 36.4536C26.7347 36.4155 26.819 36.4379 26.8574 36.504C26.8956 36.5701 26.873 36.6546 26.8068 36.6927L24.4398 38.0596C24.4179 38.0722 24.3943 38.0781 24.3707 38.0781Z" fill="#7289A0"/>
<path d="M14.1104 46.6772C14.0629 46.6772 14.0163 46.6524 13.9907 46.6082C13.9526 46.5421 13.9752 46.4576 14.0413 46.4195L26.6684 39.1287C26.7345 39.0904 26.8188 39.1132 26.8573 39.1791C26.8954 39.2452 26.8728 39.3297 26.8067 39.3678L14.1796 46.6587C14.1576 46.6713 14.134 46.6772 14.1104 46.6772Z" fill="#7289A0"/>
<path d="M36.1719 14.1357C36.3236 14.0481 36.4462 14.1179 36.4467 14.2923L36.4652 20.7915C36.4657 20.9636 36.3438 21.1768 36.1921 21.2644L34.9978 21.954C34.848 22.0404 34.7235 21.9695 34.723 21.7973L34.7046 15.2981C34.7041 15.1238 34.8278 14.9117 34.9776 14.8252L36.1719 14.1357Z" fill="#2C3640"/>
<path d="M30.3726 17.4877C30.5243 17.4001 30.6469 17.47 30.6474 17.6443L30.6659 24.1436C30.6663 24.3157 30.5445 24.5289 30.3928 24.6165L29.1985 25.306C29.0487 25.3925 28.9242 25.3215 28.9237 25.1494L28.9053 18.6502C28.9048 18.4758 29.0285 18.2637 29.1783 18.1773L30.3726 17.4877Z" fill="#2C3640"/>
<path d="M24.5201 20.8659C24.6718 20.7783 24.7944 20.8482 24.7949 21.0225L24.8133 27.5217C24.8138 27.6938 24.692 27.9071 24.5403 27.9947L23.346 28.6842C23.1962 28.7707 23.0716 28.6997 23.0712 28.5276L23.0527 22.0284C23.0522 21.854 23.176 21.6419 23.3258 21.5554L24.5201 20.8659Z" fill="#2C3640"/>
<path d="M33.233 18.2109C33.3847 18.1233 33.5073 18.1931 33.5078 18.3675L33.5195 22.498C33.52 22.6701 33.3982 22.8833 33.2465 22.9709L32.0522 23.6605C31.9004 23.748 31.7778 23.6759 31.7773 23.5038L31.7656 19.3733C31.7651 19.199 31.8869 18.988 32.0387 18.9004L33.233 18.2109Z" fill="#FF492C"/>
<path d="M27.4434 21.5512C27.5951 21.4636 27.7177 21.5335 27.7182 21.7078L27.7299 25.8383C27.7304 26.0104 27.6086 26.2237 27.4569 26.3113L26.2626 27.0008C26.1109 27.0884 25.9883 27.0163 25.9878 26.8442L25.9761 22.7137C25.9756 22.5393 26.0974 22.3283 26.2491 22.2407L27.4434 21.5512Z" fill="#FF492C"/>
<path d="M25.1597 29.6012C25.1122 29.6012 25.0656 29.5764 25.04 29.5322C25.0019 29.4661 25.0245 29.3816 25.0906 29.3435L27.7983 27.7802C27.8647 27.7423 27.9487 27.7645 27.9872 27.8306C28.0253 27.8967 28.0027 27.9812 27.9366 28.0193L25.2289 29.5826C25.207 29.5953 25.1833 29.6012 25.1597 29.6012Z" fill="#7289A0"/>
<path d="M28.9161 27.4324C28.8685 27.4324 28.822 27.4076 28.7963 27.3634C28.7582 27.2973 28.7808 27.2128 28.8469 27.1747L35.179 23.5186C35.2451 23.4804 35.3298 23.5029 35.3679 23.569C35.406 23.6351 35.3834 23.7196 35.3173 23.7577L28.9852 27.4138C28.9633 27.4265 28.9397 27.4324 28.9161 27.4324Z" fill="#7289A0"/>
<path d="M36.2091 23.2213C36.1615 23.2213 36.1149 23.1965 36.0893 23.1523C36.0512 23.0862 36.0738 23.0017 36.1399 22.9636L37.7177 22.0526C37.7838 22.0143 37.8681 22.0368 37.9066 22.103C37.9447 22.1691 37.9221 22.2536 37.856 22.2917L36.2782 23.2027C36.2563 23.2154 36.2327 23.2213 36.2091 23.2213Z" fill="#7289A0"/>
<path d="M25.1597 32.2763C25.1122 32.2763 25.0656 32.2515 25.04 32.2073C25.0019 32.1412 25.0245 32.0567 25.0906 32.0186L32.4312 27.7802C32.4969 27.7423 32.5816 27.7645 32.62 27.8306C32.6582 27.8967 32.6356 27.9812 32.5694 28.0193L25.2289 32.2578C25.207 32.2704 25.1833 32.2763 25.1597 32.2763Z" fill="#7289A0"/>
<path d="M33.7315 27.327C33.684 27.327 33.6374 27.3022 33.6118 27.2581C33.5737 27.192 33.5963 27.1075 33.6624 27.0694L37.7178 24.7278C37.7839 24.6897 37.8683 24.7121 37.9067 24.7782C37.9448 24.8443 37.9222 24.9288 37.8561 24.9669L33.8007 27.3085C33.7787 27.3211 33.7551 27.327 33.7315 27.327Z" fill="#7289A0"/>
<path d="M25.1597 34.9514C25.1122 34.9514 25.0656 34.9267 25.04 34.8825C25.0019 34.8164 25.0245 34.7319 25.0906 34.6938L27.7983 33.1303C27.8647 33.0924 27.9487 33.1146 27.9872 33.1807C28.0253 33.2468 28.0027 33.3313 27.9366 33.3694L25.2289 34.9329C25.207 34.9455 25.1833 34.9514 25.1597 34.9514Z" fill="#7289A0"/>
<path d="M28.9161 32.7827C28.8685 32.7827 28.822 32.7579 28.7963 32.7138C28.7582 32.6477 28.7808 32.5632 28.8469 32.5251L37.7178 27.4029C37.7839 27.3647 37.8682 27.3871 37.9066 27.4534C37.9447 27.5195 37.9221 27.604 37.856 27.6421L28.9852 32.7642C28.9633 32.7768 28.9397 32.7827 28.9161 32.7827Z" fill="#7289A0"/>
<path d="M25.1597 37.6265C25.1122 37.6265 25.0656 37.6017 25.04 37.5575C25.0019 37.4914 25.0245 37.407 25.0906 37.3688L34.3567 32.0187C34.4225 31.9808 34.5071 32.003 34.5456 32.0692C34.5837 32.1353 34.5611 32.2197 34.495 32.2579L25.2289 37.608C25.207 37.6206 25.1833 37.6265 25.1597 37.6265Z" fill="#7289A0"/>
<path d="M35.42 31.7024C35.3724 31.7024 35.3259 31.6776 35.3003 31.6334C35.2621 31.5673 35.2847 31.4828 35.3508 31.4447L37.7179 30.0779C37.784 30.0398 37.8683 30.0622 37.9068 30.1283C37.9449 30.1944 37.9223 30.2789 37.8562 30.317L35.4891 31.6838C35.4672 31.6965 35.4436 31.7024 35.42 31.7024Z" fill="#7289A0"/>
<path d="M25.1597 40.3015C25.1122 40.3015 25.0656 40.2767 25.04 40.2325C25.0019 40.1664 25.0245 40.0819 25.0906 40.0438L37.7177 32.753C37.7838 32.7147 37.8681 32.7375 37.9066 32.8034C37.9447 32.8695 37.9221 32.954 37.856 32.9921L25.2289 40.2829C25.207 40.2956 25.1833 40.3015 25.1597 40.3015Z" fill="#7289A0"/>
</g>
<defs>
<clipPath id="clip0_2333_6220">
<rect width="50" height="50" fill="white"/>
</clipPath>
</defs>
</svg>
