<svg width="50" height="50" viewBox="0 0 50 50" fill="none" xmlns="http://www.w3.org/2000/svg">
<g clip-path="url(#clip0_2333_6681)">
<path d="M10.9198 49.7881L9.48393 48.9525C8.91697 48.6227 8.56686 47.9242 8.56496 46.9293L8.48535 20.4277L15.4925 20.8619L12.3428 48.036C12.3447 49.031 10.3548 49.4583 10.9198 49.7881Z" fill="#546577"/>
<path d="M9.93408 25.9828L41.4487 7.78784L41.515 29.5698C41.5207 31.5707 40.114 34.0071 38.3728 35.0124L13.162 49.5678C11.4219 50.5725 10.006 49.7656 10.0004 47.7648L9.93408 25.9828Z" fill="#202931"/>
<path d="M40.5162 1.04766C40.6261 2.65487 40.5258 6.76837 38.7913 4.83536L15.5389 17.4188C13.7992 18.423 13.4489 19.4958 13.4545 21.4949L9.93422 25.9824L8.49832 25.1486L8.48538 20.4277C8.47796 18.4286 9.88609 15.9922 11.6258 14.988L36.8366 0.432539C37.713 -0.0732669 38.5059 -0.119586 39.0803 0.212057L40.5162 1.04766Z" fill="#35414D"/>
<path d="M38.2728 1.26727C40.0141 0.261936 41.4299 1.06879 41.4355 3.0683L41.4489 7.78774L9.9343 25.9827L9.92092 21.2633C9.91525 19.2638 11.3219 16.8273 13.062 15.8227L38.2728 1.26727Z" fill="#181E25"/>
<path d="M13.3577 19.2026C13.9345 18.8696 14.4071 19.1297 14.409 19.7924C14.4109 20.4551 13.9413 21.2685 13.3645 21.6015C12.7918 21.9322 12.3232 21.6605 12.3213 20.9977C12.3194 20.335 12.785 19.5333 13.3577 19.2026Z" fill="#7289A0"/>
<path d="M16.7097 17.2629C17.2865 16.9299 17.7591 17.19 17.761 17.8527C17.7629 18.5154 17.2933 19.3288 16.7165 19.6618C16.1438 19.9925 15.6752 19.7208 15.6733 19.058C15.6715 18.3953 16.137 17.5936 16.7097 17.2629Z" fill="#7289A0"/>
<path d="M20.0623 15.3235C20.639 14.9905 21.1117 15.2505 21.1136 15.9132C21.1154 16.576 20.6458 17.3894 20.0691 17.7224C19.4963 18.0531 19.0278 17.7813 19.0259 17.1186C19.024 16.4558 19.4895 15.6541 20.0623 15.3235Z" fill="#7289A0"/>
<path d="M13.1094 28.2904C13.0619 28.2904 13.0153 28.2656 12.9897 28.2214C12.9516 28.1553 12.9742 28.0708 13.0403 28.0327L15.748 26.4694C15.8144 26.4315 15.8984 26.4537 15.9369 26.5198C15.975 26.5859 15.9524 26.6704 15.8863 26.7085L13.1786 28.2718C13.1567 28.2845 13.1331 28.2904 13.1094 28.2904Z" fill="#7289A0"/>
<path d="M16.8658 26.1216C16.8182 26.1216 16.7717 26.0968 16.7461 26.0526C16.7079 25.9865 16.7305 25.902 16.7966 25.8639L23.1287 22.2078C23.1949 22.1697 23.2795 22.1921 23.3176 22.2582C23.3557 22.3243 23.3331 22.4088 23.267 22.4469L16.9349 26.103C16.913 26.1157 16.8894 26.1216 16.8658 26.1216Z" fill="#7289A0"/>
<path d="M24.1588 21.9105C24.1112 21.9105 24.0647 21.8857 24.039 21.8415C24.0009 21.7754 24.0235 21.6909 24.0896 21.6528L25.6674 20.7418C25.7335 20.7035 25.8178 20.726 25.8563 20.7922C25.8944 20.8583 25.8718 20.9428 25.8057 20.9809L24.2279 21.8919C24.206 21.9046 24.1824 21.9105 24.1588 21.9105Z" fill="#7289A0"/>
<path d="M13.1094 30.9655C13.0619 30.9655 13.0153 30.9407 12.9897 30.8966C12.9516 30.8304 12.9742 30.746 13.0403 30.7078L20.3809 26.4694C20.4466 26.4315 20.5313 26.4537 20.5697 26.5198C20.6079 26.5859 20.5853 26.6704 20.5192 26.7085L13.1786 30.947C13.1567 30.9596 13.1331 30.9655 13.1094 30.9655Z" fill="#7289A0"/>
<path d="M21.6812 26.0162C21.6337 26.0162 21.5871 25.9915 21.5615 25.9473C21.5234 25.8812 21.546 25.7967 21.6121 25.7586L25.6675 23.417C25.7336 23.3789 25.818 23.4013 25.8564 23.4674C25.8945 23.5335 25.8719 23.618 25.8058 23.6561L21.7504 25.9977C21.7284 26.0103 21.7048 26.0162 21.6812 26.0162Z" fill="#7289A0"/>
<path d="M13.1094 33.6407C13.0619 33.6407 13.0153 33.6159 12.9897 33.5717C12.9516 33.5056 12.9742 33.4211 13.0403 33.383L15.748 31.8195C15.8144 31.7816 15.8984 31.8038 15.9369 31.8699C15.975 31.936 15.9524 32.0205 15.8863 32.0586L13.1786 33.6221C13.1567 33.6348 13.1331 33.6407 13.1094 33.6407Z" fill="#7289A0"/>
<path d="M16.8658 31.4719C16.8182 31.4719 16.7717 31.4472 16.7461 31.403C16.7079 31.3369 16.7305 31.2524 16.7966 31.2143L25.6675 26.0922C25.7336 26.0539 25.8179 26.0763 25.8563 26.1426C25.8944 26.2087 25.8718 26.2932 25.8057 26.3313L16.9349 31.4534C16.913 31.466 16.8894 31.4719 16.8658 31.4719Z" fill="#7289A0"/>
<path d="M13.1094 36.3157C13.0619 36.3157 13.0153 36.2909 12.9897 36.2468C12.9516 36.1806 12.9742 36.0962 13.0403 36.058L22.3064 30.7079C22.3722 30.67 22.4568 30.6923 22.4953 30.7584C22.5334 30.8245 22.5108 30.909 22.4447 30.9471L13.1786 36.2972C13.1567 36.3098 13.1331 36.3157 13.1094 36.3157Z" fill="#7289A0"/>
<path d="M23.3697 30.3916C23.3221 30.3916 23.2756 30.3668 23.25 30.3226C23.2118 30.2565 23.2344 30.172 23.3006 30.1339L25.6676 28.7671C25.7337 28.729 25.818 28.7514 25.8565 28.8175C25.8946 28.8836 25.872 28.9681 25.8059 29.0062L23.4388 30.3731C23.4169 30.3857 23.3933 30.3916 23.3697 30.3916Z" fill="#7289A0"/>
<path d="M13.1094 38.9907C13.0619 38.9907 13.0153 38.9659 12.9897 38.9217C12.9516 38.8556 12.9742 38.7711 13.0403 38.733L25.6674 31.4422C25.7335 31.4039 25.8178 31.4267 25.8563 31.4926C25.8944 31.5587 25.8718 31.6432 25.8057 31.6813L13.1786 38.9721C13.1567 38.9848 13.1331 38.9907 13.1094 38.9907Z" fill="#7289A0"/>
<path d="M13.1094 33.6405C13.0619 33.6405 13.0153 33.6157 12.9897 33.5715C12.9516 33.5054 12.9742 33.4209 13.0403 33.3828L15.748 31.8195C15.8144 31.7816 15.8984 31.8038 15.9369 31.8699C15.975 31.936 15.9524 32.0205 15.8863 32.0586L13.1786 33.6219C13.1567 33.6346 13.1331 33.6405 13.1094 33.6405Z" fill="#7289A0"/>
<path d="M16.8658 31.4717C16.8182 31.4717 16.7717 31.4469 16.7461 31.4027C16.7079 31.3366 16.7305 31.2521 16.7966 31.214L23.1287 27.5579C23.1949 27.5198 23.2795 27.5422 23.3176 27.6083C23.3557 27.6744 23.3331 27.7589 23.267 27.797L16.9349 31.4531C16.913 31.4658 16.8894 31.4717 16.8658 31.4717Z" fill="#7289A0"/>
<path d="M24.1588 27.2606C24.1112 27.2606 24.0647 27.2358 24.039 27.1916C24.0009 27.1255 24.0235 27.041 24.0896 27.0029L25.6674 26.0919C25.7335 26.0536 25.8178 26.0761 25.8563 26.1423C25.8944 26.2084 25.8718 26.2929 25.8057 26.331L24.2279 27.242C24.206 27.2547 24.1824 27.2606 24.1588 27.2606Z" fill="#7289A0"/>
<path d="M13.1094 36.3156C13.0619 36.3156 13.0153 36.2908 12.9897 36.2466C12.9516 36.1805 12.9742 36.0961 13.0403 36.0579L20.3809 31.8195C20.4466 31.7816 20.5313 31.8038 20.5697 31.8699C20.6079 31.936 20.5853 32.0205 20.5192 32.0586L13.1786 36.2971C13.1567 36.3097 13.1331 36.3156 13.1094 36.3156Z" fill="#7289A0"/>
<path d="M21.6812 31.3663C21.6337 31.3663 21.5871 31.3416 21.5615 31.2974C21.5234 31.2313 21.546 31.1468 21.6121 31.1087L25.6675 28.7671C25.7336 28.729 25.818 28.7514 25.8564 28.8175C25.8945 28.8836 25.8719 28.9681 25.8058 29.0062L21.7504 31.3478C21.7284 31.3604 21.7048 31.3663 21.6812 31.3663Z" fill="#7289A0"/>
<path d="M13.1094 38.9908C13.0619 38.9908 13.0153 38.966 12.9897 38.9218C12.9516 38.8557 12.9742 38.7712 13.0403 38.7331L15.748 37.1696C15.8144 37.1317 15.8984 37.1539 15.9369 37.22C15.975 37.2861 15.9524 37.3706 15.8863 37.4087L13.1786 38.9722C13.1567 38.9849 13.1331 38.9908 13.1094 38.9908Z" fill="#7289A0"/>
<path d="M16.8658 36.822C16.8182 36.822 16.7717 36.7973 16.7461 36.7531C16.7079 36.687 16.7305 36.6025 16.7966 36.5644L25.6675 31.4423C25.7336 31.404 25.8179 31.4264 25.8563 31.4927C25.8944 31.5588 25.8718 31.6433 25.8057 31.6814L16.9349 36.8035C16.913 36.8161 16.8894 36.822 16.8658 36.822Z" fill="#7289A0"/>
<path d="M13.1094 41.6658C13.0619 41.6658 13.0153 41.641 12.9897 41.5969C12.9516 41.5307 12.9742 41.4463 13.0403 41.4081L22.3064 36.058C22.3722 36.0201 22.4568 36.0424 22.4953 36.1085C22.5334 36.1746 22.5108 36.2591 22.4447 36.2972L13.1786 41.6473C13.1567 41.6599 13.1331 41.6658 13.1094 41.6658Z" fill="#7289A0"/>
<path d="M23.3697 35.7417C23.3221 35.7417 23.2756 35.7169 23.25 35.6727C23.2118 35.6066 23.2344 35.5221 23.3006 35.484L25.6676 34.1172C25.7337 34.0791 25.818 34.1015 25.8565 34.1676C25.8946 34.2337 25.872 34.3182 25.8059 34.3563L23.4388 35.7232C23.4169 35.7358 23.3933 35.7417 23.3697 35.7417Z" fill="#7289A0"/>
<path d="M13.1094 44.3408C13.0619 44.3408 13.0153 44.316 12.9897 44.2718C12.9516 44.2057 12.9742 44.1212 13.0403 44.0831L25.6674 36.7923C25.7335 36.754 25.8178 36.7768 25.8563 36.8427C25.8944 36.9088 25.8718 36.9933 25.8057 37.0314L13.1786 44.3222C13.1567 44.3349 13.1331 44.3408 13.1094 44.3408Z" fill="#7289A0"/>
<path d="M25.712 21.0138C25.6644 21.0138 25.6179 20.989 25.5922 20.9448C25.5541 20.8787 25.5767 20.7942 25.6428 20.7561L28.3505 19.1928C28.417 19.1549 28.501 19.1771 28.5394 19.2432C28.5775 19.3093 28.5549 19.3938 28.4888 19.4319L25.7811 20.9952C25.7592 21.0079 25.7356 21.0138 25.712 21.0138Z" fill="#7289A0"/>
<path d="M29.4683 18.845C29.4208 18.845 29.3742 18.8202 29.3486 18.776C29.3105 18.7099 29.3331 18.6254 29.3992 18.5873L35.7313 14.9312C35.7974 14.893 35.8821 14.9155 35.9202 14.9816C35.9583 15.0477 35.9357 15.1322 35.8696 15.1703L29.5375 18.8264C29.5155 18.8391 29.4919 18.845 29.4683 18.845Z" fill="#7289A0"/>
<path d="M36.7613 14.6339C36.7137 14.6339 36.6672 14.6091 36.6416 14.5649C36.6034 14.4988 36.626 14.4143 36.6922 14.3762L38.27 13.4652C38.3361 13.4269 38.4204 13.4494 38.4588 13.5156C38.4969 13.5817 38.4743 13.6662 38.4082 13.7043L36.8304 14.6153C36.8085 14.628 36.7849 14.6339 36.7613 14.6339Z" fill="#7289A0"/>
<path d="M25.712 23.6889C25.6644 23.6889 25.6179 23.6641 25.5922 23.6199C25.5541 23.5538 25.5767 23.4693 25.6428 23.4312L32.9834 19.1928C33.0492 19.1549 33.1338 19.1771 33.1723 19.2432C33.2104 19.3093 33.1878 19.3938 33.1217 19.4319L25.7811 23.6704C25.7592 23.683 25.7356 23.6889 25.712 23.6889Z" fill="#7289A0"/>
<path d="M34.2838 18.7396C34.2362 18.7396 34.1897 18.7148 34.164 18.6707C34.1259 18.6046 34.1485 18.5201 34.2146 18.482L38.2701 16.1404C38.3362 16.1023 38.4205 16.1247 38.459 16.1908C38.4971 16.2569 38.4745 16.3414 38.4084 16.3795L34.3529 18.7211C34.331 18.7337 34.3074 18.7396 34.2838 18.7396Z" fill="#7289A0"/>
<path d="M25.712 26.364C25.6644 26.364 25.6179 26.3393 25.5922 26.2951C25.5541 26.229 25.5767 26.1445 25.6428 26.1064L28.3505 24.5429C28.417 24.505 28.501 24.5272 28.5394 24.5933C28.5775 24.6594 28.5549 24.7439 28.4888 24.782L25.7811 26.3455C25.7592 26.3581 25.7356 26.364 25.712 26.364Z" fill="#7289A0"/>
<path d="M29.4683 24.1953C29.4208 24.1953 29.3742 24.1705 29.3486 24.1264C29.3105 24.0603 29.3331 23.9758 29.3992 23.9377L38.27 18.8155C38.3361 18.7773 38.4204 18.7997 38.4589 18.866C38.497 18.9321 38.4744 19.0166 38.4083 19.0547L29.5375 24.1768C29.5155 24.1894 29.4919 24.1953 29.4683 24.1953Z" fill="#7289A0"/>
<path d="M25.712 29.0391C25.6644 29.0391 25.6179 29.0143 25.5922 28.9701C25.5541 28.904 25.5767 28.8195 25.6428 28.7814L34.9089 23.4313C34.9747 23.3934 35.0594 23.4156 35.0978 23.4817C35.1359 23.5479 35.1133 23.6323 35.0472 23.6705L25.7811 29.0206C25.7592 29.0332 25.7356 29.0391 25.712 29.0391Z" fill="#7289A0"/>
<path d="M35.9722 23.115C35.9247 23.115 35.8781 23.0902 35.8525 23.046C35.8144 22.9799 35.837 22.8954 35.9031 22.8573L38.2701 21.4905C38.3362 21.4524 38.4206 21.4748 38.459 21.5409C38.4971 21.607 38.4745 21.6915 38.4084 21.7296L36.0414 23.0964C36.0195 23.1091 35.9958 23.115 35.9722 23.115Z" fill="#7289A0"/>
<path d="M25.712 31.7141C25.6644 31.7141 25.6179 31.6893 25.5922 31.6451C25.5541 31.579 25.5767 31.4945 25.6428 31.4564L38.2699 24.1656C38.336 24.1273 38.4204 24.1501 38.4588 24.216C38.4969 24.2821 38.4743 24.3666 38.4082 24.4047L25.7811 31.6955C25.7592 31.7082 25.7356 31.7141 25.712 31.7141Z" fill="#7289A0"/>
<path d="M25.712 26.3641C25.6644 26.3641 25.6179 26.3393 25.5922 26.2951C25.5541 26.229 25.5767 26.1445 25.6428 26.1064L28.3505 24.5431C28.417 24.5052 28.501 24.5275 28.5394 24.5936C28.5775 24.6597 28.5549 24.7442 28.4888 24.7823L25.7811 26.3456C25.7592 26.3582 25.7356 26.3641 25.712 26.3641Z" fill="#7289A0"/>
<path d="M29.4683 24.1953C29.4208 24.1953 29.3742 24.1705 29.3486 24.1263C29.3105 24.0602 29.3331 23.9757 29.3992 23.9376L35.7313 20.2815C35.7974 20.2434 35.8821 20.2658 35.9202 20.3319C35.9583 20.398 35.9357 20.4825 35.8696 20.5206L29.5375 24.1767C29.5155 24.1894 29.4919 24.1953 29.4683 24.1953Z" fill="#7289A0"/>
<path d="M36.7613 19.9842C36.7137 19.9842 36.6672 19.9594 36.6416 19.9152C36.6034 19.8491 36.626 19.7647 36.6922 19.7265L38.27 18.8155C38.3361 18.7773 38.4204 18.7997 38.4588 18.866C38.4969 18.9321 38.4743 19.0166 38.4082 19.0547L36.8304 19.9657C36.8085 19.9783 36.7849 19.9842 36.7613 19.9842Z" fill="#7289A0"/>
<path d="M25.712 29.0393C25.6644 29.0393 25.6179 29.0145 25.5922 28.9703C25.5541 28.9042 25.5767 28.8197 25.6428 28.7816L32.9834 24.5431C33.0492 24.5052 33.1338 24.5275 33.1723 24.5936C33.2104 24.6597 33.1878 24.7442 33.1217 24.7823L25.7811 29.0207C25.7592 29.0334 25.7356 29.0393 25.712 29.0393Z" fill="#7289A0"/>
<path d="M34.2838 24.09C34.2362 24.09 34.1897 24.0652 34.164 24.021C34.1259 23.9549 34.1485 23.8704 34.2146 23.8323L38.2701 21.4907C38.3362 21.4526 38.4205 21.475 38.459 21.5411C38.4971 21.6073 38.4745 21.6917 38.4084 21.7299L34.3529 24.0714C34.331 24.0841 34.3074 24.09 34.2838 24.09Z" fill="#7289A0"/>
<path d="M25.712 31.7144C25.6644 31.7144 25.6179 31.6896 25.5922 31.6454C25.5541 31.5793 25.5767 31.4948 25.6428 31.4567L28.3505 29.8932C28.417 29.8553 28.501 29.8776 28.5394 29.9437C28.5775 30.0098 28.5549 30.0943 28.4888 30.1324L25.7811 31.6958C25.7592 31.7085 25.7356 31.7144 25.712 31.7144Z" fill="#7289A0"/>
<path d="M29.4683 29.5457C29.4208 29.5457 29.3742 29.5209 29.3486 29.4767C29.3105 29.4106 29.3331 29.3261 29.3992 29.288L38.27 24.1659C38.3361 24.1276 38.4204 24.15 38.4589 24.2163C38.497 24.2824 38.4744 24.3669 38.4083 24.405L29.5375 29.5271C29.5155 29.5398 29.4919 29.5457 29.4683 29.5457Z" fill="#7289A0"/>
<path d="M25.712 34.3895C25.6644 34.3895 25.6179 34.3647 25.5922 34.3205C25.5541 34.2544 25.5767 34.1699 25.6428 34.1318L34.9089 28.7817C34.9747 28.7437 35.0594 28.766 35.0978 28.8321C35.1359 28.8982 35.1133 28.9827 35.0472 29.0208L25.7811 34.3709C25.7592 34.3836 25.7356 34.3895 25.712 34.3895Z" fill="#7289A0"/>
<path d="M35.9722 28.4653C35.9247 28.4653 35.8781 28.4405 35.8525 28.3964C35.8144 28.3303 35.837 28.2458 35.9031 28.2077L38.2701 26.8408C38.3362 26.8027 38.4206 26.8251 38.459 26.8912C38.4971 26.9574 38.4745 27.0418 38.4084 27.08L36.0414 28.4468C36.0195 28.4594 35.9958 28.4653 35.9722 28.4653Z" fill="#7289A0"/>
<path d="M25.712 37.0644C25.6644 37.0644 25.6179 37.0396 25.5922 36.9954C25.5541 36.9293 25.5767 36.8448 25.6428 36.8067L38.2699 29.5159C38.336 29.4776 38.4204 29.5004 38.4588 29.5663C38.4969 29.6324 38.4743 29.7169 38.4082 29.755L25.7811 37.0459C25.7592 37.0585 25.7356 37.0644 25.712 37.0644Z" fill="#7289A0"/>
<path d="M23.5708 29.053L30.1763 25.2393L27.8791 23.9131L21.2736 27.7268L23.5708 29.053Z" fill="#FF8566"/>
<path d="M23.5708 36.4822V29.0558L21.2736 27.7295V35.1559L23.5708 36.4822Z" fill="#E64027"/>
<path d="M23.5708 36.4823L30.1763 32.6686V25.2422L23.5708 29.0559V36.4823Z" fill="#FF492C"/>
<path d="M25.9715 30.6429C25.9715 31.0337 26.1603 31.2668 26.437 31.2875V33.2382L27.3094 32.7345V30.7838C27.5861 30.4437 27.7749 29.9926 27.7749 29.6017C27.7749 29.0267 27.3713 28.7936 26.8732 29.0812C26.3751 29.3687 25.9715 30.0678 25.9715 30.6429Z" fill="#181E25"/>
<path d="M23.8159 27.8293C24.0237 27.8293 24.1918 27.6612 24.1918 27.4534V25.2493C24.1918 24.1724 24.9799 22.8073 25.9129 22.2688C26.2957 22.0471 26.6517 21.9991 26.8867 22.1348C27.1226 22.271 27.2581 22.6028 27.2581 23.0452V25.2493C27.2581 25.457 27.4262 25.6252 27.634 25.6252C27.8417 25.6252 28.0098 25.457 28.0098 25.2493L28.0098 23.0452C28.0098 22.3165 27.7444 21.762 27.2625 21.4837C26.7809 21.2062 26.1676 21.254 25.5369 21.6177C24.3609 22.2967 23.4399 23.8916 23.4399 25.2493V27.4534C23.4401 27.6612 23.6083 27.8293 23.8159 27.8293Z" fill="#FF492C"/>
</g>
<defs>
<clipPath id="clip0_2333_6681">
<rect width="50" height="50" fill="white"/>
</clipPath>
</defs>
</svg>
