<svg width="50" height="50" viewBox="0 0 50 50" fill="none" xmlns="http://www.w3.org/2000/svg">
<g clip-path="url(#clip0_2333_7373)">
<path d="M10.9198 49.7878L9.48394 48.9523C8.91697 48.6225 8.56686 47.924 8.56496 46.929L8.48535 20.4275L15.4925 20.8617L12.3428 48.0358C12.3447 49.0307 10.3548 49.4581 10.9198 49.7878Z" fill="#546577"/>
<path d="M9.93446 25.9826L8.49805 25.1479L40.0127 6.95288L41.4491 7.78763L9.93446 25.9826Z" fill="#FBD46C"/>
<path d="M9.93408 25.9826L41.4487 7.7876L41.515 29.5696C41.5207 31.5704 40.114 34.0068 38.3728 35.0121L13.162 49.5676C11.4219 50.5722 10.006 49.7654 10.0004 47.7645L9.93408 25.9826Z" fill="#202931"/>
<path d="M40.5162 1.04742C40.6261 2.65462 40.5258 6.76813 38.7913 4.83512L15.5389 17.4186C13.7992 18.4228 13.4489 19.4956 13.4545 21.4947L9.93422 25.9821L8.49832 25.1484L8.48538 20.4275C8.47796 18.4284 9.88609 15.9919 11.6258 14.9877L36.8366 0.432295C37.713 -0.0735111 38.5059 -0.119831 39.0803 0.211813L40.5162 1.04742Z" fill="#35414D"/>
<path d="M38.2728 1.26703C40.0141 0.261692 41.4299 1.06855 41.4355 3.06806L41.4489 7.7875L9.9343 25.9825L9.92092 21.263C9.91525 19.2635 11.3219 16.8271 13.062 15.8225L38.2728 1.26703Z" fill="#181E25"/>
<path d="M13.3577 19.2024C13.9345 18.8694 14.4071 19.1294 14.409 19.7922C14.4109 20.4549 13.9413 21.2683 13.3645 21.6013C12.7918 21.932 12.3232 21.6602 12.3213 20.9975C12.3194 20.3347 12.785 19.533 13.3577 19.2024Z" fill="#7289A0"/>
<path d="M16.7097 17.2627C17.2865 16.9297 17.7591 17.1897 17.761 17.8525C17.7629 18.5152 17.2933 19.3286 16.7165 19.6616C16.1438 19.9923 15.6752 19.7205 15.6733 19.0578C15.6715 18.395 16.137 17.5933 16.7097 17.2627Z" fill="#7289A0"/>
<path d="M20.0623 15.3232C20.639 14.9902 21.1117 15.2503 21.1136 15.913C21.1154 16.5757 20.6459 17.3891 20.0691 17.7222C19.4963 18.0528 19.0278 17.7811 19.0259 17.1183C19.024 16.4556 19.4895 15.6539 20.0623 15.3232Z" fill="#7289A0"/>
<path d="M34.5384 24.4023L34.516 30.8644C34.5122 31.5025 34.2884 31.9502 33.9265 32.1591L23.5542 38.1885L23.5355 38.1997C23.1661 38.4124 22.655 38.3862 22.0916 38.0617C20.976 37.4125 20.0656 35.8417 20.0693 34.5582L20.0843 24.6597V24.656L20.088 24.6597L23.4012 22.7457L24.4757 23.365L24.8414 23.7083L30.4864 20.4287L31.5572 21.0481H31.561V21.7644L32.393 22.2457L32.3967 24.406L33.475 23.7792L34.5384 24.4023Z" fill="#FFD06C"/>
<path d="M30.4868 20.4277L31.5571 21.0493L25.6537 24.4815L24.8408 23.7091L30.4868 20.4277Z" fill="#FF8566"/>
<path d="M21.1619 25.2787L24.4759 23.3661L24.84 23.7081L25.6529 24.4805L31.5564 21.0483H31.56L31.5527 24.8957V31.7579L24.1019 37.2296L22.4268 37.5347L20.6235 35.5783L20.7256 25.9834L21.1619 25.2787Z" fill="#FF492C"/>
<path d="M24.1561 29.1922V28.6294H24.1524L23.0747 28.0078" fill="#FEBC1F"/>
<path d="M23.3998 22.7441L24.4768 23.3657L21.162 25.2795L20.085 24.658L23.3998 22.7441Z" fill="#E64027"/>
<path d="M24.1562 28.6294L27.4666 26.7168L27.8307 27.0589" fill="#FEBC1F"/>
<path d="M32.4154 30.9204L22.9833 36.3677L22.155 35.8864L22.1289 27.2155L31.561 21.7644L32.393 22.2457L32.4154 30.9204Z" fill="#E9E7FC"/>
<path d="M22.9825 36.3693L22.153 35.8872L22.1284 27.2148L22.9579 27.6969L22.9825 36.3693Z" fill="#2C3640"/>
<path d="M22.9579 27.697L22.1284 27.2149L31.5619 21.7644L32.3914 22.2464L22.9579 27.697Z" fill="#546577"/>
<path d="M32.3915 22.2466L32.4161 30.919L22.9826 36.3695L22.958 27.6971L32.3915 22.2466Z" fill="#35414D"/>
<path d="M24.1264 36.9017C24.1227 37.538 23.902 37.9904 23.5342 38.2001L33.925 32.1601C34.2891 31.9504 34.5135 31.5017 34.5172 30.8654L34.5392 24.4028L28.6431 27.8313L27.4646 26.7172L24.1558 28.6295L24.1264 36.9017Z" fill="#FF492C"/>
<path d="M34.5395 24.4029L28.6434 27.8314L28.6398 27.8277L27.8306 27.059L33.4765 23.7776L34.5395 24.4029Z" fill="#FF8566"/>
<path d="M24.1269 36.9019C24.1195 38.1855 23.211 38.7041 22.0928 38.0605C20.9747 37.4131 20.0662 35.8425 20.0698 34.5589L20.0846 24.6572L21.1623 25.2788L21.1439 35.1805C21.1439 35.7837 21.5669 36.523 22.0965 36.8283C22.1333 36.8504 22.1738 36.8687 22.2105 36.8871C22.2473 36.9019 22.2841 36.9166 22.3209 36.9276C22.5232 36.9864 22.6997 36.9607 22.8285 36.8577C22.9682 36.7474 23.0565 36.5487 23.0565 36.2802L23.0749 28.0081L24.1526 28.6297H24.1563L24.1269 36.9019Z" fill="#CC3722"/>
<path d="M27.4649 26.7173L24.1546 28.6299H24.1509L23.0732 28.0083L26.3873 26.0957L27.4649 26.7173Z" fill="#FF8566"/>
<path d="M29.0291 28.6979C30.3233 27.9508 31.3774 28.5488 31.3817 30.0386C31.3859 31.5283 30.3386 33.345 29.0444 34.0922C27.748 34.8407 26.6961 34.2359 26.6919 32.7462C26.6877 31.2565 27.7327 29.4464 29.0291 28.6979Z" fill="#E64027"/>
<path d="M29.4822 31.2602L29.6651 32.1594L28.4487 32.8609L28.4749 32.6892L28.5009 32.5288L29.3404 32.0475L29.1576 31.1446C29.3255 30.9021 29.43 30.6073 29.43 30.3499C29.43 30.182 29.3852 30.0514 29.3106 29.9693C29.3255 29.9656 29.3404 29.9656 29.3554 29.9656C29.5904 29.9581 29.7546 30.1372 29.7583 30.4618C29.7583 30.723 29.6501 31.0177 29.4822 31.2602Z" fill="#111D33"/>
<path d="M29.481 31.259C29.6488 31.0164 29.7577 30.7216 29.7577 30.4631C29.7554 30.1388 29.5921 29.9597 29.3563 29.9642C29.3404 29.9642 29.3246 29.9665 29.3087 29.9687C29.3858 30.0526 29.4289 30.1819 29.4311 30.3497C29.4311 30.6082 29.3246 30.903 29.1567 31.1456L29.3404 32.0459L29.3399 32.0461L29.6667 32.1582L29.481 31.259Z" fill="#35414D"/>
<path d="M29.3399 32.0461L28.5014 32.5289L28.4764 32.6876L28.4492 32.8599L29.6669 32.1592L29.6667 32.1582L29.3399 32.0461Z" fill="#35414D"/>
<path d="M29.1569 31.1456C29.3247 30.903 29.4313 30.6082 29.4313 30.3497C29.429 30.1819 29.3859 30.0527 29.3088 29.9688C29.2294 29.9778 29.141 30.0096 29.0526 30.0595C28.6648 30.284 28.3496 30.8236 28.3496 31.2726C28.3519 31.5334 28.4607 31.7035 28.6263 31.7534L28.5015 32.5289L29.3406 32.0459L29.1569 31.1456Z" fill="#181E25"/>
</g>
<defs>
<clipPath id="clip0_2333_7373">
<rect width="50" height="50" fill="white"/>
</clipPath>
</defs>
</svg>
