<svg width="23" height="23" viewBox="0 0 23 23" fill="none" xmlns="http://www.w3.org/2000/svg">
<path d="M19.7435 8.91885C19.6679 8.78668 19.5279 8.70458 19.3756 8.70319H13.6831C13.4498 8.70387 13.2609 8.89283 13.2602 9.12611V10.4625C13.26 11.4342 12.4721 12.2217 11.5004 12.2215C10.5291 12.2212 9.74173 11.4339 9.7415 10.4625V9.12611C9.74084 8.89283 9.5519 8.70387 9.3186 8.70319H3.6261C3.47384 8.70458 3.33377 8.78668 3.25816 8.91885C0.731862 13.4712 2.3743 19.2095 6.9266 21.7358C11.4789 24.2621 17.2172 22.6197 19.7435 18.0673C21.3224 15.2222 21.3224 11.764 19.7435 8.91885Z" fill="#FFF7E1"/>
<path d="M13.2769 20.1178C13.1983 20.2175 13.0781 20.2752 12.9512 20.2743H10.05C9.81491 20.272 9.62618 20.0796 9.62844 19.8445C9.62867 19.8199 9.63106 19.7953 9.63554 19.771L10.1896 16.9586C9.98285 16.6762 9.87039 16.3358 9.86813 15.9859C9.86813 15.0843 10.599 14.3534 11.5006 14.3534C12.4022 14.3534 13.133 15.0843 13.133 15.9859C13.1308 16.3358 13.0183 16.6762 12.8116 16.9586L13.3656 19.771C13.3903 19.8941 13.3576 20.0217 13.2769 20.1178Z" fill="#B32F1D"/>
<path d="M3.94698 8.70319C3.52524 4.13161 6.81953 0.0933109 11.5003 0.0798561C15.5626 -0.00731424 19.1381 3.57266 19.0537 7.63321V8.70319H16.4231V7.63321C16.4235 4.91443 14.2198 2.71009 11.5011 2.70968C8.78228 2.70927 6.57794 4.91295 6.57753 7.63172C6.57753 7.63222 6.57753 7.6327 6.57753 7.63321V8.70319H3.94698Z" fill="#E6E6E7"/>
</svg>
