<svg width="23" height="23" viewBox="0 0 23 23" fill="none" xmlns="http://www.w3.org/2000/svg">
<g clip-path="url(#clip0_3084_3439)">
<path d="M16.17 6.45707C16.058 6.36236 15.9042 6.3342 15.7659 6.38309L10.6141 8.25822C10.4032 8.33569 10.2944 8.56894 10.3707 8.78028L10.8109 9.98976C11.1307 10.8692 10.6771 11.8415 9.79764 12.1613C8.91847 12.4811 7.94652 12.0279 7.62635 11.1488L7.18613 9.93935C7.10868 9.72842 6.87545 9.61967 6.66409 9.6959L1.51222 11.571C1.37488 11.6224 1.27515 11.7429 1.25026 11.8874C0.463444 16.8395 3.84012 21.4919 8.79224 22.2787C13.7444 23.0655 18.3967 19.6888 19.1835 14.7367C19.6753 11.6417 18.5361 8.51189 16.17 6.45707Z" fill="#FFF7E1"/>
<path d="M14.0064 18.7225C13.9682 18.8386 13.8784 18.9304 13.7632 18.9714L11.1376 19.927C10.924 20.0024 10.6899 19.8904 10.6145 19.6769C10.6066 19.6546 10.6006 19.6315 10.5967 19.6081L10.1717 16.8803C9.89156 16.6928 9.67767 16.4218 9.56035 16.1058C9.26336 15.2899 9.68407 14.3876 10.5 14.0907C11.316 13.7937 12.2182 14.2144 12.5152 15.0303C12.6284 15.3478 12.6387 15.6929 12.5447 16.0166L13.9725 18.3794C14.0353 18.4827 14.0478 18.6089 14.0064 18.7225Z" fill="#B32F1D"/>
<path d="M14.3646 4.40995L11.9602 5.28507C10.7537 3.42363 8.92595 2.73038 6.66629 3.55283C4.2061 4.44827 2.93645 7.16736 3.83057 9.63037L4.18348 10.6L1.80392 11.4661C-0.0849899 7.46637 1.56657 2.72823 5.79814 1.17402C9.25049 -0.166795 12.8622 1.07968 14.3646 4.40995Z" fill="#E6E6E7"/>
<path d="M17.7132 4.50067C17.5679 4.50067 17.4267 4.42533 17.3489 4.29053C17.2328 4.08955 17.3017 3.83255 17.5027 3.71654L18.8985 2.91064C19.0995 2.79458 19.3565 2.86345 19.4725 3.06443C19.5886 3.26541 19.5197 3.5224 19.3187 3.63842L17.9229 4.44432C17.8567 4.48252 17.7844 4.50067 17.7132 4.50067Z" fill="#E6E6E7"/>
<path d="M19.8195 7.15482C19.8064 7.15482 19.7931 7.15423 19.7797 7.15297L18.3712 7.02082C18.1401 6.99914 17.9704 6.79425 17.9921 6.56322C18.0138 6.3322 18.2181 6.16231 18.4497 6.18412L19.8583 6.31627C20.0893 6.33795 20.2591 6.54284 20.2374 6.77387C20.2169 6.99153 20.0338 7.15482 19.8195 7.15482Z" fill="#E6E6E7"/>
<path d="M16.007 2.40972C15.9483 2.40972 15.8888 2.3974 15.832 2.37135C15.6211 2.27458 15.5285 2.02515 15.6253 1.81425L16.2151 0.528315C16.3119 0.317333 16.5614 0.224847 16.7722 0.321577C16.9832 0.418307 17.0758 0.667779 16.979 0.878677L16.3892 2.16461C16.3184 2.31879 16.1661 2.40972 16.007 2.40972Z" fill="#E6E6E7"/>
</g>
<defs>
<clipPath id="clip0_3084_3439">
<rect width="23" height="23" fill="white"/>
</clipPath>
</defs>
</svg>
