<svg width="23" height="23" viewBox="0 0 23 23" fill="none" xmlns="http://www.w3.org/2000/svg">
<g clip-path="url(#clip0_1168_4057)">
<path d="M16.17 6.45707C16.058 6.36235 15.9042 6.33419 15.7659 6.38308L10.6141 8.25821C10.4032 8.33568 10.2944 8.56893 10.3707 8.78027L10.8109 9.98976C11.1307 10.8692 10.6771 11.8415 9.79764 12.1613C8.91847 12.4811 7.94652 12.0278 7.62635 11.1488L7.18613 9.93934C7.10868 9.72842 6.87545 9.61966 6.66409 9.69589L1.51222 11.571C1.37488 11.6224 1.27515 11.7429 1.25026 11.8874C0.463444 16.8395 3.84012 21.4919 8.79224 22.2787C13.7444 23.0655 18.3967 19.6888 19.1835 14.7367C19.6753 11.6417 18.5361 8.51189 16.17 6.45707Z" fill="#FFF7E1"/>
<path d="M14.0064 18.7225C13.9682 18.8385 13.8784 18.9304 13.7632 18.9714L11.1376 19.927C10.924 20.0024 10.6899 19.8904 10.6145 19.6769C10.6066 19.6546 10.6006 19.6315 10.5967 19.6081L10.1717 16.8803C9.89156 16.6928 9.67767 16.4218 9.56035 16.1058C9.26336 15.2899 9.68407 14.3876 10.5 14.0907C11.316 13.7937 12.2182 14.2144 12.5152 15.0303C12.6284 15.3478 12.6387 15.6929 12.5447 16.0166L13.9725 18.3794C14.0353 18.4826 14.0478 18.6089 14.0064 18.7225Z" fill="#B32F1D"/>
<path d="M14.8915 4.93683L12.4871 5.81195C11.408 3.7347 8.92581 2.73 6.66616 3.55245C4.20596 4.44789 2.93631 7.16698 3.83044 9.62999L4.18334 10.5996L1.80378 11.4657C-0.0851288 7.46598 1.56643 2.72785 5.798 1.17364C9.25035 -0.167175 13.3891 1.60656 14.8915 4.93683Z" fill="#E6E6E7"/>
<path d="M15.3619 3.48428C15.216 3.4531 15.1228 3.30933 15.154 3.16337L15.7189 0.519135C15.7501 0.373173 15.8939 0.280018 16.0398 0.3112C16.1858 0.342382 16.2789 0.486151 16.2477 0.632113L15.6829 3.27635C15.6517 3.42231 15.5079 3.51547 15.3619 3.48428Z" fill="#E6E6E7"/>
<path d="M16.8355 4.35211C16.7678 4.33765 16.7056 4.29728 16.6648 4.23491C16.5837 4.10975 16.6195 3.94211 16.7446 3.86101L19.312 2.19754C19.4371 2.11644 19.6048 2.15226 19.6858 2.27741C19.7669 2.40257 19.7311 2.57021 19.606 2.65131L17.0387 4.31478C16.9764 4.35512 16.9032 4.36657 16.8355 4.35211Z" fill="#E6E6E7"/>
<path d="M19.6697 6.61653L17.5543 6.16462C17.4083 6.13344 17.3152 5.98967 17.3463 5.8437C17.3775 5.69774 17.5213 5.60459 17.6673 5.63577L19.7826 6.08768C19.9286 6.11887 20.0218 6.26263 19.9906 6.4086C19.9594 6.55456 19.8156 6.64771 19.6697 6.61653Z" fill="#E6E6E7"/>
</g>
<defs>
<clipPath id="clip0_1168_4057">
<rect width="23" height="23" fill="white"/>
</clipPath>
</defs>
</svg>
