<svg width="13" height="17" viewBox="0 0 13 17" fill="none" xmlns="http://www.w3.org/2000/svg">
<path d="M12.846 11.1297C12.7279 14.1408 9.9554 16.5 6.53508 16.5C3.11476 16.5 0.342308 14.1415 0.224195 11.1297C0.219835 11.0125 0.229384 10.8953 0.246613 10.7788L0.777606 7.06503C0.855034 6.52086 1.32894 6.10983 1.88007 6.10983H11.1899C11.7404 6.10983 12.2151 6.52086 12.2923 7.06503L12.8236 10.7788C12.8406 10.8953 12.8503 11.0133 12.846 11.1297Z" fill="#FF492C"/>
<path d="M12.8236 10.7788L12.2924 7.06503C12.2151 6.52086 11.7404 6.10983 11.1899 6.10983H1.88007C1.32894 6.10983 0.855034 6.52086 0.777606 7.06503L0.246613 10.7788C0.229384 10.8953 0.219835 11.0125 0.224195 11.1297C0.342308 14.1415 3.11476 16.5 6.53508 16.5C9.9554 16.5 12.7279 14.1408 12.846 11.1297C12.8503 11.0133 12.8406 10.8953 12.8236 10.7788ZM1.70633 12.7893C1.29614 12.7893 0.963392 12.4567 0.963392 12.0471C0.963392 11.6373 1.29614 11.3049 1.70633 11.3049C2.1163 11.3049 2.44926 11.6373 2.44926 12.0471C2.44926 12.4567 2.1163 12.7893 1.70633 12.7893ZM2.44926 8.33627C2.03908 8.33627 1.70633 8.00384 1.70633 7.59405C1.70633 7.18448 2.03908 6.85184 2.44926 6.85184C2.85923 6.85184 3.19198 7.18448 3.19198 7.59405C3.19198 8.00384 2.85923 8.33627 2.44926 8.33627ZM6.53508 15.758C6.1249 15.758 5.79215 15.4254 5.79215 15.0158C5.79215 14.606 6.1249 14.2736 6.53508 14.2736C6.94506 14.2736 7.27802 14.606 7.27802 15.0158C7.27802 15.4254 6.94506 15.758 6.53508 15.758ZM7.08995 10.4076C6.97557 10.4737 6.90499 10.5961 6.90499 10.7282V12.4181C6.90499 12.6222 6.73851 12.7893 6.53363 12.7893C6.32854 12.7893 6.16206 12.6222 6.16206 12.4181V10.7282C6.16206 10.5961 6.09148 10.4737 5.9771 10.407C5.53745 10.1517 5.33153 9.66392 5.45421 9.16454C5.55156 8.76886 5.8866 8.44618 6.28848 8.36157C6.37172 8.34436 6.45475 8.33544 6.53571 8.33544C6.79207 8.33544 7.03432 8.42088 7.23567 8.58492C7.49784 8.79707 7.64793 9.11249 7.64793 9.44948C7.64855 9.84579 7.44055 10.2043 7.08995 10.4076ZM9.87797 7.59405C9.87797 7.18448 10.2109 6.85184 10.6209 6.85184C11.0311 6.85184 11.3638 7.18448 11.3638 7.59405C11.3638 8.00384 11.0311 8.33627 10.6209 8.33627C10.2109 8.33627 9.87797 8.00384 9.87797 7.59405ZM11.3638 12.7893C10.9537 12.7893 10.6209 12.4567 10.6209 12.0471C10.6209 11.6373 10.9537 11.3049 11.3638 11.3049C11.7738 11.3049 12.1068 11.6373 12.1068 12.0471C12.1068 12.4567 11.7738 12.7893 11.3638 12.7893Z" fill="white"/>
<path d="M9.67089 6.10985V4.78925C9.67089 3.062 8.26441 1.65677 6.53559 1.65677C4.80666 1.65677 3.40007 3.062 3.40007 4.78925V6.10985H2.24219V4.78925C2.24219 2.42415 4.1682 0.5 6.53559 0.5C8.90299 0.5 10.829 2.42415 10.829 4.78925V6.10985H9.67089Z" fill="#CCCCCE"/>
</svg>
