<svg width="16" height="16" viewBox="0 0 16 16" fill="none" xmlns="http://www.w3.org/2000/svg">
<g clip-path="url(#clip0_1197_1876)">
<path d="M12.7067 3.35925C11.2674 3.35925 10.079 4.4537 9.92969 5.85406C10.9743 6.50213 11.6716 7.6593 11.6716 8.97646V10.8593C11.6716 11.5461 11.362 12.1775 10.8551 12.5981V15.1268C10.8551 15.3695 11.0519 15.5663 11.2946 15.5663H14.1188C14.3615 15.5663 14.5583 15.3695 14.5583 15.1268V10.7563C15.1049 10.5723 15.4997 10.055 15.4997 9.44714V6.15221C15.4997 4.61219 14.2467 3.35925 12.7067 3.35925Z" fill="#B32F1D"/>
<path d="M12.709 3.35931C13.479 3.35931 14.1055 2.73285 14.1055 1.96281C14.0353 0.112713 11.3824 0.113241 11.3125 1.96284C11.3125 2.73285 11.939 3.35931 12.709 3.35931Z" fill="#B32F1D"/>
<path d="M9.39325 4.787C9.39325 4.01696 8.76679 3.3905 7.99676 3.3905C6.14666 3.4607 6.14716 6.11356 7.99678 6.18349C8.76676 6.18349 9.39325 5.55704 9.39325 4.787Z" fill="#B32F1D"/>
<path d="M7.99577 6.18347C6.55645 6.18347 5.36805 7.27792 5.21875 8.67828C6.26339 9.32635 6.96063 10.4835 6.96063 11.8007V12.2714C6.96063 12.9582 6.6511 13.5896 6.14421 14.0102V15.1268C6.14421 15.3695 6.34097 15.5663 6.58366 15.5663H9.40788C9.65058 15.5663 9.84733 15.3695 9.84733 15.1268V12.1684C10.394 11.9845 10.7887 11.4671 10.7887 10.8593V8.97643C10.7887 7.43638 9.53582 6.18347 7.99577 6.18347Z" fill="#B32F1D"/>
<path d="M3.29296 9.00769C1.74767 9.00769 0.5 10.2585 0.5 11.8006V12.2713C0.5 12.8792 0.894746 13.3966 1.4414 13.5805V15.1268C1.4414 15.3695 1.63815 15.5663 1.88085 15.5663H4.70507C4.94776 15.5663 5.14452 15.3695 5.14452 15.1268V13.5805C5.69117 13.3966 6.08592 12.8792 6.08592 12.2713V11.8006C6.08595 10.2556 4.8355 9.00769 3.29296 9.00769Z" fill="#B32F1D"/>
<path d="M3.29493 9.00774C4.06494 9.00774 4.69143 8.38128 4.69143 7.61125C4.62123 5.76115 1.96837 5.76168 1.89844 7.61128C1.89847 8.38128 2.52492 9.00774 3.29493 9.00774Z" fill="#B32F1D"/>
</g>
<defs>
<clipPath id="clip0_1197_1876">
<rect width="15" height="15" fill="white" transform="translate(0.5 0.570923)"/>
</clipPath>
</defs>
</svg>
