<svg width="12" height="12" viewBox="0 0 12 12" fill="none" xmlns="http://www.w3.org/2000/svg">
<g clip-path="url(#clip0_1871_1379)">
<path d="M9.76459 2.23071C8.61312 2.23071 7.66241 3.10627 7.54297 4.22656C8.37868 4.74502 8.93647 5.67075 8.93647 6.72448V8.23073C8.93647 8.7802 8.68885 9.28531 8.28334 9.62182V11.6448C8.28334 11.8389 8.44074 11.9963 8.6349 11.9963H10.8943C11.0884 11.9963 11.2458 11.8389 11.2458 11.6448V8.14838C11.6832 8.00119 11.999 7.58731 11.999 7.10102V4.46508C11.999 3.23306 10.9966 2.23071 9.76459 2.23071Z" fill="#808082"/>
<path d="M9.76563 2.23076C10.3816 2.23076 10.8828 1.72959 10.8828 1.11356C10.8267 -0.366519 8.70438 -0.366097 8.64844 1.11358C8.64844 1.72959 9.1496 2.23076 9.76563 2.23076Z" fill="#808082"/>
<path d="M7.11382 3.37293C7.11382 2.7569 6.61265 2.25574 5.99662 2.25574C4.51655 2.31189 4.51695 4.43418 5.99665 4.49013C6.61263 4.49013 7.11382 3.98896 7.11382 3.37293Z" fill="#808082"/>
<path d="M5.99505 4.49011C4.84359 4.49011 3.89288 5.36567 3.77344 6.48596C4.60915 7.00442 5.16694 7.93015 5.16694 8.98388V9.36043C5.16694 9.90987 4.91932 10.415 4.5138 10.7515V11.6448C4.5138 11.839 4.67121 11.9964 4.86537 11.9964H7.12474C7.3189 11.9964 7.47631 11.839 7.47631 11.6448V9.27809C7.91363 9.13093 8.22942 8.71704 8.22942 8.23074V6.72448C8.22942 5.49244 7.22709 4.49011 5.99505 4.49011Z" fill="#808082"/>
<path d="M2.23437 6.74951C0.998133 6.74951 0 7.75013 0 8.98388V9.36043C0 9.84673 0.315797 10.2606 0.753117 10.4078V11.6448C0.753117 11.839 0.910523 11.9964 1.10468 11.9964H3.36405C3.55821 11.9964 3.71562 11.839 3.71562 11.6448V10.4078C4.15294 10.2606 4.46873 9.84673 4.46873 9.36043V8.98388C4.46876 7.74783 3.4684 6.74951 2.23437 6.74951Z" fill="#808082"/>
<path d="M2.23438 6.74955C2.85039 6.74955 3.35158 6.24839 3.35158 5.63236C3.29542 4.15228 1.17313 4.1527 1.11719 5.63238C1.11721 6.24839 1.61838 6.74955 2.23438 6.74955Z" fill="#808082"/>
</g>
<defs>
<clipPath id="clip0_1871_1379">
<rect width="12" height="12" fill="white"/>
</clipPath>
</defs>
</svg>
