<svg width="93" height="67" viewBox="0 0 93 67" fill="none" xmlns="http://www.w3.org/2000/svg">
<path d="M84.6121 42.4562L46.8148 62.1596C46.5251 62.3206 46.1709 62.4172 45.849 62.4172C45.527 62.4172 45.1729 62.3528 44.8831 62.1918L7.15045 42.9392C6.15241 42.424 5.73387 41.2006 6.1846 40.1704L20.8334 8.58694C21.1875 7.84646 21.928 7.36353 22.7651 7.36353H69.3515C70.1563 7.36353 70.929 7.84646 71.2831 8.58694L85.5781 39.6874C86.0286 40.7177 85.6425 41.9411 84.6121 42.4562Z" fill="#1A171B"/>
<path d="M28.2378 2.8564C28.1734 2.56665 27.948 2.34128 27.6582 2.2447C27.4007 2.14811 27.0787 2.18031 26.8534 2.37348C26.7246 2.47006 23.7948 4.72372 21.4446 7.65348C19.3197 10.3257 18.0319 12.5471 17.9675 12.6437C17.9031 12.7403 17.8709 12.869 17.8709 12.9657C17.8709 13.0623 16.7441 21.5296 15.4241 28.3228C14.1041 35.1159 11.3031 41.0077 11.2709 41.072C11.11 41.3617 11.1743 41.7159 11.3675 41.9735C11.4319 42.0701 12.9129 44.034 14.3939 45.6437C15.8427 47.2857 19.0621 50.0544 19.2231 50.1832C19.4807 50.3764 19.8027 50.4408 20.0924 50.3442C20.3821 50.2477 20.6075 49.9901 20.6719 49.6681L21.7666 43.229C22.1851 43.3578 22.668 43.5189 23.2475 43.6798C24.0846 43.9374 24.8894 44.1305 25.4046 44.2593L26.5636 54.5617C26.5958 54.8515 26.789 55.1413 27.0466 55.2378C27.1109 55.2701 28.3343 55.8496 30.588 56.6544C32.906 57.4915 35.6427 57.7813 35.7714 57.7813C35.8036 57.7813 35.8358 57.7813 35.868 57.7813C36.0934 57.7813 36.3187 57.6847 36.4475 57.5559C36.6407 57.395 36.7373 57.1374 36.7373 56.8798C36.7373 56.751 36.2543 44.034 34.0651 30.351C31.8436 16.6681 28.27 2.98519 28.2378 2.8564ZM24.6641 35.7277L22.8612 35.631C23.0543 34.3754 23.4407 32.0574 23.7305 30.1257C23.7948 29.7393 23.8593 29.2242 23.8914 28.6769C24.2455 31.4778 24.5354 34.2789 24.6641 35.7277Z" fill="#1A171B"/>
<path fill-rule="evenodd" clip-rule="evenodd" d="M28.0121 1.24069C28.5929 1.44046 29.1111 1.91883 29.2716 2.60505C29.2723 2.60761 29.2731 2.61094 29.2742 2.61517L29.3142 2.77046C29.343 2.88195 29.3844 3.0432 29.4372 3.25089C29.5429 3.66623 29.6944 4.26713 29.8822 5.02706C30.2577 6.54684 30.7784 8.70306 31.3675 11.2838C32.5454 16.443 33.9994 23.3084 35.1152 30.1803L35.1155 30.1827C37.3134 43.92 37.8011 56.6933 37.8011 56.8797C37.8011 57.366 37.6253 57.9382 37.1633 58.3436C36.8231 58.6634 36.339 58.8457 35.8672 58.8457H35.7706C35.6538 58.8457 35.3791 58.8152 35.0957 58.7786C34.7696 58.7363 34.326 58.6714 33.8125 58.5796C32.7932 58.3973 31.4654 58.1031 30.2281 57.6565C28.1246 56.9052 26.8864 56.3407 26.6174 56.213C25.9437 55.9333 25.5704 55.2658 25.5049 54.6806M25.5047 54.6792L24.4285 45.1126C23.9927 45.0015 23.4766 44.8639 22.9476 44.7014C22.8326 44.6694 22.7205 44.6372 22.6117 44.6052L21.7181 49.8616L21.715 49.8768C21.5795 50.5542 21.0986 51.1306 20.4283 51.354C19.7684 51.5739 19.0863 51.4118 18.5836 51.0347L18.5703 51.0247L18.5573 51.0143C18.3791 50.8719 15.1143 48.0672 13.6021 46.3562C12.1874 44.8174 10.7675 42.9596 10.5151 42.612C10.1384 42.1097 9.93401 41.3184 10.3222 40.5868C10.3812 40.4618 11.0492 39.0386 11.8663 36.8484C12.723 34.552 13.733 31.4399 14.3783 28.1195C15.0341 24.7446 15.6432 20.9466 16.0889 17.9749C16.3116 16.4902 16.4931 15.2145 16.6189 14.3047C16.6818 13.8497 16.7306 13.487 16.7636 13.2358C16.7802 13.1099 16.7926 13.0134 16.8007 12.9479C16.8035 12.9255 16.8057 12.9078 16.8072 12.8944C16.8198 12.627 16.9034 12.3194 17.0809 12.0531C17.0731 12.0646 17.0755 12.0607 17.1132 11.9987C17.1198 11.9876 17.1277 11.9747 17.1368 11.9597C17.1833 11.8828 17.249 11.7746 17.3329 11.639C17.5006 11.3678 17.7397 10.9884 18.0443 10.5274C18.653 9.60619 19.5245 8.35647 20.6105 6.99071L20.612 6.98893L20.6134 6.98715C22.9646 4.05628 25.857 1.79435 26.1887 1.54072C26.739 1.08841 27.456 1.03926 28.0121 1.24069M16.8114 12.8567C16.8115 12.8563 16.811 12.8607 16.8099 12.8717C16.8106 12.8626 16.8113 12.8571 16.8114 12.8567ZM27.276 3.39347C27.7932 5.40802 30.9752 17.9674 33.0133 30.5204C34.102 37.3254 34.7672 43.8955 35.1602 48.7834C35.3566 51.2265 35.4848 53.2471 35.5639 54.6637C35.6217 55.6998 35.6523 56.3964 35.6648 56.7026C35.5974 56.6951 35.4999 56.6839 35.369 56.667C35.0734 56.6287 34.6638 56.5689 34.1874 56.4837C33.2273 56.3119 32.0287 56.043 30.9488 55.653L30.9453 55.6517C29.8371 55.256 28.9856 54.9168 28.4068 54.6743C28.1174 54.5531 27.8964 54.4561 27.7457 54.3883C27.6885 54.3627 27.6425 54.3417 27.6076 54.3256L26.3791 43.4056L25.662 43.2263C25.5995 43.2108 25.5336 43.1943 25.4646 43.1773C24.9518 43.0499 24.2679 42.88 23.5598 42.6621L23.5458 42.6578L23.5317 42.6539C23.1334 42.5433 22.7941 42.4362 22.4709 42.3341C22.3385 42.2924 22.2088 42.2514 22.0788 42.2114L20.9195 41.8547L19.6757 49.1712C19.5774 49.0866 19.4515 48.9776 19.3041 48.8487C18.9612 48.549 18.5034 48.144 18.0063 47.6926C17.0005 46.7793 15.8728 45.7115 15.1913 44.9392L15.1841 44.9309L15.1766 44.9228C14.4592 44.1431 13.7357 43.2706 13.18 42.5759C12.9031 42.2298 12.67 41.9306 12.5031 41.713C12.3914 41.5674 12.3192 41.4713 12.282 41.4217C12.7039 40.5165 15.2258 34.9203 16.4683 28.5257C17.1325 25.1074 17.7469 21.2752 18.1946 18.2907C18.4186 16.7973 18.6012 15.5135 18.728 14.5963C18.7914 14.1377 18.8409 13.7701 18.8747 13.5132C18.8915 13.385 18.9046 13.283 18.9136 13.2106C18.9181 13.1747 18.9218 13.1437 18.9246 13.1194C18.9247 13.1185 18.9248 13.1177 18.9249 13.1169C18.9291 13.1099 18.9336 13.1026 18.9382 13.095C19.2645 12.5586 20.4389 10.6277 22.2757 8.3176C23.4028 6.91292 24.6778 5.65973 25.6949 4.74081C26.2019 4.28273 26.6408 3.91135 26.9594 3.64973C27.0848 3.54663 27.1915 3.46074 27.276 3.39347ZM18.8525 13.2341C18.8554 13.2298 18.8591 13.2241 18.8636 13.2168C18.8602 13.2224 18.8565 13.2282 18.8525 13.2341ZM22.8278 28.6142L24.9468 28.5432C25.3026 31.3569 25.5937 34.171 25.7237 35.6332L25.8324 36.8562L21.6294 36.631L21.8081 35.469C21.8869 34.9574 21.9937 34.2935 22.1121 33.5573C22.2928 32.4339 22.5006 31.1425 22.6768 29.9676L22.6781 29.959L22.6795 29.9505C22.7383 29.5981 22.7981 29.1207 22.8278 28.6142Z" fill="#1A171B"/>
<path d="M80.9068 41.0719C80.8747 41.0075 78.0737 35.148 76.7537 28.3226C75.4337 21.5295 74.3068 13.0622 74.3068 12.9656C74.2747 12.8368 74.2425 12.7402 74.2102 12.6436C74.1459 12.5471 72.858 10.3256 70.7332 7.65338C68.3829 4.69143 65.4532 2.46997 65.3244 2.37338C65.099 2.2124 64.7771 2.14801 64.5195 2.2446C64.262 2.34119 64.0366 2.56655 63.94 2.85631C63.9078 2.98509 60.3341 16.668 58.1449 30.351C55.9556 44.0338 55.4727 56.751 55.4727 56.8798C55.4727 57.1373 55.5693 57.3626 55.7625 57.5558C55.9234 57.7168 56.1487 57.7812 56.342 57.7812C56.3741 57.7812 56.4063 57.7812 56.4386 57.7812C56.5674 57.7812 59.2717 57.4592 61.622 56.6544C63.9078 55.8495 65.1312 55.2699 65.1634 55.2378C65.421 55.109 65.6141 54.8514 65.6463 54.5617L66.7732 44.2592C67.2883 44.1305 68.0932 43.9373 68.9302 43.6798C69.5098 43.5187 70.0249 43.3578 70.4112 43.229L71.5059 49.668C71.5702 49.9899 71.7634 50.2475 72.0854 50.3441C72.3751 50.4407 72.7293 50.4085 72.9547 50.1832C73.0834 50.0544 76.3029 47.3178 77.7839 45.6436C79.2327 44.0338 80.7137 42.0378 80.8102 41.9734C81.0034 41.7158 81.0356 41.3617 80.9068 41.0719ZM69.2844 35.631L67.4814 35.7275C67.6102 34.2787 67.8678 31.4778 68.2541 28.6768C68.3186 29.2241 68.3507 29.7071 68.4151 30.1256C68.7049 32.0573 69.0912 34.3432 69.2844 35.631Z" fill="#1A171B"/>
<path fill-rule="evenodd" clip-rule="evenodd" d="M64.1439 1.24779C64.79 1.00549 65.4805 1.17787 65.9413 1.50708L65.9514 1.51428L65.9614 1.5217C66.1113 1.63425 69.1287 3.92092 71.5651 6.99138C72.6509 8.3569 73.5222 9.6064 74.1308 10.5275C74.4353 10.9885 74.6746 11.3679 74.8422 11.639C74.9261 11.7747 74.9918 11.8829 75.0384 11.9598L75.0619 11.9986C75.0996 12.0607 75.1019 12.0647 75.0943 12.0532L75.1733 12.1717L75.2203 12.3127C75.2528 12.4101 75.2957 12.5388 75.3378 12.7074L75.3696 12.8345V12.9085C75.3709 12.9196 75.3725 12.9327 75.3744 12.948C75.3826 13.0135 75.395 13.11 75.4115 13.2358C75.4446 13.487 75.4934 13.8499 75.5563 14.3049C75.682 15.2147 75.8635 16.4904 76.0863 17.9749C76.532 20.9467 77.1411 24.7447 77.7969 28.1196L77.7971 28.1205C78.4422 31.4566 79.4522 34.5683 80.3086 36.8599C81.1483 39.107 81.8309 40.5406 81.8565 40.5942L81.8572 40.5958L81.868 40.6174L81.8778 40.6395C82.1563 41.2661 82.095 42.0323 81.6601 42.6122L81.5506 42.758L81.5134 42.7829C81.4693 42.837 81.4097 42.9118 81.3335 43.0081C81.2765 43.0801 81.2109 43.1634 81.1383 43.2557C80.9944 43.4383 80.8229 43.6561 80.6355 43.8917C80.0692 44.6036 79.3219 45.5238 78.5764 46.3524C77.7922 47.2383 76.5786 48.3747 75.5743 49.2826C75.0656 49.7424 74.6004 50.1528 74.2553 50.4554C73.876 50.788 73.7049 50.9366 73.7056 50.9359C73.1175 51.524 72.3087 51.5359 71.7628 51.3593C71.0016 51.1245 70.585 50.5013 70.4601 49.8768L70.4571 49.8617L69.5636 44.6061C69.4543 44.6378 69.3421 44.6696 69.2275 44.7016C68.6995 44.8637 68.1842 45.0011 67.749 45.1121L66.7028 54.6774L66.7026 54.6792C66.6299 55.3338 66.2204 55.8759 65.6922 56.1616C65.6768 56.1706 65.6638 56.1779 65.6548 56.1829C65.6261 56.1987 65.5963 56.2139 65.5701 56.2271C65.5155 56.2544 65.4452 56.2879 65.3618 56.3263C65.1935 56.4039 64.9545 56.5095 64.6473 56.6382C64.0323 56.8959 63.1357 57.2494 61.9737 57.6585L61.9694 57.66L61.9651 57.6615C60.721 58.0876 59.4009 58.3806 58.3877 58.5667C57.8782 58.6602 57.4392 58.7281 57.1167 58.7729C56.9555 58.7951 56.8215 58.812 56.7208 58.8235L56.7159 58.8241C56.6502 58.8316 56.5258 58.8458 56.4367 58.8458H56.3401C55.9412 58.8458 55.4167 58.7175 55.0078 58.3086C54.6284 57.9292 54.4062 57.4381 54.4062 56.8797C54.4062 56.6934 54.8939 43.92 57.0919 30.1827C58.1914 23.3101 59.6376 16.4442 60.8115 11.2846C61.3986 8.70376 61.9184 6.54735 62.2934 5.02746C62.4809 4.26746 62.6323 3.66651 62.7379 3.2511C62.7908 3.04339 62.8321 2.88211 62.8608 2.7706L62.9009 2.61533C62.9045 2.60153 62.9056 2.59717 62.9054 2.5981L62.9153 2.55844L62.9282 2.51966C63.1258 1.92678 63.5839 1.45778 64.1439 1.24779ZM75.3638 12.8568C75.3639 12.8574 75.3645 12.8628 75.3653 12.8717C75.3641 12.8606 75.3636 12.8562 75.3638 12.8568ZM64.8995 3.39201C65.6177 3.95744 67.9676 5.88301 69.8974 8.31511L69.8981 8.31598C71.7317 10.622 72.9056 12.5503 73.2349 13.0917C73.2421 13.1148 73.2488 13.1371 73.2554 13.1602C73.2572 13.1757 73.2592 13.1926 73.2615 13.2107C73.2705 13.2831 73.2837 13.3851 73.3005 13.5133C73.3342 13.7702 73.3837 14.1378 73.4472 14.5963C73.5739 15.5136 73.7566 16.7974 73.9806 18.2908C74.4283 21.2749 75.0425 25.1067 75.7066 28.5248M64.8995 3.39201C64.3837 5.40173 61.2031 17.9639 59.1943 30.5192C58.1054 37.3246 57.4401 43.8952 57.0472 48.7834C56.8507 51.2266 56.7225 53.2472 56.6435 54.6638C56.5857 55.6975 56.5552 56.3934 56.5426 56.7006C56.6171 56.6916 56.7118 56.6794 56.8242 56.6638C57.1184 56.623 57.5266 56.56 58.0031 56.4725C58.9606 56.2966 60.1659 56.0268 61.2709 55.6487C62.3927 55.2536 63.2492 54.9155 63.8246 54.6744C64.113 54.5535 64.3288 54.458 64.4703 54.3927C64.4915 54.3829 64.5106 54.374 64.5278 54.366L64.531 54.3628L64.599 54.3288L65.7937 43.4063L66.5131 43.2264C66.5756 43.2108 66.6415 43.1945 66.7105 43.1773C67.2234 43.0499 67.9072 42.88 68.6153 42.6622L68.6293 42.6579L68.6435 42.654C69.2043 42.4982 69.7021 42.3426 70.0728 42.2191L71.2508 41.8264L72.4982 49.1637C72.5408 49.1263 72.5864 49.0864 72.6341 49.0447C72.7032 48.9844 72.7766 48.9202 72.8516 48.8545C73.1926 48.5555 73.649 48.1529 74.1464 47.7032C75.153 46.7933 76.2879 45.726 76.9847 44.9383L76.9877 44.9349L76.9908 44.9314C77.693 44.1511 78.4094 43.2699 78.9691 42.5662C79.154 42.3339 79.3179 42.1259 79.4596 41.9459C79.5337 41.8519 79.6017 41.7655 79.6635 41.6873C79.7504 41.5774 79.8271 41.4812 79.8867 41.4087C79.4466 40.4663 76.9431 34.9181 75.7066 28.5248M68.3361 20.2778L69.3096 28.5524C69.3416 28.824 69.3633 29.0476 69.3826 29.2463C69.4084 29.5112 69.4298 29.7319 69.4656 29.9637L69.4661 29.9676C69.61 30.927 69.7781 31.9761 69.9352 32.9503C69.9511 33.0489 69.9668 33.1466 69.9825 33.2436C70.1208 34.1011 70.2477 34.8879 70.3353 35.473L70.5091 36.6313L66.3105 36.8563L66.4192 35.6332C66.5483 34.1818 66.8076 31.3593 67.1977 28.5313L68.3361 20.2778Z" fill="#1A171B"/>
<path d="M45.9104 2.56659C42.0469 2.56659 39.4714 5.39976 39.3426 5.49635C39.1816 5.65732 39.1172 5.91488 39.1172 6.14025C39.1172 6.30122 40.2441 21.5295 40.2441 32.3149C40.2441 39.0115 39.6967 61.3871 39.6645 61.6124C39.6645 61.8378 39.7289 62.0631 39.9221 62.2242C40.0187 62.3207 42.1114 64.4778 45.7816 64.4778C49.4518 64.4778 51.5445 62.2885 51.6411 62.1919C51.8021 62.031 51.8987 61.8056 51.8665 61.5803C51.8665 61.3871 51.3514 42.7783 51.3514 32.3149C51.3514 21.8837 52.4138 6.39781 52.446 6.23683C52.4781 6.01147 52.3816 5.81829 52.2528 5.65732C52.2206 5.56074 49.8381 2.56659 45.9104 2.56659Z" fill="#1A171B"/>
<path fill-rule="evenodd" clip-rule="evenodd" d="M38.7059 4.64457C38.6302 4.70133 41.5915 1.50189 45.9125 1.50189C48.1553 1.50189 49.942 2.35751 51.1535 3.20243C51.7607 3.62585 52.2339 4.05358 52.5619 4.38728C52.726 4.55422 52.8568 4.7007 52.9522 4.81532C52.9994 4.87198 53.0417 4.92536 53.0769 4.97287C53.0934 4.99501 53.1132 5.0227 53.1333 5.05301C53.3382 5.32727 53.5826 5.78245 53.5042 6.3708C53.5038 6.37533 53.5033 6.38082 53.5027 6.38736C53.5003 6.41677 53.4966 6.4616 53.4919 6.52275C53.4827 6.64432 53.4697 6.82147 53.4538 7.04996C53.4219 7.50649 53.3778 8.16306 53.3259 8.97999C53.222 10.6138 53.0864 12.8864 52.9519 15.4796C52.6824 20.6704 52.418 27.1275 52.418 32.3148C52.418 37.534 52.5466 44.7921 52.6753 50.7759C52.771 55.2171 52.8672 58.9784 52.9101 60.652C52.9212 61.084 52.9287 61.3769 52.9317 61.5065C52.9893 62.0994 52.7264 62.6142 52.396 62.9446C52.4083 62.9323 52.369 62.9719 52.3513 62.9895C52.3236 63.0168 52.2874 63.0521 52.2428 63.094C52.1534 63.1779 52.0315 63.2873 51.8776 63.4133C51.5705 63.6649 51.1344 63.9843 50.5756 64.2988C49.4566 64.9285 47.8375 65.5423 45.7837 65.5423C43.7332 65.5423 42.1161 64.9386 40.9975 64.3181C40.4389 64.0082 40.0028 63.6934 39.6953 63.445C39.5413 63.3207 39.4192 63.2125 39.3296 63.1295C39.2848 63.0879 39.2483 63.0529 39.2203 63.0255C39.2123 63.0177 39.2047 63.0101 39.1979 63.0034C38.7206 62.5788 38.602 62.0218 38.602 61.6123V61.5367L38.6064 61.5053C38.6068 61.4995 38.607 61.4926 38.6074 61.4846C38.6092 61.4397 38.6115 61.3733 38.6144 61.2852C38.6201 61.1098 38.6276 60.8564 38.6366 60.5337C38.6545 59.8887 38.6786 58.9712 38.7064 57.8546C38.7623 55.6218 38.8337 52.5956 38.9041 49.367C39.045 42.9045 39.1816 35.6491 39.1816 32.3148C39.1816 26.9517 38.9011 20.4715 38.6196 15.3012C38.4791 12.7183 38.3385 10.4666 38.2331 8.85046C38.1803 8.04248 38.1364 7.39338 38.1056 6.94095C38.1011 6.87518 38.0968 6.81155 38.0926 6.75081C38.0709 6.43528 38.0547 6.19745 38.0547 6.14015C38.0547 5.77019 38.1513 5.18401 38.5918 4.74347L38.6454 4.68996L38.7059 4.64457ZM53.5059 6.35345C53.5059 6.35367 53.5057 6.35661 53.5051 6.36165C53.5057 6.35576 53.5059 6.35325 53.5059 6.35345ZM40.1867 6.16633C40.1904 6.21456 40.1979 6.32486 40.2104 6.51009C40.2159 6.59091 40.2223 6.686 40.2299 6.79643C40.2607 7.24973 40.3048 7.90102 40.3577 8.71186C40.4635 10.3333 40.6046 12.593 40.7458 15.1855C41.0277 20.3659 41.3107 26.8925 41.3107 32.3148C41.3107 35.6771 41.1735 42.9577 41.0328 49.4135C40.9623 52.6441 40.8909 55.6726 40.835 57.9078C40.8071 59.0253 40.783 59.9452 40.7649 60.5931C40.7559 60.9169 40.7483 61.1739 40.7425 61.3543C40.7402 61.4232 40.7382 61.482 40.7364 61.5298C41.077 61.855 42.8554 63.4131 45.7837 63.4131C48.6385 63.4131 50.3998 61.9075 50.8026 61.5255C50.8017 61.4902 50.8004 61.4366 50.7985 61.3615C50.7951 61.2257 50.7902 61.0357 50.784 60.796L50.7822 60.7237C50.7681 60.1759 50.748 59.3919 50.7238 58.4239C50.6755 56.4879 50.6111 53.8154 50.5467 50.8217C50.4179 44.837 50.2889 37.559 50.2889 32.3148C50.2889 27.0708 50.5557 20.5694 50.8255 15.3692C50.9606 12.7669 51.0966 10.4859 51.201 8.84485C51.2532 8.02442 51.2974 7.36325 51.3298 6.90134C51.3459 6.67062 51.3591 6.48837 51.369 6.36031C51.3718 6.32436 51.3742 6.29195 51.3765 6.26348L51.305 6.17401L51.2998 6.15849C51.2428 6.09123 51.1571 5.99544 51.0434 5.87981C50.7929 5.62495 50.419 5.28604 49.9355 4.94885C48.9658 4.27255 47.5974 3.63109 45.9125 3.63109C42.9216 3.63109 40.8684 5.53352 40.1867 6.16633Z" fill="#1A171B"/>
<path d="M45.8157 63.544C42.7894 63.544 40.9543 61.8699 40.6967 61.6445C40.7289 60.5499 41.2762 38.9147 41.2762 32.3792C41.2762 21.8513 40.2138 7.07377 40.1494 6.17231C40.4069 5.88255 42.725 3.5967 45.9445 3.5967C49.1962 3.5967 51.2889 6.01133 51.5143 6.30108C51.4499 7.17035 50.4196 22.2055 50.4196 32.4113C50.4196 42.6172 50.9026 60.6465 50.9347 61.6445C50.7094 61.8377 48.8743 63.544 45.8157 63.544ZM35.7065 56.7831C35.1592 56.7186 32.8411 56.3967 30.8772 55.6884C28.9133 54.9801 27.7221 54.4328 27.4645 54.3362L26.2411 43.422L26.1767 43.3898C26.1767 43.3898 24.8245 43.1001 23.4723 42.7138C22.1201 42.3274 21.0577 41.9732 21.0577 41.9732L20.9611 41.9411L19.7055 49.3138C19.0938 48.7665 16.3572 46.4162 15.1016 44.9996C13.7816 43.5508 12.4294 41.7479 12.1719 41.4259C12.4616 40.8143 15.1016 35.0835 16.3572 28.4835C17.645 21.8192 18.7396 13.545 18.8041 13.0943C18.9328 12.8689 20.2207 10.744 22.1845 8.26499C24.2128 5.72158 26.724 3.66108 27.3035 3.24255C27.6899 4.72353 30.9738 17.6338 33.0343 30.4796C35.1269 43.422 35.6421 55.4952 35.7065 56.7831ZM23.408 19.4689C23.408 19.5332 23.1826 27.1635 22.764 29.9967C22.3455 32.7977 21.766 36.4035 21.7338 36.4358L21.7016 36.5323L25.6938 36.7577V36.6611C25.6938 36.5967 25.3074 31.9928 24.728 27.6465C24.1484 23.3323 23.6011 19.5011 23.5689 19.4689H23.408ZM56.4401 56.7831C56.5045 55.4952 57.0196 43.422 59.0801 30.4796C61.1406 17.6016 64.4245 4.72353 64.8108 3.24255C65.3904 3.69328 67.9016 5.72158 69.9299 8.26499C71.926 10.744 73.1816 12.9011 73.3104 13.0943C73.3747 13.545 74.4694 21.8192 75.7572 28.4835C77.045 35.0835 79.6528 40.8143 79.9426 41.4259C79.7172 41.7479 78.3328 43.5508 77.0128 44.9996C75.7572 46.4162 73.0528 48.7665 72.4089 49.3138L71.1533 41.9411L71.0567 41.9732C71.0567 41.9732 69.9943 42.3274 68.6421 42.7138C67.2899 43.1001 65.9377 43.3898 65.9377 43.3898L65.8733 43.422L64.6499 54.3362C64.3923 54.465 63.2333 54.9801 61.2372 55.6884C59.3377 56.4289 56.9874 56.7186 56.4401 56.7831ZM68.5777 19.4367C68.5777 19.4689 68.0304 23.3001 67.4187 27.6143C66.8392 31.9284 66.4528 36.5645 66.4528 36.6289V36.7255L70.445 36.5001L70.4128 36.4035C70.4128 36.3713 69.8011 32.7655 69.3826 29.9645C68.964 27.1635 68.7387 19.5332 68.7387 19.4367H68.5777Z" fill="url(#paint0_linear_1197_1710)"/>
<path d="M64.9035 3.40338C65.6439 3.98289 67.9942 5.94679 69.8937 8.32923C71.8254 10.7439 73.081 12.8687 73.242 13.1263C73.3385 13.7702 74.4332 21.9156 75.6888 28.5156C76.9445 34.9546 79.4557 40.5887 79.8742 41.4258C79.5523 41.8444 78.2323 43.5507 76.9766 44.9351C75.7854 46.2551 73.3064 48.4444 72.5337 49.1205L71.3103 42.0375L71.2781 41.8121L71.0527 41.8766C71.0527 41.8766 69.9903 42.2307 68.6381 42.617C67.2858 43.0033 65.9337 43.2932 65.9337 43.2932L65.8049 43.3253L65.7727 43.4541L64.5815 54.2394C64.2596 54.4005 63.1005 54.9156 61.2332 55.5594C59.3981 56.2356 57.241 56.5253 56.5327 56.622C56.5971 54.8512 57.1766 43.0678 59.1727 30.4473C61.201 17.9878 64.3561 5.46386 64.9035 3.40338ZM66.32 36.8541H66.5454L70.3122 36.6287H70.5376L70.5054 36.4033C70.5054 36.3712 69.8937 32.7653 69.4751 29.9644C69.0566 27.1633 68.8312 19.5332 68.8312 19.4687L68.4449 19.4366C68.4449 19.4687 67.8976 23.3 67.2859 27.6463C66.7064 31.9605 66.32 36.5966 66.32 36.6609V36.8541ZM27.2673 3.40338C27.7825 5.43166 30.9698 17.9878 32.9659 30.4794C34.962 43.1 35.5415 54.8834 35.6059 56.6541C34.9298 56.5575 32.7405 56.2678 30.9054 55.5917C29.0381 54.9156 27.8791 54.4005 27.5571 54.2717L26.3659 43.4863L26.3337 43.3575L26.2049 43.3253C26.2049 43.3253 24.8849 43.0356 23.5005 42.6493C22.1484 42.2629 21.0859 41.9087 21.0859 41.9087L20.8605 41.8444L20.8284 42.0697L19.6049 49.1526C18.8 48.4444 16.321 46.2873 15.162 44.9673C13.9064 43.5829 12.5864 41.8766 12.2645 41.458C12.6508 40.6209 15.1942 35.019 16.4498 28.5478C17.7376 21.9478 18.8322 13.8024 18.8966 13.1585C19.0576 12.8687 20.3132 10.776 22.2449 8.36142C24.1766 5.94679 26.5269 4.01508 27.2673 3.40338ZM25.8185 36.8541L25.7864 36.6287C25.7864 36.5644 25.4 31.9282 24.8205 27.6141C24.241 23.3 23.6937 19.4687 23.6615 19.4044L23.2752 19.4366C23.2752 19.5009 23.0498 27.1312 22.6312 29.9321C22.2127 32.7332 21.6332 36.339 21.601 36.3712L21.5688 36.5966H21.7942L25.561 36.8219L25.8185 36.8541ZM45.9084 3.62874C49.0312 3.62874 51.0596 5.8824 51.3815 6.26874C51.3171 7.45996 50.2869 22.2697 50.2869 32.3468C50.2869 42.456 50.7698 60.1634 50.802 61.5478C50.48 61.8697 48.6771 63.4473 45.7796 63.4473C42.882 63.4473 41.0791 61.902 40.7571 61.6121C40.7893 60.099 41.3045 38.8502 41.3045 32.379C41.3045 21.98 40.2742 7.45996 40.1776 6.20435C40.5961 5.78581 42.8176 3.62874 45.9084 3.62874ZM64.7746 3.08142C64.7746 3.08142 61.201 16.7 59.0118 30.4794C56.8225 44.259 56.3396 56.9117 56.3396 56.9117C56.3396 56.9117 59.0439 56.622 61.2976 55.817C63.5512 55.0121 64.7746 54.4326 64.7746 54.4326L65.9981 43.5185C65.9981 43.5185 67.3181 43.2287 68.7025 42.8424C70.0869 42.456 71.1171 42.1019 71.1171 42.1019L72.3727 49.539C72.3727 49.539 75.6566 46.7058 77.1054 45.096C78.5542 43.4863 80.0673 41.4902 80.0673 41.4902C80.0673 41.4902 77.202 35.5341 75.8498 28.5156C74.5298 21.6258 73.403 13.1263 73.403 13.1263C73.403 13.1263 72.1151 10.9048 69.9903 8.26484C67.7366 5.30289 64.7746 3.08142 64.7746 3.08142ZM66.5454 36.6609C66.5454 36.6609 66.9318 32.0248 67.5112 27.6463C68.0908 23.2678 68.6703 19.4687 68.6703 19.4687C68.6703 19.4687 68.8957 27.1633 69.3142 29.9966C69.7327 32.8297 70.3444 36.4356 70.3444 36.4356L66.5454 36.6609ZM27.3639 3.08142C27.3639 3.08142 24.4342 5.33508 22.1161 8.20045C20.0234 10.8405 18.7035 13.0619 18.7035 13.0619C18.7035 13.0619 17.6088 21.5936 16.2566 28.4833C14.9045 35.502 12.0391 41.458 12.0391 41.458C12.0391 41.458 13.5522 43.4541 15.001 45.0639C16.4498 46.6736 19.7337 49.5068 19.7337 49.5068L20.9893 42.0697C20.9893 42.0697 22.0196 42.4239 23.4039 42.8102C24.7884 43.1966 26.1084 43.4863 26.1084 43.4863L27.3318 54.4005C27.3318 54.4005 28.5552 54.98 30.8088 55.7848C33.0625 56.5897 35.7669 56.8795 35.7669 56.8795C35.7669 56.8795 35.3161 44.259 33.0947 30.4473C30.8732 16.6356 27.3639 3.08142 27.3639 3.08142ZM25.6254 36.6609L21.8585 36.4356C21.8585 36.4356 22.4381 32.8297 22.8888 29.9966C23.3073 27.1633 23.5327 19.4687 23.5327 19.4687C23.5327 19.4687 24.08 23.3 24.6918 27.6463C25.2391 32.0248 25.6254 36.6609 25.6254 36.6609ZM45.9084 3.43557C42.3669 3.43557 40.0166 6.07557 40.0166 6.07557C40.0166 6.07557 41.1435 21.4005 41.1435 32.3146C41.1435 39.1078 40.5639 61.6444 40.5639 61.6444C40.5639 61.6444 42.4312 63.6082 45.7796 63.6082C49.1278 63.6082 50.9952 61.58 50.9952 61.58C50.9952 61.58 50.48 42.8746 50.48 32.3146C50.48 21.7546 51.5747 6.17216 51.5747 6.17216C51.5747 6.17216 49.4498 3.43557 45.9084 3.43557Z" fill="#EFE285"/>
<path d="M8.21094 41.0398L22.7954 9.58514H69.2851L83.5474 40.5569L45.847 60.1958L8.21094 41.0398Z" fill="#B78612"/>
<path d="M69.2235 9.64942L83.4216 40.4924L45.8177 60.0992L8.34254 40.9753L22.8625 9.64942H69.2235ZM69.3523 9.48846H22.7659L8.11719 41.0719L45.8498 60.2924L83.679 40.589L69.3523 9.48846Z" fill="#EFE285"/>
<path d="M10.2734 40.4601L45.8168 58.5537L81.4891 39.9771L68.1925 11.0659H23.9242L10.2734 40.4601Z" fill="url(#paint1_linear_1197_1710)"/>
<path d="M34.8676 30.1901C32.6784 16.4428 29.0725 2.75984 29.0403 2.59887C28.8794 1.98715 28.4286 1.47203 27.8169 1.27887C27.2052 1.0535 26.5291 1.18227 26.014 1.56862C25.8852 1.66521 22.8589 3.98325 20.4121 7.04179C18.2228 9.74619 16.9028 12.0642 16.8706 12.1286C16.7418 12.354 16.6774 12.5793 16.613 12.8369C16.613 12.9335 15.4862 21.4008 14.1662 28.1296C12.8784 34.7618 10.1418 40.5569 10.1096 40.6213C9.78764 41.2652 9.88425 42.0379 10.3028 42.6174C10.3349 42.6496 11.8482 44.6779 13.3613 46.352C14.8745 48.0262 18.1262 50.8593 18.2872 50.9881C18.8023 51.4389 19.5428 51.5677 20.1867 51.3423C20.8306 51.1169 21.3135 50.5374 21.4423 49.8613L22.3437 44.5813C22.4725 44.6135 22.6013 44.6457 22.6979 44.6779C23.213 44.8389 23.7282 44.9677 24.1789 45.0642L25.2413 54.6262C25.3057 55.3023 25.7242 55.8496 26.336 56.1393C26.4003 56.1716 27.656 56.7832 29.974 57.5881C32.4209 58.4574 35.254 58.7793 35.3828 58.7793C35.4472 58.7793 35.5116 58.7793 35.576 58.7793C36.0589 58.7793 36.5418 58.5862 36.896 58.2642C37.3145 57.8779 37.5399 57.3628 37.5076 56.7832C37.5399 56.6867 37.0569 43.9696 34.8676 30.1901Z" fill="#1A171B"/>
<path d="M81.6481 40.6211C81.616 40.5245 78.8794 34.7616 77.5915 28.1294C76.3038 21.465 75.2091 13.1908 75.1447 12.8367C75.1125 12.5792 75.016 12.3538 74.8872 12.1284C74.8227 12.0318 73.5027 9.74594 71.3457 7.04158C68.8988 3.98304 65.8726 1.66499 65.7438 1.56841C65.2287 1.18207 64.5526 1.08548 63.9408 1.27865C63.3291 1.50402 62.8784 1.98695 62.7174 2.59865C62.5564 3.17817 59.0794 16.5713 56.89 30.1899C54.7008 43.905 54.2179 56.7186 54.2179 56.8474C54.1857 57.3947 54.4111 57.9421 54.8296 58.3284C55.1838 58.6504 55.6667 58.8435 56.1496 58.8435C56.214 58.8435 56.2784 58.8435 56.3427 58.8435C56.4715 58.8435 59.3047 58.5216 61.7515 57.6523C64.0696 56.8152 65.3252 56.2358 65.3896 56.2035C66.0014 55.9138 66.3876 55.3343 66.4842 54.6904L67.5467 45.1284C67.9974 44.9996 68.5126 44.8708 69.0276 44.742C69.1564 44.7099 69.253 44.6777 69.3818 44.6455L70.2833 49.9255C70.4121 50.6016 70.8627 51.1811 71.5388 51.4065C72.1827 51.6319 72.9233 51.5031 73.4384 51.0523C73.5672 50.9235 76.8511 48.1225 78.3642 46.4162C79.8452 44.7421 81.3584 42.7459 81.4227 42.6816C81.8735 42.0377 81.9701 41.265 81.6481 40.6211Z" fill="#1A171B"/>
<path d="M45.718 1.50391C41.3717 1.50391 38.5064 4.65903 38.3776 4.7878C38.0234 5.17415 37.8625 5.68927 37.8946 6.20439C37.8946 6.36537 39.0215 21.5615 39.0215 32.3146C39.0215 39.0112 38.4742 61.3546 38.442 61.58C38.442 62.0951 38.603 62.578 38.9571 62.9644C39.2146 63.2219 41.5005 65.54 45.5571 65.54C49.678 65.54 52.0927 63.0288 52.1893 62.9322C52.5434 62.578 52.7366 62.063 52.7044 61.5478C52.7044 61.3546 52.1893 42.7458 52.1893 32.3146C52.1893 21.8834 53.2517 6.46195 53.284 6.30098C53.3161 5.81805 53.1873 5.36732 52.8976 4.98098C52.8332 4.88439 50.161 1.50391 45.718 1.50391Z" fill="#1A171B"/>
<path d="M45.6205 63.544C42.5941 63.544 40.759 61.8699 40.5014 61.6445C40.5336 60.5499 41.0809 38.947 41.0809 32.3792C41.0809 21.8513 40.0185 7.07377 39.9541 6.17231C40.2117 5.88255 42.5297 3.5967 45.7493 3.5967C49.0009 3.5967 51.0936 6.01133 51.319 6.30108C51.2546 7.17035 50.2244 22.2055 50.2244 32.4113C50.2244 42.6172 50.7073 60.6465 50.7394 61.6445C50.5141 61.8377 48.679 63.544 45.6205 63.544ZM35.5112 56.7831C34.9639 56.7186 32.6458 56.3967 30.6819 55.6884C28.718 54.9801 27.5268 54.4328 27.2693 54.3362L26.0458 43.422L25.9814 43.3898C25.9814 43.3898 24.6293 43.1001 23.277 42.7138C21.9248 42.3274 20.8624 41.9732 20.8624 41.9732L20.7658 41.9411L19.5102 49.3459C18.8985 48.7986 16.1619 46.4484 14.9063 45.0318C13.5863 43.5831 12.2019 41.7801 11.9766 41.4582C12.2663 40.8465 14.9063 35.1158 16.1619 28.5158C17.4497 21.8513 18.5444 13.5772 18.6087 13.1265C18.7375 12.9332 20.0253 10.7762 21.9893 8.29719C24.0175 5.75377 26.5609 3.69328 27.1082 3.24255C27.4946 4.72353 30.7785 17.6016 32.839 30.4796C34.9317 43.422 35.4468 55.4952 35.5112 56.7831ZM23.2127 19.4689C23.2127 19.5332 22.9873 27.1635 22.5687 29.9967C22.1502 32.7977 21.5707 36.4035 21.5385 36.4358L21.5063 36.5323L25.4985 36.7577V36.6611C25.4985 36.5967 25.1121 31.9928 24.5326 27.6465C23.9531 23.3323 23.4058 19.5011 23.3736 19.4689H23.2127ZM56.2448 56.7831C56.3093 55.4952 56.8244 43.422 58.8848 30.4796C60.9453 17.6016 64.2293 4.72353 64.6156 3.24255C65.1951 3.69328 67.7063 5.72158 69.7346 8.26499C71.7306 10.744 72.9863 12.9011 73.1151 13.0943C73.1794 13.545 74.2741 21.8192 75.5619 28.4835C76.8497 35.0835 79.4575 40.8143 79.7473 41.4259C79.5219 41.7479 78.1375 43.5508 76.8175 44.9996C75.5619 46.4162 72.8253 48.7665 72.2136 49.3138L70.958 41.9411L70.8614 41.9732C70.8614 41.9732 69.799 42.3274 68.4468 42.7138C67.0946 43.1001 65.7424 43.3898 65.7424 43.3898L65.678 43.422L64.4546 54.3362C64.197 54.465 63.038 54.9801 61.042 55.6884C59.1102 56.4289 56.7921 56.7186 56.2448 56.7831ZM68.3824 19.4367C68.3824 19.4689 67.8351 23.3001 67.2233 27.6143C66.6439 31.9284 66.2575 36.5645 66.2575 36.6289V36.7255L70.2497 36.5001L70.2175 36.4035C70.2175 36.3713 69.6058 32.7655 69.1873 29.9645C68.7687 27.1635 68.5433 19.5332 68.5433 19.4367H68.3824Z" fill="url(#paint2_linear_1197_1710)"/>
<path d="M27.076 3.40338C27.5911 5.43166 30.7784 17.9878 32.7745 30.5117C34.7706 43.1321 35.3501 54.9156 35.4145 56.6863C34.7384 56.5897 32.5491 56.3 30.714 55.6239C28.8467 54.9478 27.6877 54.4327 27.3657 54.3039L26.1745 43.4863L26.1424 43.3575L26.0136 43.3253C26.0136 43.3253 24.6936 43.0356 23.3091 42.6493C21.957 42.2629 20.8945 41.9087 20.8945 41.9087L20.6691 41.8444L20.637 42.0697L19.4136 49.1848C18.6086 48.4766 16.1297 46.3194 14.9706 44.9994C13.715 43.6151 12.395 41.9087 12.073 41.4902C12.4594 40.6532 15.0028 35.0512 16.2584 28.58C17.5462 21.98 18.6409 13.8346 18.7052 13.1907C18.8662 12.9009 20.1218 10.8082 22.0536 8.39362C23.9852 5.94679 26.3355 4.01508 27.076 3.40338ZM25.6272 36.8541L25.595 36.6287C25.595 36.5644 25.2086 31.9282 24.6291 27.6141C24.0497 23.3 23.5023 19.4687 23.4701 19.4044L23.0837 19.4366C23.0837 19.5009 22.8584 27.1312 22.4399 29.9321C22.0213 32.7332 21.4418 36.339 21.4097 36.3712L21.3774 36.5966H21.6028L25.3697 36.8219L25.6272 36.8541ZM64.6798 3.40338C65.4204 3.98289 67.7706 5.94679 69.6701 8.32923C71.6018 10.7439 72.8574 12.8687 73.0184 13.1263C73.115 13.7702 74.2097 21.9156 75.4652 28.5156C76.7209 34.9546 79.2321 40.5887 79.6506 41.4258C79.3286 41.8444 78.0086 43.5507 76.7531 44.9351C75.5618 46.2551 73.0828 48.4444 72.3101 49.1205L71.0867 42.0053L71.0545 41.78L70.8291 41.8444C70.8291 41.8444 69.7667 42.1985 68.4145 42.5848C67.0624 42.9712 65.7101 43.2609 65.7101 43.2609L65.5813 43.2932L65.5491 43.422L64.3579 54.2073C64.036 54.3682 62.877 54.8834 61.0097 55.5273C59.1745 56.2034 57.0174 56.4932 56.3091 56.5897C56.3736 54.819 56.953 43.0356 58.9491 30.4151C60.9774 17.9878 64.1648 5.46386 64.6798 3.40338ZM66.1286 36.8541H66.354L70.1209 36.6287H70.3462L70.314 36.4033C70.314 36.3712 69.7024 32.7653 69.2837 29.9644C68.8652 27.1633 68.6398 19.5332 68.6398 19.4687L68.2536 19.4366C68.2536 19.4687 67.7062 23.3 67.0945 27.6463C66.515 31.9605 66.1286 36.5966 66.1286 36.6609V36.8541ZM45.717 3.62874C48.8398 3.62874 50.8682 5.8824 51.1901 6.26874C51.1257 7.45996 50.0955 22.2697 50.0955 32.3468C50.0955 42.456 50.5784 60.1634 50.6106 61.5478C50.2886 61.8697 48.4857 63.4473 45.5882 63.4473C42.6906 63.4473 40.8877 61.902 40.5657 61.6121C40.5979 60.099 41.113 38.8502 41.113 32.379C41.113 21.98 40.0828 7.45996 39.9862 6.20435C40.4048 5.78581 42.6262 3.62874 45.717 3.62874ZM64.5833 3.08142C64.5833 3.08142 61.0097 16.7 58.8204 30.4794C56.6311 44.259 56.1482 56.9117 56.1482 56.9117C56.1482 56.9117 58.8525 56.622 61.1062 55.817C63.3599 55.0121 64.5833 54.4326 64.5833 54.4326L65.8067 43.5185C65.8067 43.5185 67.1267 43.2287 68.5111 42.8424C69.8955 42.456 70.9257 42.1019 70.9257 42.1019L72.1813 49.539C72.1813 49.539 75.4652 46.7058 76.914 45.096C78.3628 43.4863 79.876 41.4902 79.876 41.4902C79.876 41.4902 77.0106 35.5341 75.6584 28.5156C74.3384 21.6258 73.2116 13.1263 73.2116 13.1263C73.2116 13.1263 71.9238 10.9048 69.7989 8.26484C67.5131 5.30289 64.5833 3.08142 64.5833 3.08142ZM66.354 36.6609C66.354 36.6609 66.7404 32.0248 67.3199 27.6463C67.8994 23.2678 68.4789 19.4687 68.4789 19.4687C68.4789 19.4687 68.7043 27.1633 69.1228 29.9966C69.5413 32.8297 70.1531 36.4356 70.1531 36.4356L66.354 36.6609ZM27.1725 3.08142C27.1725 3.08142 24.2428 5.33508 21.9248 8.20045C19.8321 10.8405 18.5121 13.0619 18.5121 13.0619C18.5121 13.0619 17.3852 21.5936 16.0652 28.4833C14.713 35.502 11.8477 41.458 11.8477 41.458C11.8477 41.458 13.3609 43.4541 14.8097 45.0639C16.2584 46.6736 19.5423 49.5068 19.5423 49.5068L20.7979 42.0697C20.7979 42.0697 21.8282 42.4239 23.2125 42.8102C24.597 43.1966 25.917 43.4863 25.917 43.4863L27.1404 54.4005C27.1404 54.4005 28.3637 54.98 30.6174 55.7848C32.8711 56.5897 35.5755 56.8795 35.5755 56.8795C35.5755 56.8795 35.1248 44.259 32.9033 30.4473C30.7462 16.7 27.1725 3.08142 27.1725 3.08142ZM25.4018 36.6609L21.635 36.4356C21.635 36.4356 22.2145 32.8297 22.6652 29.9966C23.0837 27.1633 23.3091 19.4687 23.3091 19.4687C23.3091 19.4687 23.8564 23.3 24.4682 27.6463C25.0477 32.0248 25.4018 36.6609 25.4018 36.6609ZM45.717 3.43557C42.1755 3.43557 39.8252 6.07557 39.8252 6.07557C39.8252 6.07557 40.9521 21.4005 40.9521 32.3146C40.9521 39.1078 40.3725 61.6444 40.3725 61.6444C40.3725 61.6444 42.2399 63.6082 45.5882 63.6082C48.9364 63.6082 50.8037 61.58 50.8037 61.58C50.8037 61.58 50.2886 42.8746 50.2886 32.3146C50.2886 21.7546 51.3833 6.17216 51.3833 6.17216C51.3833 6.17216 49.2584 3.43557 45.717 3.43557Z" fill="#EFE285"/>
<path d="M90.7903 24.9744C90.5329 24.1695 89.9851 23.4612 89.1477 22.9139C88.5042 22.4954 87.699 22.2056 86.7981 22.0769C85.9607 21.9481 85.1555 22.0124 84.4477 22.2056C84.1581 21.9803 83.8034 21.8515 83.4173 21.787L79.5861 21.3042C79.1354 21.2397 78.6847 21.3363 78.2661 21.5617C78.0408 21.433 77.8154 21.3363 77.59 21.2397C77.2037 21.111 76.592 20.95 74.95 20.7569L73.3081 20.5636C73.1149 20.5315 72.9218 20.5315 72.7286 20.5636C72.5354 20.4993 72.3423 20.4349 72.1491 20.4349L69.831 20.2095C69.7345 20.2095 69.6057 20.2095 69.5091 20.2095C69.4125 20.1773 69.2837 20.1451 69.1872 20.1451L66.8691 19.9197C66.7403 19.9197 66.6115 19.9197 66.4827 19.9197C66.3539 19.8876 66.2252 19.8554 66.0964 19.8554L61.0418 19.469C60.913 19.469 60.7842 19.469 60.6232 19.469C60.4623 19.4369 60.3335 19.4046 60.2047 19.4046L58.273 19.3081C58.0476 19.3081 57.8223 19.3081 57.6291 19.3724C57.4359 19.3081 57.2105 19.2436 56.9852 19.2436L55.0535 19.147C54.8603 19.147 54.6672 19.147 54.4739 19.2115C54.2808 19.147 54.0876 19.1149 53.8945 19.1149L50.0311 18.9861C49.9023 18.9861 49.8057 18.9861 49.6769 19.0183C49.5481 18.9861 49.4193 18.9861 49.2905 18.9861H46.8437C46.6505 18.9861 46.4573 19.0183 46.2642 19.0505C46.0711 18.9861 45.8779 18.9861 45.6847 18.9861H43.2379C42.8193 18.9861 42.4008 19.1149 42.0145 19.3403C41.9179 19.3081 41.7891 19.2758 41.6925 19.2436C41.2739 19.147 40.5979 19.0505 38.8593 19.0827L37.1208 19.147C36.7666 19.147 36.4125 19.2436 36.0905 19.4369C35.7686 19.2758 35.4145 19.2115 35.0925 19.2436L31.7442 19.3403C30.8749 19.4046 30.1023 19.9519 29.8125 20.7569C29.6837 20.5315 29.5227 20.3061 29.2973 20.1451C28.8466 19.7588 28.2993 19.5656 27.6876 19.63L25.7559 19.791C25.5305 19.8231 25.3052 19.8554 25.112 19.9519C24.8866 19.8876 24.6935 19.8876 24.4681 19.8876L22.5364 20.0485C22.3432 20.0807 22.15 20.113 21.9569 20.1773C21.7637 20.1451 21.5705 20.1451 21.3773 20.1451L19.0593 20.3705C18.4798 20.4349 17.9325 20.6924 17.5784 21.1431C17.2885 21.4973 17.1276 21.8836 17.0954 22.3022C16.9666 21.8836 16.7091 21.5295 16.3872 21.2397C15.9364 20.8856 15.3569 20.6924 14.7773 20.7569L12.4593 21.0143C12.073 21.0466 11.7188 21.2076 11.3969 21.433C11.0427 21.2719 10.6564 21.2397 10.27 21.2719L7.95201 21.5295C7.59786 21.5617 7.3081 21.6905 7.01835 21.8837C6.6964 21.787 6.37444 21.7227 6.0203 21.787L2.7364 22.1734C1.64176 22.3344 0.836886 23.2358 0.836886 24.3305L0.804688 33.313C0.804688 33.9569 1.06225 34.5363 1.54517 34.9549C2.0281 35.3734 2.63981 35.5666 3.28371 35.47L5.66616 35.1481C5.85932 35.1158 6.02029 35.0836 6.21347 35.0193C6.40664 35.0515 6.59981 35.0515 6.76078 35.0193L9.11107 34.7295C9.17542 34.7295 9.23985 34.6973 9.3042 34.6973C9.40081 34.6973 9.46516 34.6973 9.56176 34.6651L13.2642 34.2143C13.3608 34.2143 13.4573 34.1822 13.5539 34.15C13.6505 34.15 13.7793 34.15 13.8759 34.15L17.5784 33.7636C18.0612 33.6993 18.512 33.5061 18.8661 33.1519C19.2847 33.4095 19.7676 33.5383 20.2827 33.5061L22.6008 33.2807C22.7618 33.2485 22.9549 33.2163 23.1159 33.1842C23.2769 33.2163 23.4379 33.2163 23.5988 33.2163L25.5305 33.0554C25.7237 33.0231 25.9491 32.991 26.11 32.9266C26.3032 32.9588 26.4964 32.991 26.7218 32.9588L28.75 32.7978C29.2008 32.7656 29.6515 32.5724 29.9735 32.3149C30.3276 32.5403 30.7139 32.6369 31.1325 32.6369C31.1647 32.6369 31.1969 32.6369 31.2612 32.6369L33.6437 32.5081C33.8369 32.5081 34.03 32.4758 34.1911 32.4115C34.3842 32.4436 34.5452 32.4758 34.7384 32.4436L37.1208 32.3149C37.1852 32.3149 37.2496 32.3149 37.3139 32.2827C37.3784 32.2827 37.4105 32.2827 37.4749 32.2827L40.4691 32.2183C41.2096 32.1861 41.7569 32.1539 42.1754 32.0251C42.5296 31.9285 42.8515 31.7997 43.1735 31.6388C43.5598 31.9607 44.0427 32.1217 44.5579 32.1539L48.0993 32.1861C48.3569 32.1861 48.6466 32.1217 48.872 32.0251C49.1296 32.1217 49.3872 32.1861 49.6447 32.1861L53.6691 32.3149C53.7979 32.3149 53.8945 32.3149 54.0232 32.2827C54.1199 32.3149 54.2486 32.3149 54.3452 32.3149L56.2769 32.4115C56.47 32.4115 56.6954 32.4115 56.8886 32.347C57.0818 32.4115 57.2749 32.4436 57.4681 32.4758L59.4964 32.6046C59.8184 32.6369 60.1403 32.5724 60.4623 32.4436C60.752 32.6046 61.0739 32.7334 61.4281 32.7656L63.7461 32.9588C64.3579 33.0231 64.9373 32.7978 65.3881 32.4115C65.6135 32.6046 65.871 32.7656 66.1285 32.8943C66.7725 33.2485 67.513 33.4739 68.35 33.5705C69.1227 33.6349 69.831 33.5705 70.4749 33.3773C70.5715 33.3451 70.6681 33.313 70.7647 33.2807C71.0866 33.5383 71.4408 33.667 71.8593 33.7315L74.1452 33.989C74.2739 33.989 74.3706 34.0212 74.4993 33.989C74.6281 34.0212 74.7247 34.0534 74.8535 34.0534L76.9784 34.311C77.1393 34.3431 77.2681 34.3431 77.4613 34.311C77.6223 34.3754 77.7832 34.4076 77.9442 34.4397L81.9364 34.9549C82.2906 35.0193 82.6451 34.9549 82.9668 34.8261C83.5781 35.2124 84.319 35.47 85.1234 35.5988C85.4137 35.6631 85.7355 35.6631 86.0251 35.6631C86.5729 35.6631 87.1199 35.5988 87.6025 35.4378C88.5364 35.1481 89.2451 34.6651 89.7277 33.9569C90.1138 33.3773 90.3712 32.669 90.5007 31.671C90.6616 30.5763 90.5972 29.6427 90.339 28.9022C90.6294 28.5803 90.7903 28.1939 90.8546 27.7754L90.919 27.4212C91.0155 26.391 90.9833 25.6183 90.7903 24.9744Z" fill="#1A171B"/>
<path d="M8.5625 23.9117L10.301 23.7185L11.1381 30.8015L12.5225 30.6405L12.6835 31.8317L9.52833 32.1859L8.5625 23.9117Z" fill="#E4C96E"/>
<path d="M13.0078 23.3968L14.7463 23.2036L15.4869 30.2866L16.9034 30.1578L17.0322 31.349L13.877 31.6709L13.0078 23.3968Z" fill="#E4C96E"/>
<path d="M19.5742 22.7528L21.3127 22.5918L22.0854 30.866L20.3469 31.0269L19.5742 22.7528Z" fill="#E4C96E"/>
<path d="M37.4766 21.5295L38.9253 21.4973C39.2151 21.4973 39.4726 21.4973 39.698 21.4973C40.5673 21.4973 40.9536 21.5617 41.1468 21.5938C41.4687 21.6583 41.7263 21.7871 41.9194 21.9802C42.1126 22.1734 42.2093 22.3987 42.2736 22.6241C42.338 22.8817 42.3702 23.3968 42.4024 24.2661L42.499 27.389C42.5312 28.1617 42.499 28.6768 42.4346 28.9344C42.3702 29.1597 42.2736 29.3207 42.1448 29.4495C42.016 29.5783 41.8229 29.6749 41.5653 29.7392C41.34 29.8037 40.9536 29.8358 40.3741 29.868L37.7341 29.9324L37.4766 21.5295ZM39.2473 22.6563L39.4082 28.8378H39.6336C39.9556 28.8378 40.3741 28.7734 40.5351 28.4837C40.5994 28.3549 40.696 28.0973 40.6639 27.228L40.5673 23.7831C40.5673 23.2037 40.5351 23.0426 40.5029 22.9461C40.4707 22.7529 40.342 22.6241 40.1809 22.5275C40.0521 22.4631 39.859 22.431 39.6014 22.431H39.2794L39.2473 22.6563Z" fill="#E4C96E"/>
<path d="M49.9688 29.7392L50.2263 21.4329L53.5102 21.5295L53.4781 22.7207L51.9327 22.6885L51.8682 24.9422L53.317 24.9743L53.2848 26.1012L51.8361 26.0689L51.7394 28.6124L53.4458 28.6446L53.4136 29.868L49.9688 29.7392Z" fill="#E4C96E"/>
<path d="M61.8439 30.351L62.3913 23.2358L61.0391 23.1393L61.1357 21.948L65.6108 22.3022L65.5142 23.4934L64.1298 23.3968L63.5825 30.4797L61.8439 30.351Z" fill="#E4C96E"/>
<path d="M68.8968 31.1559C68.768 31.1559 68.6392 31.1559 68.5105 31.1237C68.0276 31.0915 67.6091 30.9627 67.2549 30.7696C66.933 30.5764 66.6754 30.3511 66.5144 30.0935C66.3856 29.8359 66.2891 29.5784 66.2891 29.2886C66.2891 28.9988 66.3212 28.3549 66.4178 27.3569L66.9007 22.3988L68.6392 22.5598L68.0276 28.9345C67.9954 29.353 67.9954 29.6105 68.0276 29.7715C68.0919 29.9969 68.2851 30.1578 68.5105 30.19H68.6071C68.8325 30.19 69.0256 30.0612 69.1222 29.8359C69.1544 29.7715 69.2188 29.5461 69.2831 28.9345L69.8949 22.6886L71.6334 22.8496L71.0861 28.4837C71.0218 29.1598 70.9573 29.6105 70.893 29.8359C70.8285 30.0612 70.6998 30.2866 70.4744 30.512C70.2491 30.7373 69.9915 30.8984 69.6695 30.9949C69.4442 31.1237 69.1866 31.1559 68.8968 31.1559Z" fill="#E4C96E"/>
<path d="M78.4922 32.057L79.5546 23.783L82.8064 24.2015L82.6777 25.4249L81.1322 25.1995L80.8424 27.4531L82.259 27.6464L82.1302 28.741L80.6814 28.58L80.3595 31.059L82.0337 31.2844L81.9049 32.5078L78.4922 32.057Z" fill="#E4C96E"/>
<path d="M85.9633 33.2163C85.7703 33.2163 85.5772 33.2163 85.4155 33.1841C84.8364 33.0875 84.3859 32.9265 84.0312 32.669C83.6772 32.4114 83.4842 32.1538 83.4198 31.8319C83.3555 31.4778 83.3555 30.9626 83.452 30.3831L83.4842 30.0934L85.0616 30.3187L84.9651 31.0914C84.9007 31.4778 84.9007 31.7353 84.9972 31.8963C85.0616 32.0895 85.2546 32.2183 85.5129 32.2504C85.5772 32.2504 85.6094 32.2504 85.6094 32.2504C85.8346 32.2504 85.9955 32.1538 86.1242 31.9929C86.2529 31.8319 86.3494 31.6065 86.3816 31.3168C86.4781 30.7372 86.4459 30.3187 86.2529 30.0934C86.1242 29.9002 85.8024 29.5783 85.2546 29.0953C84.6433 28.548 84.3859 28.2583 84.2572 28.1295C84.1285 27.9685 84.0312 27.7431 83.9668 27.4534C83.9025 27.1958 83.9025 26.8417 83.9668 26.391C84.0955 25.6183 84.2572 25.2641 84.3859 25.071C84.579 24.8456 84.8364 24.6524 85.1903 24.5558C85.4164 24.4914 85.6737 24.4592 85.9311 24.4592C86.092 24.4592 86.2529 24.4592 86.5103 24.4914C87.0581 24.588 87.5407 24.7168 87.8625 24.9422C88.185 25.1353 88.3781 25.3929 88.4746 25.6183C88.539 25.8114 88.5711 26.1978 88.4424 27.0026V27.0671L86.8972 26.8417L86.9616 26.4875C87.0259 26.1011 87.0259 25.8758 86.9294 25.7471C86.8329 25.5538 86.6712 25.4572 86.4459 25.4251C86.4138 25.4251 86.3816 25.4251 86.3494 25.4251C86.1564 25.4251 85.9955 25.4895 85.8668 25.6504C85.7381 25.7792 85.6737 26.0046 85.6094 26.2944C85.545 26.6807 85.5772 26.9383 85.6416 27.1314C85.7059 27.3246 85.899 27.5499 86.2851 27.8719C87.412 28.7734 87.7981 29.2885 87.9268 29.546C88.1207 29.9002 88.1529 30.5119 88.0233 31.3168C87.9268 32.0572 87.7659 32.3792 87.6694 32.5402C87.5085 32.7656 87.2511 32.9265 86.865 33.0553C86.5425 33.1841 86.2851 33.2163 85.9633 33.2163Z" fill="#E4C96E"/>
<path d="M57.7578 30.0614L56.4056 24.4272L56.0837 29.9648L54.6992 29.9003L55.1822 21.594L56.631 21.6906L58.0797 27.1638L58.3695 21.7872L59.7861 21.8516L59.3031 30.1579L57.7578 30.0614Z" fill="#E4C96E"/>
<path d="M22.9883 22.3985L24.4693 22.3019L26.6585 27.5497L26.2078 22.1409L27.6244 22.0443L28.2683 30.3829L26.723 30.5117L24.6303 25.0707L25.0488 30.6405L23.6322 30.737L22.9883 22.3985Z" fill="#E4C96E"/>
<path d="M32.097 21.7867L34.9623 21.658L36.6365 29.9321L34.8657 30.0287L34.6726 28.4189L33.3204 28.4834L33.256 30.0931L31.4531 30.1896L32.097 21.7867ZM33.417 26.1009L33.2882 27.4531L33.739 27.4209L34.6082 27.3887L34.5438 27.1311C34.2863 25.9077 34.2863 25.9077 33.9965 24.3946L33.7068 22.9458" fill="#E4C96E"/>
<path d="M3.28125 24.5878L6.11442 24.2014L8.43249 32.3145L6.69393 32.5399L6.37198 30.9624L5.01979 31.1556L5.08417 32.7653L3.28125 32.9907V24.5878ZM4.89101 29.4492V30.1253L5.05198 30.0932L6.21101 29.9321L6.14662 29.6746C5.79247 28.4512 5.72808 28.1936 5.30955 26.7126L4.98759 25.5858" fill="#E4C96E"/>
<path d="M75.37 31.6709L75.6598 29.0309C75.7564 28.3226 75.692 28.0973 75.6276 27.9685C75.5311 27.7431 75.2735 27.6143 74.8227 27.5821L74.5974 27.55L74.5651 27.7753L74.0823 31.5421L72.3438 31.3489L73.3096 23.0748L74.6618 23.2358C75.7242 23.3646 76.4325 23.4934 76.7866 23.59C77.0764 23.6865 77.3339 23.9119 77.495 24.2016C77.6559 24.5236 77.7203 25.0387 77.6238 25.7148C77.5271 26.5197 77.3662 26.8094 77.2696 26.906C77.173 27.0026 77.0442 27.067 76.8511 27.1314C76.5935 27.1958 76.6578 27.1636 76.2071 27.2601L75.9174 27.3246L76.2715 27.5177C76.4325 27.6143 76.5935 27.7109 76.7223 27.8075C76.9154 27.9363 76.9798 28.0328 77.0764 28.1294C77.2374 28.3226 77.2374 28.4514 77.2696 28.5801C77.2696 28.6446 77.3018 28.87 77.173 29.8358L76.9476 31.8963L75.37 31.6709ZM74.9193 24.427L74.6618 26.7128L74.9515 26.7773C75.0481 26.7773 75.1447 26.8094 75.2091 26.8094C75.4023 26.8094 75.5632 26.7773 75.692 26.7128C75.8851 26.6163 76.0139 26.3265 76.0784 25.8436L76.1427 25.3607C76.175 25.0065 76.1427 24.7489 75.9818 24.5558C75.853 24.3948 75.6276 24.2982 75.2735 24.266L74.9838 24.2338L74.9193 24.427Z" fill="#E4C96E"/>
<path d="M46.2357 27.6465C46.4932 26.0045 46.6864 24.2981 46.8796 22.7528L47.0727 21.3684H48.94L47.781 29.7069H44.7546L43.5312 21.3684H45.3986C45.7206 23.8153 45.9781 25.8757 46.2357 27.6465Z" fill="#E4C96E"/>
<defs>
<linearGradient id="paint0_linear_1197_1710" x1="46.079" y1="63.5349" x2="46.079" y2="3.23186" gradientUnits="userSpaceOnUse">
<stop offset="0.0858277" stop-color="#905E36"/>
<stop offset="0.2669" stop-color="#CF9A41"/>
<stop offset="0.331" stop-color="#D2A248"/>
<stop offset="0.4294" stop-color="#DCB75D"/>
<stop offset="0.5491" stop-color="#EBDA7D"/>
<stop offset="0.5737" stop-color="#EFE285"/>
<stop offset="0.6506" stop-color="#E4C96E"/>
<stop offset="0.7733" stop-color="#CF9A41"/>
<stop offset="0.9729" stop-color="#7C4D25"/>
</linearGradient>
<linearGradient id="paint1_linear_1197_1710" x1="45.8805" y1="58.5704" x2="45.8805" y2="11.0582" gradientUnits="userSpaceOnUse">
<stop stop-color="#8A0E13"/>
<stop offset="0.9729" stop-color="#E1001A"/>
</linearGradient>
<linearGradient id="paint2_linear_1197_1710" x1="45.882" y1="63.5349" x2="45.882" y2="3.25134" gradientUnits="userSpaceOnUse">
<stop offset="0.0858277" stop-color="#905E36"/>
<stop offset="0.2669" stop-color="#CF9A41"/>
<stop offset="0.331" stop-color="#D2A248"/>
<stop offset="0.4294" stop-color="#DCB75D"/>
<stop offset="0.5491" stop-color="#EBDA7D"/>
<stop offset="0.5737" stop-color="#EFE285"/>
<stop offset="0.6506" stop-color="#E4C96E"/>
<stop offset="0.7733" stop-color="#CF9A41"/>
<stop offset="0.9729" stop-color="#7C4D25"/>
</linearGradient>
</defs>
</svg>
