<svg width="70" height="24" viewBox="0 0 70 24" fill="none" xmlns="http://www.w3.org/2000/svg">
<path d="M29.9588 12.1262C29.9588 15.4414 27.3654 17.8843 24.1825 17.8843C20.9997 17.8843 18.4062 15.4414 18.4062 12.1262C18.4062 8.78764 20.9997 6.3681 24.1825 6.3681C27.3654 6.3681 29.9588 8.78764 29.9588 12.1262ZM27.4302 12.1262C27.4302 10.0545 25.9271 8.63711 24.1825 8.63711C22.438 8.63711 20.9349 10.0546 20.9349 12.1262C20.9349 14.1772 22.438 15.6153 24.1825 15.6153C25.9271 15.6154 27.4302 14.1746 27.4302 12.1262Z" fill="#FF4131"/>
<path d="M42.4198 12.1262C42.4198 15.4414 39.8263 17.8843 36.6435 17.8843C33.4606 17.8843 30.8672 15.4414 30.8672 12.1262C30.8672 8.79024 33.4606 6.3681 36.6435 6.3681C39.8262 6.3681 42.4198 8.78764 42.4198 12.1262ZM39.8911 12.1262C39.8911 10.0545 38.388 8.63711 36.6435 8.63711C34.8989 8.63711 33.3958 10.0546 33.3958 12.1262C33.3958 14.1772 34.8989 15.6153 36.6435 15.6153C38.388 15.6154 39.8911 14.1746 39.8911 12.1262Z" fill="#FFBC00"/>
<path d="M54.3627 6.71606V17.0536C54.3627 21.306 51.8549 23.0428 48.8902 23.0428C46.0995 23.0428 44.4198 21.1761 43.7863 19.6497L45.9878 18.7332C46.3798 19.6704 47.3404 20.7764 48.8876 20.7764C50.7853 20.7764 51.9614 19.6055 51.9614 17.4014V16.5733H51.8731C51.3072 17.2717 50.2167 17.8817 48.8409 17.8817C45.9618 17.8817 43.3242 15.3739 43.3242 12.147C43.3242 8.89674 45.9618 6.3681 48.8409 6.3681C50.2142 6.3681 51.3046 6.97815 51.8731 7.65573H51.9614V6.71852H54.3627V6.71606ZM52.1405 12.147C52.1405 10.1194 50.7879 8.63711 49.0667 8.63711C47.3222 8.63711 45.8605 10.1194 45.8605 12.147C45.8605 14.1538 47.3221 15.6153 49.0667 15.6153C50.7879 15.6154 52.1405 14.1538 52.1405 12.147Z" fill="#0085F7"/>
<path d="M58.3179 0.656799V17.5314H55.8516V0.656799H58.3179Z" fill="#00A94B"/>
<path d="M67.9277 14.0215L69.8904 15.3299C69.2569 16.2671 67.7305 17.8818 65.0929 17.8818C61.8218 17.8818 59.3789 15.3531 59.3789 12.1236C59.3789 8.69935 61.8426 6.36554 64.8098 6.36554C67.7979 6.36554 69.2595 8.74351 69.7372 10.0285L69.9995 10.6828L62.3021 13.8708C62.8914 15.0261 63.8078 15.6153 65.0929 15.6153C66.3805 15.6155 67.2735 14.9819 67.9277 14.0215ZM61.8868 11.9497L67.0322 9.81321C66.7492 9.09406 65.8977 8.59312 64.8957 8.59312C63.6105 8.59299 61.8218 9.72749 61.8868 11.9497Z" fill="#FF4131"/>
<path d="M9.0681 10.6284V8.18544H17.3003C17.3808 8.61119 17.4223 9.11486 17.4223 9.65997C17.4223 11.4928 16.9212 13.7591 15.3065 15.3739C13.7359 17.0095 11.7291 17.8818 9.0707 17.8818C4.14331 17.8818 0 13.8682 0 8.94096C0 4.0137 4.14331 0 9.0707 0C11.7966 0 13.7385 1.06956 15.1974 2.4637L13.4736 4.18747C12.4275 3.20609 11.0099 2.44292 9.0681 2.44292C5.4699 2.44292 2.65579 5.34275 2.65579 8.94096C2.65579 12.5392 5.4699 15.439 9.0681 15.439C11.4019 15.439 12.7311 14.5018 13.5827 13.6503C14.2733 12.9597 14.7276 11.9733 14.9067 10.6259L9.0681 10.6284Z" fill="#0085F7"/>
</svg>
