<svg width="40" height="40" viewBox="0 0 40 40" fill="none" xmlns="http://www.w3.org/2000/svg">
<path d="M9.58774 24.4201L8.22788 29.4967L3.2576 29.6018C1.77222 26.8468 0.929688 23.6946 0.929688 20.3449C0.929688 17.1058 1.71744 14.0513 3.11377 11.3617H3.11484L7.53978 12.1729L9.47817 16.5713C9.07247 17.7541 8.85134 19.0238 8.85134 20.3449C8.8515 21.7788 9.11123 23.1527 9.58774 24.4201Z" fill="#FBBB00"/>
<path d="M39.6534 16.6959C39.8777 17.8775 39.9947 19.0979 39.9947 20.345C39.9947 21.7435 39.8476 23.1076 39.5675 24.4235C38.6166 28.9011 36.132 32.811 32.6901 35.5779L32.689 35.5768L27.1155 35.2925L26.3267 30.3683C28.6106 29.0289 30.3955 26.9327 31.3357 24.4235H20.8906V16.6959H31.4881H39.6534Z" fill="#518EF8"/>
<path d="M32.6911 35.5767L32.6921 35.5778C29.3447 38.2685 25.0923 39.8784 20.4634 39.8784C13.0245 39.8784 6.55706 35.7206 3.25781 29.6019L9.58795 24.4202C11.2375 28.8227 15.4845 31.9566 20.4634 31.9566C22.6034 31.9566 24.6083 31.3781 26.3287 30.3682L32.6911 35.5767Z" fill="#28B446"/>
<path d="M32.9308 5.30849L26.6028 10.4891C24.8223 9.37618 22.7175 8.73325 20.4627 8.73325C15.3711 8.73325 11.0447 12.011 9.47775 16.5714L3.11435 11.3617H3.11328C6.36423 5.09385 12.9133 0.811523 20.4627 0.811523C25.2022 0.811523 29.5478 2.49979 32.9308 5.30849Z" fill="#F14336"/>
</svg>
