<svg width="15" height="12" viewBox="0 0 15 12" fill="none" xmlns="http://www.w3.org/2000/svg">
<path d="M8.60499 2.05964C9.26431 2.47303 9.72663 3.17257 9.8108 3.98458C10.0797 4.11021 10.3781 4.18246 10.6945 4.18246C11.8496 4.18246 12.7858 3.24624 12.7858 2.09132C12.7858 0.936218 11.8496 0 10.6945 0C9.55046 0.000355909 8.62243 0.919847 8.60499 2.05964ZM7.23491 6.34158C8.39002 6.34158 9.32623 5.40519 9.32623 4.25026C9.32623 3.09534 8.38984 2.15912 7.23491 2.15912C6.07999 2.15912 5.14324 3.09552 5.14324 4.25044C5.14324 5.40537 6.07999 6.34158 7.23491 6.34158ZM8.12202 6.48413H6.34746C4.87097 6.48413 3.66978 7.6855 3.66978 9.16198V11.3321L3.67529 11.3661L3.82477 11.4129C5.23382 11.8532 6.45797 12 7.46554 12C9.43354 12 10.5742 11.4389 10.6445 11.4031L10.7842 11.3325H10.7992V9.16198C10.7997 7.6855 9.5985 6.48413 8.12202 6.48413ZM11.582 4.32518H9.82113C9.80208 5.0297 9.50134 5.66411 9.02567 6.12039C10.3381 6.51064 11.2983 7.72767 11.2983 9.16519V9.83394C13.0369 9.77023 14.0388 9.27748 14.1048 9.24438L14.2445 9.17355H14.2595V7.00268C14.2595 5.52637 13.0583 4.32518 11.582 4.32518ZM3.56532 4.18282C3.97443 4.18282 4.35508 4.06341 4.67753 3.86001C4.78003 3.19143 5.13843 2.60721 5.65041 2.2093C5.65254 2.17015 5.65628 2.13136 5.65628 2.09185C5.65628 0.936752 4.71988 0.000533825 3.56532 0.000533825C2.41004 0.000533825 1.474 0.936752 1.474 2.09185C1.474 3.24642 2.41004 4.18282 3.56532 4.18282ZM5.44345 6.12039C4.97009 5.66642 4.67041 5.0354 4.64852 4.33515C4.58322 4.33034 4.51862 4.32518 4.45206 4.32518H2.67768C1.20119 4.32518 0 5.52637 0 7.00268V9.17319L0.00551659 9.20665L0.154998 9.25381C1.28536 9.60669 2.29419 9.76934 3.17044 9.82059V9.16519C3.17079 7.72767 4.13068 6.511 5.44345 6.12039Z" fill="#808082"/>
</svg>
