<svg width="16" height="16" viewBox="0 0 16 16" fill="none" xmlns="http://www.w3.org/2000/svg">
<g clip-path="url(#clip0_1197_1892)">
<path d="M9.55185 3.92588C10.2454 4.36074 10.7317 5.0966 10.8203 5.95078C11.1031 6.08294 11.4171 6.15894 11.7499 6.15894C12.965 6.15894 13.9498 5.1741 13.9498 3.9592C13.9498 2.74411 12.965 1.75928 11.7499 1.75928C10.5464 1.75965 9.5702 2.72689 9.55185 3.92588ZM8.11063 8.43019C9.32572 8.43019 10.3106 7.44516 10.3106 6.23026C10.3106 5.01536 9.32553 4.03052 8.11063 4.03052C6.89573 4.03052 5.91033 5.01555 5.91033 6.23045C5.91033 7.44535 6.89573 8.43019 8.11063 8.43019ZM9.0438 8.58013H7.17709C5.62392 8.58013 4.36035 9.84389 4.36035 11.3971V13.6799L4.36615 13.7157L4.5234 13.7649C6.00562 14.228 7.29334 14.3825 8.35324 14.3825C10.4234 14.3825 11.6234 13.7922 11.6973 13.7546L11.8443 13.6803H11.86V11.3971C11.8605 9.84389 10.597 8.58013 9.0438 8.58013ZM12.6835 6.30907H10.8311C10.8111 7.05018 10.4948 7.71753 9.99438 8.1975C11.375 8.60802 12.3851 9.88826 12.3851 11.4004V12.1039C14.214 12.0369 15.2679 11.5185 15.3373 11.4837L15.4843 11.4092H15.5V9.12562C15.5 7.57264 14.2364 6.30907 12.6835 6.30907ZM4.25047 6.15932C4.68083 6.15932 5.08124 6.03371 5.42044 5.81974C5.52827 5.11645 5.90528 4.50188 6.44384 4.08331C6.44609 4.04213 6.45002 4.00132 6.45002 3.95976C6.45002 2.74468 5.46499 1.75984 4.25047 1.75984C3.03519 1.75984 2.05054 2.74468 2.05054 3.95976C2.05054 5.17429 3.03519 6.15932 4.25047 6.15932ZM6.22613 8.1975C5.72819 7.71997 5.41295 7.05617 5.38993 6.31955C5.32123 6.3145 5.25328 6.30907 5.18326 6.30907H3.31674C1.76357 6.30907 0.5 7.57264 0.5 9.12562V11.4088L0.505803 11.444L0.663048 11.4936C1.85212 11.8649 2.91333 12.036 3.83508 12.0899V11.4004C3.83545 9.88826 4.84519 8.6084 6.22613 8.1975Z" fill="#B32F1D"/>
</g>
<defs>
<clipPath id="clip0_1197_1892">
<rect width="15" height="15" fill="white" transform="translate(0.5 0.570923)"/>
</clipPath>
</defs>
</svg>
