<svg width="16" height="16" viewBox="0 0 16 16" fill="none" xmlns="http://www.w3.org/2000/svg">
<g clip-path="url(#clip0_1197_1886)">
<path d="M8 15.5709C12.1411 15.5709 15.5 12.212 15.5 8.07092C15.5 3.92984 12.1411 0.570923 8 0.570923C3.85892 0.570923 0.5 3.92984 0.5 8.07092C0.5 12.212 3.85892 15.5709 8 15.5709ZM7.46427 3.78521C7.46427 3.49056 7.70535 3.24949 8 3.24949C8.29465 3.24949 8.53573 3.49056 8.53573 3.78521V7.81379L11.0134 9.79593C11.2438 9.98075 11.2813 10.3182 11.0964 10.5486C10.992 10.6798 10.8366 10.7495 10.6786 10.7495C10.5607 10.7495 10.4428 10.712 10.3438 10.6316L7.6652 8.48879C7.5393 8.38699 7.46431 8.23433 7.46431 8.07092V3.78521H7.46427Z" fill="#B32F1D"/>
</g>
<defs>
<clipPath id="clip0_1197_1886">
<rect width="15" height="15" fill="white" transform="translate(0.5 0.570923)"/>
</clipPath>
</defs>
</svg>
