<svg width="21" height="26" viewBox="0 0 21 26" fill="none" xmlns="http://www.w3.org/2000/svg">
<g clip-path="url(#clip0_1871_1250)">
<path d="M7.2381 26L5.42857 22.9524L2 22.1905L2.33333 18.6667L0 16L2.33333 13.3333L2 9.80952L5.42857 9.04762L7.2381 6L10.4762 7.38095L13.7143 6L15.5238 9.04762L18.9524 9.80952L18.619 13.3333L20.9524 16L18.619 18.6667L18.9524 22.1905L15.5238 22.9524L13.7143 26L10.4762 24.619L7.2381 26ZM9.47619 19.381L14.8571 14L13.5238 12.619L9.47619 16.6667L7.42857 14.6667L6.09524 16L9.47619 19.381Z" fill="#FF492C"/>
</g>
<defs>
<clipPath id="clip0_1871_1250">
<rect width="21" height="26" fill="white"/>
</clipPath>
</defs>
</svg>
