<svg width="132" height="135" viewBox="0 0 132 135" fill="none" xmlns="http://www.w3.org/2000/svg">
<mask id="mask0_393_492" style="mask-type:luminance" maskUnits="userSpaceOnUse" x="0" y="0" width="132" height="135">
<path d="M0.741776 0H131.26V135H0.741776V0Z" fill="white"/>
</mask>
<g mask="url(#mask0_393_492)">
<path d="M52.4742 2.26797C73.3724 2.26797 91.1924 19.332 98.4824 43.416V91.584C91.1924 115.722 73.3724 132.732 52.4742 132.732C25.1502 132.732 2.95617 103.518 2.95617 67.5C2.95617 31.482 25.1502 2.26797 52.4742 2.26797ZM52.4742 121.5C56.2002 121.5 59.2242 118.476 59.2242 114.75C59.2242 111.024 56.2002 108 52.4742 108C48.7482 108 45.7242 111.024 45.7242 114.75C45.7242 118.476 48.7482 121.5 52.4742 121.5ZM52.4742 27C56.2002 27 59.2242 23.976 59.2242 20.25C59.2242 16.524 56.2542 13.5 52.4742 13.5C48.6942 13.5 45.7242 16.524 45.7242 20.25C45.7242 22.032 46.4262 23.76 47.7222 25.002C49.0182 26.298 50.6922 27 52.4742 27Z" fill="#29313A"/>
<path fill-rule="evenodd" clip-rule="evenodd" d="M52.475 2.26797C53.609 2.26797 54.743 2.32197 55.823 2.42997C30.119 4.75197 9.76096 32.94 9.76096 67.5C9.76096 102.06 30.119 130.248 55.877 132.57C54.797 132.678 53.663 132.732 52.529 132.732C25.205 132.732 3.01096 103.518 3.01096 67.5C3.01096 31.482 25.151 2.26797 52.475 2.26797Z" fill="#333E4A"/>
<path fill-rule="evenodd" clip-rule="evenodd" d="M36.7605 54C36.7605 56.322 37.2465 58.644 38.2725 60.75H66.7302C67.7562 58.644 68.2422 56.322 68.2422 54C68.2422 45.306 61.1685 38.232 52.4745 38.232C43.7805 38.232 36.7605 45.306 36.7605 54Z" fill="#0D1116"/>
<path fill-rule="evenodd" clip-rule="evenodd" d="M41.2943 92.502C41.1863 93.582 41.5643 94.662 42.2663 95.472C43.0223 96.282 44.0483 96.768 45.1283 96.768H59.8703C60.9503 96.768 61.9763 96.282 62.7323 95.472C63.4883 94.662 63.8125 93.582 63.7043 92.502L61.9763 74.25H42.9683L41.2943 92.502Z" fill="#0D1116"/>
<path d="M38.2724 60.75H80.4462C83.7942 48.87 95.4042 41.31 107.662 42.984C119.92 44.712 128.992 55.134 128.992 67.5C128.992 79.866 119.866 90.288 107.662 92.016C95.4042 93.69 83.7942 86.13 80.4462 74.25H43.0245L43.6724 67.068C41.3504 65.502 39.4604 63.288 38.2724 60.75ZM113.224 74.25C116.95 74.25 119.974 71.226 119.974 67.5C119.974 63.774 116.95 60.75 113.224 60.75C109.498 60.75 106.474 63.774 106.474 67.5C106.474 71.226 109.498 74.25 113.224 74.25Z" fill="#FFCD57"/>
<path fill-rule="evenodd" clip-rule="evenodd" d="M38.2738 60.75H45.0238C46.2118 63.288 48.1018 65.502 50.4238 67.068L49.7758 74.25H43.0258L43.6738 67.068C41.3518 65.502 39.4618 63.288 38.2738 60.75Z" fill="#F4BA43"/>
<path d="M52.4742 29.268C47.5062 29.268 43.4562 25.218 43.4562 20.25C43.4562 15.282 47.5062 11.232 52.4742 11.232C57.4422 11.232 61.4922 15.282 61.4922 20.25C61.4922 25.218 57.4962 29.268 52.4742 29.268ZM52.4742 15.768C49.9902 15.768 47.9922 17.766 47.9922 20.25C47.9922 22.734 49.9902 24.732 52.4742 24.732C54.9582 24.732 56.9562 22.734 56.9562 20.25C56.9562 17.766 55.0122 15.768 52.4742 15.768Z" fill="#1D232A"/>
<path d="M52.4742 105.732C57.4422 105.732 61.4922 109.782 61.4922 114.75C61.4922 119.718 57.4422 123.768 52.4742 123.768C47.5062 123.768 43.4562 119.718 43.4562 114.75C43.4562 109.782 47.5062 105.732 52.4742 105.732ZM52.4742 119.232C54.9582 119.232 56.9562 117.234 56.9562 114.75C56.9562 112.266 54.9582 110.268 52.4742 110.268C49.9902 110.268 47.9922 112.266 47.9922 114.75C47.9922 117.234 49.9902 119.232 52.4742 119.232Z" fill="#1D232A"/>
<path d="M113.224 76.518C108.256 76.518 104.206 72.468 104.206 67.5C104.206 62.532 108.256 58.482 113.224 58.482C118.192 58.482 122.242 62.532 122.242 67.5C122.242 72.468 118.246 76.518 113.224 76.518ZM113.224 63.018C110.74 63.018 108.742 65.016 108.742 67.5C108.742 69.984 110.74 71.982 113.224 71.982C115.708 71.982 117.76 69.984 117.76 67.5C117.76 65.016 115.762 63.018 113.224 63.018Z" fill="#1D232A"/>
<path d="M104.26 94.5C102.856 94.5 101.452 94.392 100.048 94.176C91.8935 119.016 73.4255 135 52.5275 135C24.0155 135 0.795456 104.706 0.795456 67.5C0.795456 30.294 23.9615 0 52.4735 0C73.3715 0 91.8395 15.984 99.9935 40.824C110.038 39.204 120.082 43.416 126.076 51.624C132.07 59.832 132.88 70.686 128.29 79.758C123.7 88.83 114.412 94.5 104.26 94.5ZM52.4735 4.482C26.3915 4.482 5.22346 32.724 5.22346 67.5C5.22346 102.276 26.3915 130.518 52.4735 130.518C71.2655 130.518 88.0055 115.884 95.6195 93.096C87.7895 90.45 81.5795 84.348 78.7715 76.518H64.4615L65.9735 92.286C66.1355 94.014 65.5955 95.688 64.4075 96.984C63.2735 98.28 61.5995 98.982 59.8715 98.982H45.1295C43.4015 98.982 41.7815 98.226 40.5935 96.984C39.4055 95.742 38.8655 94.014 39.0275 92.286L41.2955 68.148C34.7075 62.91 32.6015 53.838 36.2195 46.278C39.8375 38.718 48.2615 34.614 56.4155 36.504C64.5695 38.394 70.4555 45.63 70.4555 54.054C70.4555 55.566 70.2395 57.078 69.8615 58.536H78.7715C81.5795 50.706 87.7895 44.604 95.6195 41.958C88.0595 19.116 71.3195 4.482 52.4735 4.482ZM104.26 44.982C94.2155 44.982 85.3595 51.678 82.6055 61.344C82.3355 62.316 81.4715 62.964 80.4455 62.964H47.9915C46.7495 62.964 45.7235 61.938 45.7235 60.696C45.7235 59.454 46.7495 58.428 47.9915 58.428H65.2175C65.7575 56.97 65.9735 55.458 65.9735 53.946C65.9735 47.52 61.4375 42.012 55.1195 40.716C48.8015 39.42 42.4835 42.822 39.9995 48.762C37.5155 54.702 39.5675 61.56 44.9135 65.124C45.6155 65.61 45.9395 66.366 45.8855 67.176L43.4555 92.61C43.4015 93.042 43.5635 93.528 43.8875 93.852C44.2115 94.176 44.6435 94.392 45.0755 94.392H59.8175C60.2495 94.392 60.6815 94.176 61.0055 93.852C61.3295 93.528 61.4915 93.042 61.4375 92.61L59.9255 76.41H52.4735C51.2315 76.41 50.2055 75.384 50.2055 74.142C50.2055 72.9 51.2315 71.874 52.4735 71.874H80.4455C81.4715 71.874 82.3355 72.522 82.6055 73.494C85.7915 84.672 96.9695 91.584 108.364 89.478C119.758 87.372 127.75 77.004 126.67 65.448C125.589 53.892 115.87 44.982 104.26 44.982Z" fill="#1D232A"/>
</g>
</svg>
