<svg width="94" height="181" viewBox="0 0 94 181" fill="none" xmlns="http://www.w3.org/2000/svg">
<path d="M8.17969 0.717346H84.8457C89.087 0.717346 92.5254 4.15569 92.5254 8.39703V172.625C92.5253 176.866 89.087 180.304 84.8457 180.304H8.17969C3.9384 180.304 0.500091 176.866 0.5 172.625V8.39703C0.5 4.15569 3.93834 0.717346 8.17969 0.717346Z" fill="#171E26" stroke="#040506"/>
<circle cx="46.5117" cy="52.8974" r="17.5" fill="#0D1116"/>
<path d="M53.1529 51.0624C53.0433 50.7834 52.9118 50.5259 52.7364 50.2684C52.6049 50.0752 52.4734 49.925 52.298 49.7533C52.1884 49.646 52.0569 49.5387 51.9254 49.4528C51.7939 49.367 51.6624 49.2812 51.5309 49.1953C51.3994 49.1309 51.246 49.0665 51.0925 49.0022C51.0268 48.9807 50.961 48.9592 50.8953 48.9378C50.8295 48.9163 50.7637 48.9163 50.6761 48.8949C50.5884 48.8734 50.5226 48.8734 50.435 48.8519C50.413 48.8519 50.3911 48.8519 50.3911 48.8519C50.3692 48.8519 50.3692 48.8519 50.3473 48.8519C50.3035 48.8519 50.2377 48.8519 50.1939 48.8519C50.1939 48.8519 50.1719 48.8519 50.15 48.8519C49.9308 48.8519 49.0103 48.8734 48.3308 49.4743C48.265 49.5172 48.2212 49.5816 48.1554 49.646C47.9582 49.8177 47.739 50.0752 47.5417 50.3113C46.9718 50.9981 46.5335 51.6634 46.5335 51.6634C46.0951 51.0195 45.5471 50.2684 44.8896 49.6031C44.8238 49.5387 44.7362 49.4743 44.6704 49.4099C44.5389 49.3026 44.4074 49.2168 44.2539 49.1524C44.232 49.1524 44.2101 49.1309 44.1882 49.1309C44.0348 49.0665 43.9032 49.0022 43.7498 48.9592C43.6183 48.9163 43.4868 48.8949 43.3553 48.8734C43.2457 48.8519 43.158 48.8519 43.0484 48.8519C42.9827 48.8519 42.9388 48.8519 42.8731 48.8519C42.8512 48.8519 42.8292 48.8519 42.8292 48.8519C42.7196 48.8519 42.6101 48.8519 42.5005 48.8734C42.3909 48.8949 42.2813 48.9163 42.1936 48.9378C42.084 48.9592 41.9963 49.0022 41.8867 49.0236C41.7772 49.0665 41.6895 49.1095 41.6018 49.1524C41.5141 49.1953 41.4045 49.2597 41.3169 49.3026C41.2292 49.367 41.1415 49.4314 41.0538 49.4958C40.9662 49.5602 40.8785 49.6245 40.8127 49.7104C40.7689 49.7533 40.747 49.7748 40.7031 49.8177C40.6593 49.8606 40.5936 49.925 40.5497 49.9894C40.5278 50.0108 40.5059 50.0323 40.484 50.0538C40.484 50.0752 40.462 50.0752 40.462 50.0967C40.462 50.0967 40.462 50.1181 40.4401 50.1181L40.4182 50.1396C40.3963 50.1825 40.3524 50.2255 40.3305 50.2684C40.2648 50.3542 40.2209 50.4401 40.1771 50.5259C40.1113 50.6332 40.0675 50.7191 40.0018 50.8264C39.9798 50.8693 39.936 50.9337 39.9141 50.9981C39.9141 50.9981 39.9141 50.9981 39.9141 51.0195C39.8922 51.0624 39.8702 51.1268 39.8483 51.1698V51.1912C39.8264 51.2341 39.8045 51.2985 39.7826 51.3414V51.3629C39.7606 51.4273 39.7387 51.4917 39.7168 51.5775C39.6949 51.6204 39.6949 51.6848 39.673 51.7277C39.6511 51.7707 39.6511 51.8351 39.6291 51.878V51.8994C39.3661 53.1442 39.4319 54.8611 41.0319 56.299C41.0977 56.3419 41.1415 56.4063 41.2073 56.4492C41.273 56.4922 41.3388 56.5351 41.4045 56.578C41.4703 56.6209 41.5361 56.6424 41.6018 56.6853C41.6676 56.7068 41.7333 56.7497 41.7991 56.7712C41.8648 56.7926 41.9087 56.8141 41.9744 56.8355C42.0402 56.857 42.084 56.8785 42.1498 56.8785C42.3032 56.9214 42.4785 56.9428 42.6539 56.9428C42.8292 56.9428 42.9827 56.9428 43.158 56.9214C43.2895 56.8999 43.443 56.8785 43.5745 56.857C43.6402 56.8355 43.6841 56.8355 43.7279 56.8141C43.7937 56.7926 43.8375 56.7712 43.9033 56.7712C43.969 56.7497 44.0128 56.7282 44.0786 56.7068C44.1444 56.6853 44.1882 56.6638 44.2539 56.6209C44.3197 56.5995 44.3635 56.5565 44.4293 56.5351C44.4951 56.4922 44.5389 56.4707 44.6046 56.4278C44.6704 56.3849 44.7142 56.3419 44.7581 56.299C44.78 56.2775 44.8019 56.2561 44.8238 56.2346C44.8457 56.2132 44.8677 56.1917 44.8896 56.1702C45.2841 55.8269 46.0293 54.8396 46.5335 54.11C46.5335 54.1314 46.6869 54.346 46.7088 54.3675C46.7746 54.4533 46.8403 54.5606 46.9061 54.6465C47.0157 54.7967 47.1253 54.9469 47.2568 55.0972C47.4979 55.4191 47.739 55.7196 48.002 55.9985C48.1993 56.1917 48.3965 56.3634 48.6157 56.4922C49.2952 56.9214 50.15 57.0287 50.9391 56.8355C51.0925 56.7926 51.246 56.7497 51.3994 56.6638C51.9035 56.4492 52.32 56.0629 52.6487 55.6122C53.394 54.5606 53.6789 53.23 53.4159 51.9638C53.3501 51.6419 53.2625 51.3414 53.1529 51.0624ZM44.1005 54.9255C44.0567 54.9469 44.0348 54.9899 43.9909 55.0113C43.969 55.0328 43.9252 55.0543 43.9033 55.0757C43.6402 55.2474 43.3334 55.3332 43.0046 55.3547C42.7635 55.3762 42.5224 55.3547 42.3032 55.3118C42.2813 55.3118 42.2374 55.2903 42.2155 55.2903C42.1936 55.2903 42.1717 55.2689 42.1279 55.2689C42.084 55.2474 42.0402 55.2259 42.0183 55.2045C41.9744 55.183 41.9525 55.1616 41.9087 55.1401C41.8648 55.1186 41.8429 55.0972 41.7991 55.0757C41.7552 55.0543 41.7333 55.0328 41.6895 54.9899C41.6456 54.9684 41.6237 54.9255 41.5799 54.904C41.5361 54.8826 41.5141 54.8396 41.4922 54.8182C41.4703 54.7753 41.4265 54.7538 41.4045 54.7109C41.3826 54.6679 41.3388 54.6465 41.3169 54.6036C41.2949 54.5606 41.2511 54.5392 41.2292 54.4963C41.2073 54.4533 41.1854 54.4104 41.1634 54.3889C41.1415 54.346 41.1196 54.3031 41.0977 54.2602C41.0758 54.2173 41.0538 54.1743 41.0319 54.1314C41.01 54.0885 40.9881 54.0456 40.9662 54.0026C40.9442 53.9597 40.9223 53.9168 40.9223 53.8739C40.9004 53.831 40.9004 53.788 40.8785 53.7236C40.8566 53.6807 40.8566 53.6163 40.8347 53.5734C40.8127 53.5305 40.8127 53.4661 40.8127 53.4232C40.8127 53.3803 40.7908 53.3159 40.7908 53.273C40.7908 53.23 40.7689 53.1657 40.7689 53.1227C40.7689 53.0798 40.7689 53.0154 40.7689 52.9725C40.7689 52.951 40.7689 52.9296 40.7689 52.9081C40.7689 51.3414 42.2155 49.6889 43.8594 50.6976C44.1224 50.8478 44.3416 51.0624 44.5389 51.32C44.9334 51.8351 45.3499 52.3716 45.7006 52.9081C45.5252 53.1871 45.328 53.4661 45.1307 53.7236C44.9773 53.9383 44.8019 54.1743 44.6266 54.3889C44.4731 54.5606 44.2978 54.7538 44.1005 54.9255ZM51.1144 55.1186C50.8295 55.2689 50.5446 55.3332 50.3254 55.3762C50.1281 55.3976 49.9308 55.3976 49.7336 55.3547C49.5363 55.3118 49.339 55.2474 49.1856 55.1401C49.0103 55.0328 48.8568 54.8826 48.7034 54.7323C48.5938 54.6036 48.4842 54.4963 48.3746 54.3675C48.265 54.2173 48.1335 54.067 48.0239 53.9168C47.8924 53.7451 47.7609 53.5734 47.6294 53.3803C47.6075 53.3373 47.5856 53.3159 47.5417 53.273C47.476 53.1442 47.3883 53.0369 47.3006 52.8867C47.7609 52.1999 48.2212 51.5131 48.7911 50.9337C49.0103 50.7191 49.2514 50.5688 49.5363 50.483C49.9528 50.3542 50.435 50.3542 50.8295 50.5259C51.1144 50.6547 51.3555 50.8264 51.5747 51.0624C52.0131 51.5561 52.2323 52.2214 52.2323 52.8867C52.2542 53.8739 51.7939 54.7109 51.1144 55.1186Z" fill="#FF492C"/>
<path d="M6.51342 8.03536C7.12573 7.42505 7.47203 7.05821 7.47203 6.72705C7.47203 6.49452 7.34558 6.32955 7.08565 6.32955C6.91513 6.32955 6.76856 6.43748 6.65253 6.57367L6.5 6.42517C6.6704 6.23793 6.85399 6.11554 7.11786 6.11554C7.49441 6.11554 7.72936 6.35322 7.72936 6.71527C7.72936 7.09757 7.37833 7.47751 6.89778 7.98264C7.00808 7.97391 7.13481 7.96514 7.24037 7.96514H7.82926V8.19092H6.51342V8.03536Z" fill="#E6E7E8"/>
<path d="M8.10326 8.03536C8.71557 7.42505 9.06186 7.05821 9.06186 6.72705C9.06186 6.49452 8.93542 6.32955 8.67549 6.32955C8.50497 6.32955 8.3584 6.43748 8.24237 6.57367L8.08984 6.42517C8.26024 6.23793 8.44383 6.11554 8.7077 6.11554C9.08425 6.11554 9.3192 6.35322 9.3192 6.71527C9.3192 7.09757 8.96816 7.47751 8.48761 7.98264C8.59792 7.97391 8.72465 7.96514 8.83021 7.96514H9.4191V8.19092H8.10326V8.03536Z" fill="#E6E7E8"/>
<path d="M9.76953 8.03023C9.76953 7.90957 9.85525 7.82727 9.95976 7.82727C10.0642 7.82727 10.15 7.90957 10.15 8.03023C10.15 8.14687 10.0642 8.22918 9.95976 8.22918C9.85525 8.22918 9.76953 8.14687 9.76953 8.03023Z" fill="#E6E7E8"/>
<path d="M11.3289 6.82569C11.3289 6.71862 11.3376 6.5425 11.344 6.43544H11.3313C11.2801 6.53258 11.2226 6.62166 11.1651 6.72282L10.6892 7.419H11.8552V7.62833H10.4141V7.45498L11.2856 6.15381H11.5775V8.19087H11.3289V6.82569Z" fill="#E6E7E8"/>
<path d="M12.0742 7.66948C12.0742 7.40486 12.2672 7.22396 12.4589 7.12176V7.10897C12.3073 7.00376 12.1745 6.85278 12.1745 6.63797C12.1745 6.32464 12.4232 6.11554 12.7506 6.11554C13.1073 6.11554 13.3265 6.3408 13.3265 6.65749C13.3265 6.87098 13.1712 7.05426 13.0456 7.14888V7.16167C13.2275 7.26908 13.3998 7.41264 13.3998 7.68496C13.3998 7.99056 13.1371 8.22924 12.7436 8.22924C12.3578 8.22924 12.0742 7.99357 12.0742 7.66948ZM13.1483 7.6779C13.1483 7.41391 12.8907 7.3201 12.5966 7.20172C12.433 7.30832 12.3116 7.45897 12.3116 7.64597C12.3116 7.87025 12.4988 8.03403 12.7483 8.03403C12.9867 8.03403 13.1483 7.88772 13.1483 7.6779ZM13.0998 6.67157C13.0998 6.47049 12.9706 6.31075 12.7459 6.31075C12.5561 6.31075 12.4154 6.4409 12.4154 6.63797C12.4154 6.8811 12.641 6.98366 12.8852 7.08051C13.0234 6.9571 13.0998 6.82156 13.0998 6.67157Z" fill="#E6E7E8"/>
<path d="M85.5464 8.735V8.38547C85.557 8.38636 85.5677 8.38699 85.5787 8.38699H85.8011C85.9316 8.38699 86.0379 8.32132 86.0379 8.24062V7.48218C86.0379 7.40147 85.9316 7.3358 85.8011 7.3358H85.5787C85.5677 7.3358 85.557 7.33643 85.5464 7.33733V6.98781C85.5464 6.90709 85.4401 6.84143 85.3096 6.84143H79.7856C79.655 6.84143 79.5488 6.90709 79.5488 6.98781V8.735C79.5488 8.81571 79.655 8.88137 79.7856 8.88137H85.3096C85.4401 8.88137 85.5464 8.81571 85.5464 8.735ZM79.7856 8.7483C79.7739 8.7483 79.7641 8.74221 79.7641 8.735V6.98781C79.7641 6.98059 79.7739 6.97449 79.7856 6.97449H85.3096C85.3213 6.97449 85.3311 6.98059 85.3311 6.98781V8.735C85.3311 8.74221 85.3212 8.7483 85.3096 8.7483H79.7856Z" fill="#E6E7E8"/>
<path d="M83.0152 7.20209H80.7788H80.4021H80.0254V8.5338H80.4021H80.7788H83.0152V7.20209Z" fill="#E6E7E8"/>
<path d="M75.5288 7.19922H74.7871V8.74064H75.5288V7.19922Z" fill="#F1F2F2"/>
<path d="M76.6889 6.59668H75.9473V8.74069H76.6889V6.59668Z" fill="#F1F2F2"/>
<path d="M77.7534 5.90143H77.0117V8.74074H77.7534V5.90143Z" fill="#F1F2F2"/>
<path opacity="0.42" d="M71.1653 165.589H21.8388C16.928 165.589 12.9102 161.571 12.9102 156.66C12.9102 151.749 16.928 147.731 21.8388 147.731H71.1653C76.076 147.731 80.0939 151.749 80.0939 156.66C80.0939 161.571 76.076 165.589 71.1653 165.589Z" fill="url(#paint0_linear_373_802)"/>
<path d="M27.3971 162.098C30.401 159.094 30.401 154.224 27.3971 151.22C24.3933 148.216 19.523 148.216 16.5191 151.22C13.5152 154.224 13.5152 159.094 16.5191 162.098C19.523 165.102 24.3932 165.102 27.3971 162.098Z" fill="#F1F2F2"/>
<mask id="mask0_373_802" style="mask-type:luminance" maskUnits="userSpaceOnUse" x="17" y="151" width="8" height="7">
<path d="M22.2162 151.326L17.5957 153.406L19.6555 157.982L24.2761 155.903L22.2162 151.326Z" fill="white"/>
</mask>
<g mask="url(#mask0_373_802)">
<path d="M25.4121 160.528C25.4673 160.164 25.2355 159.884 24.943 159.657C24.6678 159.444 24.3978 159.223 24.1263 159.004C23.8805 158.806 23.6176 158.545 23.3002 158.746C23.0809 158.885 22.9694 159.152 22.7665 159.312C22.6755 159.218 22.5829 159.103 22.503 158.997C21.8023 158.092 21.1863 157.001 21.0996 155.811C21.0834 155.588 21.0616 155.33 21.0766 155.083C21.1041 155.074 21.1339 155.068 21.1662 155.066C21.1662 155.066 22.351 155.181 22.4457 154.895C22.5404 154.609 22.2888 152.587 22.2888 152.587C22.2888 152.587 22.1796 152.394 21.6433 152.345C21.6156 152.336 21.6045 152.341 21.6045 152.341C21.4472 152.324 21.2893 152.289 21.1328 152.293C20.4113 152.313 19.8642 152.639 19.5248 153.315C19.5143 153.336 19.5 153.354 19.4875 153.374C19.4528 153.469 19.4181 153.565 19.3835 153.66C19.3556 153.807 19.3213 153.953 19.3009 154.101C19.2308 154.609 19.2723 155.115 19.3627 155.618C19.5252 156.524 19.8336 157.38 20.1968 158.218C20.7592 159.515 21.555 161.225 22.9644 161.676C23.5268 161.857 24.1854 161.85 24.6819 161.513C24.9539 161.328 25.2382 161.028 25.3622 160.711C25.3869 160.648 25.4032 160.587 25.4121 160.528Z" fill="#4DBA55"/>
</g>
<mask id="mask1_373_802" style="mask-type:luminance" maskUnits="userSpaceOnUse" x="19" y="155" width="8" height="8">
<path d="M24.2787 155.908L19.6582 157.987L21.718 162.564L26.3385 160.485L24.2787 155.908Z" fill="white"/>
</mask>
<g mask="url(#mask1_373_802)">
<path d="M21.568 151.99C21.8772 152.19 21.9333 152.549 21.909 152.919C21.886 153.266 21.8725 153.615 21.8561 153.963C21.8413 154.278 21.8624 154.648 21.5015 154.752C21.2523 154.824 20.9784 154.731 20.7244 154.777C20.7342 154.907 20.7586 155.053 20.7853 155.183C20.9979 156.307 21.4062 157.492 22.2397 158.346C22.3958 158.506 22.5744 158.693 22.7691 158.846C22.7941 158.831 22.8181 158.813 22.8411 158.79C22.8411 158.79 23.5406 157.827 23.8179 157.946C24.095 158.065 25.4413 159.593 25.4413 159.593C25.4413 159.593 25.5135 159.803 25.1947 160.237C25.1831 160.264 25.1716 160.268 25.1716 160.268C25.08 160.398 25.0016 160.539 24.8947 160.653C24.4019 161.181 23.795 161.374 23.064 161.18C23.0414 161.174 23.0178 161.172 22.9946 161.168C22.9003 161.131 22.806 161.094 22.7117 161.057C22.5833 160.98 22.4515 160.909 22.3272 160.826C21.9003 160.542 21.5491 160.175 21.2323 159.774C20.6621 159.052 20.2254 158.253 19.8393 157.426C19.2413 156.145 18.4888 154.415 19.0853 153.061C19.3234 152.52 19.7654 152.032 20.3467 151.883C20.6651 151.802 21.0788 151.789 21.3983 151.906C21.4619 151.93 21.5182 151.958 21.568 151.99Z" fill="#4DBA55"/>
</g>
<path d="M36.0647 158.687C35.8596 158.687 35.6644 158.649 35.4791 158.574C35.2938 158.499 35.1321 158.405 34.9941 158.29L35.2366 157.965C35.3628 158.068 35.4919 158.15 35.6241 158.213C35.7561 158.277 35.9089 158.308 36.0824 158.308C36.2717 158.308 36.4136 158.265 36.5083 158.178C36.6029 158.091 36.6502 157.985 36.6502 157.859C36.6502 157.784 36.6304 157.719 36.591 157.663C36.5516 157.608 36.5013 157.56 36.4402 157.519C36.379 157.477 36.3091 157.441 36.2303 157.409C36.1514 157.378 36.0725 157.346 35.9937 157.314C35.8911 157.279 35.7886 157.239 35.6861 157.193C35.5836 157.148 35.4919 157.093 35.4111 157.028C35.3302 156.963 35.2642 156.887 35.213 156.8C35.1617 156.713 35.1361 156.609 35.1361 156.486C35.1361 156.372 35.1587 156.265 35.2041 156.164C35.2494 156.064 35.3145 155.977 35.3993 155.904C35.484 155.831 35.5875 155.774 35.7098 155.732C35.832 155.691 35.9701 155.67 36.1238 155.67C36.3051 155.67 36.4717 155.702 36.6236 155.765C36.7753 155.828 36.9064 155.905 37.0169 155.996L36.7862 156.303C36.6876 156.228 36.5851 156.167 36.4787 156.12C36.3722 156.072 36.2559 156.049 36.1297 156.049C35.9483 156.049 35.8153 156.09 35.7305 156.173C35.6457 156.256 35.6033 156.353 35.6033 156.463C35.6033 156.53 35.6211 156.588 35.6566 156.637C35.6921 156.687 35.7394 156.73 35.7985 156.767C35.8577 156.805 35.9257 156.838 36.0026 156.868C36.0794 156.898 36.1593 156.928 36.2421 156.96C36.3446 156.999 36.4481 157.04 36.5526 157.084C36.657 157.127 36.7507 157.181 36.8335 157.247C36.9163 157.312 36.9843 157.391 37.0376 157.486C37.0908 157.581 37.1174 157.695 37.1174 157.829C37.1174 157.947 37.0947 158.058 37.0494 158.16C37.004 158.263 36.937 158.354 36.8483 158.432C36.7596 158.511 36.6492 158.573 36.5171 158.619C36.385 158.664 36.2341 158.687 36.0647 158.687Z" fill="white"/>
<path d="M38.3075 158.687C38.1221 158.687 37.9901 158.631 37.9112 158.521C37.8323 158.411 37.793 158.249 37.793 158.036V154.405H38.2779V158.072C38.2779 158.15 38.2917 158.206 38.3194 158.237C38.3469 158.269 38.3785 158.284 38.414 158.284C38.4297 158.284 38.4445 158.284 38.4583 158.284C38.4721 158.284 38.4929 158.281 38.5205 158.273L38.5855 158.639C38.5539 158.655 38.5165 158.667 38.4732 158.675C38.4297 158.683 38.3745 158.687 38.3075 158.687Z" fill="white"/>
<path d="M39.548 155.15C39.4534 155.15 39.3736 155.12 39.3085 155.061C39.2435 155.002 39.2109 154.927 39.2109 154.836C39.2109 154.742 39.2435 154.666 39.3085 154.609C39.3736 154.552 39.4534 154.523 39.548 154.523C39.6427 154.523 39.7225 154.552 39.7876 154.609C39.8527 154.666 39.8851 154.742 39.8851 154.836C39.8851 154.927 39.8527 155.002 39.7876 155.061C39.7225 155.12 39.6427 155.15 39.548 155.15ZM39.2996 158.616V155.741H39.7846V158.616H39.2996Z" fill="white"/>
<path d="M41.7376 158.687C41.3748 158.687 41.086 158.557 40.8712 158.296C40.6562 158.036 40.5488 157.665 40.5488 157.184C40.5488 156.952 40.5833 156.742 40.6523 156.555C40.7212 156.367 40.8129 156.209 40.9273 156.078C41.0416 155.948 41.1737 155.848 41.3236 155.777C41.4734 155.706 41.6312 155.67 41.7968 155.67C41.9623 155.67 42.1062 155.7 42.2285 155.759C42.3507 155.818 42.4749 155.899 42.6011 156.001L42.5774 155.511V154.405H43.0683V158.616H42.6661L42.6248 158.279H42.607C42.4926 158.389 42.3616 158.485 42.2137 158.565C42.0659 158.646 41.9071 158.687 41.7376 158.687ZM41.8441 158.279C41.9781 158.279 42.1043 158.246 42.2226 158.181C42.3409 158.116 42.4592 158.016 42.5774 157.882V156.38C42.4552 156.27 42.3379 156.192 42.2255 156.146C42.1132 156.101 41.9979 156.078 41.8795 156.078C41.7652 156.078 41.6578 156.105 41.5572 156.158C41.4567 156.211 41.3689 156.286 41.294 156.383C41.2191 156.48 41.16 156.595 41.1166 156.729C41.0732 156.863 41.0515 157.013 41.0515 157.178C41.0515 157.526 41.1205 157.796 41.2586 157.989C41.3965 158.182 41.5917 158.279 41.8441 158.279Z" fill="white"/>
<path d="M45.2023 158.687C45.009 158.687 44.8287 158.652 44.6611 158.583C44.4935 158.514 44.3477 158.416 44.2235 158.287C44.0993 158.159 44.0017 158.003 43.9307 157.817C43.8597 157.632 43.8242 157.421 43.8242 157.184C43.8242 156.948 43.8606 156.736 43.9336 156.549C44.0065 156.361 44.1031 156.203 44.2235 156.072C44.3437 155.942 44.4807 155.843 44.6345 155.774C44.7883 155.705 44.9479 155.67 45.1135 155.67C45.2949 155.67 45.4575 155.702 45.6015 155.765C45.7454 155.828 45.8656 155.919 45.9623 156.037C46.0589 156.155 46.1328 156.297 46.1841 156.463C46.2352 156.628 46.261 156.814 46.261 157.019C46.261 157.07 46.2599 157.12 46.258 157.17C46.2559 157.219 46.2511 157.261 46.2432 157.297H44.3033C44.3229 157.604 44.4186 157.848 44.5901 158.027C44.7617 158.207 44.9854 158.296 45.2614 158.296C45.3994 158.296 45.5265 158.276 45.6429 158.234C45.7592 158.193 45.8706 158.139 45.977 158.072L46.1486 158.391C46.0223 158.47 45.8824 158.539 45.7286 158.598C45.5749 158.657 45.3994 158.687 45.2023 158.687ZM44.2974 156.948H45.8351C45.8351 156.656 45.773 156.434 45.6488 156.282C45.5246 156.131 45.3501 156.055 45.1254 156.055C45.0228 156.055 44.9252 156.074 44.8326 156.114C44.7399 156.153 44.6561 156.211 44.5813 156.288C44.5063 156.365 44.4442 156.459 44.395 156.569C44.3456 156.68 44.3131 156.806 44.2974 156.948Z" fill="white"/>
<path d="M49.0585 158.687C48.9047 158.687 48.7755 158.663 48.6711 158.616C48.5666 158.568 48.4819 158.503 48.4168 158.421C48.3517 158.338 48.3054 158.237 48.2778 158.119C48.2502 158.001 48.2364 157.871 48.2364 157.729V156.138H47.8105V155.771L48.2601 155.741L48.3192 154.937H48.7273V155.741H49.5021V156.138H48.7273V157.735C48.7273 157.912 48.7598 158.049 48.8249 158.146C48.8899 158.242 49.0053 158.29 49.1709 158.29C49.2221 158.29 49.2773 158.283 49.3365 158.267C49.3956 158.251 49.4488 158.233 49.4962 158.214L49.5908 158.58C49.5118 158.608 49.4261 158.632 49.3335 158.654C49.2408 158.676 49.1491 158.687 49.0585 158.687Z" fill="white"/>
<path d="M51.1882 158.687C51.0107 158.687 50.8422 158.653 50.6825 158.586C50.5228 158.519 50.3818 158.421 50.2596 158.293C50.1373 158.165 50.0397 158.007 49.9668 157.82C49.8938 157.633 49.8574 157.421 49.8574 157.184C49.8574 156.944 49.8938 156.73 49.9668 156.543C50.0397 156.355 50.1373 156.197 50.2596 156.067C50.3818 155.936 50.5228 155.838 50.6825 155.771C50.8422 155.704 51.0107 155.67 51.1882 155.67C51.3656 155.67 51.5342 155.704 51.6938 155.771C51.8535 155.838 51.9945 155.936 52.1167 156.067C52.2389 156.197 52.3364 156.355 52.4095 156.543C52.4824 156.73 52.5189 156.944 52.5189 157.184C52.5189 157.421 52.4824 157.633 52.4095 157.82C52.3364 158.007 52.2389 158.165 52.1167 158.293C51.9945 158.421 51.8535 158.519 51.6938 158.586C51.5342 158.653 51.3656 158.687 51.1882 158.687ZM51.1882 158.284C51.3103 158.284 51.4227 158.258 51.5253 158.205C51.6278 158.151 51.7155 158.076 51.7885 157.98C51.8614 157.883 51.9176 157.768 51.957 157.634C51.9964 157.5 52.0162 157.35 52.0162 157.184C52.0162 157.019 51.9964 156.868 51.957 156.732C51.9176 156.596 51.8614 156.479 51.7885 156.38C51.7155 156.282 51.6278 156.206 51.5253 156.152C51.4227 156.099 51.3103 156.072 51.1882 156.072C51.0659 156.072 50.9535 156.099 50.851 156.152C50.7485 156.206 50.6608 156.282 50.5878 156.38C50.5149 156.479 50.4587 156.596 50.4193 156.732C50.3798 156.868 50.3601 157.019 50.3601 157.184C50.3601 157.35 50.3798 157.5 50.4193 157.634C50.4587 157.768 50.5149 157.883 50.5878 157.98C50.6608 158.076 50.7485 158.151 50.851 158.205C50.9535 158.258 51.0659 158.284 51.1882 158.284Z" fill="white"/>
<path d="M55.1192 158.687C54.8786 158.687 54.6785 158.616 54.5189 158.474C54.3592 158.332 54.2793 158.131 54.2793 157.87C54.2793 157.555 54.4192 157.314 54.6992 157.146C54.9792 156.978 55.4267 156.861 56.0418 156.794C56.0418 156.703 56.0329 156.615 56.0152 156.528C55.9974 156.441 55.9669 156.364 55.9235 156.297C55.8801 156.23 55.82 156.176 55.7431 156.135C55.6663 156.093 55.5687 156.072 55.4504 156.072C55.2848 156.072 55.1289 156.104 54.9831 156.167C54.8372 156.23 54.7071 156.301 54.5928 156.38L54.4035 156.043C54.5375 155.956 54.7012 155.872 54.8944 155.792C55.0875 155.711 55.3004 155.67 55.5331 155.67C55.8841 155.67 56.1384 155.778 56.2961 155.993C56.4538 156.208 56.5327 156.494 56.5327 156.853V158.616H56.1305L56.0891 158.273H56.0714C55.9333 158.387 55.7855 158.485 55.6278 158.565C55.4701 158.646 55.3005 158.687 55.1192 158.687ZM55.2611 158.296C55.3991 158.296 55.5292 158.264 55.6515 158.199C55.7736 158.134 55.9038 158.038 56.0418 157.912V157.113C55.8012 157.145 55.5991 157.182 55.4356 157.226C55.2719 157.269 55.1398 157.32 55.0394 157.38C54.9388 157.439 54.8658 157.507 54.8205 157.584C54.7751 157.66 54.7525 157.744 54.7525 157.835C54.7525 158.001 54.8017 158.119 54.9003 158.19C54.9989 158.261 55.1192 158.296 55.2611 158.296Z" fill="white"/>
<path d="M57.4395 158.616V155.741H57.8417L57.883 156.155H57.9008C58.0388 156.017 58.1837 155.902 58.3355 155.809C58.4872 155.717 58.6637 155.67 58.8648 155.67C59.1684 155.67 59.3902 155.765 59.5302 155.954C59.6701 156.143 59.7402 156.423 59.7402 156.794V158.616H59.2552V156.859C59.2552 156.587 59.2118 156.391 59.1251 156.271C59.0383 156.15 58.9003 156.09 58.711 156.09C58.5612 156.09 58.4291 156.128 58.3148 156.203C58.2004 156.278 58.0703 156.388 57.9244 156.534V158.616H57.4395Z" fill="white"/>
<path d="M61.4241 158.687C61.219 158.687 61.0238 158.649 60.8385 158.574C60.6532 158.499 60.4915 158.405 60.3535 158.29L60.596 157.965C60.7222 158.068 60.8513 158.15 60.9834 158.213C61.1155 158.277 61.2683 158.308 61.4418 158.308C61.631 158.308 61.773 158.265 61.8676 158.178C61.9623 158.091 62.0096 157.985 62.0096 157.859C62.0096 157.784 61.9898 157.719 61.9504 157.663C61.911 157.608 61.8607 157.56 61.7996 157.519C61.7384 157.477 61.6684 157.441 61.5896 157.409C61.5107 157.378 61.4319 157.346 61.3531 157.314C61.2505 157.279 61.148 157.239 61.0455 157.193C60.9429 157.148 60.8513 157.093 60.7705 157.028C60.6896 156.963 60.6236 156.887 60.5723 156.8C60.5211 156.713 60.4955 156.609 60.4955 156.486C60.4955 156.372 60.5181 156.265 60.5635 156.164C60.6087 156.064 60.6738 155.977 60.7587 155.904C60.8434 155.831 60.9469 155.774 61.0692 155.732C61.1914 155.691 61.3294 155.67 61.4832 155.67C61.6645 155.67 61.8311 155.702 61.983 155.765C62.1347 155.828 62.2658 155.905 62.3763 155.996L62.1456 156.303C62.047 156.228 61.9445 156.167 61.8381 156.12C61.7316 156.072 61.6153 156.049 61.4891 156.049C61.3077 156.049 61.1746 156.09 61.0899 156.173C61.005 156.256 60.9627 156.353 60.9627 156.463C60.9627 156.53 60.9805 156.588 61.0159 156.637C61.0514 156.687 61.0988 156.73 61.1579 156.767C61.217 156.805 61.285 156.838 61.3619 156.868C61.4388 156.898 61.5187 156.928 61.6014 156.96C61.704 156.999 61.8075 157.04 61.912 157.084C62.0164 157.127 62.1101 157.181 62.1929 157.247C62.2757 157.312 62.3437 157.391 62.397 157.486C62.4502 157.581 62.4768 157.695 62.4768 157.829C62.4768 157.947 62.4541 158.058 62.4088 158.16C62.3634 158.263 62.2964 158.354 62.2077 158.432C62.119 158.511 62.0086 158.573 61.8765 158.619C61.7443 158.664 61.5935 158.687 61.4241 158.687Z" fill="white"/>
<path d="M63.6071 158.616L62.8086 155.741H63.3054L63.7313 157.403C63.7628 157.541 63.7923 157.675 63.82 157.805C63.8475 157.936 63.8752 158.068 63.9028 158.202H63.9264C63.9579 158.068 63.9895 157.935 64.0211 157.802C64.0525 157.67 64.0861 157.537 64.1216 157.403L64.5652 155.741H65.0383L65.4878 157.403C65.5233 157.541 65.5578 157.675 65.5913 157.805C65.6248 157.936 65.6573 158.068 65.6889 158.202H65.7126C65.7441 158.068 65.7736 157.936 65.8013 157.805C65.8288 157.675 65.8584 157.541 65.89 157.403L66.3099 155.741H66.7713L66.0024 158.616H65.4109L64.9969 157.072C64.9615 156.934 64.9289 156.798 64.8993 156.664C64.8697 156.53 64.8373 156.39 64.8017 156.244H64.7781C64.7465 156.39 64.715 156.531 64.6835 156.667C64.6519 156.803 64.6164 156.94 64.577 157.078L64.1749 158.616H63.6071Z" fill="white"/>
<path d="M68.5402 158.687C68.3469 158.687 68.1665 158.652 67.999 158.583C67.8313 158.514 67.6855 158.416 67.5613 158.287C67.4371 158.159 67.3395 158.003 67.2686 157.817C67.1976 157.632 67.1621 157.421 67.1621 157.184C67.1621 156.948 67.1985 156.736 67.2715 156.549C67.3444 156.361 67.441 156.203 67.5613 156.072C67.6816 155.942 67.8186 155.843 67.9724 155.774C68.1262 155.705 68.2858 155.67 68.4514 155.67C68.6328 155.67 68.7954 155.702 68.9394 155.765C69.0832 155.828 69.2035 155.919 69.3002 156.037C69.3967 156.155 69.4707 156.297 69.5219 156.463C69.5731 156.628 69.5988 156.814 69.5988 157.019C69.5988 157.07 69.5978 157.12 69.5959 157.17C69.5938 157.219 69.589 157.261 69.5811 157.297H67.6411C67.6608 157.604 67.7565 157.848 67.928 158.027C68.0995 158.207 68.3232 158.296 68.5993 158.296C68.7373 158.296 68.8644 158.276 68.9808 158.234C69.097 158.193 69.2085 158.139 69.3149 158.072L69.4864 158.391C69.3602 158.47 69.2203 158.539 69.0665 158.598C68.9128 158.657 68.7373 158.687 68.5402 158.687ZM67.6353 156.948H69.173C69.173 156.656 69.1109 156.434 68.9867 156.282C68.8625 156.131 68.688 156.055 68.4633 156.055C68.3607 156.055 68.2631 156.074 68.1705 156.114C68.0778 156.153 67.994 156.211 67.9191 156.288C67.8442 156.365 67.7821 156.459 67.7328 156.569C67.6835 156.68 67.651 156.806 67.6353 156.948Z" fill="white"/>
<path d="M70.3086 158.616V155.741H70.7108L70.7522 156.262H70.7699C70.8684 156.08 70.9877 155.936 71.1278 155.83C71.2677 155.724 71.4205 155.67 71.5861 155.67C71.7004 155.67 71.8029 155.69 71.8937 155.729L71.7991 156.155C71.7517 156.14 71.7083 156.128 71.6689 156.12C71.6294 156.112 71.5802 156.108 71.5211 156.108C71.3988 156.108 71.2717 156.157 71.1396 156.256C71.0074 156.354 70.8921 156.526 70.7936 156.77V158.616H70.3086Z" fill="white"/>
<defs>
<linearGradient id="paint0_linear_373_802" x1="12.9102" y1="156.66" x2="80.0939" y2="156.66" gradientUnits="userSpaceOnUse">
<stop stop-color="#698DB3"/>
<stop offset="0.0676" stop-color="#6181A9"/>
<stop offset="0.2501" stop-color="#506592"/>
<stop offset="0.4345" stop-color="#435281"/>
<stop offset="0.6205" stop-color="#3C4677"/>
<stop offset="0.8102" stop-color="#394274"/>
<stop offset="0.9693" stop-color="#4E6490"/>
<stop offset="1" stop-color="#536B96"/>
</linearGradient>
</defs>
</svg>
