<svg width="903" height="484" viewBox="0 0 903 484" fill="none" xmlns="http://www.w3.org/2000/svg">
<rect x="1.29492" y="1.30371" width="230.357" height="119.708" stroke="#B3B3B4"/>
<mask id="mask0_184_650" style="mask-type:alpha" maskUnits="userSpaceOnUse" x="0" y="18" width="233" height="87">
<rect x="0.794922" y="18.9097" width="231.357" height="85.5014" fill="#D9D9D9"/>
</mask>
<g mask="url(#mask0_184_650)">
<g clip-path="url(#clip0_184_650)">
<path d="M33.1314 46.1748C33.1347 45.1198 33.5552 44.1089 34.3013 43.363C35.0474 42.617 36.0583 42.1966 37.1133 42.1934H69.0879C70.1437 42.1964 71.1555 42.6171 71.9021 43.3637C72.6488 44.1102 73.0696 45.1219 73.0727 46.1778V56.0432C73.0727 72.5335 63.441 82.1337 46.9483 82.1337H37.1162C36.0604 82.1308 35.0487 81.71 34.302 80.9635C33.5554 80.217 33.1345 79.2053 33.1314 78.1494V46.1748ZM37.822 37.0161C32.3947 37.0161 27.9541 41.4547 27.9541 46.8801V77.4471C27.9541 82.8724 32.3947 87.3111 37.822 87.3111H68.3811C73.8085 87.3111 78.2491 82.8724 78.2491 77.4471V46.8801C78.2491 41.4547 73.8085 37.0161 68.3811 37.0161H37.822Z" fill="#3698E4"/>
<path d="M45.3357 48.1104C41.8637 48.1104 39.0488 50.9566 39.0488 54.4679V69.859V70.2608H39.0621C39.2689 73.5722 42.0091 76.2166 45.3357 76.2166C48.6604 76.2166 51.403 73.5722 51.6098 70.2608H51.6226V69.859V54.4679C51.6226 50.9566 48.8077 48.1104 45.3357 48.1104Z" fill="#3698E4"/>
<path d="M67.1548 54.3972C67.1548 50.9251 64.3401 48.1104 60.8679 48.1104C57.3958 48.1104 54.5811 50.9251 54.5811 54.3972V58.0952C54.5811 61.5673 57.3958 64.382 60.8679 64.382C64.3401 64.382 67.1548 61.5673 67.1548 58.0952V54.3972Z" fill="#3698E4"/>
<path d="M100.401 70.8361L96.6914 64.5531H93.3633V69.9731C93.3633 70.4144 93.1879 70.8377 92.8759 71.1498C92.5638 71.4618 92.1405 71.6372 91.6992 71.6372C91.2582 71.6366 90.8355 71.4611 90.5238 71.1491C90.2122 70.8371 90.0371 70.4141 90.0371 69.9731V54.2903C90.0371 53.8586 90.2086 53.4446 90.5139 53.1393C90.8191 52.8341 91.2331 52.6626 91.6648 52.6626H98.3721C102.127 52.6626 104.602 55.0806 104.602 58.6057C104.602 61.9627 102.383 63.812 100.078 64.1813L103.185 69.1421C103.863 70.226 103.083 71.6332 101.804 71.6332C101.521 71.6339 101.243 71.5607 100.997 71.4209C100.751 71.2811 100.545 71.0795 100.401 70.8361ZM101.186 58.5781C101.186 56.7574 99.821 55.5909 97.9448 55.5909H93.3647V61.6234H97.9448C99.8225 61.6234 101.186 60.4284 101.186 58.5781Z" fill="#3698E4"/>
<path d="M109.637 70.1696V54.1277C109.637 53.9353 109.675 53.7448 109.748 53.567C109.822 53.3892 109.93 53.2276 110.066 53.0916C110.202 52.9555 110.363 52.8476 110.541 52.774C110.719 52.7004 110.909 52.6625 111.102 52.6626H121.171C121.559 52.6626 121.932 52.817 122.207 53.0917C122.481 53.3665 122.636 53.7392 122.636 54.1277C122.636 54.5162 122.481 54.8888 122.207 55.1634C121.932 55.4381 121.559 55.5924 121.171 55.5924H112.965V60.4853H120.971C121.163 60.4853 121.354 60.5232 121.531 60.5969C121.709 60.6705 121.871 60.7784 122.007 60.9145C122.143 61.0505 122.25 61.2121 122.324 61.3898C122.398 61.5676 122.435 61.7581 122.435 61.9505C122.435 62.3389 122.281 62.7115 122.006 62.9861C121.732 63.2608 121.359 63.4151 120.971 63.4151H112.965V68.7064H121.172C121.56 68.7064 121.932 68.8605 122.207 69.1348C122.482 69.4092 122.636 69.7813 122.637 70.1696C122.637 70.5581 122.482 70.9306 122.207 71.2053C121.933 71.4799 121.56 71.6342 121.172 71.6342H111.103C110.91 71.6344 110.72 71.5967 110.542 71.5231C110.364 71.4496 110.202 71.3418 110.066 71.2057C109.93 71.0697 109.822 70.9082 109.748 70.7304C109.675 70.5526 109.637 70.362 109.637 70.1696Z" fill="#3698E4"/>
<path d="M127.383 67.7912C127.507 67.6219 127.663 67.4786 127.842 67.3696C128.021 67.2606 128.22 67.188 128.427 67.1561C128.634 67.1241 128.846 67.1334 129.049 67.1834C129.253 67.2334 129.444 67.3231 129.613 67.4474C131.004 68.4708 132.687 69.0216 134.413 69.0191C137.144 69.0191 138.195 67.6822 138.195 66.4022C138.195 62.4194 127.158 64.8944 127.158 57.9248C127.158 54.7676 129.889 52.3496 134.071 52.3496C136.344 52.3496 138.309 52.9316 139.886 53.9901C140.061 54.1089 140.21 54.2621 140.323 54.4403C140.437 54.6185 140.513 54.818 140.547 55.0266C140.58 55.2352 140.571 55.4484 140.52 55.6534C140.468 55.8583 140.376 56.0506 140.247 56.2185C140.009 56.5334 139.661 56.7461 139.272 56.8135C138.883 56.8809 138.483 56.798 138.153 56.5815C136.834 55.7111 135.288 55.3079 133.758 55.3079C131.824 55.3079 130.572 56.275 130.572 57.6689C130.572 61.2249 141.609 59.0343 141.609 66.0889C141.609 69.2466 139.362 71.9774 134.27 71.9774C131.512 71.9774 129.354 71.1994 127.728 70.0059C127.39 69.7572 127.164 69.3847 127.099 68.9697C127.034 68.5547 127.137 68.1311 127.383 67.7912Z" fill="#3698E4"/>
<path d="M145.538 62.1635C145.538 56.5029 149.549 52.3496 155.238 52.3496C160.899 52.3496 164.938 56.5029 164.938 62.1635C164.938 67.8242 160.899 71.9774 155.238 71.9774C149.547 71.9774 145.538 67.8242 145.538 62.1635ZM161.525 62.1635C161.525 58.2381 159.05 55.3079 155.238 55.3079C151.398 55.3079 148.951 58.2381 148.951 62.1635C148.951 66.0609 151.398 69.0191 155.238 69.0191C159.048 69.0191 161.523 66.0609 161.523 62.1635H161.525Z" fill="#3698E4"/>
<path d="M173.992 69.7035L168.238 55.0541C168.133 54.7885 168.095 54.5015 168.127 54.218C168.159 53.9345 168.26 53.6631 168.42 53.4273C168.581 53.1916 168.797 52.9987 169.049 52.8654C169.301 52.7321 169.582 52.6625 169.868 52.6626C170.224 52.6626 170.572 52.7714 170.865 52.9745C171.158 53.1776 171.382 53.4653 171.507 53.7991L176.827 67.9937L182.148 53.7991C182.273 53.4653 182.497 53.1775 182.79 52.9744C183.083 52.7713 183.431 52.6625 183.788 52.6626C184.073 52.6622 184.354 52.7316 184.607 52.8648C184.859 52.9979 185.076 53.1908 185.237 53.4265C185.397 53.6623 185.498 53.9338 185.53 54.2175C185.562 54.5012 185.525 54.7883 185.42 55.0541L179.663 69.7035C179.44 70.2733 179.05 70.7626 178.544 71.1074C178.038 71.4521 177.44 71.6364 176.827 71.6362C176.215 71.6363 175.617 71.452 175.112 71.1072C174.606 70.7625 174.216 70.2733 173.992 69.7035Z" fill="#3698E4"/>
<path d="M201.573 70.505L200.609 67.9667H191.904L190.939 70.505C190.813 70.8374 190.588 71.1235 190.296 71.3252C190.003 71.527 189.655 71.6349 189.3 71.6347C189.014 71.6347 188.733 71.5649 188.48 71.4314C188.228 71.2979 188.012 71.1048 187.851 70.8687C187.69 70.6327 187.589 70.3609 187.557 70.077C187.525 69.7931 187.563 69.5057 187.667 69.2398L193.42 54.5939C193.644 54.024 194.034 53.5347 194.54 53.1899C195.046 52.8452 195.644 52.6609 196.256 52.6611C196.868 52.661 197.466 52.8453 197.972 53.1901C198.478 53.5348 198.868 54.024 199.092 54.5939L204.846 69.2413C204.95 69.5072 204.988 69.7945 204.956 70.0784C204.924 70.3623 204.824 70.6341 204.663 70.8702C204.502 71.1063 204.286 71.2995 204.033 71.433C203.781 71.5665 203.499 71.6362 203.213 71.6362C202.858 71.6363 202.51 71.5282 202.217 71.3261C201.924 71.1241 201.7 70.8377 201.573 70.505ZM196.257 55.9907L192.844 65.0369H199.671L196.257 55.9907Z" fill="#3698E4"/>
</g>
</g>
<rect x="1.29492" y="363.428" width="230.357" height="119.708" stroke="#B3B3B4"/>
<mask id="mask1_184_650" style="mask-type:alpha" maskUnits="userSpaceOnUse" x="0" y="381" width="233" height="86">
<rect x="0.794922" y="381.033" width="231.357" height="85.5014" fill="#D9D9D9"/>
</mask>
<g mask="url(#mask1_184_650)">
<path d="M167.505 428.465C165.841 428.465 164.514 427.112 164.514 425.474C164.514 423.809 165.867 422.482 167.505 422.482H167.583V417.071H167.505C165.841 417.071 164.514 415.718 164.514 414.079C164.514 412.414 165.867 411.088 167.505 411.088H167.583V405.677H167.505C165.841 405.677 164.514 404.324 164.514 402.685C164.514 401.02 165.867 399.693 167.505 399.693H167.583V392.878H167.505C163.863 392.878 160.898 389.912 160.898 386.27C160.898 386.218 160.898 386.14 160.898 386.088H71.6428C71.6428 386.14 71.6428 386.218 71.6428 386.27C71.6428 389.912 68.6772 392.878 65.0352 392.878H64.749V399.771C64.8531 399.771 64.9311 399.771 65.0352 399.771C66.7001 399.771 68.0268 401.124 68.0268 402.763C68.0268 404.428 66.6741 405.755 65.0352 405.755C64.9311 405.755 64.8531 405.755 64.749 405.755V411.218C64.8531 411.218 64.9311 411.218 65.0352 411.218C66.7001 411.218 68.0268 412.57 68.0268 414.209C68.0268 415.874 66.6741 417.201 65.0352 417.201C64.9311 417.201 64.8531 417.201 64.749 417.201V422.664C64.8531 422.664 64.9311 422.664 65.0352 422.664C66.7001 422.664 68.0268 424.017 68.0268 425.656C68.0268 427.321 66.6741 428.647 65.0352 428.647C64.9311 428.647 64.8531 428.647 64.749 428.647V435.177H65.0352C68.6772 435.177 71.6428 438.142 71.6428 441.784V441.837H160.898V441.784C160.898 438.142 163.863 435.177 167.505 435.177H167.583V428.465H167.505Z" fill="#2B6BB3"/>
<path d="M167.505 399.72H167.583V392.852H167.505C163.863 392.852 160.898 389.887 160.898 386.245C160.898 386.193 160.898 386.115 160.898 386.062H71.6428C71.6428 386.115 71.6428 386.193 71.6428 386.245C71.6428 389.887 68.6772 392.852 65.0352 392.852H64.749V399.746C64.8531 399.746 64.9311 399.746 65.0352 399.746C66.7001 399.746 68.0268 401.099 68.0268 402.738C68.0268 404.403 66.6741 405.729 65.0352 405.729C64.9311 405.729 64.8531 405.729 64.749 405.729V411.192C64.8531 411.192 64.9311 411.192 65.0352 411.192C66.7001 411.192 68.0268 412.545 68.0268 414.184C68.0268 415.849 66.6741 417.176 65.0352 417.176C64.9311 417.176 64.8531 417.176 64.749 417.176V422.639C64.8531 422.639 64.9311 422.639 65.0352 422.639C66.7001 422.639 68.0268 423.991 68.0268 425.63C68.0268 427.295 66.6741 428.622 65.0352 428.622C64.9311 428.622 64.8531 428.622 64.749 428.622V435.308H65.0352C68.6772 435.308 71.6428 438.273 71.6428 441.915V441.967H160.898V441.915C160.898 438.273 163.863 435.308 167.505 435.308H167.583V428.44H167.505C165.841 428.44 164.514 427.087 164.514 425.448C164.514 423.809 165.867 422.456 167.505 422.456H167.583V417.046H167.505C165.841 417.046 164.514 415.693 164.514 414.054C164.514 412.415 165.867 411.062 167.505 411.062H167.583V405.651H167.505C165.841 405.651 164.514 404.299 164.514 402.66C164.514 400.995 165.867 399.668 167.505 399.668V399.72ZM165.71 407.238V409.579C163.213 410.568 161.99 413.404 162.979 415.901C163.473 417.15 164.462 418.138 165.71 418.632V420.974C163.213 421.962 161.99 424.798 162.979 427.295C163.473 428.544 164.462 429.532 165.71 430.027V433.461C162.459 434.163 159.909 436.712 159.207 439.964H73.3337C72.6053 436.66 69.9779 434.111 66.6481 433.461V430.105C69.1975 429.22 70.5242 426.463 69.6657 423.913C69.1715 422.509 68.0789 421.39 66.6481 420.896V418.736C69.1975 417.878 70.5502 415.094 69.6917 412.571C69.1975 411.14 68.0789 410.022 66.6481 409.527V407.368C69.1975 406.51 70.5502 403.752 69.6917 401.203C69.1975 399.772 68.0789 398.627 66.6481 398.159V394.647C70.0299 393.997 72.6574 391.369 73.3598 388.014H159.207C159.883 391.317 162.433 393.893 165.71 394.621V398.237C163.213 399.226 161.99 402.061 162.979 404.559C163.447 405.729 164.436 406.718 165.71 407.238Z" fill="#2B6BB3"/>
<path d="M155.149 392.202H132.751V394.075H155.149C156.086 394.153 156.788 394.96 156.736 395.896V432.472C156.788 433.409 156.086 434.215 155.149 434.293H130.046V425.891L133.037 423.081V418.138H128.277V401.229H132.127C132.647 401.229 133.063 400.787 133.063 400.292C133.063 399.928 132.829 399.59 132.491 399.434L116.596 390.043C116.31 389.861 115.946 389.861 115.634 390.043L99.713 399.512C99.2708 399.798 99.1667 400.37 99.4529 400.813C99.6089 401.073 99.8951 401.203 100.181 401.229H104.005V418.138H99.2447V423.081L102.21 425.838V434.293H77.2887C76.3522 434.215 75.6498 433.409 75.7018 432.472V395.896C75.6498 394.96 76.3522 394.153 77.2887 394.075H99.3488V392.202H77.2887C75.3376 392.306 73.8028 393.945 73.8548 395.896V432.472C73.8028 434.449 75.3376 436.088 77.3147 436.166H155.149C157.127 436.088 158.661 434.449 158.609 432.472V395.896C158.661 393.919 157.127 392.28 155.149 392.202ZM128.147 434.293H120.628L128.147 431.145V434.293ZM126.404 418.138H117.117V415.251C120.212 414.704 122.293 411.765 121.773 408.669C121.357 406.302 119.51 404.429 117.117 404.012V401.229H126.404V418.138ZM116.154 405.86C118.261 405.86 119.978 407.576 119.978 409.684C119.978 411.791 118.261 413.508 116.154 413.508C114.047 413.508 112.33 411.791 112.33 409.684C112.304 407.576 114.021 405.833 116.128 405.833H116.154V405.86ZM103.641 399.382L116.154 391.994L128.667 399.382H128.277H104.031H103.641ZM105.904 401.229H115.244V404.012C112.148 404.533 110.041 407.446 110.561 410.568C110.951 412.987 112.85 414.86 115.244 415.251V418.138H105.904V401.229ZM131.164 420.011V422.275L128.719 424.538H103.511L101.118 422.275V420.011M104.083 426.385H118.131L104.083 431.796V426.385ZM115.946 434.293H104.083V433.799C104.135 433.799 104.161 433.799 104.213 433.799L123.36 426.437H128.147V429.142" fill="white"/>
<path d="M135.299 409.735C135.299 410.256 135.715 410.672 136.235 410.672H152.286C152.806 410.672 153.223 410.256 153.223 409.735C153.223 409.215 152.806 408.799 152.286 408.799H136.235C135.741 408.799 135.299 409.215 135.299 409.735Z" fill="white"/>
<path d="M149.192 399.798L134.104 403.909C133.61 404.039 133.297 404.559 133.454 405.053C133.584 405.548 134.104 405.86 134.598 405.704L149.712 401.593C150.207 401.463 150.519 400.943 150.363 400.449C150.207 399.928 149.686 399.642 149.192 399.798Z" fill="white"/>
<path d="M134.052 414.835L148.438 419.179C148.932 419.335 149.452 419.049 149.608 418.555C149.764 418.061 149.478 417.54 148.984 417.384L134.598 413.04C134.104 412.884 133.584 413.17 133.427 413.664C133.271 414.184 133.558 414.705 134.052 414.835Z" fill="white"/>
<path d="M78.5127 409.735C78.5127 410.256 78.9289 410.672 79.4492 410.672H95.5C96.0203 410.672 96.4365 410.256 96.4365 409.735C96.4365 409.215 96.0203 408.799 95.5 408.799H79.4492C78.9289 408.799 78.5127 409.215 78.5127 409.735Z" fill="white"/>
<path d="M97.1661 405.704C97.2441 405.704 97.3222 405.704 97.4262 405.704C97.9465 405.678 98.3367 405.235 98.3107 404.715C98.2847 404.351 98.0506 404.039 97.7124 403.909L83.9769 400.033C83.4826 399.902 82.9623 400.215 82.8322 400.709C82.7022 401.203 82.9883 401.671 83.4566 401.827L97.1661 405.704Z" fill="white"/>
<path d="M84.7042 418.711C84.8082 418.711 84.8863 418.685 84.9903 418.659L97.7113 414.835C98.2056 414.679 98.4917 414.158 98.3357 413.664C98.1796 413.17 97.6593 412.884 97.165 413.04L84.418 416.864C83.9237 416.994 83.6376 417.514 83.7677 418.035C83.8717 418.451 84.2619 418.737 84.7042 418.711Z" fill="white"/>
<path d="M62.5118 452.294V454.661H68.0269V456.924H62.5118V461.269H60.1445V450.057H68.7553V452.32H62.5118V452.294Z" fill="#2B6BB3"/>
<path d="M77.5761 461.322L76.6917 459.188H72.5814L71.6709 461.322H69.5117L73.674 451.774H75.6511L79.8134 461.322H77.5761ZM74.6365 454.272L73.3358 457.341H75.9112L74.6365 454.272Z" fill="#2B6BB3"/>
<path d="M88.0322 461.321L85.9511 458.277H84.2861V461.321H82.127V451.852H86.5754C88.8647 451.852 90.2434 453.022 90.2434 454.973C90.2954 456.3 89.437 457.523 88.1623 457.913L90.5296 461.295L88.0322 461.321ZM88.0842 455.077C88.0842 454.193 87.4599 453.725 86.4193 453.725H84.2861V456.456H86.4453C87.4859 456.43 88.0842 455.91 88.0842 455.077Z" fill="#2B6BB3"/>
<path d="M93.5469 461.321V451.852H100.883V453.699H95.68V455.624H100.259V457.471H95.68V459.474H100.961V461.321H93.5469Z" fill="#2B6BB3"/>
<path d="M111.601 461.321V456.587H106.919V461.321H104.655V450.031H106.919V454.454H111.601V450.031H113.968V461.321H111.601Z" fill="#2B6BB3"/>
<path d="M124.268 461.322L123.383 459.188H119.273L118.389 461.322H116.229L120.392 451.774H122.369L126.531 461.322H124.268ZM121.328 454.272L120.028 457.341H122.603L121.328 454.272Z" fill="#2B6BB3"/>
<path d="M134.726 461.322L132.644 458.278H130.979V461.322H128.82V451.853H133.243C135.532 451.853 136.911 453.023 136.911 454.974C136.963 456.301 136.104 457.524 134.83 457.914L137.197 461.296L134.726 461.322ZM134.752 455.078C134.752 454.194 134.127 453.726 133.087 453.726H130.953V456.457H133.113C134.179 456.431 134.778 455.911 134.752 455.078Z" fill="#2B6BB3"/>
<path d="M144.589 461.321H139.958V451.852H144.458C146.436 451.852 147.658 452.814 147.658 454.297C147.684 455.181 147.19 455.988 146.384 456.352C147.502 456.768 148.205 457.419 148.205 458.693C148.231 460.436 146.8 461.321 144.589 461.321ZM145.551 454.661C145.551 454.037 145.057 453.699 144.146 453.699H142.039V455.702H144.016C144.953 455.702 145.551 455.416 145.551 454.687V454.661ZM146.097 458.459C146.097 457.835 145.603 457.419 144.511 457.419H142.039V459.5H144.563C145.525 459.526 146.097 459.188 146.097 458.459Z" fill="#2B6BB3"/>
<path d="M155.798 461.478C153.092 461.608 150.777 459.5 150.673 456.795C150.673 456.743 150.673 456.665 150.673 456.613C150.777 453.751 153.17 451.54 156.032 451.644C158.737 451.748 160.896 453.907 161.001 456.613C160.948 459.344 158.685 461.556 155.954 461.504C155.876 461.504 155.85 461.478 155.798 461.478ZM158.737 456.587C158.789 455 157.541 453.647 155.954 453.595C155.902 453.595 155.85 453.595 155.798 453.595C154.211 453.595 152.91 454.896 152.91 456.483C152.91 456.509 152.91 456.535 152.91 456.561C152.858 458.148 154.107 459.5 155.694 459.552C155.746 459.552 155.798 459.552 155.85 459.552C157.437 459.552 158.737 458.252 158.737 456.665C158.737 456.639 158.737 456.613 158.737 456.587Z" fill="#2B6BB3"/>
<path d="M169.898 461.321L167.817 458.277H166.152V461.321H163.993V451.852H168.442C170.731 451.852 172.11 453.022 172.11 454.973C172.162 456.3 171.303 457.523 170.028 457.913L172.396 461.295L169.898 461.321ZM169.95 455.077C169.95 454.193 169.326 453.725 168.286 453.725H166.152V456.456H168.312C169.352 456.43 169.95 455.91 169.95 455.077Z" fill="#2B6BB3"/>
</g>
<rect x="655.531" y="1.30371" width="246.552" height="119.708" stroke="#B3B3B4"/>
<mask id="mask2_184_650" style="mask-type:alpha" maskUnits="userSpaceOnUse" x="655" y="18" width="248" height="87">
<rect x="655.031" y="18.9097" width="247.552" height="85.5014" fill="#D9D9D9"/>
</mask>
<g mask="url(#mask2_184_650)">
<g clip-path="url(#clip1_184_650)">
<path d="M771.726 54.4644V71.9127H773.035H774.344V54.4644V37.0161H773.035H771.726V54.4644Z" fill="#2A486A"/>
<path d="M706.498 49.4059C704.263 49.6405 702.193 50.4384 700.346 51.7792C699.969 52.0508 698.944 52.976 698.596 53.3581L698.413 53.5593L698.409 51.7558V49.9556H697.082H695.755V68.0743V86.1933H697.082H698.409V76.9377V67.6856L698.596 67.8968C698.915 68.2554 699.629 68.9225 700.059 69.2611C701.853 70.6691 703.911 71.5172 706.3 71.8322C706.95 71.9194 708.671 71.9194 709.349 71.8356C710.701 71.6646 711.878 71.3395 713.033 70.8233C715.038 69.9215 716.666 68.6041 717.911 66.8642C720.035 63.9042 720.504 60.0525 719.152 56.6601C718.632 55.3494 717.764 54.0353 716.745 53.0061C714.798 51.0417 712.38 49.8484 709.536 49.4494C708.876 49.3556 707.193 49.3321 706.498 49.4059ZM709.159 51.8966C712.014 52.2921 714.468 53.8208 715.949 56.1271C716.573 57.0991 716.986 58.1753 717.194 59.3954C717.294 59.9686 717.283 61.3901 717.176 61.9734C716.813 63.9378 715.956 65.5033 714.496 66.8676C713.725 67.5917 712.972 68.0945 711.986 68.5438C711.035 68.9795 710.214 69.2176 709.152 69.3718C708.75 69.4288 708.488 69.442 707.843 69.442C707.197 69.442 706.935 69.4288 706.533 69.3718C705.472 69.2176 704.64 68.9761 703.696 68.5471C701.16 67.3871 699.367 65.3021 698.664 62.7075C698.47 61.9902 698.427 61.628 698.431 60.6158C698.431 59.7307 698.438 59.6235 698.528 59.1743C698.714 58.2155 698.994 57.4344 699.446 56.6098C700.368 54.9236 701.853 53.5626 703.696 52.7179C704.797 52.215 705.877 51.9368 707.104 51.8329C707.592 51.7893 708.621 51.8228 709.159 51.8966Z" fill="#2A486A"/>
<path d="M732.055 49.3756C731.689 49.4057 730.882 49.5231 730.487 49.6069C728.959 49.9253 727.582 50.4818 726.316 51.2863C721.419 54.4073 719.662 60.3039 722.123 65.3523C722.937 67.0317 724.293 68.5838 725.921 69.7136C727.309 70.6755 728.973 71.3694 730.674 71.6913C731.567 71.859 731.997 71.8959 733.131 71.8959C734.286 71.8925 734.634 71.8623 735.598 71.6746C739.476 70.9203 742.769 68.3291 744.271 64.8427C744.34 64.6852 744.393 64.5444 744.393 64.531C744.393 64.5176 743.755 64.5042 742.977 64.5042H741.56L741.452 64.702C740.746 66.016 739.44 67.3334 738.055 68.1346C735.58 69.5627 732.582 69.8477 729.845 68.9124C729.346 68.7414 728.41 68.3056 727.965 68.0307C726.061 66.8675 724.644 65.0774 724.023 63.0594C723.905 62.6738 723.769 62.0771 723.769 61.943V61.856H734.476H745.183V61.0749C745.183 60.2335 745.143 59.6066 745.053 59.0232C744.275 53.9178 739.856 49.9354 734.379 49.4024C733.895 49.3555 732.517 49.3387 732.055 49.3756ZM734.422 51.8998C738.461 52.4563 741.61 55.2789 742.385 59.0299C742.424 59.221 742.457 59.3853 742.457 59.3954C742.457 59.4021 738.253 59.4088 733.113 59.4088H723.769V59.3216C723.769 59.1506 723.952 58.3964 724.099 57.974C724.569 56.603 725.34 55.4229 726.441 54.3972C727.205 53.6798 727.965 53.1736 728.916 52.7378C730.042 52.2216 731.09 51.9434 732.323 51.8361C732.837 51.7892 733.855 51.8227 734.422 51.8998Z" fill="#2A486A"/>
<path d="M757.162 49.3858C756.309 49.4697 755.276 49.6708 754.526 49.9054C750.351 51.2061 747.256 54.5114 746.441 58.5375C746.176 59.8549 746.176 61.4204 746.441 62.7277C746.814 64.5479 747.661 66.2643 748.895 67.7058C749.271 68.1448 750.096 68.9326 750.538 69.2746C752.248 70.6021 754.228 71.4502 756.359 71.7753C757.751 71.9865 759.39 71.953 760.803 71.6782C764.573 70.9508 767.833 68.4433 769.376 65.0844C769.505 64.8027 769.609 64.558 769.609 64.5379C769.609 64.5144 769.118 64.5043 768.196 64.5043H766.786L766.567 64.8698C765.818 66.1369 764.774 67.1963 763.475 68.0075C762.97 68.3259 761.99 68.7786 761.413 68.9628C759.325 69.6332 757.109 69.6131 755.061 68.9125C754.221 68.6243 753.124 68.0511 752.446 67.5381C750.806 66.3079 749.641 64.6083 749.146 62.7244C749.078 62.4696 749.013 62.168 748.999 62.0573L748.974 61.8561H759.691H770.409L770.387 60.7567C770.366 59.6403 770.344 59.3989 770.215 58.6882C769.641 55.5406 767.586 52.7046 764.652 51.0184C763.206 50.187 761.739 49.6943 759.996 49.4496C759.447 49.3725 757.715 49.3322 757.162 49.3858ZM759.659 51.8967C763.013 52.366 765.821 54.4376 767.08 57.3641C767.328 57.9407 767.593 58.8458 767.643 59.2918L767.654 59.3922L758.314 59.4022L748.974 59.4089L748.999 59.2079C749.035 58.9229 749.243 58.1486 749.397 57.7397C749.87 56.469 750.624 55.3562 751.653 54.3974C752.435 53.67 753.177 53.1739 754.167 52.718C755.276 52.2051 756.284 51.9503 757.683 51.8196C758.023 51.7861 759.211 51.833 759.659 51.8967Z" fill="#2A486A"/>
<path d="M847.391 49.6441C847.312 49.6508 847.014 49.6843 846.727 49.7246C843.04 50.2073 839.84 52.279 837.997 55.3731C837.236 56.6536 836.73 58.1755 836.558 59.6874C836.454 60.6294 836.501 61.9937 836.666 62.9056C837.085 65.175 838.294 67.3506 840.037 68.9797C842.035 70.8436 844.607 71.9565 847.434 72.1811C848.079 72.2348 849.385 72.208 849.991 72.1308C853.571 71.6817 856.67 69.8178 858.571 66.9684C860.418 64.2095 860.899 60.8239 859.905 57.6224C859.281 55.6145 857.961 53.6903 856.272 52.3293C854.41 50.8241 852.158 49.9123 849.726 49.6709C849.252 49.624 847.828 49.6072 847.391 49.6441ZM849.159 54.2837C850.368 54.4042 851.569 54.8434 852.538 55.5172C852.861 55.7385 853.546 56.3553 853.811 56.6603C854.622 57.5889 855.181 58.8191 855.35 60.0394C855.748 62.9123 854.188 65.6812 851.48 66.9181C848.886 68.1049 845.809 67.6757 843.725 65.8354C842.581 64.8263 841.856 63.5358 841.573 62.0071C841.483 61.5245 841.486 60.2941 841.576 59.8282C841.72 59.084 841.928 58.4873 842.265 57.8571C843.205 56.0871 844.912 54.8267 846.946 54.4009C847.66 54.2535 848.449 54.2099 849.159 54.2837Z" fill="#2A486A"/>
<path d="M795.04 60.8843V71.913H797.551H800.062V68.1117V64.3102L802.816 64.2935C805.679 64.2767 805.793 64.27 806.662 64.1158C809.865 63.5459 811.992 61.3334 812.443 58.1018C812.465 57.9276 812.487 57.475 812.487 57.0963C812.487 56.1106 812.365 55.3564 812.063 54.5049C811.246 52.1751 809.348 50.5761 806.794 50.0599C805.862 49.8722 806.08 49.8755 800.341 49.8655L795.04 49.8521V60.8843ZM804.99 54.0122C805.126 54.0323 805.349 54.0826 805.485 54.1262C806.945 54.6021 807.809 56.4392 807.325 58.0215C806.991 59.1042 806.202 59.8719 805.177 60.1133C804.907 60.177 804.771 60.1803 802.476 60.1803H800.062V57.103C800.062 55.41 800.072 54.0122 800.087 54.0021C800.126 53.9652 804.714 53.9753 804.99 54.0122Z" fill="#2A486A"/>
<path d="M816.06 60.8839V71.9126H818.57H821.081V68.1079V64.3031L821.659 64.3098L822.236 64.3199L824.862 68.1079L827.484 71.8958L830.49 71.9058C832.14 71.9092 833.492 71.9025 833.492 71.8891C833.492 71.8725 832.183 70.1192 830.586 67.9906C828.99 65.8619 827.695 64.112 827.71 64.0986C827.724 64.0885 827.832 64.0583 827.95 64.0349C828.987 63.8305 830.292 63.2035 831.121 62.5129C832.789 61.1285 833.693 58.8959 833.528 56.5761C833.295 53.3178 831.221 50.8741 828.054 50.1265C826.931 49.8617 826.788 49.855 821.042 49.855H816.06V60.8839ZM825.83 54.0117C826.827 54.1492 827.649 54.8196 828.058 55.8354C828.431 56.7639 828.38 57.7361 827.914 58.6245C827.602 59.2211 827.139 59.6636 826.551 59.9284C825.988 60.1833 826.013 60.1799 823.398 60.1799H821.081V57.1025C821.081 55.4096 821.092 54.0117 821.106 54.0017C821.142 53.9648 825.554 53.9749 825.83 54.0117Z" fill="#2A486A"/>
<path d="M780.807 55.2956L775.097 60.6324L781.133 66.2742L787.167 71.9126H789.032H790.897L784.86 66.2708L778.827 60.6324L784.537 55.2923L790.251 49.9556H788.386H786.521L780.807 55.2956Z" fill="#2A486A"/>
</g>
</g>
<rect x="655.531" y="363.428" width="246.552" height="119.708" stroke="#B3B3B4"/>
<mask id="mask3_184_650" style="mask-type:alpha" maskUnits="userSpaceOnUse" x="655" y="381" width="248" height="86">
<rect x="655.031" y="381.033" width="247.552" height="85.5014" fill="#D9D9D9"/>
</mask>
<g mask="url(#mask3_184_650)">
<g clip-path="url(#clip2_184_650)">
<path fill-rule="evenodd" clip-rule="evenodd" d="M699.332 419.299V428.915L700.263 429.762L701.285 430.398C702.133 430.807 703.116 431.011 704.237 431.011C706.189 431.011 707.866 430.32 709.266 428.936C710.666 427.552 711.366 425.943 711.366 424.107C711.366 422.285 710.669 420.68 709.277 419.289C707.884 417.898 706.204 417.203 704.237 417.203C703.706 417.203 703.222 417.245 702.783 417.329C702.344 417.414 701.913 417.555 701.489 417.753C700.731 418.106 700.013 418.621 699.332 419.299ZM699.332 414.004L700.148 413.624L701.327 413.179C702.172 412.98 703.139 412.881 704.227 412.881C707.309 412.881 710.009 413.958 712.329 416.112C714.648 418.265 715.808 420.931 715.808 424.107C715.808 427.298 714.671 429.967 712.397 432.112C710.123 434.26 707.4 435.332 704.227 435.332C702.323 435.332 700.514 434.888 698.8 433.998C697.084 433.108 695.781 431.972 694.891 430.588V408.984L699.332 404.664V414.004Z" fill="#405C98"/>
<path fill-rule="evenodd" clip-rule="evenodd" d="M736.634 424.128C736.634 422.208 735.939 420.573 734.549 419.225C733.159 417.877 731.497 417.202 729.563 417.202C727.629 417.202 725.963 417.883 724.567 419.246C723.169 420.608 722.47 422.236 722.47 424.128C722.47 425.978 723.15 427.587 724.51 428.957C725.869 430.327 727.554 431.011 729.563 431.011C731.497 431.011 733.159 430.33 734.549 428.968C735.939 427.606 736.634 425.992 736.634 424.128ZM729.563 412.881C732.66 412.881 735.365 413.99 737.677 416.207C738.825 417.308 739.686 418.515 740.26 419.828C740.834 421.142 741.121 422.575 741.121 424.128C741.121 427.164 739.988 429.79 737.722 432.007C735.455 434.224 732.736 435.332 729.563 435.332C726.391 435.332 723.667 434.238 721.394 432.049C719.119 429.861 717.983 427.221 717.983 424.128C717.983 421.106 719.116 418.477 721.382 416.238C723.649 414.001 726.375 412.881 729.563 412.881Z" fill="#405C98"/>
<path fill-rule="evenodd" clip-rule="evenodd" d="M762.129 424.128C762.129 422.208 761.433 420.573 760.044 419.225C758.654 417.877 756.992 417.202 755.058 417.202C753.124 417.202 751.458 417.883 750.061 419.246C748.663 420.608 747.965 422.236 747.965 424.128C747.965 425.978 748.644 427.587 750.005 428.957C751.364 430.327 753.048 431.011 755.058 431.011C756.992 431.011 758.654 430.33 760.044 428.968C761.433 427.606 762.129 425.992 762.129 424.128ZM755.058 412.881C758.155 412.881 760.86 413.99 763.171 416.207C764.319 417.308 765.181 418.515 765.754 419.828C766.328 421.142 766.616 422.575 766.616 424.128C766.616 427.164 765.483 429.79 763.217 432.007C760.951 434.224 758.231 435.332 755.058 435.332C751.885 435.332 749.162 434.238 746.889 432.049C744.614 429.861 743.478 427.221 743.478 424.128C743.478 421.106 744.611 418.477 746.877 416.238C749.143 414.001 751.87 412.881 755.058 412.881Z" fill="#405C98"/>
<path fill-rule="evenodd" clip-rule="evenodd" d="M788.401 412.882H782.239L773.291 421.579V404.665L768.85 408.985V434.909H773.291V426.631L781.809 434.909H787.971L776.854 424.105L788.401 412.882Z" fill="#405C98"/>
<path fill-rule="evenodd" clip-rule="evenodd" d="M816.45 453.979H815.481V394.02H816.45V453.979Z" fill="#606163"/>
<path fill-rule="evenodd" clip-rule="evenodd" d="M845.501 453.979H844.532V394.02H845.501V453.979Z" fill="#606163"/>
<path fill-rule="evenodd" clip-rule="evenodd" d="M798.414 437.123H862.57V438.027H798.414V437.123Z" fill="#606163"/>
<path fill-rule="evenodd" clip-rule="evenodd" d="M798.414 409.971H862.57V410.876H798.414V409.971Z" fill="#606163"/>
<path fill-rule="evenodd" clip-rule="evenodd" d="M828.494 432.046C824.35 432.046 820.735 430.147 820.735 425.971C820.735 420.011 825.759 417.366 825.942 417.194C826.124 417.024 826.084 416.619 826.084 416.619C826.084 416.619 827.957 416.403 829.429 416.403C831.664 416.403 838.874 417.269 838.874 423.143C838.874 429.938 831.582 432.046 828.494 432.046ZM831.013 413.101C824.757 413.101 815.251 416.138 809.157 421.833C809.157 421.833 808.981 421.985 809.157 422.149C809.56 422.525 818.5 417.467 822.807 417.467C822.807 417.467 818.257 421.909 818.257 426.616C818.257 431.324 822.156 435.5 828.25 435.5C834.344 435.5 842.713 431.551 842.713 423.276C842.713 414.999 834.588 413.101 831.013 413.101Z" fill="#F16039"/>
<path fill-rule="evenodd" clip-rule="evenodd" d="M790.913 421.102C791.254 420.438 791.709 419.817 792.295 419.246C793.691 417.883 795.357 417.202 797.292 417.202C799.226 417.202 800.888 417.877 802.277 419.226C802.868 419.798 803.325 420.425 803.665 421.102H790.913ZM808.77 425.423C808.818 424.999 808.85 424.569 808.85 424.128C808.85 423.061 808.704 422.055 808.433 421.102C808.309 420.667 808.168 420.239 807.988 419.828C807.414 418.515 806.552 417.308 805.405 416.206C803.093 413.99 800.389 412.881 797.292 412.881C794.104 412.881 791.376 414 789.111 416.238C786.844 418.476 785.711 421.106 785.711 424.128C785.711 427.221 786.847 429.862 789.122 432.05C791.395 434.238 794.118 435.332 797.292 435.332C800.464 435.332 803.184 434.225 805.45 432.008C806.025 431.444 806.526 430.856 806.955 430.241L803.124 427.984C802.877 428.325 802.598 428.655 802.277 428.969C800.888 430.331 799.226 431.012 797.292 431.012C795.282 431.012 793.597 430.327 792.238 428.957C791.206 427.918 790.567 426.739 790.319 425.423H804.24H808.77Z" fill="#405C98"/>
</g>
</g>
<rect x="327.963" y="181.866" width="231.019" height="120.708" fill="#54595F"/>
<path d="M446.24 228.997C446.24 233.288 442.883 236.45 438.763 236.45C434.643 236.45 431.286 233.288 431.286 228.997C431.286 224.676 434.643 221.544 438.763 221.544C442.883 221.544 446.24 224.676 446.24 228.997ZM442.967 228.997C442.967 226.316 441.021 224.481 438.763 224.481C436.505 224.481 434.559 226.316 434.559 228.997C434.559 231.652 436.505 233.513 438.763 233.513C441.021 233.513 442.967 231.648 442.967 228.997Z" fill="white"/>
<path d="M462.368 228.997C462.368 233.288 459.011 236.45 454.892 236.45C450.772 236.45 447.415 233.288 447.415 228.997C447.415 224.679 450.772 221.544 454.892 221.544C459.011 221.544 462.368 224.676 462.368 228.997ZM459.095 228.997C459.095 226.316 457.15 224.481 454.892 224.481C452.634 224.481 450.688 226.316 450.688 228.997C450.688 231.652 452.634 233.513 454.892 233.513C457.15 233.513 459.095 231.648 459.095 228.997Z" fill="white"/>
<path d="M477.823 221.994V235.375C477.823 240.879 474.577 243.127 470.74 243.127C467.127 243.127 464.953 240.711 464.133 238.735L466.983 237.549C467.49 238.762 468.734 240.194 470.736 240.194C473.193 240.194 474.715 238.678 474.715 235.825V234.753H474.601C473.868 235.657 472.457 236.447 470.676 236.447C466.949 236.447 463.535 233.201 463.535 229.024C463.535 224.817 466.949 221.544 470.676 221.544C472.453 221.544 473.865 222.334 474.601 223.211H474.715V221.998H477.823V221.994ZM474.947 229.024C474.947 226.4 473.196 224.481 470.968 224.481C468.71 224.481 466.818 226.4 466.818 229.024C466.818 231.622 468.71 233.513 470.968 233.513C473.196 233.513 474.947 231.622 474.947 229.024Z" fill="white"/>
<path d="M482.949 214.151V235.993H479.757V214.151H482.949Z" fill="white"/>
<path d="M495.391 231.451L497.931 233.144C497.111 234.357 495.135 236.447 491.721 236.447C487.487 236.447 484.325 233.174 484.325 228.994C484.325 224.562 487.514 221.541 491.355 221.541C495.223 221.541 497.115 224.619 497.733 226.282L498.072 227.129L488.109 231.256C488.872 232.751 490.058 233.514 491.721 233.514C493.388 233.514 494.544 232.694 495.391 231.451ZM487.571 228.769L494.231 226.004C493.865 225.073 492.763 224.424 491.466 224.424C489.803 224.424 487.487 225.893 487.571 228.769Z" fill="white"/>
<path d="M419.201 227.059V223.897H429.857C429.961 224.448 430.015 225.1 430.015 225.805C430.015 228.178 429.366 231.111 427.276 233.202C425.243 235.319 422.646 236.448 419.205 236.448C412.827 236.448 407.464 231.253 407.464 224.875C407.464 218.497 412.827 213.302 419.205 213.302C422.733 213.302 425.247 214.686 427.135 216.491L424.904 218.722C423.55 217.452 421.715 216.464 419.201 216.464C414.544 216.464 410.901 220.217 410.901 224.875C410.901 229.532 414.544 233.286 419.201 233.286C422.222 233.286 423.943 232.072 425.045 230.97C425.939 230.076 426.527 228.8 426.759 227.056L419.201 227.059Z" fill="white"/>
<path d="M416.208 248.193L412.927 257.27H419.622L416.314 248.193H416.208ZM410.095 265.129H407.237L414.806 245.018H417.743L425.311 265.129H422.453L420.522 259.678H412.054L410.095 265.129Z" fill="white"/>
<path d="M426.615 251.369H429.103V253.275H429.209C429.592 252.606 430.194 252.051 431.008 251.607C431.835 251.151 432.682 250.919 433.549 250.919C435.242 250.919 436.539 251.409 437.439 252.375C438.352 253.328 438.815 254.697 438.815 256.477V265.13H436.221V256.662C436.168 254.406 435.037 253.275 432.834 253.275C431.809 253.275 430.942 253.698 430.241 254.545C429.553 255.378 429.209 256.364 429.209 257.509V265.13H426.615V251.369Z" fill="white"/>
<path d="M443.603 260.922C443.603 261.597 443.881 262.16 444.45 262.616C445.013 263.059 445.681 263.278 446.461 263.278C447.533 263.278 448.499 262.881 449.346 262.087C450.206 261.28 450.643 260.327 450.643 259.229C449.829 258.594 448.698 258.276 447.255 258.276C446.21 258.276 445.337 258.534 444.635 259.044C443.947 259.54 443.603 260.168 443.603 260.922ZM446.938 250.919C448.843 250.919 450.338 251.435 451.436 252.454C452.548 253.48 453.104 254.882 453.104 256.662V265.13H450.643V263.225H450.537C449.458 264.799 448.029 265.58 446.25 265.58C444.728 265.58 443.458 265.13 442.439 264.23C441.433 263.331 440.931 262.212 440.931 260.87C440.931 259.441 441.467 258.316 442.545 257.482C443.617 256.635 445.059 256.212 446.858 256.212C448.393 256.212 449.65 256.49 450.643 257.032V256.45C450.643 255.55 450.279 254.796 449.558 254.174C448.85 253.539 448.023 253.222 447.07 253.222C445.621 253.222 444.483 253.83 443.656 255.048L441.381 253.619C442.631 251.819 444.483 250.919 446.938 250.919Z" fill="white"/>
<path d="M458.511 245.018V265.129H455.918V245.018H458.511Z" fill="white"/>
<path d="M473.757 251.369L465.13 271.19H462.484L465.686 264.257L459.996 251.369H462.801L466.903 261.266H466.956L470.952 251.369H473.757Z" fill="white"/>
<path d="M480.857 265.342C479.746 265.342 478.819 264.998 478.078 264.31C477.337 263.622 476.954 262.662 476.94 261.425V253.724H474.506V251.369H476.94V247.162H479.507V251.369H482.895V253.724H479.507V260.578C479.507 261.498 479.679 262.126 480.037 262.457C480.407 262.775 480.811 262.934 481.254 262.934C481.466 262.934 481.664 262.92 481.863 262.881C482.054 262.828 482.24 262.768 482.418 262.695L483.212 264.998C482.537 265.223 481.757 265.342 480.857 265.342Z" fill="white"/>
<path d="M488.552 246.632C488.552 247.128 488.367 247.558 487.997 247.929C487.639 248.286 487.216 248.458 486.726 248.458C486.21 248.458 485.78 248.286 485.43 247.929C485.072 247.558 484.9 247.128 484.9 246.632C484.9 246.123 485.072 245.693 485.43 245.335C485.78 244.985 486.21 244.806 486.726 244.806C487.216 244.806 487.639 244.985 487.997 245.335C488.367 245.693 488.552 246.123 488.552 246.632ZM488.023 251.369V265.13H485.43V251.369H488.023Z" fill="white"/>
<path d="M496.734 265.579C494.683 265.579 492.989 264.885 491.653 263.489C490.33 262.08 489.668 260.333 489.668 258.249C489.668 256.132 490.33 254.386 491.653 253.01C492.989 251.62 494.683 250.919 496.734 250.919C498.143 250.919 499.367 251.276 500.412 251.977C501.451 252.685 502.238 253.658 502.767 254.888L500.412 255.868C499.684 254.141 498.407 253.274 496.575 253.274C495.391 253.274 494.365 253.75 493.505 254.703C492.658 255.656 492.235 256.84 492.235 258.249C492.235 259.665 492.658 260.843 493.505 261.795C494.365 262.748 495.391 263.224 496.575 263.224C498.46 263.224 499.783 262.364 500.544 260.631L502.847 261.61C502.35 262.847 501.563 263.82 500.491 264.521C499.413 265.222 498.163 265.579 496.734 265.579Z" fill="white"/>
<path d="M515.628 261.319C515.628 262.523 515.099 263.536 514.041 264.363C512.995 265.17 511.685 265.58 510.098 265.58C508.721 265.58 507.504 265.216 506.446 264.495C505.4 263.774 504.653 262.821 504.196 261.637L506.499 260.658C506.849 261.491 507.345 262.133 507.98 262.59C508.629 263.053 509.337 263.278 510.098 263.278C510.924 263.278 511.613 263.106 512.162 262.748C512.724 262.398 513.008 261.974 513.008 261.478C513.008 260.598 512.327 259.957 510.971 259.546L508.616 258.964C505.93 258.276 504.593 256.979 504.593 255.074C504.593 253.824 505.103 252.818 506.128 252.057C507.147 251.303 508.457 250.919 510.045 250.919C511.262 250.919 512.36 251.211 513.352 251.793C514.338 252.375 515.026 253.156 515.417 254.121L513.114 255.074C512.85 254.492 512.413 254.042 511.818 253.725C511.235 253.394 510.58 253.222 509.859 253.222C509.185 253.222 508.576 253.394 508.033 253.725C507.504 254.062 507.24 254.479 507.24 254.968C507.24 255.749 507.98 256.311 509.462 256.662L511.527 257.191C514.259 257.866 515.628 259.242 515.628 261.319Z" fill="white"/>
<path d="M382.797 220.031V262.657C382.797 267.43 386.087 270.084 389.578 270.084C392.807 270.084 396.36 267.824 396.36 262.657V220.354C396.36 215.985 393.13 213.25 389.578 213.25C386.026 213.25 382.797 216.267 382.797 220.031Z" fill="#F8AB00"/>
<path d="M365.035 241.667V262.657C365.035 267.43 368.325 270.084 371.817 270.084C375.046 270.084 378.598 267.824 378.598 262.657V241.99C378.598 237.62 375.369 234.886 371.817 234.886C368.264 234.886 365.035 237.903 365.035 241.667Z" fill="#E37300"/>
<path d="M360.839 263.303C360.839 267.047 357.802 270.084 354.058 270.084C350.314 270.084 347.276 267.047 347.276 263.303C347.276 259.559 350.314 256.521 354.058 256.521C357.802 256.521 360.839 259.559 360.839 263.303Z" fill="#E37300"/>
<path d="M538.549 260.374H535.295V265.41H532.912V260.374H522.254V258.202L532.658 243.378H535.295V258.11H538.549V260.374ZM532.912 258.11V250.829C532.912 249.399 532.962 247.785 533.062 245.985H532.942C532.462 246.946 532.012 247.74 531.591 248.368L524.745 258.11H532.912Z" fill="white"/>
<path d="M234.968 123.926L323.085 179.451" stroke="#999999" stroke-width="2" stroke-dasharray="5 5"/>
<path d="M562.087 304.987L650.204 360.513" stroke="#999999" stroke-width="2" stroke-dasharray="5 5"/>
<path d="M650.203 123.926L562.086 179.451" stroke="#999999" stroke-width="2" stroke-dasharray="5 5"/>
<path d="M323.085 304.987L234.968 360.513" stroke="#999999" stroke-width="2" stroke-dasharray="5 5"/>
<defs>
<clipPath id="clip0_184_650">
<rect width="177.015" height="50.295" fill="white" transform="translate(27.9541 37.0161)"/>
</clipPath>
<clipPath id="clip1_184_650">
<rect width="166.828" height="50.295" fill="white" transform="translate(694.854 37.0161)"/>
</clipPath>
<clipPath id="clip2_184_650">
<rect width="167.967" height="60.3539" fill="white" transform="translate(694.854 394.11)"/>
</clipPath>
</defs>
</svg>
