<svg width="41" height="41" viewBox="0 0 41 41" fill="none" xmlns="http://www.w3.org/2000/svg">
<path d="M9.85414 0.868164H31.5208C36.5834 0.868164 40.6875 4.97223 40.6875 10.0348V31.7014C40.6875 36.7641 36.5834 40.8682 31.5209 40.8682H9.85414C4.79156 40.8682 0.6875 36.7641 0.6875 31.7015V10.0348C0.6875 4.97223 4.79156 0.868164 9.85414 0.868164Z" fill="#A02100"/>
<path d="M28.6387 20.1653L16.972 12.6653C16.5852 12.4159 16.0695 12.5272 15.8201 12.914C15.733 13.049 15.6868 13.2064 15.687 13.3671V28.3671C15.6862 28.8273 16.0587 29.201 16.519 29.2018C16.6797 29.202 16.8369 29.1558 16.972 29.0687L28.6387 21.5687C29.0262 21.3204 29.139 20.805 28.8908 20.4175C28.8259 20.3162 28.7399 20.2302 28.6387 20.1653Z" fill="#FBFBFB"/>
</svg>
