<svg width="86" height="81" viewBox="0 0 86 81" fill="none" xmlns="http://www.w3.org/2000/svg">
<g opacity="0.4">
<path d="M55.6507 18.7057C40.2294 9.41932 22.1161 11.8417 15.033 23.6036C7.94998 35.3655 14.2813 52.5083 29.7025 61.7951C45.124 71.0818 63.238 68.6598 70.3211 56.8977C77.4039 45.1357 71.0721 27.9924 55.6507 18.7057ZM56.4245 17.4207C72.2474 26.9491 79.2809 44.9266 71.6061 57.6716C63.9312 70.4166 44.7517 72.6086 28.9287 63.0801C13.106 53.5516 6.07302 35.5746 13.7479 22.8297C21.4229 10.085 40.6017 7.89248 56.4245 17.4207Z" fill="url(#paint0_linear_1045_1150)"/>
<path d="M16.1012 24.2497C21.4332 15.3941 33.4652 12.0281 45.982 15.7683C49.098 16.6994 52.1334 18.0482 55.0035 19.7761C62.1711 24.0925 67.5912 30.3203 70.2545 37.3181C72.845 44.1258 72.4986 50.8548 69.2477 56.2536C63.9155 65.109 51.8825 68.4742 39.3658 64.7341C36.2498 63.8029 33.2142 62.454 30.3453 60.7253C23.1773 56.4099 17.7575 50.182 15.0943 43.1843C12.5039 36.3768 12.8505 29.6484 16.1012 24.2497ZM45.8395 16.2477C33.4611 12.5488 21.705 15.9108 16.5289 24.5075C13.371 29.7523 13.0154 36.3165 15.5611 43.0065C18.1797 49.8871 23.5189 56.0316 30.6031 60.2966C33.4369 62.0042 36.4339 63.3358 39.5084 64.2546C51.8868 67.9535 63.6438 64.5916 68.8199 55.9948C71.9779 50.75 72.3334 44.186 69.7877 37.4958C67.169 30.6152 61.8297 24.4708 54.7457 20.2048C51.9105 18.4979 48.9139 17.1665 45.8395 16.2477Z" fill="url(#paint1_linear_1045_1150)"/>
<path d="M13.2711 27.3742L9.73207 36.4875C6.30146 47.7878 12.864 62.0382 26.3971 70.1877C39.8685 78.2997 55.4538 77.4794 63.8639 69.2658C65.6825 67.4898 67.0223 65.249 68.0319 62.8469L71.3913 54.8518L72.7741 55.4338L69.4147 63.4279C68.3541 65.9516 66.9157 68.382 64.9118 70.3391C55.8709 79.1685 39.4889 79.8228 25.6227 71.4729C11.6864 63.0806 4.59994 48.1854 8.30336 36.0305L8.31117 36.0041L8.32094 35.9778L11.8727 26.8313L13.2711 27.3742Z" fill="url(#paint2_linear_1045_1150)"/>
<path d="M46.971 55.3643C46.8462 55.4125 46.7608 55.3746 46.7129 55.2506L45.6728 52.5563C43.9449 52.6891 42.3178 52.2768 40.7909 51.3178C39.264 50.3589 38.1724 49.0282 37.5148 47.3245L36.8333 45.5592C36.7857 45.4359 36.8233 45.3497 36.9473 45.3019L41.1749 43.6699C41.2677 43.634 41.3382 43.6785 41.3858 43.8018L42.0673 45.5671C42.3783 46.3729 42.9361 46.9663 43.7431 47.349C44.5493 47.732 45.3393 47.7741 46.1139 47.4751C46.9189 47.1643 47.4757 46.6023 47.785 45.7887C48.0928 44.9757 48.1045 44.1974 47.8175 43.454C47.4471 42.4945 46.526 41.9067 45.0553 41.6911C44.5565 41.5995 43.7845 41.4883 42.7383 41.358C41.6917 41.2287 40.7193 41.1057 39.8205 40.9902C38.0533 40.7473 36.592 40.1189 35.4367 39.1057C34.2802 38.0938 33.3975 36.797 32.7878 35.2174C32.1183 33.4832 32.0385 31.7795 32.5488 30.1049C33.0589 28.4322 33.9832 27.0691 35.322 26.0189L34.2819 23.3246C34.234 23.2005 34.2716 23.1144 34.3956 23.0665L38.4375 21.5062C38.592 21.4466 38.6937 21.479 38.7416 21.603L39.7996 24.3438C41.4656 24.234 43.0375 24.6414 44.5152 25.566C45.9927 26.4898 47.0544 27.7883 47.7 29.4608L48.9017 32.5737C48.9375 32.6665 48.909 32.7308 48.8162 32.7667L44.5421 34.4166C44.4493 34.4524 44.385 34.4239 44.3492 34.3311L43.1011 31.2361C42.7545 30.3383 42.1897 29.7292 41.4081 29.4075C40.6253 29.0872 39.8633 29.0701 39.1199 29.3571C38.3453 29.6561 37.8007 30.2047 37.486 31.002C37.1706 31.7996 37.1687 32.6012 37.4795 33.4062C37.7785 34.1808 38.203 34.7732 38.7531 35.1834C39.3023 35.5938 40.1282 35.8897 41.2298 36.0686L45.9112 36.7173C47.4432 36.9084 48.771 37.3742 49.894 38.1157C51.0159 38.8568 51.8757 40.0016 52.4734 41.55C53.1549 43.3153 53.2637 45.0263 52.8003 46.6819C52.3361 48.3377 51.4406 49.7072 50.1146 50.7883L51.1726 53.5291C51.2205 53.6531 51.1666 53.7447 51.0122 53.8043L46.971 55.3643Z" fill="url(#paint3_linear_1045_1150)"/>
<path d="M38.4374 21.5065C38.5919 21.4469 38.6932 21.4792 38.7411 21.6032L39.7997 24.3434C41.4656 24.2337 43.0379 24.6415 44.5155 25.5661C45.9928 26.4899 47.0545 27.7883 47.7001 29.4606L48.9012 32.5739C48.9369 32.6665 48.9088 32.7304 48.8163 32.7663L44.5419 34.4167L44.4774 34.4313C44.4186 34.4339 44.3763 34.4002 44.3495 34.3307L43.1014 31.236C42.7549 30.3383 42.1895 29.7296 41.4081 29.4079C40.6253 29.0876 39.8633 29.0702 39.12 29.3571L38.9774 29.4157C38.2781 29.7252 37.7813 30.2543 37.4862 31.0016L37.3827 31.3014C37.1753 32.0001 37.2075 32.7016 37.4794 33.4059C37.7783 34.1805 38.2028 34.7731 38.7528 35.1833C39.302 35.5936 40.1279 35.8901 41.2294 36.069L45.911 36.7174C47.4429 36.9085 48.7705 37.3745 49.8934 38.1159C51.0153 38.857 51.8758 40.0021 52.4735 41.5505C53.1548 43.3156 53.263 45.0268 52.7997 46.6823L52.7079 46.9889C52.2221 48.5077 51.3572 49.7752 50.1141 50.7887L51.1727 53.529C51.2206 53.653 51.166 53.7448 51.0116 53.8044L46.9706 55.3639C46.8771 55.4 46.8058 55.3883 46.7557 55.3278L46.7128 55.2506L45.6727 52.5563C44.0527 52.6808 42.5213 52.326 41.078 51.4909L40.7909 51.318C39.3594 50.4191 38.3108 49.1929 37.6434 47.6393L37.5145 47.3249L36.8329 45.5592C36.7853 45.436 36.8231 45.3492 36.9471 45.3014L41.1747 43.6696C41.2674 43.6338 41.338 43.6784 41.3856 43.8014L42.0672 45.5671C42.3782 46.3729 42.936 46.9666 43.743 47.3493C44.4989 47.7083 45.2406 47.7675 45.9686 47.527L46.1141 47.4753C46.919 47.1644 47.4758 46.6022 47.785 45.7887C48.0928 44.9757 48.1042 44.1972 47.8172 43.4538C47.4699 42.5543 46.6385 41.9817 45.3241 41.736L45.0555 41.6911C44.5567 41.5995 43.7843 41.4884 42.7381 41.3581C41.6915 41.2288 40.719 41.1054 39.8202 40.9899C38.0531 40.747 36.5916 40.1192 35.4364 39.1061C34.3522 38.1575 33.5087 36.9581 32.9051 35.5104L32.7879 35.2174C32.1603 33.5918 32.0507 31.9928 32.4598 30.4196L32.5487 30.1051C33.0588 28.4324 33.9833 27.0694 35.3221 26.0192L34.2821 23.3249C34.2342 23.2008 34.2714 23.114 34.3954 23.0661L38.4374 21.5065ZM35.5028 23.7106L36.5213 26.3493L35.9393 26.8053C34.7668 27.7251 33.957 28.9132 33.5047 30.3962C33.0638 31.8431 33.1262 33.3175 33.7206 34.8571C34.2433 36.2114 34.9744 37.3129 35.9061 38.1823L36.0946 38.3532L36.0956 38.3542C37.0812 39.2186 38.3519 39.7791 39.9569 39.9997C40.852 40.1147 41.8195 40.2372 42.8612 40.3659C43.9109 40.4966 44.7078 40.6106 45.2362 40.7077C46.8713 40.9547 48.1999 41.6695 48.7499 43.0934C49.1343 44.0892 49.1055 45.1238 48.7196 46.1432C48.3104 47.2194 47.546 47.9938 46.4735 48.4079C45.4879 48.7883 44.481 48.7503 43.5077 48.3395L43.3143 48.2526C42.2844 47.7642 41.5413 46.9807 41.1346 45.9274L40.7411 44.9089L38.0545 45.946L38.4471 46.9645C39.0281 48.4697 39.9806 49.6288 41.3221 50.4714C42.675 51.3211 44.0903 51.6748 45.5956 51.5592L46.3378 51.5026L47.3563 54.1432L49.9501 53.1423L48.9208 50.4714L49.4823 50.0133C50.6476 49.0633 51.4279 47.8703 51.8368 46.4118C52.2361 44.9849 52.1519 43.4951 51.5399 41.9098C50.9993 40.5095 50.2539 39.5518 49.3426 38.9499C48.366 38.3051 47.189 37.8845 45.787 37.7096L45.7733 37.7077L41.0926 37.0592L41.0692 37.0553C39.8969 36.8649 38.8894 36.5334 38.1551 35.985C37.4249 35.4405 36.8992 34.6795 36.5467 33.7663C36.1462 32.7289 36.1471 31.6675 36.5555 30.6344L36.6376 30.4421C37.0639 29.4941 37.78 28.8027 38.7596 28.4245L38.9471 28.3571C39.8231 28.0657 40.7186 28.0922 41.5985 28.4098L41.787 28.4821L41.7889 28.4831C42.855 28.922 43.5967 29.7534 44.0282 30.862L44.9637 33.1813L47.662 32.1393L46.7665 29.821C46.1964 28.3442 45.2735 27.2193 43.9852 26.4137C42.6773 25.5954 41.3118 25.2461 39.8651 25.3415L39.1317 25.3903L38.0956 22.7096L35.5028 23.7106Z" fill="url(#paint4_linear_1045_1150)"/>
<path d="M37.1465 66.1156L37.3867 66.1869L34.8018 74.8353L34.3232 74.6927L36.9072 66.0443L37.1465 66.1156Z" fill="url(#paint5_linear_1045_1150)"/>
<path d="M28.8252 62.5627L29.0566 62.6554L25.6943 71.0324L25.4619 70.9386L25.2295 70.8459L28.5928 62.4699L28.8252 62.5627Z" fill="url(#paint6_linear_1045_1150)"/>
<path d="M23.1172 57.8081L23.3486 57.9008L19.9863 66.2778L19.7539 66.1841L19.5215 66.0913L22.8848 57.7153L23.1172 57.8081Z" fill="url(#paint7_linear_1045_1150)"/>
<path d="M17.3779 51.6043L17.6094 51.6971L14.2471 60.074L14.0146 59.9803L13.7822 59.8875L17.1455 51.5115L17.3779 51.6043Z" fill="url(#paint8_linear_1045_1150)"/>
<path d="M13.627 44.9561L13.8584 45.0489L10.4961 53.4258L10.2637 53.3321L10.0312 53.2393L13.3945 44.8633L13.627 44.9561Z" fill="url(#paint9_linear_1045_1150)"/>
<path d="M11.5312 36.7968L11.7627 36.8896L8.40039 45.2665L8.16797 45.1728L7.93555 45.08L11.2988 36.704L11.5312 36.7968Z" fill="url(#paint10_linear_1045_1150)"/>
<path d="M44.7109 67.852L44.9512 67.9232L42.3662 76.5717L42.127 76.5004L41.8877 76.4281L44.4717 67.7807L44.7109 67.852Z" fill="url(#paint11_linear_1045_1150)"/>
<path d="M53.6387 68.0485L53.8789 68.1198L51.2939 76.7682L51.0547 76.6969L50.8154 76.6247L53.3994 67.9772L53.6387 68.0485Z" fill="url(#paint12_linear_1045_1150)"/>
<path d="M61.8408 65.4075L62.0811 65.4788L59.4961 74.1272L59.0176 73.9846L61.6016 65.3362L61.8408 65.4075Z" fill="url(#paint13_linear_1045_1150)"/>
</g>
<defs>
<linearGradient id="paint0_linear_1045_1150" x1="13.7479" y1="22.8297" x2="71.6061" y2="57.6716" gradientUnits="userSpaceOnUse">
<stop stop-color="#FFF7E1" stop-opacity="0.1"/>
<stop offset="1" stop-color="#0D1116"/>
</linearGradient>
<linearGradient id="paint1_linear_1045_1150" x1="42.6745" y1="14.261" x2="42.6745" y2="66.2415" gradientUnits="userSpaceOnUse">
<stop stop-color="#FFF7E1" stop-opacity="0.1"/>
<stop offset="1" stop-color="#0D1116"/>
</linearGradient>
<linearGradient id="paint2_linear_1045_1150" x1="40.0516" y1="26.8313" x2="40.0516" y2="77.3657" gradientUnits="userSpaceOnUse">
<stop stop-color="#FFF7E1" stop-opacity="0.1"/>
<stop offset="1" stop-color="#0D1116"/>
</linearGradient>
<linearGradient id="paint3_linear_1045_1150" x1="42.6497" y1="21.4772" x2="42.6497" y2="55.3845" gradientUnits="userSpaceOnUse">
<stop stop-color="#FFF7E1" stop-opacity="0.1"/>
<stop offset="1" stop-color="#0D1116"/>
</linearGradient>
<linearGradient id="paint4_linear_1045_1150" x1="42.6495" y1="21.4775" x2="42.6495" y2="55.3843" gradientUnits="userSpaceOnUse">
<stop stop-color="#FFF7E1" stop-opacity="0.1"/>
<stop offset="1" stop-color="#0D1116"/>
</linearGradient>
<linearGradient id="paint5_linear_1045_1150" x1="35.855" y1="66.0443" x2="35.855" y2="74.8353" gradientUnits="userSpaceOnUse">
<stop stop-color="#FFF7E1" stop-opacity="0.1"/>
<stop offset="1" stop-color="#0D1116"/>
</linearGradient>
<linearGradient id="paint6_linear_1045_1150" x1="27.1431" y1="62.4699" x2="27.1431" y2="71.0324" gradientUnits="userSpaceOnUse">
<stop stop-color="#FFF7E1" stop-opacity="0.1"/>
<stop offset="1" stop-color="#0D1116"/>
</linearGradient>
<linearGradient id="paint7_linear_1045_1150" x1="21.4351" y1="57.7153" x2="21.4351" y2="66.2778" gradientUnits="userSpaceOnUse">
<stop stop-color="#FFF7E1" stop-opacity="0.1"/>
<stop offset="1" stop-color="#0D1116"/>
</linearGradient>
<linearGradient id="paint8_linear_1045_1150" x1="15.6958" y1="51.5115" x2="15.6958" y2="60.074" gradientUnits="userSpaceOnUse">
<stop stop-color="#FFF7E1" stop-opacity="0.1"/>
<stop offset="1" stop-color="#0D1116"/>
</linearGradient>
<linearGradient id="paint9_linear_1045_1150" x1="11.9448" y1="44.8633" x2="11.9448" y2="53.4258" gradientUnits="userSpaceOnUse">
<stop stop-color="#FFF7E1" stop-opacity="0.1"/>
<stop offset="1" stop-color="#0D1116"/>
</linearGradient>
<linearGradient id="paint10_linear_1045_1150" x1="9.84912" y1="36.704" x2="9.84912" y2="45.2665" gradientUnits="userSpaceOnUse">
<stop stop-color="#FFF7E1" stop-opacity="0.1"/>
<stop offset="1" stop-color="#0D1116"/>
</linearGradient>
<linearGradient id="paint11_linear_1045_1150" x1="43.4194" y1="67.7807" x2="43.4194" y2="76.5717" gradientUnits="userSpaceOnUse">
<stop stop-color="#FFF7E1" stop-opacity="0.1"/>
<stop offset="1" stop-color="#0D1116"/>
</linearGradient>
<linearGradient id="paint12_linear_1045_1150" x1="52.3472" y1="67.9772" x2="52.3472" y2="76.7682" gradientUnits="userSpaceOnUse">
<stop stop-color="#FFF7E1" stop-opacity="0.1"/>
<stop offset="1" stop-color="#0D1116"/>
</linearGradient>
<linearGradient id="paint13_linear_1045_1150" x1="60.5493" y1="65.3362" x2="60.5493" y2="74.1272" gradientUnits="userSpaceOnUse">
<stop stop-color="#FFF7E1" stop-opacity="0.1"/>
<stop offset="1" stop-color="#0D1116"/>
</linearGradient>
</defs>
</svg>
