<svg width="65" height="89" viewBox="0 0 65 89" fill="none" xmlns="http://www.w3.org/2000/svg">
<path opacity="0.4" d="M44.1713 39.0188C39.0724 28.65 33.4471 19.7858 28.4876 13.8377C26.004 10.8591 23.7142 8.645 21.767 7.3327C19.7656 5.9839 18.37 5.74591 17.5028 6.1724C16.6355 6.59897 15.9719 7.84949 15.8182 10.258C15.6687 12.6013 16.0252 15.7664 16.8678 19.5518C18.5507 27.1112 22.1357 36.9787 27.2346 47.3475C32.3335 57.7163 37.9596 66.58 42.9192 72.5282C45.4027 75.5067 47.6917 77.7213 49.6389 79.0336C51.6403 80.3825 53.0358 80.6203 53.9031 80.1939C54.7704 79.7674 55.434 78.517 55.5876 76.1082C55.7371 73.7649 55.3816 70.5996 54.5389 66.8141C52.8561 59.2546 49.2702 49.3877 44.1713 39.0188ZM45.5174 38.3569C50.6529 48.8002 54.2869 58.7819 56.0025 66.4884C56.8589 70.3354 57.2475 73.6574 57.0851 76.2033C56.9269 78.684 56.2221 80.7251 54.5651 81.54C52.908 82.3547 50.862 81.6663 48.8008 80.2772C46.6852 78.8514 44.2908 76.516 41.7668 73.4888C36.7108 67.4251 31.0241 58.4528 25.8885 48.0094C20.7529 37.5661 17.1189 27.5843 15.4034 19.8779C14.547 16.0308 14.1592 12.7085 14.3216 10.1625C14.4799 7.68204 15.1839 5.64119 16.8408 4.8263C18.4979 4.01144 20.5447 4.69948 22.6059 6.08869C24.7214 7.51446 27.1151 9.85046 29.6391 12.8775C34.6951 18.9412 40.3818 27.9135 45.5174 38.3569Z" fill="url(#paint0_linear_1045_1168)"/>
<path opacity="0.4" d="M42.6015 39.7899C37.7632 29.9511 32.5892 21.4414 28.1387 15.6376C25.9124 12.7344 23.8753 10.5187 22.1588 9.1515C21.2999 8.46745 20.5323 8.00518 19.8714 7.77106C19.211 7.53712 18.6832 7.53914 18.2731 7.74083C17.8631 7.94254 17.5391 8.3594 17.3212 9.02514C17.1032 9.6915 17.0006 10.5818 17.018 11.6795C17.0528 13.8737 17.5638 16.8399 18.5039 20.3756C20.3833 27.4437 23.9639 36.737 28.8022 46.5758C33.6405 56.4146 38.8145 64.9243 43.265 70.7281C45.4913 73.6313 47.5284 75.847 49.245 77.2142C50.1037 77.8982 50.8714 78.3605 51.5323 78.5947C52.1926 78.8286 52.7205 78.8265 53.1306 78.6249C53.5407 78.4232 53.8646 78.0064 54.0825 77.3406C54.3006 76.6742 54.4031 75.7841 54.3857 74.6862C54.351 72.492 53.8399 69.5259 52.8998 65.9902C51.0204 58.922 47.4398 49.6288 42.6015 39.7899ZM43.0502 39.5693C47.8985 49.4284 51.4927 58.753 53.3828 65.8615C54.3273 69.4136 54.8502 72.4251 54.8859 74.6786C54.9037 75.8047 54.8006 76.7562 54.5584 77.4962C54.3161 78.2367 53.9248 78.7916 53.3513 79.0736C52.7779 79.3555 52.1001 79.3262 51.3658 79.0661C50.6319 78.8062 49.8145 78.3073 48.9336 77.6057C47.1706 76.2016 45.1047 73.9488 42.8682 71.0321C38.3923 65.1952 33.2018 56.6556 28.3535 46.7964C23.5052 36.9373 19.911 27.6128 18.0209 20.5043C17.0764 16.9522 16.5536 13.9407 16.5178 11.6871C16.5 10.561 16.604 9.60908 16.8462 8.86913C17.0885 8.12884 17.4791 7.57416 18.0524 7.29213C18.626 7.0101 19.3044 7.039 20.0388 7.29916C20.7726 7.55914 21.5892 8.05846 22.4701 8.76004C24.2331 10.1642 26.2989 12.4169 28.5356 15.3336C33.0114 21.1706 38.2019 29.7102 43.0502 39.5693Z" fill="url(#paint1_linear_1045_1168)"/>
<path opacity="0.4" d="M17.4991 6.17517L3.21785 13.1976C2.3506 13.6241 1.68698 14.875 1.53328 17.2836C1.38378 19.6269 1.73948 22.7921 2.58211 26.5775C4.2648 34.1368 7.84974 44.0039 12.9483 54.3724C18.0469 64.7409 23.6726 73.6041 28.6319 79.5521C31.1153 82.5306 33.4046 84.7447 35.3516 86.057C37.3531 87.406 38.749 87.6446 39.6163 87.2181L53.8975 80.1947L54.5597 81.5414L40.2774 88.5638C38.6205 89.3785 36.5738 88.6903 34.5128 87.3011C32.3974 85.8753 30.0034 83.5391 27.4796 80.5121C22.4239 74.4485 16.7378 65.4765 11.6026 55.0336C6.46748 44.5906 2.83363 34.6098 1.11824 26.9037C0.261862 23.0565 -0.126216 19.7338 0.0362117 17.1879C0.194517 14.7075 0.898876 12.6667 2.55574 11.8519L16.837 4.82947L17.4991 6.17517Z" fill="url(#paint2_linear_1045_1168)"/>
<path opacity="0.4" d="M41.2477 55.8388C41.1775 55.8716 41.1175 55.8383 41.0665 55.7385L39.9592 53.5725C38.8971 53.6057 37.8063 53.2136 36.6863 52.3949C35.5662 51.5762 34.6565 50.4825 33.9563 49.1129L33.2308 47.6937C33.1801 47.5946 33.1892 47.5283 33.2589 47.4957L35.6369 46.3843C35.6891 46.3599 35.7409 46.3979 35.7915 46.497L36.5171 47.9162C36.8483 48.564 37.2985 49.0546 37.8695 49.3895C38.4401 49.7246 38.943 49.7904 39.3787 49.5868C39.8315 49.3751 40.0862 48.9553 40.143 48.3269C40.199 47.699 40.075 47.0862 39.7695 46.4886C39.3752 45.7172 38.6979 45.216 37.7384 44.9853C37.41 44.8925 36.9067 44.7731 36.2281 44.6271C35.5494 44.482 34.9183 44.345 34.3347 44.2168C33.1847 43.9525 32.1615 43.3969 31.2655 42.5508C30.3689 41.7057 29.5961 40.6473 28.9469 39.3774C28.2342 37.9833 27.8966 36.6374 27.9344 35.339C27.9723 34.042 28.3224 33.006 28.9855 32.2338L27.8781 30.0677C27.8271 29.968 27.8362 29.9017 27.9059 29.8691L30.1795 28.8065C30.2663 28.7659 30.3356 28.7957 30.3866 28.8954L31.5131 31.0988C32.5402 31.0811 33.5954 31.467 34.6789 32.2566C35.762 33.0456 36.6475 34.1127 37.3348 35.4573L38.6142 37.9598C38.6524 38.0344 38.6453 38.084 38.5931 38.1084L36.189 39.2319C36.1368 39.2563 36.0916 39.2312 36.0535 39.1566L34.748 36.6662C34.379 35.9444 33.9218 35.4411 33.377 35.1554C32.8316 34.8707 32.3505 34.8257 31.9323 35.0212C31.4966 35.2248 31.2474 35.6345 31.1844 36.2498C31.121 36.8653 31.2551 37.4968 31.5859 38.144C31.9043 38.7668 32.2707 39.2511 32.6851 39.597C33.0991 39.9431 33.6673 40.2104 34.3889 40.3968L37.4364 41.1014C38.4302 41.3153 39.3421 41.7371 40.1721 42.3679C41.0012 42.9982 41.734 43.9357 42.3704 45.1806C43.0959 46.5998 43.4529 47.9525 43.4414 49.2379C43.4295 50.5235 43.0984 51.5657 42.4486 52.3628L43.5751 54.5662C43.626 54.6659 43.6077 54.7359 43.5208 54.7765L41.2477 55.8388Z" fill="url(#paint3_linear_1045_1168)"/>
<path opacity="0.4" d="M15.209 10.0657L0.729492 17.1858L0.508789 16.7366L14.9883 9.61646L15.209 10.0657Z" fill="url(#paint4_linear_1045_1168)"/>
<path opacity="0.4" d="M16.3262 20.5765L1.84668 27.6967L1.62598 27.2474L16.1055 20.1273L16.3262 20.5765Z" fill="url(#paint5_linear_1045_1168)"/>
<path opacity="0.4" d="M20.0146 32.1953L5.53516 39.3154L5.31445 38.8662L19.7939 31.7461L20.0146 32.1953Z" fill="url(#paint6_linear_1045_1168)"/>
<path opacity="0.4" d="M25.1455 44.8101L10.666 51.9302L10.4453 51.481L24.9248 44.3609L25.1455 44.8101Z" fill="url(#paint7_linear_1045_1168)"/>
<path opacity="0.4" d="M31.2539 56.7315L16.7744 63.8516L16.5537 63.4024L31.0332 56.2823L31.2539 56.7315Z" fill="url(#paint8_linear_1045_1168)"/>
<path opacity="0.4" d="M38.918 68.6334L24.4385 75.7535L24.2178 75.3043L38.6973 68.1842L38.918 68.6334Z" fill="url(#paint9_linear_1045_1168)"/>
<path opacity="0.4" d="M46.6016 77.7546L32.1221 84.8747L31.9014 84.4255L46.3809 77.3054L46.6016 77.7546Z" fill="url(#paint10_linear_1045_1168)"/>
<defs>
<linearGradient id="paint0_linear_1045_1168" x1="16.8408" y1="4.8263" x2="54.5651" y2="81.54" gradientUnits="userSpaceOnUse">
<stop stop-color="#141A21"/>
<stop offset="1" stop-color="#FFF7E1" stop-opacity="0.1"/>
</linearGradient>
<linearGradient id="paint1_linear_1045_1168" x1="18.0524" y1="7.29213" x2="53.3513" y2="79.0736" gradientUnits="userSpaceOnUse">
<stop stop-color="#141A21"/>
<stop offset="1" stop-color="#FFF7E1" stop-opacity="0.1"/>
</linearGradient>
<linearGradient id="paint2_linear_1045_1168" x1="27.2798" y1="4.82947" x2="27.2798" y2="88.913" gradientUnits="userSpaceOnUse">
<stop stop-color="#141A21"/>
<stop offset="1" stop-color="#FFF7E1" stop-opacity="0.1"/>
</linearGradient>
<linearGradient id="paint3_linear_1045_1168" x1="35.7245" y1="28.7889" x2="35.7245" y2="55.851" gradientUnits="userSpaceOnUse">
<stop stop-color="#141A21"/>
<stop offset="1" stop-color="#FFF7E1" stop-opacity="0.1"/>
</linearGradient>
<linearGradient id="paint4_linear_1045_1168" x1="7.85889" y1="9.61646" x2="7.85889" y2="17.1858" gradientUnits="userSpaceOnUse">
<stop stop-color="#141A21"/>
<stop offset="1" stop-color="#FFF7E1" stop-opacity="0.1"/>
</linearGradient>
<linearGradient id="paint5_linear_1045_1168" x1="8.97607" y1="20.1273" x2="8.97607" y2="27.6967" gradientUnits="userSpaceOnUse">
<stop stop-color="#141A21"/>
<stop offset="1" stop-color="#FFF7E1" stop-opacity="0.1"/>
</linearGradient>
<linearGradient id="paint6_linear_1045_1168" x1="12.6646" y1="31.7461" x2="12.6646" y2="39.3154" gradientUnits="userSpaceOnUse">
<stop stop-color="#141A21"/>
<stop offset="1" stop-color="#FFF7E1" stop-opacity="0.1"/>
</linearGradient>
<linearGradient id="paint7_linear_1045_1168" x1="17.7954" y1="44.3609" x2="17.7954" y2="51.9302" gradientUnits="userSpaceOnUse">
<stop stop-color="#141A21"/>
<stop offset="1" stop-color="#FFF7E1" stop-opacity="0.1"/>
</linearGradient>
<linearGradient id="paint8_linear_1045_1168" x1="23.9038" y1="56.2823" x2="23.9038" y2="63.8516" gradientUnits="userSpaceOnUse">
<stop stop-color="#141A21"/>
<stop offset="1" stop-color="#FFF7E1" stop-opacity="0.1"/>
</linearGradient>
<linearGradient id="paint9_linear_1045_1168" x1="31.5679" y1="68.1842" x2="31.5679" y2="75.7535" gradientUnits="userSpaceOnUse">
<stop stop-color="#141A21"/>
<stop offset="1" stop-color="#FFF7E1" stop-opacity="0.1"/>
</linearGradient>
<linearGradient id="paint10_linear_1045_1168" x1="39.2515" y1="77.3054" x2="39.2515" y2="84.8747" gradientUnits="userSpaceOnUse">
<stop stop-color="#141A21"/>
<stop offset="1" stop-color="#FFF7E1" stop-opacity="0.1"/>
</linearGradient>
</defs>
</svg>
