<svg width="172" height="158" viewBox="0 0 172 158" fill="none" xmlns="http://www.w3.org/2000/svg">
<g clip-path="url(#clip0_1045_1123)" filter="url(#filter0_f_1045_1123)">
<path opacity="0.4" d="M99.501 37.8011L99.5901 38.0103C100.848 40.9633 101.028 44.6025 100.641 48.3298C100.253 52.0691 99.2852 55.9724 98.1756 59.5024C97.0649 63.0358 95.8061 66.2154 94.8254 68.5102C94.3347 69.6582 93.9124 70.5863 93.6129 71.2284C93.4633 71.5494 93.3444 71.7994 93.2624 71.9694C93.2214 72.0543 93.1894 72.1192 93.1678 72.1633C93.1569 72.1854 93.1483 72.2028 93.1426 72.2143C93.1411 72.2173 93.14 72.2201 93.1389 72.2223C83.9804 91.3131 82.55 106.728 83.3897 117.343C83.8098 122.653 84.7991 126.768 85.6784 129.548C86.1181 130.938 86.5302 131.994 86.8303 132.698C86.9804 133.05 87.1018 133.314 87.1851 133.488C87.2266 133.575 87.259 133.639 87.28 133.68C87.2904 133.701 87.2977 133.716 87.3026 133.726L87.3096 133.737L88.7801 136.508L86.2139 134.701L86.2128 134.7C86.2117 134.699 86.2098 134.698 86.2077 134.697C86.2035 134.694 86.1971 134.689 86.1887 134.683C86.1718 134.671 86.1463 134.654 86.1132 134.63C86.0467 134.583 85.9477 134.513 85.8181 134.422C85.559 134.238 85.1772 133.967 84.6855 133.617C83.7018 132.916 82.2786 131.898 80.5199 130.628C77.0024 128.088 72.1416 124.539 66.7684 120.503C56.0308 112.437 43.2151 102.404 34.9924 94.5904C26.4844 86.5053 26.9523 75.1112 30.0835 64.0829C31.6544 58.55 33.9134 53.0414 36.1169 47.9867C38.3304 42.9093 40.4707 38.3259 41.8511 34.5601C44.6093 27.0352 46.0855 19.7248 46.872 14.2919C47.2649 11.5772 47.4855 9.33468 47.6074 7.77295C47.6683 6.99221 47.7047 6.38147 47.7257 5.96767C47.7362 5.76077 47.7427 5.60278 47.7468 5.49747C47.7488 5.44488 47.7502 5.40509 47.7511 5.37908C47.7515 5.36621 47.7524 5.35644 47.7526 5.35028C47.7526 5.34731 47.7522 5.34458 47.7522 5.34324L47.7885 3.99969L99.501 37.8011ZM49.1859 6.70476C49.165 7.04105 49.1387 7.43745 49.1035 7.88901C48.9794 9.47906 48.7553 11.7555 48.3569 14.5074C47.5606 20.0084 46.0633 27.4257 43.2591 35.0761C41.8582 38.898 39.6794 43.5674 37.4915 48.5863C35.2936 53.6278 33.0687 59.0604 31.5265 64.4922C28.4314 75.3933 28.1576 86.0254 36.0257 93.5025C44.1792 101.251 56.9323 111.239 67.6692 119.304C73.0331 123.333 77.8861 126.876 81.398 129.412C82.8008 130.425 83.9904 131.276 84.9122 131.934C84.7049 131.379 84.4798 130.733 84.2479 130C83.3377 127.123 82.3242 122.895 81.8943 117.461C81.0339 106.586 82.5119 90.9056 91.7863 71.5733L91.791 71.5636L91.7926 71.5611C91.7937 71.5587 91.7958 71.5546 91.7983 71.5497C91.8033 71.5395 91.8108 71.5236 91.8209 71.5029C91.8413 71.4614 91.8721 71.3992 91.9118 71.317C91.9911 71.1528 92.1068 70.909 92.2534 70.5946C92.5469 69.9652 92.9626 69.0516 93.4461 67.9203C94.4136 65.6566 95.653 62.5253 96.7446 59.0525C97.8372 55.5766 98.7752 51.7783 99.1493 48.175C99.515 44.6515 99.331 41.3861 98.2904 38.801L49.1859 6.70476Z" fill="url(#paint0_linear_1045_1123)"/>
<path opacity="0.4" d="M96.8164 39.6772L97.0382 39.8218L97.1194 40.0742C97.8395 42.3028 97.9314 44.9973 97.6505 47.8272C97.3687 50.6665 96.7055 53.6962 95.8738 56.6235C94.213 62.4693 91.8577 67.9763 90.4192 70.8667L89.8558 72.0589C78.2221 97.0303 78.7801 119.057 81.0746 129.412L79.6107 129.737C77.2101 118.903 76.7007 95.9941 89.0661 70.2185L89.0713 70.208C90.4748 67.3897 92.7978 61.9633 94.4313 56.2134C95.2479 53.3392 95.8876 50.4015 96.1579 47.679C96.4177 45.0614 96.3291 42.6922 95.7667 40.7826L51.756 12.0145C51.077 17.7998 49.5468 26.7549 46.1131 36.1223C45.0496 39.0236 43.566 42.365 42.0115 45.8692C39.4352 51.6759 36.4361 60.0357 34.4891 68.3488C32.5333 76.6992 31.6758 84.8577 33.2486 90.3414L31.8064 90.7547C30.1192 84.8719 31.0674 76.3835 33.0292 68.007C34.8766 60.119 37.6557 52.2006 40.1466 46.3941L40.6407 45.2616C42.2015 41.7432 43.6622 38.4512 44.7051 35.6063C48.3326 25.71 49.8064 16.2644 50.3999 10.6418L50.5287 9.42053L96.8164 39.6772Z" fill="url(#paint1_linear_1045_1123)"/>
<path opacity="0.4" d="M135.462 138.433L134.441 138.923C120.318 145.702 108.248 144.655 99.7064 141.894C95.4424 140.516 92.0628 138.713 89.7465 137.252C88.5879 136.522 87.694 135.875 87.0868 135.41C86.7833 135.177 86.5509 134.989 86.3932 134.858C86.3144 134.793 86.2541 134.741 86.2128 134.706C86.1922 134.688 86.1761 134.674 86.1649 134.664C86.1596 134.659 86.1554 134.656 86.1522 134.653C86.1506 134.652 86.1487 134.65 86.1477 134.649C86.1473 134.649 86.1458 134.647 86.6455 134.087C87.1418 133.532 87.1453 133.528 87.1452 133.528C87.1454 133.528 87.1456 133.529 87.1464 133.53C87.1479 133.531 87.1507 133.534 87.1545 133.537C87.1624 133.544 87.1758 133.555 87.1931 133.57C87.2277 133.6 87.2806 133.645 87.3521 133.705C87.4954 133.824 87.712 134 87.9992 134.22C88.5738 134.661 89.431 135.28 90.5469 135.983C92.7797 137.391 96.0458 139.134 100.168 140.467C108.192 143.06 119.481 144.106 132.761 138.052L83.9601 95.0772L84.9522 93.9518L135.462 138.433Z" fill="url(#paint2_linear_1045_1123)"/>
<path opacity="0.4" d="M129.932 137.61L128.763 138.049C111.58 144.507 98.3393 138.947 92.1019 135.169C90.9107 134.448 88.9225 132.988 87.2598 131.731C86.4225 131.098 85.6579 130.509 85.1026 130.078C84.8249 129.863 84.5994 129.687 84.4432 129.565C84.3651 129.504 84.3041 129.456 84.2628 129.424C84.2422 129.407 84.2265 129.394 84.2159 129.386C84.2108 129.382 84.207 129.379 84.2043 129.377L84.1993 129.374C84.1993 129.374 84.2046 129.367 84.6638 128.784C85.1275 128.195 85.1278 128.195 85.1279 128.195C85.1285 128.196 85.1303 128.197 85.1315 128.198C85.1341 128.2 85.1381 128.204 85.143 128.208C85.1534 128.216 85.1688 128.228 85.1888 128.243C85.2294 128.275 85.2895 128.323 85.3667 128.383C85.5215 128.504 85.7458 128.679 86.0217 128.893C86.5737 129.321 87.3336 129.906 88.1648 130.534C89.8393 131.8 91.7653 133.212 92.8789 133.886C98.7331 137.432 111.02 142.629 127.051 137.071L83.2599 98.5086L84.252 97.3832L129.932 137.61Z" fill="url(#paint3_linear_1045_1123)"/>
<path opacity="0.4" d="M36.12 94.2316C37.4161 95.3052 38.71 96.392 39.9274 97.5551C40.5792 98.1778 41.2463 98.7719 41.9252 99.3471C41.9088 99.3045 41.8862 99.2683 41.8709 99.2244C41.5092 98.1912 41.5894 97.1996 42.1119 96.2485C42.6148 95.3333 43.4088 94.7336 44.4945 94.4488C45.5806 94.1632 46.5979 94.2822 47.5501 94.8052L49.6358 95.951C49.7814 96.031 49.8854 96.0167 49.9455 95.907L52.6896 90.912C52.7702 90.7656 52.7364 90.6523 52.5908 90.5722L50.5051 89.4264C48.4924 88.3204 46.364 87.9249 44.1188 88.2395C41.873 88.5544 39.974 89.4759 38.4195 91.0037L35.2362 89.2548C35.0896 89.1741 34.9767 89.2068 34.8959 89.3545L33.4337 91.7684C33.9834 92.8295 35.2251 93.4902 36.12 94.2316Z" fill="url(#paint4_linear_1045_1123)"/>
<path opacity="0.4" d="M73.1592 110.233C73.2397 110.086 73.2061 109.973 73.0596 109.892L69.8762 108.143C70.3131 106.048 70.0977 103.988 69.2331 101.966C68.3674 99.9419 66.9101 98.3678 64.8614 97.2422C62.9949 96.2166 61.0953 95.6845 59.1631 95.6483C57.2309 95.6096 55.3164 96.1891 53.4197 97.3873C52.4614 98.0042 51.4267 98.674 50.3152 99.3976C49.2033 100.12 48.3707 100.638 47.8166 100.954C46.8182 101.573 45.9094 101.873 45.0906 101.857C46.1615 102.669 46.8127 103.824 47.9051 104.637C48.8262 105.323 49.6991 106.057 50.5585 106.805C50.5699 106.798 50.5812 106.793 50.5922 106.785L56.0517 103.263C57.2562 102.543 58.2903 102.158 59.151 102.108C60.0123 102.057 60.9006 102.283 61.8158 102.785C62.7671 103.308 63.4147 104.081 63.7574 105.103C64.1006 106.125 64.0213 107.094 63.5186 108.009C63.0361 108.888 62.2893 109.488 61.2768 109.815C60.2644 110.139 59.2275 110.01 58.1668 109.427L54.4588 107.462C54.3492 107.401 54.2643 107.426 54.2042 107.536L53.5447 108.736C54.46 109.57 55.3777 110.403 56.3273 111.207C58.1389 112.74 59.8398 114.415 61.6299 115.977C63.6978 115.64 65.4684 114.784 66.9264 113.382L70.1649 115.161C70.3113 115.242 70.4355 115.19 70.5355 115.008L73.1592 110.233Z" fill="url(#paint5_linear_1045_1123)"/>
<path opacity="0.4" d="M67.5645 49.3689C72.636 50.7817 75.6023 56.038 74.1896 61.1096C72.7769 66.1809 67.5204 69.1472 62.449 67.7347C57.3774 66.3222 54.4114 61.0656 55.8238 55.9941C57.2365 50.9224 62.4928 47.9563 67.5645 49.3689ZM72.7448 60.7071C73.9351 56.4337 71.4355 52.0043 67.162 50.8137C62.8884 49.6234 58.4591 52.1229 57.2686 56.3965C56.0786 60.67 58.5779 65.0996 62.8514 66.2899C67.1248 67.4801 71.5543 64.9805 72.7448 60.7071Z" fill="url(#paint6_linear_1045_1123)"/>
<path opacity="0.4" d="M83.5355 103.719C87.1031 105.877 88.9527 110.218 87.7789 114.433C87.0726 116.968 85.4042 118.978 83.2807 120.176L82.9121 119.524L82.544 118.87C84.3352 117.86 85.7387 116.167 86.334 114.03C87.3227 110.48 85.7654 106.821 82.7585 105.002L83.5355 103.719Z" fill="url(#paint7_linear_1045_1123)"/>
</g>
<defs>
<filter id="filter0_f_1045_1123" x="-3.99963" y="0" width="179.502" height="161.832" filterUnits="userSpaceOnUse" color-interpolation-filters="sRGB">
<feFlood flood-opacity="0" result="BackgroundImageFix"/>
<feBlend mode="normal" in="SourceGraphic" in2="BackgroundImageFix" result="shape"/>
<feGaussianBlur stdDeviation="2" result="effect1_foregroundBlur_1045_1123"/>
</filter>
<linearGradient id="paint0_linear_1045_1123" x1="92.1417" y1="30.8619" x2="44.4269" y2="109.646" gradientUnits="userSpaceOnUse">
<stop stop-color="#141A21"/>
<stop offset="1" stop-color="#FFF7E1" stop-opacity="0.1"/>
</linearGradient>
<linearGradient id="paint1_linear_1045_1123" x1="88.2876" y1="32.2889" x2="42.779" y2="107.43" gradientUnits="userSpaceOnUse">
<stop stop-color="#141A21"/>
<stop offset="1" stop-color="#FFF7E1" stop-opacity="0.1"/>
</linearGradient>
<linearGradient id="paint2_linear_1045_1123" x1="113.171" y1="111.042" x2="95.2674" y2="140.604" gradientUnits="userSpaceOnUse">
<stop stop-color="#141A21"/>
<stop offset="1" stop-color="#FFF7E1" stop-opacity="0.1"/>
</linearGradient>
<linearGradient id="paint3_linear_1045_1123" x1="109.761" y1="112.833" x2="95.1248" y2="137" gradientUnits="userSpaceOnUse">
<stop stop-color="#141A21"/>
<stop offset="1" stop-color="#FFF7E1" stop-opacity="0.1"/>
</linearGradient>
<linearGradient id="paint4_linear_1045_1123" x1="46.0623" y1="86.6178" x2="39.3116" y2="97.7642" gradientUnits="userSpaceOnUse">
<stop stop-color="#141A21"/>
<stop offset="1" stop-color="#FFF7E1" stop-opacity="0.1"/>
</linearGradient>
<linearGradient id="paint5_linear_1045_1123" x1="64.6688" y1="97.1132" x2="55.4944" y2="112.261" gradientUnits="userSpaceOnUse">
<stop stop-color="#141A21"/>
<stop offset="1" stop-color="#FFF7E1" stop-opacity="0.1"/>
</linearGradient>
<linearGradient id="paint6_linear_1045_1123" x1="69.9461" y1="50.3961" x2="60.0672" y2="66.7075" gradientUnits="userSpaceOnUse">
<stop stop-color="#141A21"/>
<stop offset="1" stop-color="#FFF7E1" stop-opacity="0.1"/>
</linearGradient>
<linearGradient id="paint7_linear_1045_1123" x1="87.6133" y1="106.189" x2="80.2525" y2="118.342" gradientUnits="userSpaceOnUse">
<stop stop-color="#141A21"/>
<stop offset="1" stop-color="#FFF7E1" stop-opacity="0.1"/>
</linearGradient>
<clipPath id="clip0_1045_1123">
<rect width="144.635" height="92.2486" fill="white" transform="translate(47.7885 4) rotate(31.2009)"/>
</clipPath>
</defs>
</svg>
