<svg width="94" height="162" viewBox="0 0 94 162" fill="none" xmlns="http://www.w3.org/2000/svg">
<path opacity="0.4" d="M51.0557 0.591898C51.7345 -0.125753 52.8541 -0.205295 53.6221 0.432718C55.9002 2.32552 62.5797 8.06304 69.8145 16.0421C77.0425 24.0137 84.8628 34.2642 89.3799 45.1876C92.7515 53.3409 94.3009 61.9233 92.3418 70.2179C91.685 74.4678 90.5537 78.9713 89.0615 83.6241C89.0577 83.6355 89.0543 83.647 89.0498 83.6583C85.4068 95.0061 79.6158 107.237 73.2822 118.814C73.2565 118.861 73.2299 118.907 73.2041 118.954C71.7788 121.771 70.1147 124.676 68.3301 127.565C60.7819 140.493 53.0261 152.077 47.5176 159.957C45.5066 162.834 40.9636 160.938 41.6319 157.475C46.7833 130.798 39.8498 114.639 37.1494 109.629C36.4324 108.298 37.1186 106.635 38.5879 106.224L44.377 104.605C44.3434 104.522 44.3096 104.432 44.2696 104.337C43.9862 103.662 43.5389 102.663 42.8887 101.382C41.5883 98.8193 39.4753 95.1272 36.2383 90.6407C29.7649 81.6687 18.7897 69.5131 0.804707 56.8605C-0.12504 56.2063 -0.284288 54.8678 0.511738 54.0265L51.0557 0.591898ZM88.9522 78.7384C85.2873 85.1106 79.0634 91.0765 69.5176 96.3243L69.5186 96.3253C69.3158 96.4743 69.2083 96.6475 69.1543 96.8253L69.0694 97.1026L68.8213 97.2521C67.2054 98.2174 65.5328 99.1514 63.7207 99.8751C61.7987 100.643 59.8223 101.437 57.7979 102.071L57.4883 102.168L57.2051 102.009C57.1883 101.999 57.1721 101.989 57.1553 101.98C53.6105 103.335 49.7602 104.619 45.585 105.824L45.5791 105.826L38.9922 107.669C38.4619 107.817 38.2029 108.421 38.4707 108.918C41.3096 114.185 48.331 130.693 43.1045 157.759C42.7462 159.616 45.1951 160.661 46.2881 159.098C48.3361 156.168 50.6938 152.725 53.2363 148.894C52.3749 149.992 51.574 151.001 50.8516 151.899C50.6416 152.159 50.284 152.249 49.9756 152.119C49.6671 151.989 49.4829 151.669 49.5235 151.337C49.6267 150.489 48.5523 150.06 48.0401 150.705C47.8307 150.969 47.4705 151.062 47.1602 150.931C46.8499 150.8 46.665 150.478 46.708 150.144C48.6017 135.475 45.273 119.58 43.7344 113.364C43.6379 112.975 43.8659 112.578 44.251 112.465C45.3395 112.144 45.9751 111.035 45.7002 109.942C45.6018 109.55 45.8312 109.151 46.2188 109.038C50.1991 107.882 58.1118 105.301 66.2725 101.027C74.4188 96.7618 82.7302 90.8506 87.667 83.0626C88.1333 81.6041 88.5624 80.1615 88.9522 78.7384ZM86.044 87.8097C80.8939 93.9798 73.8135 98.772 66.9678 102.357C59.0936 106.48 51.4592 109.045 47.2608 110.294C47.324 111.683 46.5714 112.985 45.3418 113.632C46.8942 120.066 49.8609 134.84 48.3633 148.903C49.2009 148.795 50.0663 149.165 50.5762 149.84C54.9701 144.325 61.5897 135.62 67.0459 126.789C67.4082 126.169 67.7698 125.545 68.1309 124.918C66.4912 124.331 64.9958 123.279 63.8633 121.79C60.7492 117.696 61.5441 111.851 65.6387 108.737C69.0383 106.152 73.6409 106.263 76.8887 108.717C80.4083 101.701 83.569 94.6252 86.044 87.8097ZM76.1983 110.08C73.4651 107.861 69.4732 107.706 66.5469 109.932C63.1117 112.544 62.445 117.447 65.0576 120.882C66.0665 122.208 67.4158 123.121 68.8906 123.593C69.9257 121.779 70.9542 119.945 71.9668 118.094C73.4149 115.447 74.8303 112.769 76.1983 110.08ZM52.6631 1.58701C52.5118 1.46131 52.2881 1.47152 52.1455 1.62217L1.60158 55.0577C1.449 55.2193 1.46865 55.4937 1.66799 55.6339C19.7906 68.3834 30.8852 80.657 37.4551 89.7628C40.7396 94.3151 42.8925 98.0743 44.2266 100.703C44.8934 102.017 45.3555 103.049 45.6524 103.756C45.7202 103.917 45.7762 104.063 45.8272 104.191C46.458 104.006 47.0811 103.819 47.6963 103.631C44.0669 96.1845 32.5385 76.5054 7.58889 57.6837L6.91896 57.1778L7.49611 56.5685C8.47828 55.5334 8.34059 53.8681 7.20021 53.005L6.53322 52.4991L50.4453 6.07627L50.9893 6.56455C51.9638 7.44032 53.4498 7.38016 54.3438 6.42979L54.8477 5.89463L55.3936 6.3878C61.0817 11.5285 71.0242 21.3492 78.6885 34.1212C85.6925 45.7928 90.8264 59.9885 89.0078 75.3536C93.3311 65.8372 92.058 55.5906 87.9932 45.7608C83.5713 35.0678 75.8813 24.9655 68.7031 17.0489C61.5316 9.13968 54.9086 3.45277 52.6631 1.58701ZM54.877 7.94737C53.6109 8.86306 51.9122 8.92845 50.5772 8.11827L8.71193 52.378C9.8074 53.6511 9.96203 55.505 9.08889 56.9405C34.0745 75.9646 45.5708 95.7753 49.1446 103.18C50.0996 102.877 51.0353 102.57 51.9522 102.259L49.4004 98.5636C49.2898 98.4031 49.1672 98.1396 49.2256 97.8175C49.2842 97.4947 49.4919 97.2912 49.6533 97.1798L52.1231 95.4747C51.5876 93.4668 51.6695 91.4258 52.3623 89.3692C53.121 87.1184 54.4963 85.3034 56.4707 83.9405L58.3799 82.6222C58.5418 82.5104 58.8045 82.3901 59.125 82.4483C59.4461 82.5068 59.65 82.7127 59.7627 82.8761L62.9199 87.4493C63.0594 87.6516 63.1472 87.9453 63.041 88.2618C62.9732 88.4638 62.8483 88.6067 62.7363 88.7022L62.6319 88.7823L60.7217 90.1007C60.1027 90.5282 59.6873 91.0918 59.4678 91.8224L59.3858 92.1466C59.1989 93.0332 59.3459 93.774 59.7979 94.4288C60.2769 95.1227 60.9161 95.5123 61.7656 95.6212C62.6589 95.7343 63.3998 95.5571 64.0371 95.1173C64.7608 94.6177 65.1792 93.6829 65.0274 92.004L65.0254 91.9767C64.993 91.3783 64.9057 90.4433 64.7617 89.1612C64.616 87.8755 64.4839 86.6789 64.3643 85.5733V85.5675C64.1352 83.2684 64.4813 81.1938 65.4375 79.3761C66.3164 77.701 67.5842 76.2667 69.2207 75.0714L69.5537 74.8351C71.5583 73.4513 73.732 72.8147 76.0528 72.9542C78.1504 73.0807 80.0363 73.7353 81.6914 74.9161L84.1631 73.2101C84.3251 73.0981 84.5879 72.9776 84.9082 73.0353C85.2298 73.0933 85.434 73.2993 85.5469 73.463L87.3955 76.1407C89.4972 60.8507 84.4554 46.6459 77.4024 34.8927C70.0619 22.6604 60.5819 13.1523 54.877 7.94737ZM75.9619 74.4522C73.9974 74.3342 72.1523 74.8643 70.4053 76.0704C68.8872 77.1184 67.7314 78.3572 66.9229 79.7853L66.7656 80.0743C65.9679 81.5908 65.6521 83.3603 65.8555 85.4122L66.253 88.9933C66.3955 90.2625 66.4856 91.2245 66.5215 91.8683L66.5469 92.2306C66.6373 94.0179 66.1574 95.4775 64.8897 96.3526C63.9184 97.0228 62.7972 97.2644 61.5752 97.1095L61.5742 97.1085C60.3067 96.946 59.2868 96.329 58.5635 95.2813C57.8587 94.2603 57.6526 93.0933 57.917 91.838C58.1802 90.5848 58.8346 89.5812 59.8701 88.8663L61.3633 87.8351L58.8154 84.1437L57.3223 85.1749C55.6106 86.3565 54.4371 87.9088 53.7832 89.8487C53.1266 91.7981 53.1062 93.6919 53.708 95.5548L53.8799 96.0851L53.4209 96.4024L50.9219 98.1261L53.3203 101.602C53.4282 101.584 53.537 101.565 53.6475 101.546L55.9492 99.9581L56.3965 99.6485L56.8301 99.9786C56.9849 100.096 57.1435 100.207 57.3047 100.314C61.5657 98.655 65.3557 96.8965 68.7149 95.0548C69.5589 94.4368 70.413 93.8332 71.2666 93.2364C71.2806 92.7057 71.267 92.1687 71.2051 91.6153L71.2041 91.6056L70.6367 85.837L70.6348 85.8194C70.5286 84.4007 70.6394 83.1917 71.0401 82.2599C71.438 81.3319 72.1283 80.5528 73.0576 79.9112C74.0821 79.2044 75.2277 78.9303 76.4571 79.1046L76.6865 79.1427C77.8211 79.3568 78.7403 79.9453 79.3985 80.8985C80.0701 81.871 80.3029 82.9805 80.1182 84.1817V84.1837C79.923 85.4361 79.2265 86.4516 78.1162 87.2208L75.2354 89.2726L75.7627 90.0362C77.036 89.1019 78.2773 88.149 79.4492 87.1173C81.1823 85.5914 82.8576 83.9691 84.4287 82.2804C84.4569 82.25 84.4845 82.2164 84.5166 82.1778C84.4533 81.75 84.3659 81.3321 84.2383 80.922L84.0742 80.3956L87.043 78.3458C87.0467 78.3256 87.0501 78.3054 87.0537 78.2853L84.5996 74.7315L82.1006 76.4571L81.6436 76.7716L81.209 76.4278C79.6975 75.2306 77.9544 74.5723 75.9619 74.4522ZM76.2471 80.5899C75.5007 80.4841 74.8197 80.61 74.1807 80.9747L73.9092 81.1456C73.1628 81.6609 72.683 82.2332 72.418 82.8517C72.1544 83.4648 72.0328 84.3963 72.1309 85.7071L72.6963 91.4483L72.7461 92.0245C72.76 92.2396 72.7673 92.4518 72.7705 92.6612C73.4748 92.2128 74.1563 91.7604 74.8155 91.3038L73.6846 89.6661C73.5843 89.5208 73.4673 89.2729 73.5235 88.9659C73.5786 88.6648 73.7691 88.4758 73.9131 88.3741L77.2461 86.0001L77.2559 85.9933L77.4063 85.8849C78.1355 85.3371 78.5201 84.695 78.6358 83.9522C78.7659 83.1038 78.603 82.3865 78.1641 81.7511C77.766 81.1745 77.2413 80.8095 76.5528 80.6476L76.2471 80.5899ZM74.7832 89.5958L74.7754 89.6026C74.7791 89.6001 74.7823 89.5956 74.7871 89.5919L74.7832 89.5958ZM34.9707 47.1983C36.6133 42.3237 41.8968 39.7033 46.7715 41.3458C51.6461 42.9884 54.2664 48.2719 52.624 53.1466C50.9815 58.0213 45.698 60.6415 40.8233 58.9991C35.9484 57.3566 33.3282 52.0732 34.9707 47.1983ZM46.292 42.7677C42.2022 41.3897 37.7696 43.5881 36.3916 47.6778C35.0139 51.7675 37.2121 56.2003 41.3018 57.5782C45.3914 58.9562 49.824 56.7576 51.2022 52.6681C52.5802 48.5783 50.3818 44.1457 46.292 42.7677Z" fill="url(#paint0_linear_1045_1284)"/>
<defs>
<linearGradient id="paint0_linear_1045_1284" x1="54.5442" y1="3.64373e-07" x2="46.6016" y2="161.362" gradientUnits="userSpaceOnUse">
<stop stop-color="#FFF7E1" stop-opacity="0.1"/>
<stop offset="1" stop-color="#0D1116"/>
</linearGradient>
</defs>
</svg>
