<svg width="51" height="51" viewBox="0 0 51 51" fill="none" xmlns="http://www.w3.org/2000/svg">
<g clip-path="url(#clip0_1321_1196)">
<path d="M11.871 50.1082L10.4351 49.2726C9.86815 48.9428 9.51804 48.2443 9.51614 47.2493L9.43652 20.7478L16.4437 21.182L13.294 48.3561C13.2959 49.351 11.3059 49.7784 11.871 50.1082Z" fill="#546577"/>
<path d="M10.8853 26.3029L42.3999 8.10791L42.4662 29.8899C42.4718 31.8907 41.0652 34.3271 39.3239 35.3325L14.1132 49.8879C12.3731 50.8925 10.9572 50.0857 10.9515 48.0849L10.8853 26.3029Z" fill="#202931"/>
<path d="M41.4674 1.36773C41.5772 2.97494 41.477 7.08844 39.7425 5.15543L16.4901 17.7389C14.7504 18.7431 14.4001 19.8159 14.4057 21.815L10.8854 26.3024L9.44949 25.4687L9.43655 20.7478C9.42913 18.7487 10.8373 16.3123 12.577 15.308L37.7878 0.752607C38.6642 0.246801 39.4571 0.200482 40.0315 0.532126L41.4674 1.36773Z" fill="#35414D"/>
<path d="M39.2239 1.58746C40.9652 0.582126 42.3811 1.38899 42.3867 3.38849L42.4001 8.10793L10.8855 26.3029L10.8721 21.5835C10.8664 19.584 12.2731 17.1475 14.0132 16.1429L39.2239 1.58746Z" fill="#181E25"/>
<path d="M14.3084 19.5226C14.8851 19.1896 15.3578 19.4496 15.3597 20.1123C15.3615 20.7751 14.8919 21.5885 14.3152 21.9215C13.7424 22.2521 13.2739 21.9804 13.272 21.3177C13.2701 20.6549 13.7356 19.8532 14.3084 19.5226Z" fill="#7289A0"/>
<path d="M17.6604 17.583C18.2372 17.25 18.7098 17.51 18.7117 18.1728C18.7136 18.8355 18.244 19.6489 17.6672 19.9819C17.0945 20.3126 16.6259 20.0408 16.624 19.3781C16.6222 18.7154 17.0877 17.9137 17.6604 17.583Z" fill="#7289A0"/>
<path d="M21.0129 15.6434C21.5897 15.3104 22.0624 15.5705 22.0642 16.2332C22.0661 16.8959 21.5965 17.7093 21.0197 18.0423C20.447 18.373 19.9784 18.1013 19.9766 17.4385C19.9747 16.7758 20.4402 15.9741 21.0129 15.6434Z" fill="#7289A0"/>
<path d="M21.818 35.4477C21.8587 35.5348 21.8781 35.6164 21.8783 35.6892C21.8788 35.8636 21.8293 36.0403 21.7297 36.2172C21.6302 36.3941 21.5016 36.528 21.3403 36.6211C21.2288 36.6854 21.1269 36.7111 21.0345 36.6959C20.9421 36.6785 20.8727 36.6257 20.8243 36.5321L20.0382 34.8324L15.9557 37.1892L15.1819 39.7894C15.1342 39.9385 15.0653 40.0711 14.9732 40.195C14.8812 40.3167 14.7795 40.4086 14.6681 40.4729C14.5067 40.5661 14.3778 40.5808 14.2776 40.5192C14.1754 40.4588 14.125 40.3398 14.1245 40.1654C14.1243 40.0926 14.1452 39.9876 14.1852 39.854L17.2221 29.7856C17.285 29.5834 17.3749 29.3966 17.4899 29.2241C17.6068 29.0505 17.7488 28.9155 17.9159 28.819L18.037 28.7491C18.2041 28.6526 18.3465 28.6235 18.4639 28.6618C18.5795 28.7013 18.6702 28.7838 18.734 28.9127L21.818 35.4477ZM16.3732 35.8007L19.6142 33.9297L17.9801 30.3849L16.3732 35.8007Z" fill="#162830"/>
<path d="M30.3341 24.2193C30.657 24.7692 30.8187 25.4497 30.821 26.2598C30.8233 27.0676 30.666 27.9323 30.3473 28.8525C30.0304 29.7739 29.5537 30.6482 28.9192 31.481C28.2846 32.3117 27.511 32.9904 26.5984 33.5172L24.1855 34.9102C24.0337 34.9978 23.9048 35.0125 23.8007 34.9532C23.6967 34.8939 23.6443 34.776 23.6439 34.6016L23.6201 26.2314C23.6196 26.0571 23.6711 25.877 23.7745 25.6935C23.8779 25.5078 24.0064 25.3717 24.1582 25.2841L26.5711 23.8911C27.4837 23.3643 28.2586 23.1491 28.8958 23.2478C29.533 23.3442 30.0131 23.6684 30.3341 24.2193ZM29.3374 29.0154C29.6087 28.3105 29.7433 27.6004 29.7413 26.8831C29.7392 26.1657 29.6011 25.6131 29.3267 25.2232C29.0542 24.8322 28.6688 24.6258 28.1723 24.6051C27.6738 24.5833 27.097 24.7615 26.4419 25.1397L24.7129 26.1379L24.7335 33.4198L26.4626 32.4216C27.1177 32.0435 27.6936 31.5562 28.1903 30.9622C28.6851 30.367 29.0681 29.7192 29.3374 29.0154Z" fill="#162830"/>
<path d="M35.2714 18.7313C36.1533 18.2223 36.9491 17.9132 37.6626 17.8064C37.8858 17.7704 37.9997 17.8882 38.0005 18.1641C38.0009 18.312 37.9571 18.4699 37.869 18.6401C37.781 18.8104 37.6659 18.9365 37.5218 19.0197C37.4738 19.0474 37.4084 19.0674 37.3295 19.0754C36.7044 19.1886 36.0586 19.4377 35.3958 19.8203C34.7637 20.1851 34.2492 20.6192 33.8542 21.1236C33.4593 21.628 33.2625 22.1285 33.2639 22.6252C33.2648 22.9563 33.3597 23.1712 33.5486 23.2678C33.7355 23.3677 33.9723 23.3924 34.2569 23.3431C34.5416 23.2937 34.9281 23.1922 35.4164 23.0407C36.049 22.8502 36.5605 22.7296 36.9491 22.6799C37.3377 22.6303 37.6708 22.7099 37.9466 22.9199C38.2243 23.1266 38.364 23.5434 38.3658 24.1681C38.3672 24.6846 38.2398 25.2203 37.9854 25.7761C37.7292 26.3353 37.3708 26.8605 36.9085 27.3574C36.4442 27.8576 35.9085 28.2818 35.2995 28.6333C34.2832 29.22 33.3317 29.5483 32.4409 29.6203C32.3447 29.6294 32.2657 29.5998 32.2001 29.5316C32.1364 29.4622 32.1053 29.3674 32.105 29.2482C32.1045 29.0915 32.1483 28.9291 32.2403 28.7611C32.3321 28.5931 32.4511 28.4669 32.5952 28.3837C32.6739 28.3383 32.7509 28.3138 32.8221 28.3081C33.5608 28.2597 34.3491 27.9925 35.1886 27.5079C36.5891 26.6994 37.2888 25.767 37.2858 24.7097C37.285 24.4338 37.1941 24.2564 37.013 24.1752C36.8319 24.0963 36.6105 24.0803 36.3451 24.1274C36.0816 24.1734 35.7047 24.265 35.2163 24.3988C34.5683 24.5783 34.0433 24.6957 33.6413 24.7487C33.2412 24.8006 32.8966 24.7298 32.6074 24.5363C32.3182 24.3451 32.1728 23.9493 32.1711 23.3533C32.1696 22.828 32.2892 22.2836 32.5282 21.7167C32.7671 21.1498 33.1196 20.6059 33.5877 20.0836C34.0538 19.5603 34.6163 19.1095 35.2714 18.7313Z" fill="#162830"/>
<path d="M22.6793 35.5191C22.72 35.6062 22.7394 35.6878 22.7396 35.7607C22.7401 35.935 22.6906 36.1117 22.5911 36.2886C22.4915 36.4655 22.3629 36.5994 22.2016 36.6925C22.0902 36.7569 21.9882 36.7825 21.8958 36.7674C21.8034 36.7499 21.734 36.6972 21.6856 36.6035L20.8995 34.9039L16.817 37.2606L16.0432 39.8608C15.9955 40.0099 15.9266 40.1426 15.8345 40.2664C15.7425 40.3881 15.6408 40.48 15.5294 40.5443C15.368 40.6375 15.2391 40.6522 15.1389 40.5906C15.0367 40.5302 14.9863 40.4112 14.9858 40.2368C14.9856 40.164 15.0065 40.059 15.0466 39.9254L18.0834 29.857C18.1464 29.6548 18.2362 29.4681 18.3512 29.2955C18.4681 29.1219 18.6101 28.9869 18.7773 28.8904L18.8983 28.8205C19.0655 28.724 19.2078 28.6949 19.3252 28.7333C19.4408 28.7727 19.5315 28.8552 19.5954 28.9841L22.6793 35.5191ZM17.2346 35.8721L20.4755 34.0011L18.8414 30.4563L17.2346 35.8721Z" fill="#FF492C"/>
<path d="M31.1955 24.2908C31.5184 24.8406 31.68 25.5211 31.6823 26.3312C31.6846 27.139 31.5273 28.0037 31.2086 28.9239C30.8917 29.8453 30.4151 30.7196 29.7805 31.5525C29.1459 32.3831 28.3723 33.0618 27.4598 33.5886L25.0468 34.9816C24.895 35.0692 24.7661 35.0839 24.662 35.0246C24.558 34.9653 24.5057 34.8474 24.5052 34.673L24.4814 26.3028C24.481 26.1285 24.5324 25.9484 24.6358 25.7649C24.7392 25.5792 24.8677 25.4431 25.0195 25.3555L27.4325 23.9625C28.3451 23.4357 29.1199 23.2205 29.7571 23.3192C30.3944 23.4156 30.8744 23.7398 31.1955 24.2908ZM30.1988 29.0868C30.47 28.3819 30.6046 27.6719 30.6026 26.9545C30.6006 26.2371 30.4624 25.6845 30.188 25.2946C29.9156 24.9036 29.5301 24.6972 29.0336 24.6765C28.5352 24.6547 27.9583 24.8329 27.3033 25.2111L25.5742 26.2093L25.5948 33.4912L27.3239 32.493C27.979 32.1149 28.5549 31.6276 29.0516 31.0336C29.5464 30.4384 29.9294 29.7906 30.1988 29.0868Z" fill="#FF492C"/>
<path d="M36.1328 18.8027C37.0146 18.2937 37.8104 17.9846 38.524 17.8778C38.7471 17.8418 38.861 17.9596 38.8618 18.2355C38.8622 18.3834 38.8184 18.5413 38.7303 18.7115C38.6423 18.8818 38.5272 19.0079 38.3831 19.0911C38.3351 19.1188 38.2697 19.1388 38.1908 19.1468C37.5657 19.26 36.9199 19.5091 36.2571 19.8917C35.6251 20.2566 35.1106 20.6907 34.7156 21.195C34.3206 21.6994 34.1238 22.1999 34.1252 22.6966C34.1262 23.0277 34.221 23.2426 34.4099 23.3392C34.5969 23.4391 34.8336 23.4638 35.1183 23.4145C35.4029 23.3651 35.7894 23.2636 36.2778 23.1121C36.9103 22.9216 37.4218 22.801 37.8104 22.7513C38.199 22.7017 38.5321 22.7813 38.8079 22.9914C39.0856 23.198 39.2253 23.6148 39.2271 24.2395C39.2286 24.756 39.1011 25.2917 38.8468 25.8475C38.5905 26.4067 38.2322 26.9319 37.7698 27.4288C37.3055 27.929 36.7698 28.3532 36.1608 28.7048C35.1445 29.2914 34.193 29.6197 33.3022 29.6917C33.2061 29.7008 33.127 29.6712 33.0614 29.603C32.9977 29.5336 32.9666 29.4388 32.9663 29.3196C32.9659 29.1629 33.0097 29.0005 33.1016 28.8325C33.1935 28.6645 33.3124 28.5383 33.4565 28.4552C33.5353 28.4097 33.6122 28.3852 33.6834 28.3795C34.4221 28.3311 35.2104 28.064 36.0499 27.5793C37.4504 26.7708 38.1501 25.8385 38.1471 24.7812C38.1464 24.5052 38.0554 24.3278 37.8743 24.2466C37.6932 24.1677 37.4719 24.1517 37.2065 24.1988C36.9429 24.2448 36.566 24.3364 36.0777 24.4702C35.4297 24.6497 34.9046 24.7671 34.5026 24.8201C34.1025 24.872 33.7579 24.8012 33.4687 24.6078C33.1795 24.4165 33.0341 24.0207 33.0324 23.4247C33.0309 22.8994 33.1506 22.355 33.3895 21.7881C33.6284 21.2213 33.981 20.6773 34.449 20.155C34.9151 19.6317 35.4777 19.1809 36.1328 18.8027Z" fill="#FF492C"/>
</g>
<defs>
<clipPath id="clip0_1321_1196">
<rect width="50" height="50" fill="white" transform="translate(0.951172 0.32019)"/>
</clipPath>
</defs>
</svg>
