<svg width="51" height="51" viewBox="0 0 51 51" fill="none" xmlns="http://www.w3.org/2000/svg">
<g clip-path="url(#clip0_1321_1787)">
<path d="M34.5846 41.5259C34.3638 41.5259 34.1843 41.3472 34.1837 41.1263L34.1602 33.88C34.1595 33.6584 34.3383 33.4783 34.5598 33.4777H34.5611C34.782 33.4777 34.9614 33.6563 34.9621 33.8773L34.9856 41.1236C34.9862 41.3451 34.8072 41.5252 34.586 41.5259C34.5855 41.5259 34.5851 41.5259 34.5846 41.5259Z" fill="#7289A0"/>
<path d="M30.6642 43.7894C30.4434 43.7894 30.2639 43.6108 30.2632 43.3898L30.2397 36.1434C30.2391 35.9219 30.4179 35.7418 30.6394 35.7411H30.6407C30.8615 35.7411 31.041 35.9198 31.0417 36.1407L31.0652 43.3871C31.0658 43.6086 30.8868 43.7888 30.6655 43.7894C30.6651 43.7894 30.6646 43.7894 30.6642 43.7894Z" fill="#7289A0"/>
<path d="M26.7438 46.053C26.5229 46.053 26.3435 45.8743 26.3428 45.6534L26.3193 38.4069C26.3187 38.1854 26.4974 38.0053 26.719 38.0046H26.7203C26.9411 38.0046 27.1206 38.1833 27.1213 38.4043L27.1447 45.6507C27.1454 45.8722 26.9664 46.0523 26.7451 46.053C26.7447 46.053 26.7442 46.053 26.7438 46.053Z" fill="#7289A0"/>
<path d="M22.8231 48.3164C22.6023 48.3164 22.4228 48.1377 22.4222 47.9168L22.3984 40.6704C22.3978 40.4489 22.5765 40.2688 22.7981 40.2681H22.7994C23.0202 40.2681 23.1997 40.4467 23.2004 40.6677L23.2241 47.9141C23.2247 48.1356 23.046 48.3156 22.8245 48.3164C22.824 48.3164 22.8236 48.3164 22.8231 48.3164Z" fill="#7289A0"/>
<path d="M18.9027 50.58C18.6819 50.58 18.5024 50.4013 18.5017 50.1804L18.478 42.9339C18.4774 42.7124 18.6561 42.5324 18.8776 42.5316H18.879C19.0998 42.5316 19.2793 42.7103 19.2799 42.9312L19.3037 50.1777C19.3043 50.3992 19.1256 50.5792 18.904 50.58H18.9027Z" fill="#7289A0"/>
<path d="M26.9689 19.3847C26.8302 19.3847 26.6955 19.3128 26.6212 19.1841C26.5104 18.9924 26.5762 18.7471 26.768 18.6364L43.3773 9.04708C43.5692 8.93654 43.8145 9.00221 43.925 9.19385C44.0357 9.38561 43.97 9.63084 43.7782 9.74159L27.1689 19.3309C27.1058 19.3674 27.0369 19.3847 26.9689 19.3847Z" fill="#7289A0"/>
<path d="M27.1129 23.7355C26.9742 23.7355 26.8395 23.6636 26.7652 23.5349C26.6545 23.3432 26.7202 23.098 26.912 22.9872L43.5211 13.3979C43.7128 13.2874 43.9581 13.353 44.0688 13.5447C44.1796 13.7364 44.1138 13.9817 43.922 14.0924L27.313 23.6817C27.2499 23.7182 27.1809 23.7355 27.1129 23.7355Z" fill="#7289A0"/>
<path d="M27.257 28.0863C27.1182 28.0863 26.9835 28.0143 26.9093 27.8857C26.7985 27.6939 26.8643 27.4487 27.056 27.3379L43.6651 17.7486C43.8571 17.6381 44.1023 17.7037 44.2129 17.8954C44.3236 18.0872 44.2578 18.3324 44.0661 18.4432L27.457 28.0325C27.3939 28.0689 27.325 28.0863 27.257 28.0863Z" fill="#7289A0"/>
<path d="M27.4005 32.4371C27.2618 32.4371 27.1271 32.3652 27.0528 32.2365C26.9421 32.0448 27.0078 31.7995 27.1996 31.6888L43.8087 22.0995C44.0011 21.9889 44.2461 22.0545 44.3564 22.2462C44.4672 22.438 44.4014 22.6832 44.2096 22.794L27.6006 32.3833C27.5375 32.4198 27.4685 32.4371 27.4005 32.4371Z" fill="#7289A0"/>
<path d="M27.5446 36.7879C27.4058 36.7879 27.2711 36.716 27.1969 36.5873C27.0861 36.3956 27.1519 36.1504 27.3436 36.0396L43.9527 26.4503C44.1447 26.3398 44.3899 26.4053 44.5005 26.5971C44.6112 26.7888 44.5454 27.0341 44.3537 27.1448L27.7446 36.7341C27.6815 36.7706 27.6126 36.7879 27.5446 36.7879Z" fill="#7289A0"/>
<path d="M36.4618 6.93974C35.7388 6.5196 34.7377 6.57878 33.6327 7.2167L17.0236 16.806C14.8279 18.0737 13.0549 21.1463 13.062 23.6694L13.1162 42.7546C13.1198 44.0074 13.5621 44.8892 14.2756 45.3039L16.6979 46.7115C15.9843 46.2968 20.043 42.2341 20.0394 40.9813L21.8724 24.0265C21.8653 21.5034 22.1258 20.6921 24.3215 19.4244L34.5503 21.9644C37.8244 25.6052 39.8508 11.2603 38.8841 8.34739L36.4618 6.93974Z" fill="#546577"/>
<path d="M36.0546 8.6243C38.2503 7.35657 40.0364 8.37444 40.0435 10.8975L40.0976 29.9827C40.1048 32.504 38.3303 35.5775 36.1346 36.8452L19.5254 46.4345C17.3298 47.7022 15.5452 46.6835 15.538 44.1622L15.4839 25.077C15.4768 22.5539 17.2497 19.4813 19.4454 18.2136L36.0546 8.6243Z" fill="#202931"/>
<path d="M18.2334 25.0691C18.2292 23.5393 19.4862 21.3648 20.8202 20.5947L35.5965 12.0635C36.3525 11.627 37.2978 12.171 37.3003 13.044L37.3482 29.9903C37.3525 31.5193 36.0948 33.6935 34.7599 34.4641L19.9854 42.9943C19.2293 43.4308 18.284 42.8868 18.2815 42.0139L18.2334 25.0691Z" fill="#181E25"/>
<path d="M25.8412 32.5362C25.9144 32.4939 25.9877 32.4296 26.0532 32.3476L29.2002 28.4355L29.2043 29.8835C29.205 29.8982 29.1989 29.9161 29.189 29.931L26.5835 33.1704C26.2016 33.6442 25.7845 34.0056 25.3727 34.2433C24.5326 34.7284 23.7142 34.6996 23.2606 34.0649L23.2603 34.0651C22.9734 33.6644 22.8691 33.0609 22.965 32.3611C22.984 32.3632 23.018 32.3675 23.0417 32.3697L25.629 32.5926C25.6946 32.5988 25.7679 32.5785 25.8412 32.5362ZM28.4858 33.6149C27.9182 33.9425 27.3681 34.0315 26.9314 33.8649C26.9511 33.8414 26.9853 33.7998 27.0079 33.7708L29.5854 30.5661C29.7172 30.4039 29.7977 30.1954 29.7965 30.021L29.7847 25.8378L30.878 25.9319C30.8897 25.9319 30.8974 25.9405 30.8993 25.9541L30.9091 29.4186C30.9116 30.9599 29.8297 32.8356 28.4889 33.6131C28.4879 33.6136 28.4868 33.6143 28.4858 33.6149ZM27.7959 29.3915L26.389 29.2709L26.3837 27.4084L27.7854 25.6655L29.1923 25.786L29.1976 27.6494L27.7959 29.3915ZM31.5361 25.2006L28.3773 24.9291L29.467 23.5754C29.4734 23.5667 29.4808 23.5598 29.4883 23.5555C29.4935 23.5525 29.4987 23.5507 29.5038 23.5503L32.1192 23.775C33.2838 23.8754 33.687 25.3542 33.0193 27.0773C32.7367 27.8067 32.2908 28.4983 31.7585 29.031L31.7485 25.5007C31.7491 25.3257 31.6681 25.2113 31.5365 25.2004L31.5361 25.2006ZM26.0933 31.5015C26.0881 31.5045 26.0828 31.5064 26.0779 31.5068L23.4621 31.2807C22.2996 31.1785 21.8968 29.7025 22.5616 27.9807L22.562 27.9801C22.8442 27.25 23.2909 26.5585 23.8235 26.0255C23.8236 26.0511 23.8226 26.097 23.8227 26.1288L23.8324 29.5564C23.8318 29.7314 23.9136 29.8462 24.0455 29.8561L27.204 30.1274L26.1147 31.4818C26.1083 31.4904 26.1008 31.4972 26.0933 31.5015ZM26.3819 26.621L26.3777 25.1725C26.377 25.1583 26.3828 25.1402 26.393 25.1251L28.9986 21.8874C29.3801 21.4132 29.7972 21.0517 30.2091 20.8139C31.0496 20.3287 31.8685 20.3583 32.321 20.9956C32.6056 21.3962 32.7104 21.9976 32.616 22.6951C32.5969 22.6926 32.5638 22.6886 32.5399 22.687L29.9526 22.4642C29.8872 22.4578 29.8139 22.4781 29.7406 22.5205C29.6673 22.5628 29.594 22.6272 29.5284 22.7091L26.3819 26.621ZM25.7948 29.2194L24.7011 29.1254C24.6894 29.1259 24.6813 29.1175 24.6798 29.1033L24.67 25.6388C24.6663 24.096 25.7519 22.2174 27.0942 21.4432C27.6618 21.1156 28.2121 21.0275 28.6499 21.1928C28.6298 21.2166 28.596 21.258 28.5734 21.2869L25.9959 24.4913C25.8641 24.6538 25.7832 24.8617 25.7848 25.0359L25.7948 29.2185V29.2194ZM27.1103 20.4582C27.1035 20.4622 27.0968 20.466 27.09 20.47C27.0875 20.4715 27.0849 20.473 27.0824 20.4744C25.6655 21.2924 24.4124 23.0674 23.9806 24.8689C23.069 25.6102 22.2833 26.7212 21.8253 27.9172C21.1162 29.7409 21.2839 31.4266 22.2397 32.0876C21.9483 33.2722 22.0528 34.3256 22.526 34.9769C23.1203 35.8181 24.2121 35.8917 25.3645 35.2263C25.592 35.095 25.8216 34.935 26.0505 34.7463C26.6655 35.1864 27.5464 35.1325 28.4694 34.5996C28.4766 34.5955 28.4837 34.5913 28.4909 34.5871C28.4937 34.5855 28.4966 34.5838 28.4994 34.5822C29.9167 33.764 31.1701 31.9886 31.6018 30.1857C32.5134 29.4444 33.299 28.3334 33.7571 27.1374C34.4651 25.3143 34.2973 23.6299 33.3419 22.9687L33.3416 22.9698C33.6327 21.7853 33.5281 20.7324 33.055 20.0811C32.4607 19.24 31.3691 19.1661 30.217 19.8312C29.9895 19.9626 29.7597 20.1227 29.5308 20.3115C28.9148 19.8715 28.034 19.925 27.1103 20.4582Z" fill="#FF492C"/>
<path d="M33.5455 8.22869L33.522 0.982256C33.5213 0.760745 33.7001 0.580627 33.9216 0.579956H33.9229C34.1438 0.579956 34.3232 0.758619 34.3239 0.979571L34.3474 8.226C34.3484 8.53706 33.5465 8.53975 33.5455 8.22869Z" fill="#7289A0"/>
<path d="M29.6251 10.4921L29.6016 3.24581C29.6009 3.02429 29.7797 2.84418 30.0012 2.84351H30.0025C30.2234 2.84351 30.4028 3.02217 30.4035 3.24312L30.427 10.4894C30.4282 10.8374 29.6263 10.8401 29.6251 10.4921Z" fill="#7289A0"/>
<path d="M25.7046 12.7557L25.6812 5.50923C25.6805 5.28772 25.8593 5.1076 26.0808 5.10693H26.0821C26.303 5.10693 26.4824 5.2856 26.4831 5.50655L26.5066 12.753C26.5076 13.0488 25.7057 13.0515 25.7046 12.7557Z" fill="#7289A0"/>
<path d="M21.7845 15.0192L21.7607 7.77278C21.7601 7.55127 21.9388 7.37127 22.1604 7.37048H22.1617C22.3825 7.37048 22.562 7.54915 22.5627 7.7701L22.5864 15.0165C22.5876 15.3747 21.7857 15.3774 21.7845 15.0192Z" fill="#7289A0"/>
<path d="M17.8641 17.2826L17.8403 10.0362C17.8397 9.8147 18.0184 9.63469 18.2399 9.63391H18.2413C18.4621 9.63391 18.6416 9.81257 18.6422 10.0335L18.666 17.28C18.6672 17.6274 17.8653 17.6301 17.8641 17.2826Z" fill="#7289A0"/>
<path d="M14.2202 26.5834L7.94967 30.2028C7.88657 30.2393 7.81766 30.2566 7.74964 30.2566C7.61092 30.2566 7.47622 30.1847 7.40194 30.0561C7.29118 29.8643 7.35696 29.6191 7.54871 29.5083L13.9137 25.8335C14.3431 25.681 14.6131 26.404 14.2202 26.5834Z" fill="#7289A0"/>
<path d="M14.4165 30.9178L8.14596 34.5373C8.08286 34.5738 8.01395 34.5911 7.94593 34.5911C7.80721 34.5911 7.67251 34.5192 7.59822 34.3905C7.48747 34.1988 7.55325 33.9535 7.745 33.8428L14.11 30.1679C14.5394 30.0154 14.8094 30.7385 14.4165 30.9178Z" fill="#7289A0"/>
<path d="M14.6123 35.2522L8.34176 38.8717C8.27866 38.9081 8.20975 38.9255 8.14173 38.9255C8.00301 38.9255 7.86831 38.8535 7.79402 38.7249C7.68327 38.5331 7.74905 38.2879 7.9408 38.1771L14.3058 34.5023C14.7352 34.3498 15.0052 35.0729 14.6123 35.2522Z" fill="#7289A0"/>
<path d="M14.8086 39.5867L8.53805 43.2061C8.47495 43.2426 8.40604 43.2599 8.33802 43.2599C8.1993 43.2599 8.0646 43.188 7.99031 43.0594C7.87956 42.8676 7.94534 42.6224 8.13709 42.5116L14.5021 38.8368C14.9315 38.6843 15.2015 39.4073 14.8086 39.5867Z" fill="#7289A0"/>
<path d="M14.8476 43.97L8.57711 47.5894C8.51402 47.6259 8.4451 47.6432 8.37708 47.6432C8.23836 47.6432 8.10366 47.5713 8.02938 47.4427C7.91862 47.2509 7.9844 47.0057 8.17616 46.8949L14.5411 43.2201C14.9706 43.0676 15.2406 43.7906 14.8476 43.97Z" fill="#7289A0"/>
</g>
<defs>
<clipPath id="clip0_1321_1787">
<rect width="50" height="50" fill="white" transform="translate(0.951172 0.579956)"/>
</clipPath>
</defs>
</svg>
