<svg width="51" height="51" viewBox="0 0 51 51" fill="none" xmlns="http://www.w3.org/2000/svg">
<g clip-path="url(#clip0_1300_26940)">
<path d="M44.6004 1.49071L44.5068 34.9741C44.5068 35.8178 44.2047 36.4168 43.7205 36.6928L20.57 50.1455C20.0909 50.4216 19.419 50.3799 18.6846 49.9529C17.9502 49.531 17.2836 48.8019 16.8045 47.9737C16.3254 47.1404 16.0284 46.2029 16.0337 45.3592L16.0441 40.375L12.1431 42.6406C11.7942 42.8385 11.3046 42.8072 10.7681 42.4999C10.2317 42.1875 9.74728 41.6562 9.39837 41.0521C9.04946 40.4479 8.83076 39.7604 8.83076 39.1459L8.86204 29.0264C8.86204 28.9482 8.83585 28.8649 8.79414 28.7868C8.74735 28.7087 8.69013 28.6462 8.62248 28.6097L7.71614 28.0837C7.36723 27.8858 7.09131 27.4014 7.09131 27.0056C7.09131 26.7973 7.16938 26.6567 7.28916 26.5942L20.1845 19.0944L20.2003 14.2195C20.2003 14.006 20.2783 13.8654 20.4085 13.8081C20.3981 13.8081 20.393 13.8133 20.3823 13.8185L43.5328 0.36576C43.6475 0.298052 43.8037 0.303233 43.9756 0.407403C44.3245 0.605316 44.6057 1.08967 44.6004 1.49071Z" fill="#324566"/>
<path d="M34.4126 27.6557L11.2615 41.1094C11.1627 41.6438 10.3521 41.8289 10.1295 41.2518C10.0494 41.0444 9.76918 40.9569 9.64199 40.7379C9.51842 40.5207 9.44245 40.284 9.44245 40.0615L9.62173 30.0522C9.62526 29.5806 9.45745 29.0491 9.18729 28.5846C8.92057 28.1201 8.71792 27.9807 8.30823 27.7423L7.40227 27.2196C7.22739 27.1189 7.38675 26.536 7.27197 26.6013L30.4231 13.1476C30.5379 13.0823 30.6951 13.0911 30.8699 13.1918L31.7758 13.7145C32.1873 13.9512 32.5636 14.3626 32.8319 14.8271C33.1004 15.2916 33.2682 15.8232 33.2646 16.2947L33.2364 26.4159C33.2364 26.6384 33.3123 26.8751 33.4377 27.0923C33.5631 27.3113 33.7309 27.495 33.9252 27.6062C34.1159 27.7157 34.2837 27.7263 34.4126 27.6557Z" fill="#202931"/>
<path d="M36.3766 20.6658C36.0746 20.8389 35.8874 21.2044 35.8856 21.7342L35.868 27.9348C35.8662 28.5494 35.6472 28.9856 35.294 29.1852L12.1429 42.6389C11.8901 42.4535 11.5021 41.3255 11.9662 40.7001L12.0961 34.614C12.0978 34.0842 12.2833 33.7204 12.5853 33.5455L36.3766 20.6658Z" fill="#2C3640"/>
<path d="M42.8381 35.1596L19.8204 49.3683C19.5626 49.5131 18.4308 48.7779 18.0387 48.5519C17.6484 48.3258 17.3005 47.9461 17.0444 47.5028C16.7883 47.0596 16.6347 46.5704 16.6347 46.12L16.7813 37.8669C16.7849 36.945 16.4599 35.9154 15.9354 35.0077C15.4127 34.0999 14.0675 33.8868 13.264 33.4224C12.4622 32.9597 12.8683 32.288 12.3403 32.59L35.4914 19.1362C36.0195 18.8343 36.7524 18.8802 37.5542 19.3446C38.3577 19.8073 39.0888 20.6056 39.6116 21.5151C40.1361 22.4211 40.4611 23.4525 40.4575 24.3743L40.4346 32.6253C40.4346 33.0756 40.5882 33.5666 40.8443 34.0099C41.1004 34.4514 41.4482 34.8329 41.8403 35.0589C42.2306 35.285 42.5803 35.3062 42.8381 35.1596Z" fill="#2C3640"/>
<path d="M44.6007 1.48823L44.5053 34.976C44.5053 35.8201 44.2033 36.4171 43.7212 36.6908L20.5701 50.1445C21.0523 49.8708 21.3543 49.2756 21.3543 48.4315L21.4496 14.942C21.4514 14.5446 21.1724 14.0607 20.8262 13.8611C20.6514 13.7605 20.4942 13.7499 20.3794 13.817L43.5323 0.363265C43.6453 0.296155 43.8024 0.304983 43.9773 0.405649C44.3234 0.60698 44.6025 1.09087 44.6007 1.48823Z" fill="#202931"/>
<path d="M44.6009 1.48823L44.5055 34.976C44.5055 35.8201 44.2035 36.4171 43.7214 36.6908L20.5703 50.1445C21.0524 49.8708 21.3544 49.2756 21.3544 48.4315L21.4409 18.3345C22.0502 18.3646 22.656 18.4246 23.2494 18.5005C25.8543 18.8343 28.544 19.3871 31.0624 18.6401C31.5304 18.5005 32.0019 18.3098 32.3481 17.9637C33.7874 16.5226 32.1679 13.7411 33.4112 12.1269C34.6068 10.5745 37.3513 11.4364 38.7852 10.1012C40.1222 8.8544 39.4758 6.68394 39.437 4.85785C39.4193 4.06136 39.5499 3.25074 39.8396 2.509L43.5324 0.363266C43.6455 0.296155 43.8026 0.304983 43.9775 0.405649C44.3236 0.60698 44.6027 1.09087 44.6009 1.48823Z" fill="#202931"/>
<path d="M20.8268 13.8604C21.1729 14.0602 21.4516 14.5443 21.4505 14.942L21.3555 48.4307C21.3543 49.2749 21.0522 49.8713 20.5703 50.1447C20.0884 50.4193 19.4188 50.3779 18.6848 49.9541C17.9518 49.531 17.283 48.7996 16.8054 47.971C16.3255 47.1424 16.0289 46.2002 16.0313 45.3568L16.0547 37.1048C16.0562 36.5748 15.8726 35.9965 15.5725 35.4754C15.2713 34.9537 14.8603 34.5049 14.4003 34.238C13.9402 33.9737 13.5281 33.9473 13.2249 34.12C12.9229 34.2935 12.7366 34.6583 12.7351 35.1882L12.7175 41.3892C12.7158 42.0034 12.4954 42.4394 12.1437 42.6386C11.793 42.8397 11.3029 42.8085 10.7695 42.4993C10.2326 42.1893 9.74553 41.6566 9.39804 41.0534C9.04847 40.4493 8.83137 39.7607 8.83311 39.1465L8.8618 29.0249C8.86203 28.9459 8.83627 28.8661 8.79244 28.7889C8.74633 28.7104 8.69002 28.648 8.62126 28.6083L7.71472 28.0849C7.36854 27.885 7.08872 27.4004 7.08985 27.0039C7.09098 26.6061 7.37262 26.4456 7.7188 26.6454L8.62534 27.1688C9.03575 27.4058 9.41296 27.8169 9.68045 28.2815C9.94905 28.7455 10.117 29.2772 10.1145 29.7481L10.0858 39.8698C10.0863 40.092 10.1613 40.3287 10.2861 40.546C10.4131 40.7647 10.5808 40.9485 10.7736 41.0598C10.9653 41.1705 11.1336 41.1807 11.2614 41.1092C11.3869 41.0363 11.463 40.8868 11.4648 40.666L11.4824 34.465C11.4838 33.5418 11.8144 32.8904 12.3415 32.5899C12.8687 32.2883 13.6015 32.335 14.4044 32.7985C15.2072 33.262 15.9379 34.0603 16.4616 34.9687C16.9853 35.8758 17.3111 36.9062 17.3074 37.828L17.284 46.08C17.2838 46.5303 17.4383 47.0205 17.6934 47.4636C17.9496 47.9062 18.2976 48.2874 18.6888 48.5133C19.0801 48.7392 19.429 48.7603 19.6869 48.6146C19.9437 48.4669 20.1016 48.1571 20.1029 47.7075L20.1978 14.2188C20.199 13.821 20.4806 13.6605 20.8268 13.8604Z" fill="#546577"/>
<path d="M41.0376 5.91335C41.4238 5.69038 41.7368 5.86988 41.7381 6.31251L41.3705 17.3177C41.3717 17.7604 41.0607 18.299 40.6745 18.522L24.0437 28.1238C23.6575 28.3468 23.3445 28.1684 23.3433 27.7258L23.7109 16.7205C23.7096 16.2779 24.0206 15.7381 24.4068 15.5152L41.0376 5.91335Z" fill="#202931"/>
<path d="M41.3928 6.05019C41.779 5.82722 42.092 6.00672 42.0933 6.44935L41.8036 17.5329C41.8048 17.9755 41.4938 18.5141 41.1076 18.7371L24.4768 28.3389C24.0906 28.5619 23.7776 28.3835 23.7764 27.9409L24.0661 16.8574C24.0648 16.4147 24.3758 15.875 24.762 15.652L41.3928 6.05019Z" fill="#FF492C"/>
<path d="M40.9902 32.6159C40.9383 32.6159 40.8877 32.589 40.86 32.5408C40.8186 32.4691 40.8431 32.3772 40.915 32.3358L41.9474 31.7397C42.0196 31.6982 42.1112 31.723 42.1524 31.7947C42.1938 31.8665 42.1693 31.9583 42.0974 31.9998L41.065 32.5958C41.0414 32.6095 41.0155 32.6159 40.9902 32.6159Z" fill="#1C323D"/>
<path d="M23.4199 31.5268C23.3679 31.5268 23.3174 31.4999 23.2896 31.4517C23.2483 31.3799 23.2727 31.2881 23.3447 31.2466L28.3648 28.3483C28.4367 28.3067 28.5285 28.3316 28.5698 28.4033C28.6112 28.475 28.5867 28.5669 28.5148 28.6083L23.4947 31.5067C23.4711 31.5203 23.4452 31.5268 23.4199 31.5268Z" fill="#546577"/>
<path d="M23.4199 34.3701C23.3679 34.3701 23.3174 34.3432 23.2896 34.295C23.2483 34.2233 23.2727 34.1314 23.3447 34.09L28.9955 30.8272C29.0674 30.7856 29.1593 30.8104 29.2006 30.8822C29.2419 30.9539 29.2175 31.0458 29.1455 31.0873L23.4947 34.35C23.4711 34.3637 23.4452 34.3701 23.4199 34.3701Z" fill="#546577"/>
<path d="M23.4199 37.2135C23.3679 37.2135 23.3174 37.1866 23.2896 37.1384C23.2483 37.0666 23.2727 36.9748 23.3447 36.9333L28.3648 34.035C28.4367 33.9933 28.5285 34.0182 28.5698 34.09C28.6112 34.1617 28.5867 34.2536 28.5148 34.295L23.4947 37.1934C23.4711 37.207 23.4452 37.2135 23.4199 37.2135Z" fill="#546577"/>
<path d="M23.4199 40.057C23.3679 40.057 23.3174 40.0301 23.2896 39.9819C23.2483 39.9102 23.2727 39.8183 23.3447 39.7768L29.6262 36.1496C29.6981 36.1082 29.7897 36.1329 29.8313 36.2047C29.8726 36.2764 29.8482 36.3682 29.7762 36.4097L23.4947 40.0369C23.4711 40.0505 23.4452 40.057 23.4199 40.057Z" fill="#546577"/>
<path d="M41.1186 32.6818C41.0667 32.6818 41.0161 32.6549 40.9884 32.6067C40.947 32.535 40.9715 32.4432 41.0434 32.4017L42.0758 31.8056C42.148 31.7642 42.2396 31.7889 42.2808 31.8607C42.3222 31.9324 42.2977 32.0242 42.2258 32.0657L41.1934 32.6618C41.1698 32.6754 41.1439 32.6818 41.1186 32.6818Z" fill="#546577"/>
<path d="M32.3515 37.7438C32.2996 37.7438 32.2491 37.7169 32.2213 37.6687C32.1799 37.5969 32.2044 37.5051 32.2763 37.4636L40.014 32.9963C40.0862 32.9548 40.1776 32.9796 40.219 33.0513C40.2604 33.1231 40.2359 33.2149 40.164 33.2564L32.4264 37.7237C32.4027 37.7373 32.3769 37.7438 32.3515 37.7438Z" fill="#546577"/>
<path d="M23.4199 42.9004C23.3679 42.9004 23.3174 42.8735 23.2896 42.8253C23.2483 42.7536 23.2727 42.6617 23.3447 42.6202L30.747 38.3465C30.8191 38.3049 30.9107 38.3297 30.9521 38.4015C30.9935 38.4732 30.969 38.5651 30.8971 38.6065L23.4947 42.8803C23.4711 42.8939 23.4452 42.9004 23.4199 42.9004Z" fill="#546577"/>
<path d="M29.0707 42.4813C29.0188 42.4813 28.9683 42.4544 28.9405 42.4062C28.8991 42.3345 28.9236 42.2426 28.9955 42.2012L42.076 34.6491C42.1483 34.6074 42.2398 34.6324 42.2811 34.7041C42.3225 34.7758 42.298 34.8677 42.226 34.9092L29.1456 42.4612C29.122 42.4749 29.0961 42.4813 29.0707 42.4813Z" fill="#546577"/>
<path d="M23.4199 45.7438C23.3679 45.7438 23.3174 45.7169 23.2896 45.6687C23.2483 45.597 23.2727 45.5051 23.3447 45.4637L27.5147 43.0561C27.5868 43.0147 27.6785 43.0394 27.7198 43.1111C27.7612 43.1829 27.7367 43.2747 27.6647 43.3162L23.4947 45.7237C23.4711 45.7374 23.4452 45.7438 23.4199 45.7438Z" fill="#546577"/>
<path d="M41.6237 20.7656C41.7824 20.674 41.9106 20.747 41.9111 20.9294L41.9304 28.8127C41.9309 28.9927 41.8035 29.2157 41.6449 29.3073L40.396 30.0283C40.2394 30.1187 40.1091 30.0445 40.1086 29.8645L40.0894 21.9812C40.0888 21.7988 40.2182 21.5771 40.3749 21.4866L41.6237 20.7656Z" fill="#202931"/>
<path d="M41.9279 20.7657C42.0866 20.6741 42.2148 20.7471 42.2153 20.9295L42.2346 28.8128C42.2351 28.9928 42.1077 29.2158 41.9491 29.3074L40.7002 30.0284C40.5436 30.1188 40.4133 30.0446 40.4128 29.8646L40.3936 21.9813C40.393 21.7989 40.5224 21.5772 40.6791 21.4867L41.9279 20.7657Z" fill="#35414D"/>
<path d="M42.2357 28.8144C42.2357 28.9914 42.1093 29.2153 41.9504 29.3092L40.7008 30.0279C40.5419 30.1182 40.4119 30.0459 40.4119 29.8654L40.3975 23.8448C40.6322 23.8593 40.8993 23.8665 41.0582 23.6895C41.3545 23.3572 40.9463 22.7361 41.2533 22.411C41.3508 22.3099 41.4917 22.2666 41.5927 22.1726C41.7444 22.0246 41.7626 21.7898 41.7373 21.5803C41.7157 21.3709 41.6578 21.1614 41.7012 20.9555C41.7047 20.9303 41.712 20.905 41.7192 20.8833L41.9287 20.7641C42.0876 20.6738 42.214 20.7461 42.214 20.9303L42.2357 28.8144Z" fill="#35414D"/>
<path d="M35.2365 24.4536C35.3952 24.362 35.5234 24.435 35.5239 24.6173L35.5432 32.5007C35.5437 32.6807 35.4163 32.9036 35.2577 32.9952L34.0088 33.7163C33.8522 33.8067 33.7219 33.7325 33.7214 33.5525L33.7021 25.6691C33.7016 25.4868 33.831 25.265 33.9877 25.1746L35.2365 24.4536Z" fill="#202931"/>
<path d="M35.5417 24.4538C35.7004 24.3622 35.8286 24.4353 35.8291 24.6176L35.8484 32.501C35.8489 32.6809 35.7215 32.9039 35.5628 32.9955L34.314 33.7165C34.1573 33.807 34.0271 33.7327 34.0266 33.5528L34.0073 25.6694C34.0068 25.487 34.1362 25.2653 34.2928 25.1748L35.5417 24.4538Z" fill="#35414D"/>
<path d="M35.85 32.5024C35.85 32.6794 35.7235 32.9033 35.5646 32.9972L34.315 33.7159C34.1561 33.8062 34.0262 33.7339 34.0262 33.5534L34.0117 27.5328C34.2464 27.5472 34.5136 27.5545 34.6725 27.3775C34.9688 27.0452 34.5605 26.424 34.8675 26.099C34.9651 25.9979 35.106 25.9545 35.207 25.8606C35.3587 25.7125 35.3768 25.4778 35.3516 25.2683C35.3299 25.0589 35.2721 24.8494 35.3155 24.6435C35.319 24.6183 35.3262 24.593 35.3334 24.5713L35.5429 24.4521C35.7018 24.3618 35.8283 24.4341 35.8283 24.6183L35.85 32.5024Z" fill="#35414D"/>
<path d="M38.4382 25.0856C38.5968 24.9941 38.7251 25.0671 38.7256 25.2494L38.7378 30.6558C38.7383 30.8358 38.611 31.0588 38.4523 31.1504L37.2034 31.8714C37.0448 31.963 36.9166 31.8876 36.9161 31.7076L36.9038 26.3012C36.9033 26.1189 37.0307 25.8983 37.1893 25.8067L38.4382 25.0856Z" fill="#202931"/>
<path d="M38.7434 25.0856C38.902 24.9941 39.0302 25.0671 39.0308 25.2494L39.043 30.6558C39.0435 30.8358 38.9161 31.0588 38.7575 31.1504L37.5086 31.8714C37.35 31.963 37.2217 31.8876 37.2212 31.7076L37.209 26.3012C37.2085 26.1189 37.3358 25.8983 37.4945 25.8067L38.7434 25.0856Z" fill="#FF492C"/>
<path d="M39.0436 30.6562C39.0436 30.8368 38.9171 31.0571 38.7583 31.151L37.5087 31.8697C37.3496 31.9636 37.2233 31.8878 37.2196 31.7072L37.2124 27.2721C37.4581 27.2252 37.7145 27.2108 37.8372 27.0085C37.9781 26.7737 37.83 26.4162 38.0322 26.232C38.2056 26.0767 38.5415 26.1562 38.657 25.9503C38.686 25.8998 38.6932 25.8347 38.6932 25.7769C38.6969 25.5747 38.6463 25.3544 38.639 25.1485L38.7438 25.0871C38.9027 24.9932 39.0291 25.0655 39.0291 25.2496L39.0436 30.6562Z" fill="#FF492C"/>
<path d="M32.0515 28.7733C32.2101 28.6817 32.3383 28.7547 32.3389 28.937L32.3511 34.3435C32.3516 34.5234 32.2242 34.7464 32.0656 34.838L30.8167 35.559C30.6581 35.6506 30.5298 35.5752 30.5293 35.3953L30.5171 29.9888C30.5166 29.8065 30.644 29.5859 30.8026 29.4943L32.0515 28.7733Z" fill="#202931"/>
<path d="M32.3567 28.7731C32.5153 28.6816 32.6435 28.7546 32.644 28.9369L32.6563 34.3433C32.6568 34.5233 32.5294 34.7463 32.3708 34.8379L31.1219 35.5589C30.9632 35.6505 30.835 35.5751 30.8345 35.3951L30.8223 29.9887C30.8218 29.8064 30.9491 29.5858 31.1078 29.4942L32.3567 28.7731Z" fill="#FF492C"/>
<path d="M32.6569 34.3439C32.6569 34.5244 32.5304 34.7447 32.3715 34.8387L31.1219 35.5574C30.9629 35.6513 30.8366 35.5754 30.8329 35.3948L30.8257 30.9598C31.0713 30.9128 31.3277 30.8984 31.4505 30.6961C31.5914 30.4614 31.4433 30.1038 31.6455 29.9196C31.8189 29.7643 32.1548 29.8438 32.2703 29.6379C32.2992 29.5874 32.3065 29.5223 32.3065 29.4646C32.3102 29.2623 32.2596 29.042 32.2523 28.8362L32.3571 28.7748C32.516 28.6809 32.6424 28.7531 32.6424 28.9373L32.6569 34.3439Z" fill="#FF492C"/>
</g>
<defs>
<clipPath id="clip0_1300_26940">
<rect width="50" height="50" fill="white" transform="translate(0.845215 0.32019)"/>
</clipPath>
</defs>
</svg>
