<svg width="51" height="51" viewBox="0 0 51 51" fill="none" xmlns="http://www.w3.org/2000/svg">
<g clip-path="url(#clip0_1327_4248)">
<path d="M6.78117 50.1028L5.34526 49.2672C4.7783 48.9374 4.42819 48.2389 4.42629 47.244L4.34668 20.7424L11.3539 21.1766L8.20414 48.3507C8.20604 49.3457 6.21611 49.773 6.78117 50.1028Z" fill="#546577"/>
<path d="M5.79579 26.2976L4.35938 25.4628L35.874 7.26782L37.3104 8.10258L5.79579 26.2976Z" fill="#FBD46C"/>
<path d="M5.79541 26.2975L37.31 8.10254L37.3763 29.8845C37.382 31.8854 35.9754 34.3218 34.2341 35.3271L9.02332 49.8825C7.28325 50.8872 5.86736 50.0803 5.86169 48.0795L5.79541 26.2975Z" fill="#202931"/>
<path d="M36.3776 1.36236C36.4874 2.96957 36.3871 7.08307 34.6526 5.15006L11.4002 17.7335C9.66051 18.7377 9.31022 19.8105 9.31583 21.8096L5.79555 26.2971L4.35965 25.4633L4.34671 20.7424C4.33929 18.7433 5.74742 16.3069 7.48712 15.3027L32.698 0.747236C33.5743 0.24143 34.3673 0.195111 34.9416 0.526755L36.3776 1.36236Z" fill="#35414D"/>
<path d="M34.1341 1.58197C35.8754 0.576633 37.2912 1.38349 37.2969 3.383L37.3103 8.10244L5.79562 26.2974L5.78224 21.578C5.77657 19.5785 7.18326 17.142 8.92333 16.1374L34.1341 1.58197Z" fill="#181E25"/>
<path d="M9.21851 19.5173C9.7953 19.1843 10.2679 19.4444 10.2698 20.1071C10.2717 20.7698 9.8021 21.5832 9.22531 21.9162C8.6526 22.2469 8.18401 21.9752 8.18213 21.3124C8.18026 20.6497 8.6458 19.848 9.21851 19.5173Z" fill="#7289A0"/>
<path d="M12.5706 17.5776C13.1473 17.2446 13.62 17.5047 13.6219 18.1674C13.6237 18.8301 13.1542 19.6435 12.5774 19.9765C12.0046 20.3072 11.5361 20.0355 11.5342 19.3727C11.5323 18.71 11.9978 17.9083 12.5706 17.5776Z" fill="#7289A0"/>
<path d="M15.9231 15.6382C16.4999 15.3052 16.9725 15.5652 16.9744 16.2279C16.9763 16.8907 16.5067 17.7041 15.9299 18.0371C15.3572 18.3677 14.8886 18.096 14.8867 17.4333C14.8848 16.7705 15.3504 15.9688 15.9231 15.6382Z" fill="#7289A0"/>
<path d="M46.516 18.1334L44.6742 16.3777L42.995 16.4495L42.1904 18.8312L43.5717 21.7802L46.5407 19.8294L46.516 18.1334Z" fill="#202931"/>
<path d="M45.4838 17.9077L44.6512 17.114L43.8921 17.1465L43.9001 17.9311L44.7266 18.719L45.4949 18.6744L45.4838 17.9077Z" fill="#162830"/>
<path d="M45.5521 18.1433L44.7195 17.3496L43.9604 17.3821L43.9684 18.1667L44.7949 18.9546L45.5633 18.91L45.5521 18.1433Z" fill="#FF492C"/>
<path d="M46.5408 19.8293L35.1343 31.7926L33.499 31.8237C35.9353 26.2571 39.7807 22.3687 44.8412 19.928L46.5408 19.8293Z" fill="#7289A0"/>
<path d="M42.9949 16.4495L31.5884 28.4127L31.6706 30.0809C36.3433 27.0039 40.3401 23.2538 43.0125 18.1853L42.9949 16.4495Z" fill="#7289A0"/>
<path d="M31.6763 30.0757L43.0173 18.1758L44.8461 19.9186L33.505 31.8185L31.6763 30.0757Z" fill="#546577"/>
<path d="M33.4993 31.8236L31.6712 30.0808C31.0579 30.606 30.5186 32.0315 29.9966 33.6672C31.8559 32.9208 33.347 32.2446 33.4993 31.8236Z" fill="#CC3722"/>
<path d="M31.671 30.0808L31.5889 28.4126L30.6387 31.5481L30.6553 32.2561L31.671 30.0808Z" fill="#FF492C"/>
<path d="M30.6554 32.2561L30.6388 31.5481L29.9966 33.6672C30.3614 33.1892 30.737 32.7108 30.6554 32.2561Z" fill="#FF492C"/>
<path d="M31.3748 32.9418L30.6554 32.2561L29.9966 33.6671C30.7831 33.3527 31.5955 33.0325 31.3748 32.9418Z" fill="#CC3722"/>
<path d="M32.0686 32.9111L31.3747 32.9418L29.9966 33.6672L32.0686 32.9111Z" fill="#FF492C"/>
<path d="M35.1344 31.7925L32.0684 32.9111L31.3745 32.9418L33.4991 31.8236L35.1344 31.7925Z" fill="#FF492C"/>
<path d="M32.635 13.788C32.8958 13.6374 33.109 13.759 33.1099 14.0593L33.1311 22.5861C33.1319 22.8865 32.9201 23.2534 32.6592 23.404L9.85304 36.5712C9.59221 36.7218 9.37898 36.6003 9.37813 36.2999L9.35694 27.7731C9.35609 27.4727 9.56793 27.1058 9.82876 26.9552L32.635 13.788Z" fill="#162830"/>
<path d="M33.3166 13.9628C33.5774 13.8122 33.7907 13.9338 33.7915 14.2341L33.8127 22.761C33.8136 23.0613 33.6017 23.4283 33.3409 23.5788L10.5347 36.746C10.2738 36.8966 10.0606 36.7751 10.0598 36.4747L10.0386 27.9479C10.0377 27.6475 10.2496 27.2806 10.5104 27.13L33.3166 13.9628Z" fill="#FF492C"/>
<path d="M10.6048 40.043C10.5259 40.043 10.4492 40.0017 10.4068 39.9284C10.3435 39.819 10.3807 39.6794 10.4901 39.6162L28.0703 29.466C28.1804 29.4017 28.3196 29.4404 28.3828 29.5498C28.4461 29.6592 28.4089 29.7987 28.2995 29.8619L10.7194 40.0121C10.6829 40.0329 10.6434 40.043 10.6048 40.043Z" fill="#546577"/>
<path d="M10.6048 42.8298C10.5259 42.8298 10.4492 42.7885 10.4068 42.7152C10.3435 42.6058 10.3807 42.4663 10.4901 42.403L28.0703 32.2529C28.1804 32.1885 28.3196 32.2272 28.3828 32.3366C28.4461 32.446 28.4089 32.5856 28.2995 32.6488L10.7194 42.7989C10.6829 42.8198 10.6434 42.8298 10.6048 42.8298Z" fill="#546577"/>
<path d="M10.6048 45.6164C10.5259 45.6164 10.4492 45.5751 10.4068 45.5018C10.3435 45.3924 10.3807 45.2529 10.4901 45.1896L28.0703 35.0395C28.1804 34.9751 28.3196 35.0138 28.3828 35.1232C28.4461 35.2326 28.4089 35.3722 28.2995 35.4354L10.7194 45.5856C10.6829 45.6064 10.6434 45.6164 10.6048 45.6164Z" fill="#FF492C"/>
</g>
<defs>
<clipPath id="clip0_1327_4248">
<rect width="50" height="50" fill="white" transform="translate(0.444336 0.314941)"/>
</clipPath>
</defs>
</svg>
