<svg width="51" height="51" viewBox="0 0 51 51" fill="none" xmlns="http://www.w3.org/2000/svg">
<g clip-path="url(#clip0_1327_3266)">
<path d="M11.6068 50.4702L10.24 49.6753C9.60992 49.3102 9.21897 48.5299 9.21581 47.4216L9.16406 29.0642L10.5308 29.8591L14.8653 44.3683C14.8685 45.4749 10.9767 50.1034 11.6068 50.4702Z" fill="#546577"/>
<path d="M10.5304 29.8588L9.16406 29.0648L40.8621 10.7639L42.2285 11.558L10.5304 29.8588Z" fill="#26404F"/>
<path d="M42.2283 11.5579C39.7698 24.691 35.978 36.5782 26.4053 35.7385C17.8535 39.3386 12.2673 36.9548 10.5303 29.8588C14.7435 25.7138 29.5219 18.3169 42.2283 11.5579Z" fill="#080B0F"/>
<path d="M42.2284 11.5576L29.0014 10.3475C28.36 10.1327 30.7968 11.112 30.0246 11.5579C29.2523 12.0038 28.5894 13.514 27.9513 14.4672L10.5298 29.8585L9.16309 29.0653L22.7935 8.7159C23.4316 7.76435 24.2022 7.02605 24.9744 6.58016C25.7466 6.13426 26.5205 5.98078 27.1619 6.19404L40.8617 10.7644L42.2284 11.5576Z" fill="#35414D"/>
<path d="M26.3415 7.37455C27.1138 6.92865 27.8869 6.77432 28.5281 6.98823L42.2283 11.558L10.5303 29.8589L24.1599 9.51024C24.7977 8.55788 25.5692 7.82044 26.3415 7.37455Z" fill="#080B0F"/>
<path d="M37.1205 1.4847C36.6196 1.19282 36.1816 8.3228 35.4151 8.76532L20.5261 14.7052C19.0027 15.5846 17.7712 17.7162 17.7769 19.4675L19.0637 43.21C21.4798 44.015 16.8171 48.0252 15.29 48.3678L14.2716 47.7764C13.7764 47.4883 13.4694 46.8763 13.4657 46.0082L13.3828 16.2424C13.3771 14.493 14.6087 12.3613 16.1302 11.482L34.1381 1.08546C34.9064 0.642944 35.5993 0.60151 36.1022 0.893385L37.1205 1.4847Z" fill="#0D1116"/>
<path d="M35.1577 1.67719C36.681 0.797694 37.9198 1.50365 37.9247 3.25403L38.0091 33.0188C38.0141 34.7678 36.7834 36.8994 35.26 37.7789L17.2523 48.1757C15.729 49.0552 14.4902 48.3492 14.4853 46.6002L14.4009 16.8355C14.3959 15.0851 15.6266 12.9535 17.1499 12.074L35.1577 1.67719Z" fill="#35414D"/>
<path d="M42.2283 11.5576L42.2804 29.9146C42.2867 32.1452 40.7189 34.8608 38.7777 35.9816L14.1079 50.2247C12.1667 51.3454 10.5886 50.4461 10.5823 48.2155L10.5303 29.8585L26.4176 34.3896L42.2283 11.5576Z" fill="#202931"/>
<path d="M32.1606 12.192C32.7581 12.8906 33.0578 13.9044 33.0616 15.2305C33.064 16.0668 32.954 16.9216 32.7316 17.7928C32.5075 18.6671 32.1567 19.4812 31.6792 20.2353C31.2018 20.9893 30.5939 21.5785 29.8539 22.0058C29.2768 22.3389 28.8257 22.4541 28.5022 22.3482C28.1787 22.2422 27.9813 22.011 27.91 21.6545C27.5537 22.3649 27.1268 22.9868 26.6312 23.5192C26.1355 24.0516 25.6115 24.4753 25.0573 24.7953C24.1331 25.3289 23.4096 25.4216 22.8887 25.0704C22.3677 24.7212 22.1057 24.0287 22.1028 22.9929C22.1 21.9973 22.2904 21.0234 22.6742 20.0711C23.0597 19.1178 23.5668 18.268 24.1953 17.5195C24.822 16.7721 25.4896 16.1929 26.1929 15.7868C27.0593 15.2866 27.7986 15.1989 28.4126 15.5226L28.4642 15.1537C28.4865 14.9692 28.558 14.7806 28.6805 14.5908C28.8011 14.4 28.9413 14.2606 29.1026 14.1675C29.2763 14.0672 29.4237 14.0507 29.5452 14.1219C29.6665 14.1911 29.7285 14.3309 29.7291 14.5425L29.7121 14.7723L29.1511 18.8831C29.0719 19.4214 29.0327 19.8759 29.0338 20.2467C29.0348 20.6195 29.1076 20.8864 29.2539 21.0482C29.3984 21.211 29.6144 21.2074 29.9038 21.0403C30.6193 20.6272 31.169 19.9526 31.5546 19.0114C31.9401 18.0701 32.1303 16.9914 32.1268 15.7702C32.1234 14.5489 31.8485 13.6559 31.3041 13.0861C30.758 12.5173 30.0493 12.2584 29.1764 12.3102C28.3035 12.362 27.3926 12.6618 26.4456 13.2086C25.3039 13.8678 24.2386 14.822 23.2531 16.0692C22.2676 17.3164 21.4828 18.6799 20.8967 20.1607C20.3107 21.6416 20.0195 23.039 20.0233 24.353C20.026 25.3344 20.2339 26.1551 20.6469 26.8149C21.0598 27.4727 21.6564 27.857 22.4366 27.9636C23.2186 28.0712 24.1454 27.8147 25.2187 27.195C25.9237 26.788 26.5356 26.358 27.0542 25.9052C27.5747 25.4533 28.1686 24.8803 28.8377 24.1892C28.906 24.1214 28.9691 24.0729 29.0269 24.0395C29.155 23.9656 29.2586 23.9522 29.3395 23.9983C29.4205 24.0444 29.4611 24.134 29.4615 24.267C29.4618 24.3597 29.4392 24.4616 29.3939 24.5745C29.3468 24.6885 29.2891 24.7844 29.2208 24.8642C27.9986 26.2743 26.665 27.3955 25.2217 28.2289C24.0221 28.9214 22.9584 29.2207 22.0324 29.1235C21.1063 29.0284 20.3919 28.5951 19.8856 27.8317C19.381 27.0673 19.127 26.0796 19.1236 24.8724C19.1193 23.3731 19.4503 21.7811 20.1166 20.0924C20.7828 18.4058 21.6761 16.8505 22.8016 15.4235C23.9235 13.9966 25.1378 12.908 26.4426 12.1546C27.6316 11.4681 28.7339 11.1264 29.7457 11.1337C30.7576 11.1409 31.5614 11.4943 32.1606 12.192ZM27.955 18.9559L28.2269 16.9459C27.7166 16.629 27.0633 16.6993 26.2671 17.159C25.7708 17.4456 25.3064 17.8409 24.8739 18.3429C24.4414 18.8449 24.0935 19.4152 23.8283 20.0528C23.5648 20.6913 23.4332 21.3487 23.4351 22.0238C23.4373 22.7936 23.6231 23.2677 23.9943 23.447C24.3654 23.6243 24.8447 23.5434 25.434 23.2032C26.8423 22.3901 27.6832 20.974 27.955 18.9559Z" fill="#992618"/>
<path d="M32.7856 12.5394C33.3831 13.238 33.6828 14.2519 33.6866 15.5779C33.689 16.4142 33.579 17.269 33.3566 18.1402C33.1325 19.0145 32.7817 19.8286 32.3042 20.5827C31.8268 21.3367 31.2189 21.9259 30.4789 22.3532C29.9018 22.6863 29.4507 22.8015 29.1272 22.6956C28.8037 22.5897 28.6063 22.3584 28.535 22.0019C28.1787 22.7123 27.7518 23.3342 27.2562 23.8666C26.7606 24.3991 26.2365 24.8227 25.6823 25.1427C24.7581 25.6763 24.0346 25.7691 23.5137 25.4178C22.9927 25.0686 22.7307 24.3761 22.7278 23.3403C22.725 22.3447 22.9154 21.3708 23.2992 20.4185C23.6847 19.4652 24.1918 18.6154 24.8203 17.8669C25.447 17.1195 26.1146 16.5403 26.8179 16.1342C27.6843 15.634 28.4236 15.5463 29.0376 15.8701L29.0892 15.5011C29.1115 15.3167 29.183 15.128 29.3055 14.9382C29.4261 14.7475 29.5663 14.608 29.7276 14.5149C29.9013 14.4146 30.0487 14.3981 30.1702 14.4693C30.2915 14.5385 30.3535 14.6784 30.3541 14.89L30.3371 15.1198L29.7761 19.2305C29.6969 19.7688 29.6577 20.2233 29.6588 20.5941C29.6598 20.967 29.7326 21.2338 29.8789 21.3956C30.0234 21.5584 30.2394 21.5548 30.5288 21.3877C31.2443 20.9746 31.794 20.3 32.1796 19.3588C32.5651 18.4176 32.7553 17.3388 32.7518 16.1176C32.7484 14.8963 32.4735 14.0033 31.9291 13.4335C31.383 12.8647 30.6743 12.6058 29.8014 12.6576C28.9285 12.7094 28.0176 13.0092 27.0706 13.556C25.9289 14.2152 24.8636 15.1694 23.8781 16.4166C22.8926 17.6638 22.1078 19.0273 21.5217 20.5082C20.9357 21.989 20.6445 23.3864 20.6483 24.7004C20.651 25.6818 20.8589 26.5025 21.2719 27.1623C21.6848 27.8201 22.2814 28.2044 23.0616 28.311C23.8436 28.4187 24.7704 28.1621 25.8437 27.5424C26.5487 27.1354 27.1606 26.7054 27.6792 26.2526C28.1997 25.8007 28.7936 25.2277 29.4627 24.5366C29.531 24.4689 29.5941 24.4203 29.652 24.3869C29.78 24.313 29.8836 24.2996 29.9645 24.3457C30.0455 24.3918 30.0861 24.4814 30.0865 24.6144C30.0868 24.7071 30.0642 24.809 30.0189 24.9219C29.9718 25.0359 29.9141 25.1318 29.8458 25.2116C28.6236 26.6217 27.29 27.7429 25.8467 28.5763C24.6471 29.2689 23.5834 29.5681 22.6574 29.4709C21.7313 29.3758 21.0169 28.9425 20.5106 28.1791C20.006 27.4147 19.752 26.427 19.7486 25.2198C19.7443 23.7205 20.0753 22.1285 20.7416 20.4398C21.4078 18.7532 22.3011 17.1979 23.4266 15.7709C24.5485 14.344 25.7628 13.2554 27.0676 12.502C28.2566 11.8155 29.3589 11.4738 30.3707 11.4811C31.3826 11.4883 32.1864 11.8418 32.7856 12.5394ZM28.58 19.3034L28.8519 17.2934C28.3416 16.9764 27.6883 17.0467 26.8921 17.5064C26.3958 17.793 25.9314 18.1883 25.4989 18.6903C25.0664 19.1923 24.7185 19.7626 24.4533 20.4002C24.1898 21.0388 24.0582 21.6961 24.0601 22.3712C24.0623 23.141 24.2481 23.6151 24.6193 23.7944C24.9904 23.9718 25.4697 23.8908 26.059 23.5506C27.4673 22.7375 28.3082 21.3214 28.58 19.3034Z" fill="#FF492C"/>
</g>
<defs>
<clipPath id="clip0_1327_3266">
<rect width="50" height="50" fill="white" transform="translate(0.72168 0.707275)"/>
</clipPath>
</defs>
</svg>
