<svg width="51" height="51" viewBox="0 0 51 51" fill="none" xmlns="http://www.w3.org/2000/svg">
<g clip-path="url(#clip0_1327_3451)">
<path d="M39.0325 42.2943L39.0264 43.146C39.0264 43.3695 38.8817 43.593 38.5923 43.7621L36.7896 44.8071L31.7373 47.7546L27.9932 49.9352C27.6315 50.1405 27.1431 50.219 26.6789 50.1767C26.3775 50.1465 26.0941 50.0679 25.8591 49.929L24.8824 49.3672L22.1875 47.8085L20.8069 47.0111C20.5115 46.8359 20.3608 46.6124 20.3608 46.3889L20.3669 45.5311C20.4754 45.362 21.2833 45.1446 22.1877 45.0178C22.7182 44.9393 22.8629 44.6554 22.8568 44.3956L24.4183 45.9844C24.5569 45.8696 24.7077 45.7548 24.8825 45.6461L26.239 46.8664C26.3716 46.9449 26.5223 47.0053 26.6791 47.0476C27.2397 47.1926 27.915 47.1323 28.3672 46.8726L31.7375 44.6377L35.5779 42.0947C35.6864 42.0283 36.1989 42.0767 36.7898 42.1431C37.7905 42.2519 39.0325 42.4332 39.0325 42.2943Z" fill="#0D1116"/>
<path d="M38.5857 41.6689C39.1764 42.0106 39.1795 42.5644 38.5932 42.9057L27.9931 49.0771C27.4063 49.4188 26.4527 49.4184 25.8621 49.0767L20.8095 46.1536C20.2195 45.8122 20.2158 45.2588 20.8026 44.9171L31.4028 38.7457C31.989 38.4044 32.9431 38.4044 33.5332 38.7458L38.5857 41.6689Z" fill="#181E25"/>
<path d="M31.8031 42.9945C33.2946 43.8556 33.297 45.2501 31.8206 46.1081C30.3414 46.9677 27.9367 46.9693 26.4453 46.1082C24.9591 45.2501 24.9539 43.8572 26.433 42.9976C27.9095 42.1396 30.3169 42.1365 31.8031 42.9945Z" fill="#35414D"/>
<path d="M32.3058 29.8052L32.2653 44.1155C32.2639 44.5846 31.9554 45.0528 31.3408 45.41C30.1025 46.1296 28.0894 46.1309 26.8408 45.4101C26.2156 45.0491 25.9034 44.575 25.9048 44.1013L25.9454 29.791C25.944 30.2647 26.2561 30.7388 26.8814 31.0997C28.13 31.8206 30.1431 31.8193 31.3814 31.0997C31.996 30.7425 32.3045 30.2743 32.3058 29.8052Z" fill="#2C3640"/>
<path d="M37.5308 5.0867L36.6251 5.66599L27.5675 11.4221L18.5153 17.1835L17.4254 17.8787C15.419 19.0373 17.6623 17.2309 18.1204 19.7377L17.8045 25.5623L17.341 34.0254L17.0988 38.5334C19.8582 38.3438 19.1894 40.4924 17.6096 42.7149C16.4089 44.4001 14.6818 46.1275 13.5337 46.8964L12.4384 46.554C11.4115 46.2328 10.6058 45.2427 10.3374 43.7629L8.04138 31.1025C8.04138 31.1025 6.42469 22.1392 6.40887 21.9812C6.1772 19.585 7.40421 16.9044 9.2842 15.8143L35.5508 0.652431C36.3776 0.173174 37.1939 0.0783831 37.91 0.304833L39.0053 0.647159C40.1902 2.27445 41.1328 7.31963 37.5308 5.0867Z" fill="#0D1116"/>
<path d="M36.6464 0.994147C38.6538 -0.164922 40.6498 0.928842 41.1048 3.43732L44.9695 24.7435C45.4245 27.252 44.1662 30.2249 42.1587 31.3839L15.8918 46.5503C13.8843 47.7094 11.8883 46.6156 11.4333 44.1071L7.56861 22.8009C7.1136 20.2924 8.37196 17.3196 10.3794 16.1605L36.6464 0.994147Z" fill="#181E25"/>
<path d="M40.0277 3.63288C39.8033 2.39532 39.1202 1.62646 38.2449 1.62646C37.9106 1.62646 37.557 1.73276 37.1939 1.94241L10.9269 17.1088C9.31851 18.0375 8.27412 20.5548 8.64614 22.6056L8.70886 22.9519L40.2307 4.75147L40.0277 3.63288Z" fill="#0D1116"/>
<path d="M40.2303 4.75146L8.7085 22.9519L12.5105 43.9118C12.7348 45.1494 13.4179 45.9183 14.2933 45.9183C14.6275 45.9183 14.9812 45.812 15.3443 45.6023L41.6113 30.436C43.2197 29.5073 44.264 26.99 43.892 24.9392L40.2303 4.75146Z" fill="#202931"/>
<path d="M15.2569 16.0806C15.6311 15.8645 16.0466 16.0783 16.187 16.558C16.3268 17.0354 16.1388 17.5988 15.7645 17.8149C15.3911 18.0305 14.9736 17.8166 14.8339 17.3392C14.6935 16.8595 14.8835 16.2962 15.2569 16.0806Z" fill="#181E25"/>
<path d="M12.9351 17.3951C13.3085 17.1795 13.7248 17.3927 13.8652 17.8724C14.005 18.3499 13.8162 18.9138 13.4428 19.1294C13.0694 19.345 12.6519 19.1311 12.5121 18.6537C12.3717 18.174 12.5617 17.6107 12.9351 17.3951Z" fill="#181E25"/>
<path d="M10.612 18.7101C10.9862 18.494 11.4025 18.7072 11.543 19.1869C11.6827 19.6644 11.4939 20.2283 11.1197 20.4444C10.7471 20.6595 10.3296 20.4456 10.1898 19.9682C10.0494 19.4885 10.2394 18.9252 10.612 18.7101Z" fill="#181E25"/>
<path d="M28.1889 16.182C28.5378 15.9805 28.9185 16.1767 29.0381 16.6224L29.7148 19.1434C29.777 19.375 29.9704 19.4549 30.1322 19.3615C30.1858 19.3306 30.2359 19.2807 30.2766 19.211L31.9656 16.3386C32.0483 16.198 32.15 16.097 32.2588 16.0341C32.588 15.8441 32.9817 16.0044 33.1088 16.4776L34.7898 22.74C34.9168 23.2132 34.7032 23.7242 34.3741 23.9142C34.2653 23.977 34.144 24.0048 34.018 23.9846L31.4471 23.5716C31.3846 23.5613 31.3244 23.575 31.2706 23.606C31.1091 23.6992 31.005 23.9496 31.0676 24.1828L31.7443 26.7038C31.8639 27.1494 31.6766 27.6735 31.3277 27.875L20.5014 34.1255C20.1524 34.327 19.7738 34.1297 19.6542 33.684L16.948 23.6026C16.8283 23.1569 17.0136 22.634 17.3626 22.4326L28.1889 16.182Z" fill="#162830"/>
<path d="M29.1259 16.6907C29.4748 16.4893 29.8555 16.6855 29.9751 17.1311L30.6518 19.6521C30.714 19.8838 30.9074 19.9637 31.0692 19.8703C31.1228 19.8394 31.1729 19.7895 31.2136 19.7198L32.9026 16.8474C32.9853 16.7068 33.087 16.6057 33.1958 16.5429C33.525 16.3529 33.9188 16.5132 34.0458 16.9864L35.7268 23.2488C35.8539 23.722 35.6402 24.233 35.3111 24.423C35.2023 24.4858 35.081 24.5136 34.955 24.4933L32.3841 24.0804C32.3216 24.0701 32.2614 24.0837 32.2076 24.1148C32.0461 24.208 31.942 24.4584 32.0046 24.6916L32.6813 27.2126C32.8009 27.6582 32.6136 28.1823 32.2647 28.3837L21.4384 34.6343C21.0895 34.8358 20.7108 34.6384 20.5912 34.1928L17.885 24.1114C17.7654 23.6657 17.9506 23.1428 18.2996 22.9413L29.1259 16.6907Z" fill="#FF492C"/>
</g>
<defs>
<clipPath id="clip0_1327_3451">
<rect width="50" height="50" fill="white" transform="translate(0.72168 0.187744)"/>
</clipPath>
</defs>
</svg>
