<svg width="51" height="51" viewBox="0 0 51 51" fill="none" xmlns="http://www.w3.org/2000/svg">
<g clip-path="url(#clip0_1305_27592)">
<path d="M11.8363 50.6027L10.4695 49.8079C9.83941 49.4428 9.44846 48.6625 9.4453 47.5542L9.39355 29.1968L10.7603 29.9916L15.0948 44.5008C15.098 45.6075 11.2062 50.236 11.8363 50.6027Z" fill="#546577"/>
<path d="M10.7599 29.9913L9.39355 29.1973L41.0916 10.8964L42.458 11.6904L10.7599 29.9913Z" fill="#26404F"/>
<path d="M42.4578 11.6904C39.9993 24.8236 36.2075 36.7108 26.6348 35.8711C18.083 39.4712 12.4968 37.0874 10.7598 29.9913C14.973 25.8463 29.7514 18.4495 42.4578 11.6904Z" fill="#080B0F"/>
<path d="M42.4579 11.6902L29.2309 10.4801C28.5895 10.2652 31.0263 11.2446 30.2541 11.6904C29.4818 12.1363 28.8189 13.6466 28.1808 14.5997L10.7593 29.9911L9.39258 29.1979L23.023 8.84847C23.661 7.89692 24.4317 7.15862 25.2039 6.71272C25.9761 6.26683 26.75 6.11335 27.3914 6.32661L41.0912 10.897L42.4579 11.6902Z" fill="#35414D"/>
<path d="M26.571 7.50699C27.3433 7.0611 28.1164 6.90677 28.7576 7.12068L42.4578 11.6905L10.7598 29.9914L24.3894 9.64269C25.0272 8.69032 25.7987 7.95289 26.571 7.50699Z" fill="#080B0F"/>
<path d="M37.35 1.61739C36.8491 1.32551 36.411 8.45549 35.6446 8.89801L20.7556 14.8379C19.2322 15.7173 18.0007 17.8489 18.0064 19.6002L19.2932 43.3427C21.7093 44.1477 17.0466 48.1579 15.5195 48.5004L14.5011 47.9091C14.0059 47.621 13.6989 47.009 13.6952 46.1409L13.6123 16.3751C13.6066 14.6257 14.8382 12.494 16.3597 11.6146L34.3676 1.21815C35.1359 0.775634 35.8288 0.734201 36.3317 1.02608L37.35 1.61739Z" fill="#0D1116"/>
<path d="M35.3872 1.80976C36.9105 0.930262 38.1493 1.63622 38.1542 3.3866L38.2386 33.1513C38.2436 34.9003 37.0129 37.032 35.4895 37.9115L17.4818 48.3083C15.9585 49.1878 14.7197 48.4818 14.7148 46.7328L14.6304 16.9681C14.6254 15.2177 15.8561 13.086 17.3794 12.2065L35.3872 1.80976Z" fill="#35414D"/>
<path d="M42.4578 11.6904L42.5099 30.0474C42.5162 32.278 40.9484 34.9936 39.0072 36.1144L14.3374 50.3575C12.3962 51.4783 10.8181 50.5789 10.8118 48.3483L10.7598 29.9913L26.6471 34.5224L42.4578 11.6904Z" fill="#202931"/>
<path d="M32.7304 8.87923C31.1905 7.98344 30.5505 12.6401 28.1999 13.9993C23.5247 16.7022 25.7076 15.907 25.7218 21.2831C25.7296 23.9536 19.2217 28.6474 20.7409 29.5316L20.1318 29.1765C18.6126 28.2923 17.6714 26.414 17.6636 23.7422C17.6481 18.3662 21.4248 11.816 26.0988 9.11441C28.4507 7.75519 30.5814 7.62833 32.12 8.52412L32.7304 8.87923Z" fill="#B32F1D"/>
<path d="M26.7085 9.46867C31.3808 6.76787 35.1839 8.93675 35.1991 14.313C35.2143 19.6902 31.4359 26.2396 26.7636 28.9404C22.0888 31.6426 18.2882 29.4742 18.273 24.097C18.2578 18.7207 22.0337 12.1709 26.7085 9.46867Z" fill="#FF492C"/>
<path d="M35.1992 14.3129C35.2142 19.6896 31.4361 26.2392 26.7639 28.9407C22.0893 31.6423 18.2885 29.4738 18.2735 24.0971C18.2659 21.2887 19.2918 18.1597 20.9417 15.4267C21.6937 15.3915 22.4998 15.3865 23.1051 14.9427C23.6387 14.5505 23.9463 13.8566 24.5666 13.624C25.0927 13.4279 25.6841 13.629 26.2391 13.5398C27.5876 13.3223 28.238 11.5347 29.5828 11.2996C30.2495 11.1827 31.0343 11.463 31.5566 11.0318C32.0651 10.6107 31.9621 9.81492 32.1932 9.19642C32.2585 9.02294 32.3464 8.86831 32.4531 8.73254C34.1344 9.54213 35.1916 11.4831 35.1992 14.3129Z" fill="#FF492C"/>
<path d="M33.3635 15.3737C33.3764 19.5782 30.4117 24.7173 26.7579 26.8299C23.1027 28.9438 20.1186 27.2416 20.107 23.0371C20.0953 18.8313 23.0588 13.6921 26.7139 11.5795C30.3691 9.4669 33.3519 11.1692 33.3635 15.3737Z" fill="#202931"/>
<path d="M33.3635 15.3739C33.3773 19.5777 30.4115 24.7168 26.7577 26.83C23.1026 28.9445 20.1192 27.2411 20.108 23.0373C20.1029 21.4005 20.5486 19.6229 21.3096 17.9384C21.955 17.8278 22.5665 17.653 23.0549 17.2269C23.5572 16.7869 23.8698 16.1181 24.4737 15.8352C24.9935 15.5926 25.6251 15.6919 26.1425 15.4443C27.0942 14.9867 27.3554 13.5209 28.3887 13.3021C28.6913 13.2393 29.0165 13.3009 29.3079 13.1965C29.8452 13.0042 30.0323 12.3606 30.3149 11.864C30.517 11.5082 30.802 11.204 31.1373 10.9714C32.4984 11.5849 33.3572 13.1186 33.3635 15.3739Z" fill="#202931"/>
<path d="M31.5304 16.4339C31.5381 19.4746 29.3957 23.1924 26.7516 24.7199C24.1076 26.2487 21.951 25.0176 21.9419 21.9769C21.9329 18.9348 24.0765 15.2183 26.7206 13.6895C29.3634 12.162 31.5213 13.3918 31.5304 16.4339Z" fill="#FF492C"/>
<path d="M31.5298 16.4336C31.5373 19.4746 29.3953 23.1919 26.7509 24.7205C24.1079 26.2492 21.9507 25.0172 21.9419 21.9775C21.9394 20.9454 22.183 19.8354 22.6112 18.7605C22.7681 18.7266 22.9263 18.6939 23.082 18.6612C23.4587 18.582 23.8416 18.4928 24.1669 18.2866C25.096 17.6945 25.3346 16.3016 26.3404 15.8516C27.0988 15.5121 28.1107 15.8126 28.7147 15.2419C29.1517 14.8283 29.178 14.113 29.6025 13.6868C29.7506 13.5372 29.9364 13.4354 30.1348 13.3612C30.9924 13.8628 31.526 14.9263 31.5298 16.4336Z" fill="#FF492C"/>
<path d="M26.7265 15.7997C28.3577 14.8568 29.6903 15.6171 29.6956 17.4946C29.7009 19.3712 28.377 21.6671 26.7458 22.61C25.1138 23.5534 23.7812 22.7931 23.7759 20.9164C23.7706 19.0389 25.0945 16.7431 26.7265 15.7997Z" fill="#202931"/>
<path d="M29.6953 17.4947C29.7004 19.3715 28.3769 21.667 26.7459 22.6099C25.1136 23.5527 23.7814 22.7934 23.7764 20.9165C23.7738 20.2867 23.922 19.6104 24.1807 18.9529C24.413 18.841 24.6641 18.7719 24.924 18.7581C25.1148 18.748 25.3158 18.7656 25.4865 18.6826C25.6246 18.616 25.7263 18.4916 25.8092 18.3621C26.103 17.9057 26.2776 17.291 26.7873 17.1075C27.041 17.0157 27.3373 17.0547 27.5683 16.9164C28.0329 16.6373 27.9086 15.8906 28.2727 15.4896C28.2953 15.4644 28.3204 15.4418 28.3468 15.4204C29.1554 15.5625 29.6916 16.3042 29.6953 17.4947Z" fill="#202931"/>
<path d="M26.7055 17.9341C27.3042 17.5881 27.7933 17.8671 27.7952 18.5562C27.7972 19.245 27.3113 20.0876 26.7126 20.4337C26.1136 20.7799 25.6245 20.5009 25.6226 19.8121C25.6206 19.123 26.1065 18.2804 26.7055 17.9341Z" fill="#181E25"/>
<path d="M37.2702 24.3094L27.3676 18.4632C26.625 17.9965 25.5966 19.6371 26.3392 20.1037L36.1583 25.9366L37.2702 24.3094Z" fill="#97B1CB"/>
<path d="M37.2118 25.449C36.9129 25.9079 36.4655 26.147 36.2138 25.9827C35.9621 25.8184 36.0001 25.312 36.2991 24.853C36.598 24.3941 37.0436 24.1578 37.2953 24.3221C37.547 24.4864 37.5108 24.99 37.2118 25.449Z" fill="#7289A0"/>
<path d="M35.5285 23.5978C35.5711 23.6235 35.6223 23.629 35.6692 23.6124C36.1472 23.4434 38.7552 22.4507 38.1479 21.1109C37.5883 19.8761 32.0724 20.0108 30.3005 20.0869C30.1358 20.0939 30.0814 20.3107 30.2226 20.3959L35.5285 23.5978Z" fill="#2C3640"/>
<path d="M34.8727 24.3343C34.9312 24.3653 34.966 24.4279 34.9609 24.494C34.9222 24.9894 34.7074 26.9806 33.7764 26.4346C32.9633 25.9579 30.5767 23.1444 29.5066 21.8565C29.39 21.7162 29.5512 21.5175 29.7123 21.6028L34.8727 24.3343Z" fill="#2C3640"/>
</g>
<defs>
<clipPath id="clip0_1305_27592">
<rect width="50" height="50" fill="white" transform="translate(0.951172 0.839722)"/>
</clipPath>
</defs>
</svg>
