<svg width="18" height="17" viewBox="0 0 18 17" fill="none" xmlns="http://www.w3.org/2000/svg">
<path d="M17.2096 0.404053H11.4742C11.106 0.404053 10.8076 0.702496 10.8076 1.07063V2.82842C10.9314 2.86056 11.0512 2.91634 11.1602 2.9973C11.6135 3.33412 11.7079 3.97466 11.371 4.42798L10.8077 5.18615V7.21912H12.4687V7.17696C12.4687 6.58697 13.1504 6.25369 13.616 6.6163L15.4461 8.04178C15.8112 8.32615 15.8117 8.87827 15.4461 9.16309L13.616 10.5886C13.1506 10.9511 12.4687 10.6181 12.4687 10.0279V9.98575H10.8077V15.7375C10.8077 16.1056 11.1061 16.4041 11.4742 16.4041H17.2097C17.5778 16.4041 17.8762 16.1056 17.8762 15.7375V1.07063C17.8762 0.702496 17.5778 0.404053 17.2096 0.404053Z" fill="#CCCCCE"/>
<path d="M7.2098 3.65665C8.00901 3.65665 8.65689 3.00876 8.65689 2.20955C8.65689 1.41034 8.00901 0.762451 7.2098 0.762451C6.41058 0.762451 5.7627 1.41034 5.7627 2.20955C5.7627 3.00876 6.41058 3.65665 7.2098 3.65665Z" fill="#CCCCCE"/>
<path d="M10.9419 3.2912C10.651 3.07499 10.2398 3.13556 10.0236 3.42655L8.72936 5.16812L7.47835 4.74035L8.11732 4.82318C8.02399 4.50785 7.7545 4.25972 7.40762 4.21086L5.61318 3.96262C5.248 3.91211 4.87647 3.98589 4.55826 4.17207L2.44062 5.41133C2.22577 5.53729 2.10075 5.77398 2.11777 6.02243L2.32254 9.00783C2.34736 9.36993 2.66127 9.64272 3.02226 9.61776C3.3839 9.59297 3.657 9.27969 3.63218 8.91804L3.45522 6.33817L4.3182 5.83219L3.84773 9.01303C3.8246 9.16936 3.80768 9.32656 3.797 9.48424L3.64795 11.6848L0.809137 12.1745C0.380472 12.2485 0.092915 12.6559 0.166867 13.0846C0.240819 13.5133 0.648232 13.8009 1.07697 13.7269L4.52588 13.1319C4.88392 13.0701 5.15328 12.7714 5.17782 12.4089L5.34053 10.0062L6.27226 10.1592L7.17491 12.0741L7.55809 15.699C7.60375 16.1308 7.9906 16.4452 8.42419 16.3995C8.85677 16.3538 9.1704 15.966 9.12467 15.5334L8.72745 11.776C8.71816 11.6882 8.69424 11.6027 8.65662 11.5229L7.58305 9.24543L7.96092 6.51413L7.05356 5.98246L8.75793 6.56527C9.02915 6.65797 9.32756 6.56388 9.49714 6.33568L11.0771 4.20948C11.2934 3.91856 11.2328 3.5074 10.9419 3.2912Z" fill="#CCCCCE"/>
<path d="M12.8876 9.56718V10.0278C12.8876 10.2713 13.1675 10.4076 13.3592 10.2583L15.1893 8.83283C15.3394 8.71588 15.3394 8.48886 15.1893 8.37192L13.3592 6.94644C13.1678 6.79729 12.8876 6.93323 12.8876 7.1769V7.6376H10.4133C10.2414 7.6376 10.1021 7.77694 10.1021 7.94883V9.25591C10.1021 9.42781 10.2414 9.56715 10.4133 9.56715H12.8876V9.56718Z" fill="#CCCCCE"/>
</svg>
