<svg width="51" height="51" viewBox="0 0 51 51" fill="none" xmlns="http://www.w3.org/2000/svg">
<g clip-path="url(#clip0_1313_29673)">
<path d="M10.8354 50.1082L9.39946 49.2726C8.8325 48.9428 8.48239 48.2443 8.48049 47.2493L8.40088 20.7478L15.4081 21.182L12.2583 48.3561C12.2602 49.351 10.2703 49.7784 10.8354 50.1082Z" fill="#546577"/>
<path d="M9.84961 26.3029L41.3642 8.10791L41.4305 29.8899C41.4362 31.8907 40.0296 34.3271 38.2883 35.3325L13.0775 49.8879C11.3374 50.8925 9.92156 50.0857 9.91589 48.0849L9.84961 26.3029Z" fill="#202931"/>
<path d="M40.4318 1.36773C40.5416 2.97494 40.4413 7.08844 38.7068 5.15543L15.4544 17.7389C13.7147 18.7431 13.3644 19.8159 13.37 21.815L9.84975 26.3024L8.41385 25.4687L8.40091 20.7478C8.39349 18.7487 9.80162 16.3123 11.5413 15.308L36.7522 0.752607C37.6285 0.246802 38.4215 0.200482 38.9958 0.532126L40.4318 1.36773Z" fill="#35414D"/>
<path d="M38.1883 1.58746C39.9296 0.582126 41.3454 1.38899 41.3511 3.38849L41.3645 8.10793L9.84982 26.3029L9.83644 21.5835C9.83077 19.584 11.2375 17.1475 12.9775 16.1429L38.1883 1.58746Z" fill="#181E25"/>
<path d="M13.2727 19.5226C13.8495 19.1896 14.3221 19.4496 14.324 20.1123C14.3259 20.7751 13.8563 21.5885 13.2795 21.9215C12.7068 22.2521 12.2382 21.9804 12.2363 21.3177C12.2345 20.6549 12.7 19.8532 13.2727 19.5226Z" fill="#7289A0"/>
<path d="M16.6252 17.583C17.202 17.25 17.6747 17.51 17.6766 18.1728C17.6784 18.8355 17.2088 19.6489 16.632 19.9819C16.0593 20.3126 15.5908 20.0408 15.5889 19.3781C15.587 18.7154 16.0525 17.9137 16.6252 17.583Z" fill="#7289A0"/>
<path d="M19.9778 15.6434C20.5546 15.3104 21.0272 15.5705 21.0291 16.2332C21.031 16.8959 20.5614 17.7093 19.9846 18.0423C19.4119 18.373 18.9433 18.1013 18.9414 17.4385C18.9395 16.7758 19.4051 15.9741 19.9778 15.6434Z" fill="#7289A0"/>
<path d="M29.5186 28.5222C29.8284 28.8313 29.9504 29.3731 29.8848 30.1476C29.8312 30.7802 29.6275 31.4264 29.2739 32.0833C28.9171 32.7445 28.4426 33.357 27.8442 33.9293C27.246 34.4987 26.5683 34.9836 25.8112 35.384L25.7037 36.6522C25.6904 36.8096 25.6345 36.9571 25.5328 37.1024C25.4311 37.2476 25.3029 37.3548 25.1505 37.4258C25.0095 37.4916 24.8978 37.4992 24.8128 37.4469C24.7278 37.3947 24.6912 37.2843 24.7053 37.1177L24.8127 35.8495C23.6436 36.3145 22.5647 36.5478 21.5814 36.5469C21.4566 36.5487 21.355 36.5012 21.2793 36.4032C21.2034 36.3082 21.1733 36.1829 21.1867 36.0255C21.2036 35.8249 21.2809 35.617 21.4175 35.4111C21.557 35.2038 21.724 35.0548 21.9186 34.964C22.0286 34.9128 22.1311 34.8857 22.2257 34.889C23.0721 34.9064 23.9771 34.7127 24.9432 34.3097L25.2919 30.1935C24.5712 30.322 23.9647 30.3824 23.4782 30.3692C22.9947 30.3516 22.6015 30.197 22.302 29.895C22.0024 29.5931 21.8827 29.0888 21.9423 28.3852C21.9948 27.765 22.1814 27.1297 22.5052 26.4719C22.8289 25.8172 23.2776 25.1901 23.8596 24.5868C24.4389 23.9848 25.1195 23.466 25.8983 23.0347L26.0044 21.7819C26.0175 21.6276 26.0766 21.4726 26.1789 21.3212C26.2808 21.1729 26.4012 21.0635 26.5422 20.9977C26.686 20.9307 26.7998 20.931 26.8897 20.9899C26.9792 21.0518 27.0159 21.1622 27.0029 21.3164L26.8983 22.5507C27.963 22.1018 28.8968 21.8561 29.6938 21.8164C29.9914 21.7904 30.1233 21.9601 30.0929 22.318C30.0767 22.5093 30 22.711 29.8685 22.9205C29.7342 23.1313 29.5697 23.2821 29.3751 23.3728C29.3102 23.4031 29.2249 23.4192 29.1188 23.4242C28.4013 23.483 27.6196 23.6934 26.771 24.0534L26.41 28.3147C27.1799 28.1484 27.8126 28.0669 28.3086 28.0639C28.8071 28.0626 29.2114 28.215 29.5186 28.5222ZM25.9416 33.8443C27.4888 33.0073 28.3163 31.9695 28.4214 30.7291C28.4609 30.2631 28.2969 29.9928 27.9322 29.9169C27.5675 29.8409 27.0128 29.8653 26.2676 29.9964L25.9416 33.8443ZM25.4343 28.5118L25.7679 24.5745C25.1054 24.9752 24.5653 25.4344 24.1445 25.9566C23.7206 26.4832 23.4884 27.0183 23.4419 27.5675C23.3975 28.0921 23.5465 28.4109 23.886 28.5282C24.2284 28.6442 24.7436 28.6382 25.4343 28.5118Z" fill="#FF492C"/>
<mask id="mask0_1313_29673" style="mask-type:luminance" maskUnits="userSpaceOnUse" x="30" y="26" width="12" height="22">
<path d="M32.6974 47.1944L30.7723 32.684L39.1129 26.3083L41.038 40.8187L32.6974 47.1944Z" fill="white"/>
</mask>
<g mask="url(#mask0_1313_29673)">
<path d="M33.7875 30.3792C33.3665 30.7011 33.0827 31.3828 33.152 31.9056L33.9057 37.5861L33.0627 36.8744C32.8547 36.706 32.5649 36.7512 32.292 36.9598C32.1258 37.0869 31.9658 37.2746 31.8345 37.5115C31.6159 37.9075 31.5239 38.3492 31.5699 38.6955C31.5937 38.875 31.6558 39.0286 31.754 39.1372L34.1746 41.8027C34.3932 42.0443 34.6666 42.1774 34.9708 42.2031L39.7128 38.5782C39.7763 38.4613 39.836 38.3416 39.8916 38.2198C40.0133 37.9568 40.1142 37.6856 40.1927 37.4138C40.3767 36.7806 40.4201 36.1613 40.3487 35.623L39.8933 32.1907C39.8591 31.9325 39.7416 31.7619 39.5816 31.6935C39.4224 31.6282 39.2178 31.6665 39.0074 31.8273C38.868 31.9339 38.7448 32.0803 38.6441 32.2472C38.4558 32.5541 38.3467 32.9322 38.3654 33.2617C38.364 33.2938 38.3682 33.3254 38.3719 33.3537L38.272 32.6009C38.2374 32.3397 38.1224 32.1672 37.9604 32.1041C37.8004 32.0357 37.5963 32.0773 37.3859 32.2381C37.2464 32.3447 37.1208 32.4926 37.0197 32.6565C36.8271 32.9737 36.7173 33.3665 36.7447 33.6992C36.7449 33.7235 36.7474 33.7423 36.7503 33.7641L36.6388 32.9236C36.6046 32.6654 36.4871 32.4949 36.3271 32.4264C36.1675 32.3611 35.9633 32.3994 35.7526 32.5605C35.6132 32.6671 35.4876 32.8149 35.3845 32.9841C35.1804 33.3205 35.0714 33.74 35.1174 34.0866L34.6737 30.7424C34.639 30.4808 34.5213 30.3108 34.3613 30.2424C34.202 30.1768 33.9979 30.2184 33.7875 30.3792Z" fill="#97B1CB"/>
<path d="M40.078 38.299L39.7128 38.5782L34.9707 42.2031L34.6383 42.4572C34.3619 42.6685 34.1756 43.1165 34.2207 43.4564L34.4488 45.1757C34.4939 45.5156 34.7538 45.6225 35.0302 45.4112L40.4699 41.253C40.7439 41.0435 40.9302 40.5956 40.8851 40.2557L40.657 38.5363C40.6119 38.1964 40.352 38.0896 40.078 38.299Z" fill="#546577"/>
</g>
</g>
<defs>
<clipPath id="clip0_1313_29673">
<rect width="50" height="50" fill="white" transform="translate(0.0571289 0.32019)"/>
</clipPath>
</defs>
</svg>
