<svg width="51" height="51" viewBox="0 0 51 51" fill="none" xmlns="http://www.w3.org/2000/svg">
<g clip-path="url(#clip0_1313_29474)">
<path d="M19.3301 39.3179C19.356 39.3543 19.3873 39.3803 19.4185 39.4063C19.455 39.4376 19.4913 39.4688 19.533 39.5001C19.4602 39.4428 19.3925 39.3803 19.3301 39.3179Z" fill="#DBE7FE"/>
<path d="M19.533 39.5001C19.4913 39.4688 19.455 39.4376 19.4185 39.4063C19.3873 39.3803 19.356 39.3543 19.3301 39.3179C19.3925 39.3803 19.4602 39.4428 19.533 39.5001Z" fill="#DBE7FE"/>
<path d="M19.3301 39.3179C19.356 39.3543 19.3873 39.3803 19.4185 39.4063C19.455 39.4376 19.4913 39.4688 19.533 39.5001C19.4602 39.4428 19.3925 39.3803 19.3301 39.3179Z" fill="#DBE7FE"/>
<path d="M34.0222 1.39261C33.4987 1.08761 33.0409 8.53842 32.24 9.00085L16.681 15.208C15.0891 16.127 13.8022 18.3545 13.8081 20.1846L15.1528 44.9955C17.6776 45.8367 12.8051 50.0274 11.2093 50.3853L10.1451 49.7674C9.62757 49.4663 9.30684 48.8268 9.3029 47.9196L9.21633 16.8144C9.21037 14.9863 10.4973 12.7587 12.0873 11.8397L30.9055 0.975417C31.7084 0.512985 32.4325 0.469687 32.958 0.774696L34.0222 1.39261Z" fill="#546577"/>
<path d="M31.9711 1.59363C33.563 0.674558 34.8575 1.41228 34.8626 3.24142L34.9508 34.3455C34.956 36.1732 33.6699 38.4008 32.0781 39.3199L13.26 50.1845C11.6681 51.1036 10.3737 50.3658 10.3685 48.5381L10.2803 17.4341C10.2751 15.6049 11.5612 13.3773 13.153 12.4582L31.9711 1.59363Z" fill="#202931"/>
<path d="M29.7334 26.5498L40.2428 29.2599C41.8324 29.6699 42.7888 31.2908 42.379 32.8805C41.969 34.4701 40.348 35.4265 38.7584 35.0165C38.5866 34.9722 38.4075 34.9065 38.2514 34.8355L28.4031 30.2744C27.408 29.8135 26.9749 28.6332 27.4358 27.6381C27.8452 26.7542 28.8228 26.3143 29.7334 26.5498Z" fill="#FF492C"/>
<path d="M29.1936 16.2365L27.1366 17.0875C28.3596 17.7982 29.1188 19.3076 29.1248 21.4496C29.137 25.7605 26.0943 31.0274 22.3398 33.1951C20.4511 34.2855 18.7371 34.3855 17.499 33.666L18.243 35.2633C19.4812 35.9829 21.7056 36.2689 23.5943 35.1785C27.3487 33.0108 31.2979 26.6918 31.2857 22.3808C31.2796 20.2388 30.4166 16.9472 29.1936 16.2365Z" fill="#2C3640"/>
<path d="M15.3219 31.4654C15.3055 25.7176 19.7276 19.6128 24.727 16.7264C27.2423 15.2742 28.3578 14.1296 30.0035 15.0859L28.7283 14.3448C27.0826 13.3885 24.8037 13.5236 22.2884 14.9758C17.2891 17.8621 13.2532 24.8559 13.2696 30.6037C13.2776 33.4563 14.2846 35.4639 15.909 36.4079L17.1842 37.149C15.5598 36.205 15.33 34.318 15.3219 31.4654Z" fill="#546577"/>
<path d="M23.5639 15.7169C28.5631 12.8306 32.6283 15.1472 32.6445 20.8951C32.6608 26.6363 28.6221 33.6317 23.6228 36.518C18.6235 39.4044 14.5612 37.0861 14.545 31.3448C14.5287 25.597 18.5645 18.6032 23.5639 15.7169ZM23.6155 33.9361C27.37 31.7685 30.4127 26.5015 30.4005 22.1906C30.3883 17.8797 27.3257 16.1311 23.5712 18.2988C19.8195 20.4648 16.7768 25.7384 16.789 30.0493C16.8012 34.3602 19.8638 36.1022 23.6155 33.9361Z" fill="#FF492C"/>
<path d="M14.58 45.4566C14.4903 45.4566 14.4031 45.4096 14.3549 45.3262C14.2829 45.2019 14.3252 45.0432 14.4496 44.9713L21.9309 40.6518C22.0561 40.5786 22.2144 40.6226 22.2863 40.747C22.3582 40.8714 22.3159 41.0301 22.1915 41.102L14.7103 45.4214C14.6688 45.4451 14.624 45.4566 14.58 45.4566Z" fill="#2C3640"/>
<path d="M23.8256 40.1183C23.7359 40.1183 23.6487 40.0718 23.6005 39.9884C23.5285 39.864 23.5709 39.7054 23.6952 39.6334L30.8954 35.4764C31.0215 35.4041 31.178 35.4472 31.2508 35.5716C31.3227 35.696 31.2804 35.8547 31.156 35.9266L23.9559 40.0836C23.9144 40.1073 23.8696 40.1183 23.8256 40.1183Z" fill="#2C3640"/>
<path d="M14.58 15.9491C14.4903 15.9491 14.4031 15.9021 14.3549 15.8188C14.2829 15.6944 14.3252 15.5357 14.4496 15.4638L21.9309 11.1444C22.0561 11.0712 22.2144 11.1152 22.2863 11.2396C22.3582 11.364 22.3159 11.5226 22.1915 11.5946L14.7103 15.914C14.6688 15.9377 14.624 15.9491 14.58 15.9491Z" fill="#2C3640"/>
<path d="M23.8256 10.6109C23.7359 10.6109 23.6487 10.5643 23.6005 10.481C23.5285 10.3566 23.5709 10.1979 23.6952 10.126L30.8954 5.96896C31.0215 5.89661 31.178 5.93977 31.2508 6.06416C31.3227 6.18855 31.2804 6.34721 31.156 6.41914L23.9559 10.5762C23.9144 10.5999 23.8696 10.6109 23.8256 10.6109Z" fill="#2C3640"/>
</g>
<defs>
<clipPath id="clip0_1313_29474">
<rect width="50" height="50" fill="white" transform="translate(0.845215 0.579956)"/>
</clipPath>
</defs>
</svg>
