<svg width="51" height="51" viewBox="0 0 51 51" fill="none" xmlns="http://www.w3.org/2000/svg">
<g clip-path="url(#clip0_1308_29032)">
<path d="M34.3126 0.817652C33.672 0.445413 32.785 0.498017 31.8062 1.06317L16.9342 9.64942C14.9882 10.773 13.417 13.4943 13.4234 15.7305L13.513 47.3497C13.5162 48.4606 13.908 49.2421 14.5402 49.6095L15.8014 50.3424C18.6036 48.5798 26.1498 37.2315 21.6027 37.9666L18.5651 19.3799C18.5588 17.1437 20.1298 14.4224 22.0759 13.2989L33.2768 7.32817C35.0063 8.06182 35.4637 2.09651 35.5737 1.55057L34.3126 0.817652Z" fill="#546577"/>
<path d="M33.0673 1.79606C35.0121 0.673198 36.5948 1.57367 36.6012 3.80986L36.6908 35.4291C36.6971 37.6653 35.1247 40.3873 33.1799 41.5102L18.308 50.0965C16.3619 51.22 14.7806 50.3189 14.7742 48.0826L14.6846 16.4634C14.6782 14.2272 16.2493 11.5059 18.1954 10.3824L33.0673 1.79606Z" fill="#181E25"/>
<path d="M33.0698 2.75959C34.5492 1.90547 35.757 2.59375 35.7618 4.29365L35.8515 35.9129C35.8563 37.6142 34.6563 39.6927 33.1769 40.5468L18.3051 49.1331C16.8257 49.9872 15.6179 49.299 15.6131 47.5976L15.5235 15.9783C15.5186 14.2784 16.7186 12.2 18.1979 11.3459L33.0698 2.75959Z" fill="#202931"/>
<path d="M32.8932 6.99462C33.2049 6.81462 33.4598 6.95988 33.4608 7.31889L33.4861 16.2534C33.4872 16.6124 33.2339 17.051 32.9221 17.231L19.219 25.1425C18.9072 25.3225 18.6523 25.1773 18.6513 24.8183L18.626 15.8838C18.6249 15.5248 18.8782 15.0862 19.19 14.9062L32.8932 6.99462Z" fill="#181E25"/>
<path d="M26.7411 37.8766C26.663 37.8766 26.5871 37.8361 26.5451 37.7635C26.4825 37.6553 26.5194 37.5171 26.6276 37.4545L32.8951 33.836C33.0048 33.773 33.1411 33.8106 33.2045 33.9189C33.2671 34.0271 33.2303 34.1653 33.122 34.2279L26.8545 37.8464C26.8184 37.867 26.7794 37.8766 26.7411 37.8766Z" fill="#2C3640"/>
<path d="M26.7411 34.5247C26.663 34.5247 26.5871 34.4842 26.5451 34.4116C26.4825 34.3033 26.5194 34.1652 26.6276 34.1026L32.8951 30.4841C33.0048 30.4211 33.1411 30.4586 33.2045 30.5669C33.2671 30.6752 33.2303 30.8133 33.122 30.8759L26.8545 34.4945C26.8184 34.5151 26.7794 34.5247 26.7411 34.5247Z" fill="#2C3640"/>
<path d="M18.6932 29.2973C18.6152 29.2973 18.5393 29.2565 18.4973 29.1839C18.4347 29.0756 18.4715 28.9375 18.5798 28.8749L25.0919 25.115C25.2009 25.0513 25.3387 25.0896 25.4013 25.1979C25.4639 25.3061 25.4271 25.4443 25.3188 25.5069L18.8067 29.2668C18.7706 29.2874 18.7316 29.2973 18.6932 29.2973Z" fill="#2C3640"/>
<path d="M26.7411 24.6505C26.663 24.6505 26.5871 24.61 26.5451 24.5375C26.4825 24.4292 26.5194 24.2911 26.6276 24.2285L32.8951 20.6099C33.0048 20.5469 33.1411 20.5845 33.2045 20.6928C33.2671 20.8011 33.2303 20.9392 33.122 21.0018L26.8545 24.6203C26.8184 24.641 26.7794 24.6505 26.7411 24.6505Z" fill="#2C3640"/>
<path d="M18.6932 32.5585C18.6152 32.5585 18.5393 32.5176 18.4973 32.445C18.4347 32.3367 18.4715 32.1986 18.5798 32.136L25.0919 28.3761C25.2009 28.3124 25.3387 28.3507 25.4013 28.459C25.4639 28.5673 25.4271 28.7054 25.3188 28.768L18.8067 32.5279C18.7706 32.5485 18.7316 32.5585 18.6932 32.5585Z" fill="#2C3640"/>
<path d="M27.2548 27.7039C27.1767 27.7039 27.1008 27.6634 27.0588 27.5908C26.9962 27.4825 27.033 27.3444 27.1413 27.2818L33.4088 23.6633C33.5185 23.6003 33.6548 23.6378 33.7181 23.7461C33.7807 23.8544 33.7439 23.9925 33.6356 24.0551L27.3682 27.6737C27.332 27.6944 27.293 27.7039 27.2548 27.7039Z" fill="#2C3640"/>
<path d="M25.3449 13.4747C25.4618 13.4072 25.5816 13.3786 25.6894 13.4062L28.9098 14.2243C29.2404 14.3047 29.2419 14.861 28.9129 15.3223L25.7077 19.8513C25.6004 20.0031 25.4808 20.1128 25.3639 20.1803C25.0573 20.3574 24.7692 20.2444 24.7681 19.8416L24.7529 14.4994C24.7517 14.0966 25.0383 13.6517 25.3449 13.4747Z" fill="#35414D"/>
<path d="M26.0051 26.0705C26.0242 26.0595 26.0434 26.05 26.0627 26.0422C28.7849 24.9549 27.6467 29.4864 27.0423 31.4553C26.9172 31.8631 27.1322 32.1114 27.45 31.9279L33.067 28.685C33.6543 28.3459 34.1321 28.6182 34.134 29.2935C34.1359 29.9728 33.6612 30.7951 33.074 31.1341L32.6918 31.3547C33.2804 31.0149 33.7613 31.289 33.7632 31.9653C33.7651 32.6416 33.2873 33.4687 32.6988 33.8085L32.3015 34.0378C32.8896 33.6983 33.367 33.9698 33.3689 34.6461C33.3699 34.9863 33.2536 35.3584 33.0593 35.6902C32.8691 36.0243 32.6005 36.3184 32.3085 36.487L31.8136 36.7727C32.4021 36.4329 32.879 36.7052 32.881 37.381C32.8829 38.0609 32.4082 38.8831 31.8205 39.2224L26.5661 42.256C25.9056 42.6373 25.2497 42.8842 24.6276 42.9859L22.6621 43.3068L22.6362 34.5008L25.0948 30.2563C25.4482 29.644 25.6455 28.9692 25.6438 28.3873L25.6391 26.6991C25.6388 26.6007 25.6736 26.4866 25.724 26.3854C25.7935 26.2462 25.8966 26.1331 26.0051 26.0705Z" fill="#FF492C"/>
<path d="M30.388 34.9231C31.0285 34.561 31.6696 34.2292 32.3106 34.0308C31.6706 34.5724 31.0297 34.9807 30.3893 35.3576C29.7483 35.7216 29.1077 36.0526 28.4663 36.2502C29.1068 35.7078 29.7471 35.2998 30.388 34.9231Z" fill="#CC3722"/>
<path d="M30.5805 32.3558C31.2876 31.9547 31.9948 31.5852 32.7023 31.3484C31.9957 31.928 31.2888 32.375 30.5817 32.7903C29.8747 33.1924 29.1675 33.5619 28.4595 33.798C29.1665 33.2171 29.8735 32.7706 30.5805 32.3558Z" fill="#CC3722"/>
<path d="M30.1472 37.5141C30.7052 37.1991 31.2636 36.9155 31.822 36.7648C31.2646 37.2583 30.7063 37.6194 30.1484 37.9487C29.59 38.2649 29.032 38.5483 28.4731 38.6983C29.031 38.2035 29.5888 37.8426 30.1472 37.5141Z" fill="#CC3722"/>
<path d="M22.8507 43.3134C22.8521 43.8473 22.4781 44.4946 22.0137 44.7629L19.7598 46.0643C19.2982 46.3306 18.9221 46.1158 18.9207 45.5819L18.895 36.4998C18.8936 35.9652 19.2676 35.318 19.7285 35.0517L21.9824 33.7503C22.4474 33.482 22.8236 33.6968 22.8249 34.2307V34.2696L22.8493 43.0771L22.8507 43.3134Z" fill="#35414D"/>
<path d="M20.8832 42.6084C21.3009 42.3673 21.646 42.5583 21.6473 43.0438C21.6487 43.5294 21.3058 44.1177 20.8882 44.3588C20.4656 44.6028 20.1205 44.4117 20.1191 43.9262C20.1178 43.4406 20.4607 42.8523 20.8832 42.6084Z" fill="#7289A0"/>
</g>
<defs>
<clipPath id="clip0_1308_29032">
<rect width="50" height="50" fill="white" transform="translate(0.0571289 0.579956)"/>
</clipPath>
</defs>
</svg>
