<svg width="51" height="51" viewBox="0 0 51 51" fill="none" xmlns="http://www.w3.org/2000/svg">
<g clip-path="url(#clip0_1321_2825)">
<path d="M38.7551 42.9019L38.7491 43.7537C38.749 43.9772 38.6043 44.2007 38.315 44.3698L36.5123 45.4148L31.46 48.3623L27.7158 50.5428C27.3542 50.7482 26.8658 50.8267 26.4016 50.7844C26.1001 50.7541 25.8168 50.6756 25.5817 50.5367L24.605 49.9748L21.9102 48.4162L20.5296 47.6188C20.2342 47.4436 20.0835 47.2201 20.0835 46.9966L20.0896 46.1388C20.1981 45.9697 21.006 45.7523 21.9103 45.6254C22.4408 45.5469 22.5855 45.263 22.5795 45.0033L24.1409 46.592C24.2796 46.4773 24.4303 46.3625 24.6052 46.2538L25.9616 47.4741C26.0942 47.5526 26.245 47.613 26.4017 47.6553C26.9624 47.8003 27.6377 47.7399 28.0898 47.4802L31.4602 45.2453L35.3006 42.7024C35.4091 42.636 35.9216 42.6843 36.5124 42.7508C37.5132 42.8596 38.7551 43.0409 38.7551 42.9019Z" fill="#0D1116"/>
<path d="M38.3084 42.2766C38.899 42.6183 38.9021 43.172 38.3159 43.5134L27.7158 49.6848C27.1289 50.0264 26.1754 50.0261 25.5847 49.6843L20.5322 46.7612C19.9421 46.4199 19.9385 45.8665 20.5253 45.5248L31.1254 39.3534C31.7117 39.0121 32.6658 39.0121 33.2558 39.3535L38.3084 42.2766Z" fill="#181E25"/>
<path d="M31.5258 43.6022C33.0172 44.4633 33.0197 45.8577 31.5432 46.7158C30.0641 47.5753 27.6594 47.5769 26.1679 46.7158C24.6817 45.8578 24.6766 44.4649 26.1557 43.6053C27.6322 42.7472 30.0396 42.7441 31.5258 43.6022Z" fill="#35414D"/>
<path d="M32.0285 30.4128L31.9879 44.7231C31.9866 45.1923 31.6781 45.6605 31.0635 46.0177C29.8252 46.7373 27.8121 46.7386 26.5635 46.0177C25.9382 45.6567 25.6261 45.1827 25.6274 44.709L25.668 30.3987C25.6667 30.8723 25.9788 31.3464 26.604 31.7074C27.8526 32.4283 29.8658 32.427 31.104 31.7074C31.7187 31.3502 32.0272 30.882 32.0285 30.4128Z" fill="#2C3640"/>
<path d="M37.2535 5.69436L36.3477 6.27365L27.2902 12.0298L18.238 17.7912L17.148 18.4863C15.1417 19.645 17.385 17.8386 17.843 20.3454L17.5272 26.17L17.0637 34.633L16.8215 39.141C19.5808 38.9515 18.9121 41.1001 17.3323 43.3225C16.1316 45.0078 14.4045 46.7351 13.2564 47.504L12.161 47.1617C11.1342 46.8405 10.3285 45.8504 10.0601 44.3705L7.76403 31.7102C7.76403 31.7102 6.14734 22.7468 6.13153 22.5889C5.89986 20.1926 7.12687 17.5121 9.00686 16.4219L35.2735 1.2601C36.1003 0.78084 36.9165 0.686049 37.6326 0.912499L38.728 1.25483C39.9128 2.88211 40.8554 7.9273 37.2535 5.69436Z" fill="#0D1116"/>
<path d="M36.369 1.60181C38.3764 0.442744 40.3724 1.53651 40.8275 4.04498L44.6922 25.3512C45.1472 27.8597 43.8888 30.8325 41.8814 31.9916L15.6144 47.158C13.607 48.317 11.611 47.2232 11.156 44.7147L7.29126 23.4085C6.83625 20.9001 8.09462 17.9273 10.102 16.7682L36.369 1.60181Z" fill="#181E25"/>
<path d="M39.7504 4.24055C39.526 3.00298 38.8429 2.23413 37.9676 2.23413C37.6333 2.23413 37.2796 2.34042 36.9165 2.55008L10.6496 17.7165C9.04117 18.6452 7.99678 21.1625 8.36879 23.2132L8.43152 23.5596L39.9533 5.35913L39.7504 4.24055Z" fill="#0D1116"/>
<path d="M39.953 5.35913L8.43115 23.5596L12.2331 44.5195C12.4575 45.7571 13.1406 46.5259 14.0159 46.5259C14.3502 46.5259 14.7038 46.4196 15.0669 46.21L41.3339 31.0436C42.9423 30.115 43.9867 27.5977 43.6147 25.5468L39.953 5.35913Z" fill="#202931"/>
<path d="M14.9795 16.6883C15.3538 16.4722 15.7692 16.6859 15.9097 17.1656C16.0494 17.6431 15.8615 18.2065 15.4872 18.4226C15.1138 18.6382 14.6963 18.4243 14.5565 17.9469C14.4161 17.4672 14.6061 16.9039 14.9795 16.6883Z" fill="#181E25"/>
<path d="M12.6577 18.0028C13.0311 17.7872 13.4475 18.0004 13.5879 18.4801C13.7277 18.9576 13.5388 19.5215 13.1654 19.7371C12.792 19.9527 12.3745 19.7388 12.2348 19.2613C12.0943 18.7816 12.2843 18.2184 12.6577 18.0028Z" fill="#181E25"/>
<path d="M10.3346 19.3178C10.7089 19.1017 11.1252 19.3149 11.2656 19.7946C11.4054 20.2721 11.2166 20.836 10.8423 21.0521C10.4698 21.2672 10.0523 21.0533 9.9125 20.5758C9.77208 20.0961 9.96208 19.5329 10.3346 19.3178Z" fill="#181E25"/>
<path d="M16.2509 24.6687C17.0464 24.2094 17.8482 24.6462 18.042 25.6442C18.2358 26.6431 17.7482 27.8253 16.9527 28.2846C16.1565 28.7442 15.3545 28.3067 15.1606 27.3078C14.9669 26.3097 15.4547 25.1284 16.2509 24.6687Z" fill="#162830"/>
<path d="M16.9541 28.2851C16.1577 28.7428 15.354 28.3067 15.1594 27.3085C15.1234 27.1211 15.1126 26.9265 15.1198 26.7355C15.1882 26.7355 15.2531 26.7319 15.318 26.7247C15.6712 26.685 16.0027 26.4904 16.2082 26.2021C16.2694 26.1192 16.3234 26.0219 16.4207 25.9895C16.5433 25.9426 16.6802 26.0255 16.8136 26.0183C16.9793 26.0111 17.1127 25.8633 17.174 25.7084C17.2388 25.5534 17.2532 25.384 17.3037 25.2219C17.3614 25.0489 17.4659 24.8975 17.6028 24.7786C17.8118 24.9768 17.9704 25.2723 18.0425 25.6435C18.2371 26.6418 17.7469 27.8238 16.9541 28.2851Z" fill="#162830"/>
<path d="M17.0838 28.9613C18.9296 27.8956 20.7904 28.7708 21.4216 30.9107C21.4942 31.1583 21.3766 31.4803 21.1677 31.6009L14.7437 35.3098C14.5348 35.4304 14.3284 35.2955 14.3 35.0223C14.0577 32.6579 15.2373 30.0274 17.0838 28.9613Z" fill="#162830"/>
<path d="M21.1663 31.5996L14.7452 35.311C14.5362 35.4299 14.3272 35.2966 14.2984 35.0227C14.1758 33.8156 14.4245 32.5401 14.9434 31.4375C15.174 31.3726 15.4154 31.3438 15.6532 31.351C16.0604 31.3618 16.4855 31.4699 16.8675 31.3258C17.2603 31.1816 17.5161 30.8105 17.7396 30.4574C17.808 30.3493 17.88 30.234 17.9918 30.1691C18.1539 30.0718 18.3593 30.1042 18.5431 30.0682C18.7917 30.0214 19.0115 29.8448 19.1123 29.6106C19.2349 29.3223 19.1773 28.9692 19.3466 28.7026C19.3646 28.6737 19.3862 28.6485 19.4114 28.6233C20.3231 28.9043 21.069 29.7079 21.4221 30.9114C21.4942 31.1564 21.3752 31.4807 21.1663 31.5996Z" fill="#162830"/>
<path d="M16.7689 24.7141C17.5644 24.2549 18.3663 24.6916 18.56 25.6896C18.7539 26.6885 18.2662 27.8707 17.4707 28.33C16.6746 28.7897 15.8725 28.3521 15.6787 27.3532C15.485 26.3551 15.9728 25.1738 16.7689 24.7141Z" fill="#FF492C"/>
<path d="M17.6018 29.0062C19.4477 27.9405 21.3084 28.8157 21.9397 30.9556C22.0123 31.2032 21.8946 31.5253 21.6857 31.6459L15.2618 35.3547C15.0529 35.4754 14.8465 35.3404 14.8181 35.0673C14.5758 32.7028 15.7553 30.0723 17.6018 29.0062Z" fill="#546577"/>
<path d="M24.5922 19.8528C25.3877 19.3935 26.1895 19.8303 26.3833 20.8283C26.5771 21.8272 26.0895 23.0094 25.294 23.4687C24.4978 23.9283 23.6958 23.4908 23.5019 22.4919C23.3082 21.4938 23.796 20.3125 24.5922 19.8528Z" fill="#162830"/>
<path d="M25.2959 23.4692C24.4994 23.9269 23.6958 23.4908 23.5012 22.4926C23.4652 22.3051 23.4544 22.1105 23.4616 21.9195C23.53 21.9195 23.5949 21.9159 23.6598 21.9087C24.013 21.8691 24.3445 21.6745 24.55 21.3862C24.6112 21.3033 24.6652 21.206 24.7625 21.1736C24.8851 21.1267 25.022 21.2096 25.1554 21.2024C25.3211 21.1952 25.4545 21.0474 25.5158 20.8924C25.5806 20.7375 25.595 20.5681 25.6454 20.4059C25.7032 20.2329 25.8077 20.0816 25.9446 19.9626C26.1536 20.1609 26.3122 20.4564 26.3843 20.8276C26.5789 21.8259 26.0887 23.0079 25.2959 23.4692Z" fill="#162830"/>
<path d="M25.4246 24.1449C27.2704 23.0792 29.1312 23.9544 29.7624 26.0943C29.8351 26.3419 29.7174 26.6639 29.5085 26.7845L23.0845 30.4934C22.8756 30.614 22.6693 30.4791 22.6408 30.2059C22.3985 27.8415 23.5781 25.211 25.4246 24.1449Z" fill="#162830"/>
<path d="M29.5076 26.7834L23.0865 30.4948C22.8775 30.6137 22.6685 30.4804 22.6397 30.2066C22.5172 28.9995 22.7658 27.7239 23.2847 26.6213C23.5153 26.5564 23.7568 26.5276 23.9945 26.5348C24.4017 26.5456 24.8268 26.6537 25.2088 26.5096C25.6016 26.3655 25.8574 25.9943 26.0809 25.6412C26.1493 25.5331 26.2213 25.4178 26.3331 25.3529C26.4952 25.2556 26.7006 25.2881 26.8844 25.252C27.133 25.2052 27.3528 25.0286 27.4536 24.7944C27.5762 24.5062 27.5186 24.153 27.6879 23.8864C27.706 23.8576 27.7275 23.8324 27.7527 23.8071C28.6644 24.0882 29.4103 24.8917 29.7634 26.0952C29.8355 26.3402 29.7165 26.6645 29.5076 26.7834Z" fill="#162830"/>
<path d="M25.1102 19.898C25.9058 19.4387 26.7076 19.8754 26.9013 20.8735C27.0952 21.8724 26.6076 23.0545 25.812 23.5138C25.0159 23.9735 24.2138 23.5359 24.02 22.537C23.8263 21.539 24.3141 20.3577 25.1102 19.898Z" fill="#FF492C"/>
<path d="M25.9427 24.1903C27.7885 23.1246 29.6492 23.9998 30.2805 26.1397C30.3531 26.3873 30.2354 26.7093 30.0266 26.83L23.6026 30.5388C23.3937 30.6594 23.1873 30.5245 23.1589 30.2514C22.9166 27.8869 24.0962 25.2564 25.9427 24.1903Z" fill="#546577"/>
<path d="M32.9335 15.0364C33.729 14.5771 34.5309 15.0139 34.7246 16.0119C34.9184 17.0108 34.4308 18.193 33.6353 18.6523C32.8391 19.1119 32.0371 18.6744 31.8432 17.6755C31.6495 16.6774 32.1373 15.4961 32.9335 15.0364Z" fill="#162830"/>
<path d="M33.6362 18.6528C32.8398 19.1105 32.0361 18.6744 31.8415 17.6761C31.8055 17.4887 31.7947 17.2941 31.8019 17.1031C31.8704 17.1031 31.9352 17.0995 32.0001 17.0923C32.3533 17.0527 32.6848 16.8581 32.8903 16.5698C32.9515 16.4869 33.0055 16.3896 33.1029 16.3571C33.2254 16.3103 33.3623 16.3932 33.4957 16.386C33.6615 16.3788 33.7949 16.231 33.8561 16.076C33.9209 15.9211 33.9354 15.7517 33.9858 15.5895C34.0435 15.4165 34.148 15.2652 34.2849 15.1462C34.494 15.3445 34.6525 15.64 34.7246 16.0112C34.9192 17.0094 34.429 18.1915 33.6362 18.6528Z" fill="#162830"/>
<path d="M33.7664 19.329C35.6122 18.2633 37.473 19.1385 38.1042 21.2784C38.1769 21.526 38.0592 21.848 37.8503 21.9686L31.4263 25.6775C31.2174 25.7981 31.0111 25.6632 30.9826 25.39C30.7403 23.0255 31.9199 20.3951 33.7664 19.329Z" fill="#162830"/>
<path d="M37.8484 21.9673L31.4273 25.6787C31.2183 25.7976 31.0094 25.6643 30.9805 25.3904C30.858 24.1833 31.1067 22.9077 31.6255 21.8051C31.8561 21.7403 32.0976 21.7115 32.3354 21.7187C32.7425 21.7295 33.1677 21.8376 33.5496 21.6934C33.9424 21.5493 34.1982 21.1782 34.4217 20.825C34.4901 20.7169 34.5622 20.6016 34.6739 20.5368C34.836 20.4395 35.0414 20.4719 35.2252 20.4359C35.4738 20.389 35.6937 20.2125 35.7945 19.9783C35.917 19.69 35.8594 19.3369 36.0287 19.0702C36.0468 19.0414 36.0683 19.0162 36.0936 18.991C37.0052 19.272 37.7511 20.0755 38.1042 21.2791C38.1763 21.5241 38.0573 21.8484 37.8484 21.9673Z" fill="#162830"/>
<path d="M33.4515 15.0816C34.2471 14.6223 35.0489 15.059 35.2426 16.0571C35.4365 17.056 34.9489 18.2381 34.1534 18.6974C33.3572 19.1571 32.5552 18.7195 32.3613 17.7206C32.1676 16.7226 32.6554 15.5412 33.4515 15.0816Z" fill="#FF492C"/>
<path d="M34.284 19.3736C36.1298 18.3079 37.9906 19.1831 38.6218 21.323C38.6944 21.5707 38.5768 21.8927 38.3679 22.0133L31.9439 25.7222C31.735 25.8428 31.5286 25.7079 31.5002 25.4347C31.2579 23.0702 32.4375 20.4397 34.284 19.3736Z" fill="#546577"/>
<path d="M21.0164 34.094C21.0561 34.0711 21.1013 34.0768 21.1276 34.1251L21.4645 34.757C21.487 34.8012 21.5321 34.8138 21.5749 34.7891L22.1976 34.4296C22.2939 34.374 22.364 34.5052 22.2992 34.6211L21.8851 35.3704C21.8564 35.4218 21.8524 35.4876 21.8755 35.5303L22.2126 36.1633C22.2519 36.2372 22.2116 36.3456 22.1498 36.3813C22.1304 36.3925 22.1089 36.3965 22.087 36.3901L21.494 36.2222C21.4735 36.2166 21.4517 36.2205 21.4314 36.2322C21.4111 36.2439 21.3924 36.2635 21.378 36.2892L20.9631 37.0391C20.9478 37.0669 20.9292 37.086 20.9099 37.0972C20.848 37.1329 20.778 37.0882 20.7836 36.9883L20.8318 36.1329C20.8354 36.0748 20.8092 36.0264 20.7683 36.0152L20.1761 35.8468C20.084 35.8216 20.0941 35.644 20.1905 35.5884L20.8131 35.2289C20.8559 35.2042 20.8875 35.1473 20.8909 35.0881L20.9385 34.2343C20.9426 34.1684 20.9767 34.117 21.0164 34.094Z" fill="#162830"/>
<path d="M18.5138 35.5386C18.5535 35.5157 18.5987 35.5213 18.6245 35.5699L18.9614 36.2018C18.9848 36.2456 19.029 36.2586 19.0727 36.2334L19.6944 35.8744C19.7908 35.8188 19.8609 35.9501 19.797 36.0654L19.382 36.8152C19.3533 36.8666 19.3501 36.9319 19.3733 36.9746L19.7104 37.6076C19.7497 37.6816 19.7094 37.7899 19.6476 37.8256C19.6282 37.8368 19.6067 37.8409 19.5848 37.8344L18.9917 37.6666C18.9713 37.6609 18.9493 37.665 18.9288 37.6768C18.9082 37.6886 18.8892 37.7083 18.8749 37.734L18.46 38.4839C18.4447 38.5117 18.4261 38.5308 18.4067 38.542C18.3449 38.5777 18.2749 38.533 18.2805 38.4332L18.3287 37.5777C18.3323 37.5196 18.307 37.4708 18.2661 37.4595L17.673 37.2916C17.5817 37.2659 17.5919 37.0883 17.6873 37.0332L18.31 36.6737C18.3528 36.649 18.3844 36.5922 18.3878 36.5329L18.4363 35.6786C18.4399 35.613 18.4741 35.5615 18.5138 35.5386Z" fill="#162830"/>
<path d="M16.0118 36.9835C16.0516 36.9606 16.0971 36.9661 16.1233 37.0144L16.4594 37.6468C16.4827 37.6905 16.5278 37.7031 16.5707 37.6784L17.1933 37.3189C17.2896 37.2633 17.3589 37.395 17.2949 37.5104L16.8809 38.2597C16.8522 38.3111 16.8481 38.3769 16.8712 38.4196L17.2084 39.0526C17.2477 39.1265 17.2074 39.2349 17.1456 39.2706C17.1262 39.2818 17.1046 39.2858 17.0828 39.2794L16.4897 39.1116C16.4693 39.1059 16.4475 39.1098 16.4272 39.1215C16.4069 39.1332 16.3881 39.1528 16.3738 39.1785L15.9588 39.9284C15.9436 39.9561 15.9249 39.9753 15.9055 39.9865C15.8434 40.0224 15.7731 39.9779 15.7793 39.8776L15.8276 39.0222C15.8303 38.9646 15.8049 38.9157 15.7641 38.9045L15.171 38.7366C15.0797 38.7109 15.0899 38.5333 15.1862 38.4777L15.8089 38.1182C15.8517 38.0935 15.8833 38.0366 15.8858 37.9779L15.9342 37.1236C15.9379 37.058 15.972 37.0065 16.0118 36.9835Z" fill="#162830"/>
<path d="M21.2342 34.0252C21.2739 34.0023 21.3191 34.0079 21.3454 34.0562L21.6823 34.6881C21.7048 34.7324 21.7499 34.7449 21.7927 34.7202L22.4153 34.3607C22.5117 34.3051 22.5818 34.4364 22.517 34.5522L22.1029 35.3015C22.0742 35.353 22.0701 35.4188 22.0933 35.4614L22.4304 36.0944C22.4697 36.1684 22.4294 36.2767 22.3676 36.3124C22.3482 36.3236 22.3267 36.3277 22.3048 36.3213L21.7118 36.1534C21.6913 36.1478 21.6695 36.1517 21.6492 36.1634C21.6289 36.1751 21.6101 36.1946 21.5958 36.2204L21.1808 36.9702C21.1656 36.998 21.147 37.0171 21.1276 37.0283C21.0658 37.064 20.9958 37.0193 21.0014 36.9195L21.0496 36.064C21.0532 36.0059 21.0269 35.9576 20.9861 35.9463L20.3939 35.778C20.3017 35.7528 20.3119 35.5752 20.4083 35.5195L21.0309 35.16C21.0737 35.1353 21.1053 35.0785 21.1087 35.0193L21.1563 34.1654C21.1604 34.0996 21.1945 34.0481 21.2342 34.0252Z" fill="#546577"/>
<path d="M18.7325 35.4698C18.7722 35.4469 18.8175 35.4525 18.8432 35.5011L19.1801 36.133C19.2035 36.1767 19.2477 36.1898 19.2914 36.1645L19.9132 35.8056C20.0095 35.7499 20.0796 35.8812 20.0157 35.9965L19.6008 36.7464C19.5721 36.7978 19.5689 36.8631 19.592 36.9058L19.9292 37.5388C19.9684 37.6127 19.9282 37.721 19.8663 37.7567C19.8469 37.7679 19.8254 37.772 19.8036 37.7656L19.2105 37.5977C19.1901 37.5921 19.168 37.5961 19.1475 37.6079C19.127 37.6198 19.108 37.6395 19.0936 37.6652L18.6787 38.415C18.6635 38.4428 18.6449 38.4619 18.6255 38.4731C18.5637 38.5088 18.4937 38.4642 18.4992 38.3643L18.5475 37.5088C18.5511 37.4507 18.5257 37.4019 18.4848 37.3907L17.8918 37.2228C17.8005 37.1971 17.8107 37.0195 17.9061 36.9644L18.5287 36.6049C18.5716 36.5801 18.6032 36.5233 18.6066 36.4641L18.655 35.6097C18.6587 35.5442 18.6928 35.4927 18.7325 35.4698Z" fill="#546577"/>
<path d="M16.2296 36.9147C16.2694 36.8917 16.3149 36.8972 16.3411 36.9455L16.6771 37.5779C16.7005 37.6217 16.7456 37.6342 16.7884 37.6095L17.4111 37.25C17.5074 37.1944 17.5766 37.3262 17.5127 37.4415L17.0987 38.1908C17.07 38.2423 17.0659 38.3081 17.089 38.3507L17.4262 38.9837C17.4654 39.0577 17.4252 39.166 17.3633 39.2017C17.3439 39.2129 17.3224 39.217 17.3005 39.2106L16.7075 39.0427C16.6871 39.0371 16.6652 39.041 16.645 39.0527C16.6246 39.0644 16.6059 39.084 16.5915 39.1097L16.1766 39.8595C16.1614 39.8873 16.1427 39.9065 16.1233 39.9177C16.0612 39.9535 15.9909 39.909 15.9971 39.8088L16.0453 38.9533C16.048 38.8957 16.0227 38.8469 15.9818 38.8356L15.3888 38.6678C15.2975 38.6421 15.3076 38.4645 15.404 38.4088L16.0266 38.0493C16.0694 38.0246 16.1011 37.9678 16.1035 37.9091L16.152 37.0547C16.1556 36.9892 16.1898 36.9377 16.2296 36.9147Z" fill="#546577"/>
<path d="M29.6414 29.1907C29.6811 29.1678 29.7263 29.1734 29.7526 29.2218L30.0895 29.8536C30.112 29.8979 30.1571 29.9105 30.1999 29.8857L30.8226 29.5263C30.9189 29.4706 30.989 29.6019 30.9242 29.7177L30.5101 30.4671C30.4814 30.5185 30.4774 30.5843 30.5005 30.627L30.8376 31.26C30.8769 31.3339 30.8366 31.4423 30.7748 31.478C30.7554 31.4892 30.7339 31.4932 30.712 31.4868L30.119 31.3189C30.0985 31.3133 30.0767 31.3172 30.0564 31.3289C30.0361 31.3406 30.0174 31.3602 30.003 31.3859L29.5881 32.1357C29.5728 32.1635 29.5542 32.1827 29.5349 32.1938C29.473 32.2295 29.403 32.1849 29.4086 32.085L29.4568 31.2295C29.4604 31.1714 29.4342 31.1231 29.3933 31.1119L28.8011 30.9435C28.709 30.9183 28.7191 30.7407 28.8155 30.685L29.4381 30.3256C29.4809 30.3008 29.5125 30.244 29.5159 30.1848L29.5635 29.3309C29.5676 29.2651 29.6017 29.2137 29.6414 29.1907Z" fill="#162830"/>
<path d="M27.1388 30.6353C27.1785 30.6124 27.2237 30.618 27.2495 30.6666L27.5864 31.2985C27.6098 31.3422 27.654 31.3553 27.6977 31.3301L28.3194 30.9711C28.4158 30.9155 28.4859 31.0467 28.422 31.1621L28.007 31.9119C27.9783 31.9633 27.9751 32.0286 27.9983 32.0713L28.3354 32.7043C28.3747 32.7782 28.3344 32.8866 28.2726 32.9223C28.2532 32.9335 28.2317 32.9375 28.2098 32.9311L27.6167 32.7632C27.5963 32.7576 27.5743 32.7616 27.5538 32.7735C27.5332 32.7853 27.5142 32.805 27.4999 32.8307L27.085 33.5806C27.0697 33.6084 27.0511 33.6275 27.0317 33.6387C26.9699 33.6744 26.8999 33.6297 26.9055 33.5299L26.9537 32.6744C26.9573 32.6163 26.932 32.5674 26.8911 32.5562L26.298 32.3883C26.2067 32.3626 26.2169 32.185 26.3123 32.1299L26.935 31.7704C26.9778 31.7457 27.0094 31.6888 27.0128 31.6296L27.0613 30.7753C27.0649 30.7097 27.0991 30.6582 27.1388 30.6353Z" fill="#162830"/>
<path d="M24.6364 32.0802C24.6762 32.0572 24.7216 32.0627 24.7478 32.1111L25.0839 32.7435C25.1073 32.7872 25.1523 32.7998 25.1952 32.775L25.8178 32.4156C25.9141 32.3599 25.9834 32.4917 25.9194 32.607L25.5054 33.3564C25.4767 33.4078 25.4726 33.4736 25.4958 33.5163L25.8329 34.1493C25.8722 34.2232 25.8319 34.3316 25.7701 34.3673C25.7507 34.3785 25.7291 34.3825 25.7073 34.3761L25.1142 34.2082C25.0938 34.2026 25.072 34.2065 25.0517 34.2182C25.0314 34.2299 25.0126 34.2495 24.9983 34.2752L24.5833 35.025C24.5681 35.0528 24.5494 35.072 24.53 35.0832C24.4679 35.119 24.3976 35.0746 24.4039 34.9743L24.4521 34.1188C24.4548 34.0613 24.4294 34.0124 24.3886 34.0012L23.7955 33.8333C23.7042 33.8076 23.7144 33.63 23.8107 33.5743L24.4334 33.2149C24.4762 33.1902 24.5078 33.1333 24.5103 33.0746L24.5587 32.2202C24.5624 32.1547 24.5965 32.1032 24.6364 32.0802Z" fill="#162830"/>
<path d="M29.8592 29.1216C29.8989 29.0987 29.9441 29.1044 29.9704 29.1527L30.3073 29.7846C30.3298 29.8288 30.3749 29.8414 30.4177 29.8167L31.0403 29.4572C31.1367 29.4015 31.2068 29.5328 31.142 29.6486L30.7279 30.398C30.6992 30.4494 30.6951 30.5152 30.7183 30.5579L31.0554 31.1909C31.0947 31.2648 31.0544 31.3732 30.9926 31.4089C30.9732 31.4201 30.9517 31.4241 30.9298 31.4177L30.3368 31.2498C30.3163 31.2442 30.2945 31.2481 30.2742 31.2598C30.2539 31.2715 30.2351 31.2911 30.2208 31.3168L29.8058 32.0666C29.7906 32.0944 29.772 32.1136 29.7526 32.1247C29.6908 32.1605 29.6208 32.1158 29.6264 32.0159L29.6746 31.1604C29.6782 31.1024 29.652 31.054 29.6111 31.0428L29.0189 30.8744C28.9267 30.8492 28.9369 30.6716 29.0333 30.616L29.6559 30.2565C29.6987 30.2318 29.7303 30.1749 29.7337 30.1157L29.7813 29.2619C29.7854 29.196 29.8195 29.1446 29.8592 29.1216Z" fill="#546577"/>
<path d="M27.357 30.5662C27.3967 30.5433 27.442 30.5489 27.4678 30.5975L27.8047 31.2294C27.828 31.2731 27.8722 31.2862 27.9159 31.261L28.5377 30.902C28.634 30.8464 28.7041 30.9777 28.6402 31.093L28.2253 31.8428C28.1966 31.8942 28.1934 31.9595 28.2165 32.0022L28.5537 32.6352C28.5929 32.7091 28.5527 32.8175 28.4908 32.8532C28.4714 32.8644 28.4499 32.8684 28.4281 32.862L27.835 32.6942C27.8146 32.6885 27.7925 32.6925 27.772 32.7044C27.7515 32.7162 27.7325 32.7359 27.7182 32.7616L27.3032 33.5115C27.288 33.5393 27.2694 33.5584 27.25 33.5696C27.1882 33.6053 27.1182 33.5606 27.1237 33.4608L27.172 32.6053C27.1756 32.5472 27.1502 32.4983 27.1093 32.4871L26.5163 32.3192C26.425 32.2935 26.4352 32.1159 26.5306 32.0608L27.1532 31.7013C27.1961 31.6766 27.2277 31.6197 27.2311 31.5605L27.2795 30.7062C27.2832 30.6406 27.3173 30.5891 27.357 30.5662Z" fill="#546577"/>
<path d="M24.8546 32.0111C24.8944 31.9882 24.9399 31.9936 24.9661 32.042L25.3021 32.6744C25.3255 32.7181 25.3706 32.7307 25.4134 32.7059L26.0361 32.3465C26.1324 32.2908 26.2016 32.4226 26.1377 32.5379L25.7237 33.2873C25.695 33.3387 25.6909 33.4045 25.714 33.4472L26.0512 34.0802C26.0904 34.1541 26.0502 34.2625 25.9883 34.2982C25.9689 34.3094 25.9474 34.3134 25.9255 34.307L25.3325 34.1391C25.3121 34.1335 25.2902 34.1374 25.27 34.1491C25.2496 34.1608 25.2309 34.1804 25.2165 34.2061L24.8016 34.9559C24.7864 34.9837 24.7677 35.0029 24.7483 35.0141C24.6862 35.0499 24.6159 35.0055 24.6221 34.9052L24.6703 34.0497C24.673 33.9922 24.6477 33.9433 24.6068 33.9321L24.0138 33.7642C23.9225 33.7385 23.9326 33.5609 24.029 33.5053L24.6516 33.1458C24.6944 33.1211 24.7261 33.0642 24.7285 33.0055L24.777 32.1512C24.7806 32.0856 24.8148 32.0341 24.8546 32.0111Z" fill="#546577"/>
<path d="M38.2655 24.2872C38.3051 24.2643 38.3504 24.2699 38.3766 24.3182L38.7135 24.9501C38.736 24.9944 38.7811 25.0069 38.8239 24.9822L39.4466 24.6227C39.5429 24.5671 39.613 24.6983 39.5482 24.8142L39.1342 25.5635C39.1055 25.6149 39.1014 25.6808 39.1245 25.7234L39.4617 26.3564C39.5009 26.4303 39.4607 26.5387 39.3988 26.5744C39.3794 26.5856 39.3579 26.5896 39.3361 26.5832L38.743 26.4154C38.7226 26.4097 38.7007 26.4136 38.6805 26.4253C38.6602 26.4371 38.6414 26.4566 38.627 26.4823L38.2121 27.2322C38.1969 27.26 38.1783 27.2791 38.1589 27.2903C38.097 27.326 38.0271 27.2813 38.0326 27.1815L38.0808 26.326C38.0845 26.2679 38.0582 26.2196 38.0173 26.2083L37.4252 26.0399C37.333 26.0147 37.3431 25.8371 37.4395 25.7815L38.0621 25.422C38.1049 25.3973 38.1366 25.3404 38.14 25.2812L38.1875 24.4274C38.1916 24.3615 38.2258 24.3101 38.2655 24.2872Z" fill="#162830"/>
<path d="M35.7633 25.7317C35.803 25.7088 35.8482 25.7144 35.874 25.763L36.2109 26.3949C36.2343 26.4387 36.2785 26.4517 36.3222 26.4265L36.9439 26.0675C37.0403 26.0119 37.1104 26.1432 37.0465 26.2585L36.6315 27.0083C36.6028 27.0598 36.5996 27.1251 36.6228 27.1677L36.9599 27.8007C36.9992 27.8747 36.9589 27.983 36.8971 28.0187C36.8777 28.0299 36.8562 28.034 36.8343 28.0276L36.2413 27.8597C36.2208 27.8541 36.1988 27.8581 36.1783 27.8699C36.1578 27.8818 36.1388 27.9014 36.1244 27.9271L35.7095 28.677C35.6943 28.7048 35.6757 28.7239 35.6562 28.7351C35.5944 28.7708 35.5244 28.7261 35.53 28.6263L35.5782 27.7708C35.5818 27.7127 35.5565 27.6639 35.5156 27.6526L34.9225 27.4847C34.8313 27.459 34.8414 27.2814 34.9369 27.2263L35.5595 26.8668C35.6023 26.8421 35.6339 26.7853 35.6373 26.7261L35.6858 25.8717C35.6894 25.8061 35.7236 25.7547 35.7633 25.7317Z" fill="#162830"/>
<path d="M33.2609 27.1767C33.3007 27.1537 33.3461 27.1592 33.3724 27.2075L33.7084 27.8399C33.7318 27.8837 33.7769 27.8962 33.8197 27.8715L34.4423 27.512C34.5387 27.4564 34.6079 27.5882 34.544 27.7035L34.1299 28.4528C34.1012 28.5042 34.0971 28.5701 34.1203 28.6127L34.4574 29.2457C34.4967 29.3197 34.4564 29.428 34.3946 29.4637C34.3752 29.4749 34.3537 29.479 34.3318 29.4725L33.7387 29.3047C33.7183 29.299 33.6965 29.3029 33.6762 29.3146C33.6559 29.3264 33.6371 29.3459 33.6228 29.3716L33.2078 30.1215C33.1926 30.1493 33.174 30.1684 33.1545 30.1796C33.0925 30.2155 33.0221 30.171 33.0284 30.0708L33.0766 29.2153C33.0793 29.1577 33.054 29.1089 33.0131 29.0976L32.42 28.9297C32.3287 28.904 32.3389 28.7264 32.4352 28.6708L33.0579 28.3113C33.1007 28.2866 33.1323 28.2298 33.1348 28.1711L33.1833 27.3167C33.1869 27.2511 33.2211 27.1996 33.2609 27.1767Z" fill="#162830"/>
<path d="M38.4837 24.2181C38.5234 24.1952 38.5686 24.2008 38.5949 24.2491L38.9318 24.881C38.9543 24.9253 38.9994 24.9378 39.0422 24.9131L39.6648 24.5536C39.7612 24.498 39.8313 24.6292 39.7665 24.7451L39.3524 25.4944C39.3237 25.5458 39.3196 25.6117 39.3428 25.6543L39.6799 26.2873C39.7192 26.3613 39.6789 26.4696 39.6171 26.5053C39.5977 26.5165 39.5762 26.5206 39.5543 26.5141L38.9613 26.3463C38.9408 26.3406 38.919 26.3445 38.8987 26.3562C38.8784 26.368 38.8596 26.3875 38.8453 26.4132L38.4303 27.1631C38.4151 27.1909 38.3965 27.21 38.3771 27.2212C38.3153 27.2569 38.2453 27.2122 38.2509 27.1124L38.2991 26.2569C38.3027 26.1988 38.2765 26.1505 38.2356 26.1392L37.6434 25.9708C37.5512 25.9456 37.5614 25.768 37.6578 25.7124L38.2804 25.3529C38.3232 25.3282 38.3548 25.2714 38.3582 25.2121L38.4058 24.3583C38.4099 24.2925 38.444 24.241 38.4837 24.2181Z" fill="#546577"/>
<path d="M35.9815 25.6626C36.0212 25.6397 36.0665 25.6453 36.0923 25.6939L36.4292 26.3258C36.4525 26.3696 36.4968 26.3826 36.5405 26.3574L37.1622 25.9984C37.2585 25.9428 37.3287 26.0741 37.2647 26.1894L36.8498 26.9392C36.8211 26.9907 36.8179 27.056 36.841 27.0986L37.1782 27.7316C37.2175 27.8056 37.1772 27.9139 37.1154 27.9496C37.096 27.9608 37.0744 27.9649 37.0526 27.9585L36.4595 27.7906C36.4391 27.785 36.417 27.789 36.3965 27.8008C36.376 27.8127 36.357 27.8323 36.3427 27.8581L35.9277 28.6079C35.9125 28.6357 35.8939 28.6548 35.8745 28.666C35.8127 28.7017 35.7427 28.657 35.7482 28.5572L35.7965 27.7017C35.8001 27.6436 35.7747 27.5948 35.7339 27.5835L35.1408 27.4157C35.0495 27.3899 35.0597 27.2123 35.1551 27.1572L35.7778 26.7977C35.8206 26.773 35.8522 26.7162 35.8556 26.657L35.904 25.8026C35.9077 25.737 35.9418 25.6856 35.9815 25.6626Z" fill="#546577"/>
<path d="M33.4786 27.1076C33.5184 27.0846 33.5639 27.0901 33.5901 27.1384L33.9262 27.7708C33.9495 27.8146 33.9946 27.8271 34.0375 27.8024L34.6601 27.4429C34.7564 27.3873 34.8257 27.5191 34.7617 27.6344L34.3477 28.3837C34.319 28.4351 34.3149 28.501 34.338 28.5436L34.6752 29.1766C34.7145 29.2506 34.6742 29.3589 34.6124 29.3946C34.5929 29.4058 34.5714 29.4099 34.5496 29.4035L33.9565 29.2356C33.9361 29.23 33.9143 29.2338 33.894 29.2455C33.8737 29.2573 33.8549 29.2768 33.8406 29.3025L33.4256 30.0524C33.4104 30.0802 33.3917 30.0993 33.3723 30.1106C33.3102 30.1464 33.2399 30.1019 33.2461 30.0017L33.2944 29.1462C33.2971 29.0886 33.2717 29.0398 33.2309 29.0285L32.6378 28.8606C32.5465 28.8349 32.5567 28.6573 32.653 28.6017L33.2757 28.2422C33.3185 28.2175 33.3501 28.1607 33.3526 28.102L33.401 27.2476C33.4047 27.182 33.4388 27.1306 33.4786 27.1076Z" fill="#546577"/>
</g>
<defs>
<clipPath id="clip0_1321_2825">
<rect width="50" height="50" fill="white" transform="translate(0.444336 0.79541)"/>
</clipPath>
</defs>
</svg>
