<svg width="51" height="51" viewBox="0 0 51 51" fill="none" xmlns="http://www.w3.org/2000/svg">
<g clip-path="url(#clip0_1327_3961)">
<path d="M10.4613 50.3628L9.02544 49.5272C8.45848 49.1974 8.10837 48.4989 8.10647 47.504L8.02686 21.0024L15.034 21.4366L11.8843 48.6107C11.8862 49.6057 9.89628 50.033 10.4613 50.3628Z" fill="#546577"/>
<path d="M9.47559 26.5575L40.9902 8.36255L41.0565 30.1445C41.0622 32.1454 39.6555 34.5818 37.9143 35.5871L12.7035 50.1426C10.9634 51.1472 9.54754 50.3404 9.54187 48.3395L9.47559 26.5575Z" fill="#202931"/>
<path d="M40.0577 1.62237C40.1676 3.22958 40.0673 7.34308 38.3328 5.41007L15.0804 17.9935C13.3407 18.9977 12.9904 20.0705 12.996 22.0697L9.47573 26.5571L8.03982 25.7233L8.02688 21.0024C8.01947 19.0033 9.4276 16.5669 11.1673 15.5627L36.3781 1.00725C37.2545 0.50144 38.0474 0.455121 38.6218 0.786764L40.0577 1.62237Z" fill="#35414D"/>
<path d="M37.8143 1.84198C39.5556 0.836643 40.9714 1.6435 40.9771 3.64301L40.9904 8.36245L9.4758 26.5574L9.46242 21.838C9.45675 19.8385 10.8634 17.4021 12.6035 16.3974L37.8143 1.84198Z" fill="#181E25"/>
<path d="M12.8987 19.7773C13.4755 19.4443 13.9481 19.7044 13.95 20.3671C13.9519 21.0298 13.4823 21.8432 12.9055 22.1763C12.3328 22.5069 11.8642 22.2352 11.8623 21.5724C11.8604 20.9097 12.326 20.108 12.8987 19.7773Z" fill="#7289A0"/>
<path d="M16.2507 17.8379C16.8275 17.5049 17.3002 17.7649 17.302 18.4277C17.3039 19.0904 16.8343 19.9038 16.2575 20.2368C15.6848 20.5675 15.2162 20.2957 15.2144 19.633C15.2125 18.9702 15.678 18.1685 16.2507 17.8379Z" fill="#7289A0"/>
<path d="M19.6033 15.8982C20.1801 15.5652 20.6527 15.8252 20.6546 16.488C20.6565 17.1507 20.1869 17.9641 19.6101 18.2971C19.0374 18.6278 18.5688 18.356 18.5669 17.6933C18.565 17.0305 19.0306 16.2288 19.6033 15.8982Z" fill="#7289A0"/>
<path d="M15.3605 29.6606C15.4801 29.5916 15.5999 29.6015 15.6449 29.7335L16.4073 31.9678C16.4478 32.0852 16.5634 32.1143 16.6927 32.0396L19.1347 30.6297C19.4244 30.4625 19.5459 30.8181 19.3119 31.1493L17.3397 33.9413C17.2357 34.0891 17.192 34.2689 17.2325 34.3874L17.995 36.6206C18.0635 36.8216 17.898 37.1271 17.7117 37.2347C17.6533 37.2684 17.5928 37.2827 17.5369 37.2681L15.5564 36.7594C15.5041 36.7457 15.4424 36.7594 15.3808 36.795C15.3191 36.8306 15.2575 36.888 15.2055 36.9619L13.2343 39.7522C13.1787 39.8312 13.1184 39.8867 13.0599 39.9204C12.8737 40.0279 12.7069 39.9143 12.7741 39.6349L13.5214 36.5301C13.5611 36.3652 13.5176 36.2358 13.412 36.209L11.4305 35.6996C11.1953 35.6393 11.3144 35.1447 11.6042 34.9775L14.0462 33.5676C14.1755 33.4929 14.2905 33.3307 14.3302 33.1671L15.0775 30.0611C15.1217 29.8775 15.241 29.7296 15.3605 29.6606Z" fill="#162830"/>
<path d="M16.0144 30.0673C16.1339 29.9983 16.2537 30.0082 16.2988 30.1403L17.0622 32.374C17.1027 32.4914 17.2172 32.521 17.3466 32.4463L19.7896 31.0359C20.0783 30.8692 20.1998 31.2248 19.9667 31.5555L17.9936 34.3481C17.8896 34.4958 17.8459 34.6756 17.8864 34.7942L18.6488 37.0273C18.7174 37.2284 18.5518 37.5339 18.3656 37.6414C18.3071 37.6751 18.2467 37.6894 18.1908 37.6748L16.2102 37.1661C16.158 37.1524 16.0965 37.166 16.035 37.2015C15.9734 37.237 15.9119 37.2945 15.8594 37.3687L13.8892 40.1584C13.8333 40.2375 13.7728 40.2931 13.7142 40.3269C13.5275 40.4347 13.3609 40.3209 13.429 40.041L14.1762 36.9362C14.2149 36.772 14.1714 36.6425 14.0659 36.6157L12.0843 36.1064C11.8502 36.0454 11.9683 35.5515 12.258 35.3842L14.701 33.9737C14.8304 33.8991 14.9444 33.7375 14.9841 33.5738L15.7313 30.4679C15.7755 30.2843 15.8949 30.1364 16.0144 30.0673Z" fill="#FF492C"/>
<path d="M24.9284 24.1364C25.048 24.0674 25.1677 24.0773 25.2128 24.2094L25.9752 26.4437C26.0157 26.561 26.1312 26.5901 26.2606 26.5154L28.7026 25.1056C28.9923 24.9383 29.1138 25.2939 28.8798 25.6251L26.9076 28.4172C26.8036 28.5649 26.7599 28.7447 26.8004 28.8633L27.5628 31.0964C27.6314 31.2975 27.4658 31.603 27.2796 31.7105C27.2212 31.7442 27.1607 31.7585 27.1048 31.7439L25.1242 31.2352C25.072 31.2215 25.0103 31.2352 24.9486 31.2708C24.887 31.3064 24.8254 31.3639 24.7734 31.4377L22.8022 34.228C22.7465 34.307 22.6862 34.3625 22.6278 34.3962C22.4415 34.5038 22.2747 34.3902 22.342 34.1107L23.0893 31.0059C23.1289 30.8411 23.0854 30.7116 22.9799 30.6848L20.9984 30.1755C20.7632 30.1151 20.8823 29.6206 21.172 29.4533L23.614 28.0434C23.7434 27.9688 23.8584 27.8066 23.8981 27.6429L24.6453 24.537C24.6896 24.3534 24.8089 24.2054 24.9284 24.1364Z" fill="#162830"/>
<path d="M25.5828 24.5432C25.7023 24.4741 25.8221 24.484 25.8671 24.6161L26.6306 26.8498C26.671 26.9672 26.7856 26.9968 26.9149 26.9222L29.3579 25.5117C29.6466 25.345 29.7681 25.7006 29.5351 26.0313L27.5619 28.8239C27.4579 28.9717 27.4142 29.1515 27.4547 29.27L28.2172 31.5032C28.2857 31.7042 28.1202 32.0097 27.9339 32.1173C27.8755 32.151 27.815 32.1653 27.7591 32.1507L25.7786 31.6419C25.7263 31.6282 25.6649 31.6418 25.6034 31.6773C25.5418 31.7129 25.4802 31.7703 25.4277 31.8445L23.4575 34.6342C23.4016 34.7133 23.3411 34.7689 23.2826 34.8027C23.0959 34.9105 22.9293 34.7968 22.9973 34.5169L23.7446 31.4121C23.7833 31.2478 23.7398 31.1183 23.6342 31.0916L21.6527 30.5822C21.4186 30.5212 21.5367 30.0273 21.8264 29.86L24.2694 28.4496C24.3987 28.3749 24.5127 28.2133 24.5524 28.0496L25.2997 24.9437C25.3439 24.7601 25.4632 24.6122 25.5828 24.5432Z" fill="#FF492C"/>
<path d="M34.4963 18.6123C34.6158 18.5432 34.7356 18.5531 34.7806 18.6852L35.5431 20.9195C35.5836 21.0369 35.6991 21.0659 35.8284 20.9913L38.2704 19.5814C38.5602 19.4141 38.6817 19.7697 38.4476 20.101L36.4755 22.893C36.3714 23.0407 36.3278 23.2206 36.3683 23.3391L37.1307 25.5722C37.1993 25.7733 37.0337 26.0788 36.8474 26.1863C36.789 26.2201 36.7285 26.2343 36.6727 26.2198L34.6921 25.711C34.6399 25.6973 34.5781 25.711 34.5165 25.7466C34.4548 25.7822 34.3933 25.8397 34.3412 25.9136L32.3701 28.7039C32.3144 28.7828 32.2541 28.8383 32.1956 28.8721C32.0094 28.9796 31.8426 28.866 31.9099 28.5865L32.6571 25.4817C32.6968 25.3169 32.6533 25.1874 32.5478 25.1607L30.5663 24.6513C30.3311 24.5909 30.4502 24.0964 30.7399 23.9291L33.1819 22.5193C33.3112 22.4446 33.4263 22.2824 33.4659 22.1187L34.2132 19.0128C34.2574 18.8292 34.3767 18.6813 34.4963 18.6123Z" fill="#162830"/>
<path d="M35.1511 19.019C35.2707 18.95 35.3904 18.9599 35.4355 19.0919L36.1989 21.3257C36.2394 21.443 36.3539 21.4727 36.4833 21.398L38.9263 19.9875C39.215 19.8209 39.3365 20.1765 39.1035 20.5071L37.1303 23.2997C37.0263 23.4475 36.9826 23.6273 37.0231 23.7458L37.7855 25.979C37.8541 26.18 37.6885 26.4855 37.5023 26.5931C37.4439 26.6268 37.3834 26.6411 37.3275 26.6265L35.3469 26.1177C35.2947 26.1041 35.2332 26.1176 35.1717 26.1531C35.1102 26.1887 35.0486 26.2461 34.9961 26.3203L33.0259 29.11C32.97 29.1891 32.9095 29.2447 32.851 29.2785C32.6642 29.3863 32.4977 29.2726 32.5657 28.9927L33.3129 25.8879C33.3516 25.7236 33.3081 25.5942 33.2026 25.5674L31.221 25.0581C30.9869 24.9971 31.105 24.5031 31.3947 24.3359L33.8378 22.9254C33.9671 22.8507 34.0811 22.6891 34.1208 22.5255L34.868 19.4195C34.9123 19.2359 35.0316 19.088 35.1511 19.019Z" fill="#FF492C"/>
</g>
<defs>
<clipPath id="clip0_1327_3961">
<rect width="50" height="50" fill="white" transform="translate(0.444336 0.574707)"/>
</clipPath>
</defs>
</svg>
