<svg width="51" height="51" viewBox="0 0 51 51" fill="none" xmlns="http://www.w3.org/2000/svg">
<g clip-path="url(#clip0_1305_27893)">
<path d="M39.156 42.9462L39.1499 43.798C39.1499 44.0215 39.0052 44.245 38.7158 44.4141L36.9132 45.4591L31.8609 48.4066L28.1167 50.5871C27.7551 50.7925 27.2667 50.871 26.8024 50.8287C26.501 50.7985 26.2177 50.7199 25.9826 50.581L25.0059 50.0192L22.3111 48.4605L20.9305 47.6631C20.6351 47.4879 20.4844 47.2644 20.4844 47.0409L20.4905 46.1831C20.5989 46.014 21.4069 45.7966 22.3112 45.6697C22.8417 45.5912 22.9864 45.3074 22.9804 45.0476L24.5418 46.6363C24.6805 46.5216 24.8312 46.4068 25.0061 46.2981L26.3625 47.5184C26.4951 47.5969 26.6458 47.6573 26.8026 47.6996C27.3632 47.8446 28.0385 47.7843 28.4907 47.5245L31.861 45.2897L35.7015 42.7467C35.81 42.6803 36.3225 42.7286 36.9133 42.7951C37.914 42.9039 39.156 43.0852 39.156 42.9462Z" fill="#546577"/>
<path d="M38.7093 42.321C39.2999 42.6627 39.303 43.2165 38.7168 43.5578L28.1166 49.7292C27.5298 50.0709 26.5763 50.0705 25.9856 49.7288L20.9331 46.8057C20.343 46.4643 20.3393 45.9109 20.9262 45.5692L31.5263 39.3978C32.1125 39.0565 33.0667 39.0565 33.6567 39.3979L38.7093 42.321Z" fill="#181E25"/>
<path d="M31.9266 43.6465C33.4181 44.5076 33.4206 45.902 31.9441 46.7601C30.465 47.6197 28.0603 47.6212 26.5688 46.7601C25.0826 45.9021 25.0774 44.5092 26.5566 43.6496C28.033 42.7916 30.4405 42.7885 31.9266 43.6465Z" fill="#35414D"/>
<path d="M32.4294 30.4571L32.3888 44.7675C32.3875 45.2366 32.079 45.7048 31.4643 46.062C30.2261 46.7816 28.213 46.7829 26.9644 46.062C26.3391 45.7011 26.027 45.227 26.0283 44.7533L26.0689 30.443C26.0676 30.9167 26.3797 31.3907 27.0049 31.7517C28.2535 32.4726 30.2667 32.4713 31.5049 31.7517C32.1195 31.3945 32.428 30.9263 32.4294 30.4571Z" fill="#2C3640"/>
<path d="M37.6544 5.73868L36.7486 6.31796L27.691 12.0741L18.6389 17.8355L17.5489 18.5307C15.5425 19.6893 17.7859 17.8829 18.2439 20.3897L17.928 26.2143L17.4646 34.6773L17.2224 39.1854C19.9817 38.9958 19.3129 41.1444 17.7331 43.3668C16.5325 45.0521 14.8054 46.7794 13.6573 47.5483L12.5619 47.206C11.5351 46.8848 10.7294 45.8947 10.4609 44.4148L8.16491 31.7545C8.16491 31.7545 6.54822 22.7912 6.53241 22.6332C6.30074 20.237 7.52775 17.5564 9.40774 16.4663L35.6743 1.30441C36.5011 0.825151 37.3174 0.730361 38.0335 0.95681L39.1288 1.29914C40.3137 2.92642 41.2563 7.97161 37.6544 5.73868Z" fill="#546577"/>
<path d="M36.7699 1.64625C38.7773 0.487178 40.7733 1.58094 41.2283 4.08942L45.093 25.3956C45.5481 27.9041 44.2897 30.877 42.2823 32.036L16.0153 47.2024C14.0079 48.3615 12.0119 47.2677 11.5569 44.7592L7.69214 23.453C7.23713 20.9445 8.4955 17.9717 10.5029 16.8126L36.7699 1.64625Z" fill="#181E25"/>
<path d="M40.1512 4.28474C39.9269 3.04717 39.2438 2.27832 38.3684 2.27832C38.0342 2.27832 37.6805 2.38461 37.3174 2.59427L11.0504 17.7607C9.44205 18.6894 8.39766 21.2066 8.76967 23.2574L8.8324 23.6037L40.3542 5.40332L40.1512 4.28474Z" fill="#0D1116"/>
<path d="M40.3538 5.40332L8.83203 23.6037L12.634 44.5637C12.8584 45.8013 13.5415 46.5701 14.4168 46.5701C14.7511 46.5701 15.1047 46.4638 15.4678 46.2542L41.7348 31.0878C43.3432 30.1591 44.3876 27.6419 44.0156 25.591L40.3538 5.40332Z" fill="#202931"/>
<path d="M15.3804 16.7326C15.7547 16.5165 16.1701 16.7302 16.3105 17.2099C16.4503 17.6874 16.2623 18.2508 15.8881 18.4669C15.5147 18.6825 15.0972 18.4686 14.9574 17.9912C14.817 17.5115 15.007 16.9482 15.3804 16.7326Z" fill="#181E25"/>
<path d="M13.0586 18.0471C13.432 17.8315 13.8483 18.0447 13.9888 18.5244C14.1285 19.0019 13.9397 19.5658 13.5663 19.7814C13.1929 19.997 12.7754 19.7831 12.6356 19.3057C12.4952 18.826 12.6852 18.2627 13.0586 18.0471Z" fill="#181E25"/>
<path d="M10.7355 19.3621C11.1098 19.146 11.5261 19.3592 11.6665 19.8389C11.8063 20.3164 11.6175 20.8803 11.2432 21.0964C10.8706 21.3115 10.4531 21.0976 10.3134 20.6202C10.173 20.1405 10.363 19.5772 10.7355 19.3621Z" fill="#181E25"/>
<path d="M36.5614 10.997C37.1968 10.6302 37.8771 10.9875 38.0833 11.7925L39.5162 17.3849C39.7224 18.1899 39.377 19.1395 38.7417 19.5063L34.3536 22.0398C33.7182 22.4066 33.0382 22.0491 32.8319 21.2441L31.399 15.6517C31.1928 14.8467 31.538 13.8973 32.1734 13.5304L36.5614 10.997Z" fill="#181E25"/>
<path d="M26.7895 16.663C27.4249 16.2962 28.1051 16.6536 28.3114 17.4586L29.7442 23.0509C29.9505 23.8559 29.6051 24.8055 28.9697 25.1723L24.5816 27.7058C23.9462 28.0726 23.2662 27.7151 23.0599 26.9101L21.6271 21.3177C21.4208 20.5127 21.766 19.5633 22.4014 19.1965L26.7895 16.663Z" fill="#2C3640"/>
<path d="M17.018 22.3292C17.6534 21.9623 18.3336 22.3197 18.5399 23.1247L19.9727 28.7171C20.179 29.5221 19.8336 30.4716 19.1982 30.8385L14.8101 33.3719C14.1748 33.7388 13.4947 33.3813 13.2884 32.5763L11.8556 26.9839C11.6493 26.1789 11.9945 25.2294 12.6299 24.8626L17.018 22.3292Z" fill="#181E25"/>
<path d="M37.1752 10.997C37.8106 10.6302 38.4909 10.9875 38.6971 11.7925L40.13 17.3849C40.3362 18.1899 39.9908 19.1395 39.3554 19.5063L34.9674 22.0398C34.332 22.4066 33.6519 22.0491 33.4457 21.2441L32.0128 15.6517C31.8066 14.8467 32.1518 13.8973 32.7871 13.5304L37.1752 10.997Z" fill="#B32F1D"/>
<path d="M27.4027 16.663C28.0381 16.2962 28.7184 16.6536 28.9246 17.4586L30.3575 23.0509C30.5638 23.8559 30.2184 24.8055 29.583 25.1723L25.1949 27.7058C24.5595 28.0726 23.8795 27.7151 23.6732 26.9101L22.2404 21.3177C22.0341 20.5127 22.3793 19.5633 23.0147 19.1965L27.4027 16.663Z" fill="#FF492C"/>
<path d="M17.6313 22.3292C18.2667 21.9623 18.9469 22.3197 19.1532 23.1247L20.586 28.7171C20.7923 29.5221 20.4469 30.4716 19.8115 30.8385L15.4234 33.3719C14.788 33.7388 14.108 33.3813 13.9017 32.5763L12.4689 26.9839C12.2626 26.1789 12.6078 25.2294 13.2432 24.8626L17.6313 22.3292Z" fill="#B32F1D"/>
<path d="M15.6078 37.7278C15.4996 37.7278 15.3948 37.6718 15.3371 37.5716C15.2505 37.4224 15.3016 37.2313 15.4508 37.1447L39.9148 22.9781C40.0663 22.8915 40.256 22.9431 40.3415 23.0921C40.428 23.2413 40.377 23.4324 40.2278 23.519L15.7637 37.6856C15.7143 37.7142 15.6605 37.7278 15.6078 37.7278Z" fill="#2C3640"/>
<path d="M22.3671 37.5401C22.2589 37.5401 22.154 37.484 22.0963 37.3839C22.0098 37.2347 22.0608 37.0435 22.2101 36.957L40.5203 26.3538C40.6718 26.2664 40.8615 26.3194 40.947 26.4678C41.0335 26.617 40.9825 26.8082 40.8332 26.8947L22.523 37.4979C22.4736 37.5265 22.4198 37.5401 22.3671 37.5401Z" fill="#2C3640"/>
<path d="M16.2133 41.1039C16.1051 41.1039 16.0002 41.0478 15.9425 40.9477C15.856 40.7984 15.907 40.6073 16.0563 40.5208L20.6899 37.8375C20.8414 37.7509 21.0311 37.8028 21.1166 37.9515C21.2031 38.1007 21.1521 38.2919 21.0028 38.3784L16.3692 41.0617C16.3198 41.0903 16.266 41.1039 16.2133 41.1039Z" fill="#2C3640"/>
</g>
<defs>
<clipPath id="clip0_1305_27893">
<rect width="50" height="50" fill="white" transform="translate(0.845215 0.839722)"/>
</clipPath>
</defs>
</svg>
